<?xml version="1.0" standalone="no"?>
<!DOCTYPE svg PUBLIC "-//W3C//DTD SVG 1.1//EN" "http://www.w3.org/Graphics/SVG/1.1/DTD/svg11.dtd" >
<svg xmlns="http://www.w3.org/2000/svg" xmlns:xlink="http://www.w3.org/1999/xlink" version="1.1">
<metadata>
Created by FontForge 20170731 at Mon Oct  4 07:40:53 2021
 By Aleksey,,,
Copyright (c) 2013 by Daniel Hernandez. All rights reserved.
</metadata>
<defs>
<font id="SanchezSlab-Light" horiz-adv-x="1132" >
  <font-face 
    font-family="Sanchez Slab Light"
    font-weight="291"
    font-stretch="normal"
    units-per-em="2048"
    panose-1="2 0 0 0 0 0 0 0 0 0"
    ascent="1536"
    descent="-512"
    x-height="1008"
    cap-height="1470"
    bbox="-172 -549 2073 2023"
    underline-thickness="102"
    underline-position="-307"
    unicode-range="U+0020-FB04"
  />
<missing-glyph horiz-adv-x="641" 
 />
    <glyph glyph-name="ff" unicode="ff" horiz-adv-x="1392" 
d="M1272 0h-477v100h145v807h-592v-807h209v-100h-477v100h145v807h-151v101h151v143q0 162 81 246t224 84q111 0 191 -80l-57 -74q-7 7 -18.5 16t-42.5 22t-62 13q-91 0 -142 -57t-51 -172v-141h592v143q0 162 81 246t224 84q24 0 46.5 -4t40.5 -10.5t33.5 -14t28.5 -16.5
t21 -15.5t15 -12.5l8 -7l-58 -74l-6 5q-7 5 -13.5 10t-18.5 12t-24.5 12t-29 8.5t-33.5 3.5q-91 0 -141.5 -57t-50.5 -172v-141h285v-101h-285v-807h209v-100z" />
    <glyph glyph-name="fi" unicode="fi" horiz-adv-x="1275" 
d="M1108 1315q0 -40 -29 -68t-69 -28t-68.5 28t-28.5 68t28.5 69t68.5 29t69 -29t29 -69zM1219 0h-412v100h145v807h-604v-807h207v-100h-475v100h145v807h-151v101h151v143q0 162 81 246t224 84q40 0 76.5 -10.5t61.5 -26.5t36 -24.5t19 -16.5l-59 -76q-7 7 -18.5 16
t-42.5 22t-62 13q-91 0 -142 -57t-51 -172v-141h727v-908h144v-100z" />
    <glyph glyph-name="fl" unicode="fl" horiz-adv-x="1282" 
d="M555 0h-475v100h145v807h-151v101h151v143q0 162 81 246t224 84q111 0 191 -80l-57 -74q-7 7 -18.5 16t-42.5 22t-62 13q-91 0 -142 -57t-51 -172v-141h285v-101h-285v-807h207v-100zM1214 0h-411v100h147v1270h-137v100h258v-1370h143v-100z" />
    <glyph glyph-name="ffi" unicode="ffi" horiz-adv-x="1990" 
d="M1933 0h-409v100h143v807h-604v-807h209v-100h-477v100h145v807h-592v-807h207v-100h-475v100h145v807h-151v101h151v143q0 162 81 246t224 84q111 0 191 -80l-57 -74q-6 6 -18.5 15.5t-43.5 22.5t-61 13q-91 0 -142 -57t-51 -172v-141h592v143q0 162 81 246t224 84
q20 0 40 -3t36 -8t32 -12t27 -13.5t22 -14.5t17 -13t13 -11l6 -5l-58 -74l-6 5q-7 5 -13.5 10t-18.5 12t-24.5 12t-29 8.5t-33.5 3.5q-91 0 -141.5 -57t-50.5 -172v-141h727v-908h143v-100zM1821 1315q0 -40 -28.5 -68t-68.5 -28t-68 28t-28 68t28 69t68 29t68.5 -29
t28.5 -69z" />
    <glyph glyph-name="ffl" unicode="ffl" horiz-adv-x="1998" 
d="M1272 0h-477v100h145v807h-592v-807h207v-100h-475v100h145v807h-151v101h151v143q0 162 81 246t224 84q111 0 191 -80l-57 -74q-6 6 -18.5 15.5t-43.5 22.5t-61 13q-91 0 -142 -57t-51 -172v-141h592v143q0 162 81 246t224 84q20 0 40 -3t36 -8t32 -12t27 -13.5
t22 -14.5t17 -13t13 -11l6 -5l-58 -74l-6 5q-7 5 -13.5 10t-18.5 12t-24.5 12t-29 8.5t-33.5 3.5q-91 0 -141.5 -57t-50.5 -172v-141h285v-101h-285v-807h209v-100zM1929 0h-411v100h145v1270h-135v100h258v-1370h143v-100z" />
    <glyph glyph-name=".notdef" horiz-adv-x="641" 
 />
    <glyph glyph-name=".notdef" horiz-adv-x="641" 
 />
    <glyph glyph-name=".null" horiz-adv-x="0" 
 />
    <glyph glyph-name="nonmarkingreturn" horiz-adv-x="682" 
 />
    <glyph glyph-name="space" unicode=" " horiz-adv-x="512" 
 />
    <glyph glyph-name="exclam" unicode="!" horiz-adv-x="536" 
d="M322 303h-105l-16 1253h137zM356 31q0 -36 -25 -61t-61 -25q-37 0 -61.5 24.5t-24.5 61.5t24.5 61.5t61.5 24.5q36 0 61 -25t25 -61z" />
    <glyph glyph-name="quotedbl" unicode="&#x22;" horiz-adv-x="604" 
d="M229 1167h-94l-6 369h109zM469 1167h-94l-6 369h108z" />
    <glyph glyph-name="numbersign" unicode="#" horiz-adv-x="1236" 
d="M1042 240h-231l-74 -254h-116l73 254h-295l-71 -254h-117l72 254h-203v98h231l82 287h-198v100h227l78 264h116l-77 -264h297l75 264h115l-76 -264h205v-100h-235l-82 -287h204v-98zM723 338l82 287h-295l-84 -287h297z" />
    <glyph glyph-name="dollar" unicode="$" horiz-adv-x="1337" 
d="M752 -174h-121v170q-262 28 -406 254h-4l4 -187h-121v418h127v-35q0 -10 8 -31.5t26 -53t44 -65.5t66 -68.5t87.5 -61t112.5 -43.5t138 -17q183 0 285 74t102 211q0 63 -32.5 110.5t-87 77t-125.5 52.5t-149.5 42.5t-157 40.5t-149.5 52.5t-125.5 73.5t-87 108t-32.5 152
q0 162 122.5 270.5t333.5 112.5v166h121v-179q214 -21 311 -159l-2 114h123v-399h-127v64q-2 28 -15 61t-43.5 71t-74 68.5t-114 51t-156.5 20.5q-154 0 -248 -74t-94 -188q0 -66 32.5 -116t88 -81.5t127 -56t150.5 -44t158 -40.5t150.5 -51t127 -69.5t88 -102.5t32.5 -144
q0 -176 -122.5 -289.5t-370.5 -119.5v-160z" />
    <glyph glyph-name="percent" unicode="%" horiz-adv-x="1468" 
d="M360 735q-137 0 -212.5 105.5t-75.5 273.5q0 159 76 264t212 105t212.5 -105t76.5 -264q0 -168 -76 -273.5t-213 -105.5zM360 823q91 0 142 75.5t51 211.5t-51 209.5t-142 73.5q-90 0 -141 -74.5t-51 -208.5q0 -135 50.5 -211t141.5 -76zM1104 -14q-137 0 -212 105
t-75 274q0 159 76 263.5t211 104.5q136 0 212.5 -104.5t76.5 -263.5q0 -168 -76 -273.5t-213 -105.5zM1104 74q91 0 142.5 75t51.5 211t-51.5 209.5t-142.5 73.5q-90 0 -141.5 -74.5t-51.5 -208.5q0 -135 51 -210.5t142 -75.5zM508 -152h-96l514 1708h98z" />
    <glyph glyph-name="ampersand" unicode="&#x26;" horiz-adv-x="1374" 
d="M1266 0h-219l-103 147q-141 -161 -379 -161q-120 0 -213.5 38.5t-147 100.5t-80 131.5t-26.5 140.5q0 80 25.5 148t60.5 111.5t88.5 82.5t91 58t87.5 39q-136 164 -136 323q0 103 46 178t119 110.5t161 35.5q55 0 108.5 -17t101.5 -51.5t77.5 -97t29.5 -143.5
q0 -45 -10.5 -85.5t-26 -71.5t-42.5 -60.5t-51 -50t-60.5 -43t-63 -36t-65.5 -32.5l307 -437q65 127 62 365h292v-111h-172q-4 -197 -104 -366l94 -135h148v-111zM877 240l-355 499q-40 -16 -69 -30t-75.5 -45t-76 -65t-52 -88t-22.5 -116q0 -92 48.5 -160.5t124.5 -102.5
t167 -34q204 0 310 142zM571 889q112 48 152 75q113 76 113 207q0 83 -51 142t-140 59q-92 0 -148.5 -56.5t-56.5 -154.5q0 -24 4 -47.5t14.5 -47.5t18 -40.5t25 -42t23 -34t25.5 -34t21 -26.5z" />
    <glyph glyph-name="quotesingle" unicode="'" horiz-adv-x="364" 
d="M229 1167h-94l-8 369h111z" />
    <glyph glyph-name="parenleft" unicode="(" horiz-adv-x="819" 
d="M772 -18v-113h-24q-94 0 -185 32t-174.5 100.5t-146.5 166t-100.5 240t-37.5 311.5q0 168 37.5 309.5t100.5 239.5t146.5 166.5t174.5 100.5t185 32h24v-115h-24q-70 0 -141 -27t-139.5 -86t-121 -143t-85 -209.5t-32.5 -273.5q0 -152 33 -277.5t86 -208t122 -139
t139 -81.5t139 -25h24z" />
    <glyph glyph-name="parenright" unicode=")" horiz-adv-x="819" 
d="M47 -133v113h25q70 0 140 25t138.5 81.5t121.5 139t85.5 208t32.5 277.5q0 148 -32 273.5t-84.5 209.5t-120.5 143t-139 86t-142 27h-25v115h25q94 0 185 -32t174.5 -100.5t147 -166.5t101 -239.5t37.5 -309.5q0 -169 -37.5 -311.5t-101 -240t-147 -166t-174.5 -100.5
t-185 -32h-25z" />
    <glyph glyph-name="asterisk" unicode="*" horiz-adv-x="884" 
d="M496 868h-105l19 262l-170 -202l-72 73l205 170l-269 -20v104l269 -24l-205 174l72 74l172 -201l-21 262h105l-19 -264l168 203l74 -72l-207 -178l268 28v-104l-260 18l197 -167l-72 -74l-172 196z" />
    <glyph glyph-name="plus" unicode="+" horiz-adv-x="1005" 
d="M569 145h-120v363h-359v115h359v374h120v-374h346v-115h-346v-363z" />
    <glyph glyph-name="comma" unicode="," horiz-adv-x="458" 
d="M162 -190v49h12q32 0 58 28.5t26 87.5l-4 23q-10 -12 -41 -12q-29 0 -50.5 22.5t-21.5 57.5t24 58t58 23q48 0 74.5 -34t26.5 -97q0 -108 -44 -157t-106 -49h-12z" />
    <glyph glyph-name="hyphen" unicode="-" horiz-adv-x="964" 
d="M819 473h-672v115h672v-115z" />
    <glyph glyph-name="period" unicode="." horiz-adv-x="442" 
d="M305 68q0 -35 -24.5 -58.5t-59.5 -23.5q-34 0 -58 23.5t-24 58.5t24 58.5t58 23.5q35 0 59.5 -23.5t24.5 -58.5z" />
    <glyph glyph-name="slash" unicode="/" horiz-adv-x="796" 
d="M203 -152h-127l516 1708h127z" />
    <glyph glyph-name="zero" unicode="0" horiz-adv-x="1390" 
d="M694 -14q-184 0 -315.5 99.5t-195.5 268.5t-64 389q0 154 37.5 288t108 235t181 159t248.5 58q182 0 315 -101t198 -266.5t65 -372.5q0 -163 -38 -300.5t-109.5 -239.5t-182 -159.5t-248.5 -57.5zM694 104q207 0 326 166.5t119 466.5q0 289 -122 458t-323 169
q-202 0 -322 -168.5t-120 -458.5q0 -299 117.5 -466t324.5 -167z" />
    <glyph glyph-name="one" unicode="1" horiz-adv-x="937" 
d="M918 0h-820v111h365v1222l-322 -233l-61 90l383 280h129v-1359h326v-111z" />
    <glyph glyph-name="two" unicode="2" horiz-adv-x="1263" 
d="M1143 0h-1037v66q0 96 30.5 176.5t82 138t118.5 106.5t141 87.5t147.5 75.5t140.5 77t118.5 85t82 106.5t30.5 134.5q0 127 -99.5 219t-254.5 92q-189 0 -287 -92t-98 -232v-22h-133v22q0 65 17.5 126.5t57.5 119.5t98.5 101.5t147 69.5t197.5 26q111 0 203.5 -35
t153 -94t93.5 -135.5t33 -161.5q0 -86 -30 -159t-81 -126.5t-117 -100.5t-139 -85.5t-146.5 -76t-140.5 -78.5t-119 -85.5t-83.5 -104.5t-33.5 -130h782v174h125v-285z" />
    <glyph glyph-name="three" unicode="3" horiz-adv-x="1216" 
d="M782 784v-2q27 0 63.5 -10t81.5 -37.5t82 -67.5t62 -107t25 -150q0 -193 -146 -308.5t-383 -115.5q-82 0 -156 18t-123.5 44.5t-92.5 59.5t-65.5 59t-39.5 48.5t-18 22.5l88 81q11 -10 33.5 -35t42.5 -46t54.5 -47t71 -44t90.5 -30.5t115 -12.5q185 0 292.5 86.5
t107.5 229.5q0 152 -102.5 226.5t-291.5 74.5h-94v108h86q40 0 81.5 5.5t91.5 23t88 45.5t63.5 77.5t25.5 113.5q0 55 -19.5 102t-58.5 85.5t-105 60.5t-152 22q-80 0 -142 -24.5t-96 -64t-51 -83t-17 -88.5v-23h-127v23q0 170 121.5 274.5t311.5 104.5q120 0 212.5 -35
t145.5 -92t79.5 -123t26.5 -135q0 -59 -21 -112.5t-53 -89t-68.5 -62t-68 -38.5t-51.5 -12z" />
    <glyph glyph-name="four" unicode="4" horiz-adv-x="1200" 
d="M1110 0h-575v111h239v356h-733v113l721 890h139v-897h191v-106h-191v-356h209v-111zM774 571v744l-600 -744h600z" />
    <glyph glyph-name="five" unicode="5" horiz-adv-x="1206" 
d="M582 -14q-55 0 -107 8t-93 22.5t-78 32t-66 38.5t-52 40t-41 39.5t-29 34t-20 25.5l-8 12l88 84q8 -8 31.5 -36t42 -47.5t54 -47t71.5 -45t91 -30t116 -12.5q186 0 289.5 95.5t103.5 273.5q0 161 -107 258.5t-282 97.5q-30 0 -60 -2t-62 -7t-54 -9t-55 -12t-44.5 -11
t-44 -12.5t-33.5 -9.5h-55v707h834v-281h-123v168h-582v-465l17 5q17 6 42.5 12.5t60 13.5t81.5 11.5t96 4.5q236 0 368 -129t132 -346q0 -224 -142.5 -352.5t-379.5 -128.5z" />
    <glyph glyph-name="six" unicode="6" horiz-adv-x="1296" 
d="M692 940q235 0 366.5 -128.5t131.5 -344.5q0 -212 -142.5 -346.5t-375.5 -134.5q-108 0 -198 36t-154.5 101t-109 156t-66 201.5t-21.5 236.5q0 169 33.5 306.5t101.5 241.5t179.5 161t258.5 57q188 0 309 -103.5t121 -265.5v-24h-125v24q0 32 -10 65t-33 67t-57 59.5
t-87 42t-118 16.5q-199 0 -309 -143t-129 -400q177 119 434 119zM670 104q181 0 286 102t105 265q0 161 -106 257.5t-281 96.5q-84 0 -161 -16.5t-130 -41.5t-81.5 -42.5t-45.5 -32.5q5 -277 111.5 -432.5t302.5 -155.5z" />
    <glyph glyph-name="seven" unicode="7" horiz-adv-x="1114" 
d="M559 0h-129q0 195 27.5 351t72 256.5t98.5 180.5t108 141.5t98.5 121t73.5 137.5t30 172h-766v-180h-125v290h1030v-67q0 -111 -29 -202t-74.5 -158t-101 -133t-110.5 -146t-100.5 -178t-74 -248.5t-28.5 -337.5z" />
    <glyph glyph-name="eight" unicode="8" horiz-adv-x="1302" 
d="M872 793v-2q27 0 63.5 -11t81.5 -39.5t82 -69.5t62 -109t25 -150q0 -193 -145 -309.5t-388 -116.5q-245 0 -390.5 116.5t-145.5 309.5q0 82 25 150t62.5 109t82 69.5t81 39.5t62.5 11v2q-20 0 -51 11.5t-67 37.5t-67 60.5t-52 87.5t-21 112q0 55 16 107t53 102t91 87.5
t136 60.5t183 24q101 0 183.5 -23t136.5 -60.5t90.5 -87.5t52.5 -102.5t16 -107.5q0 -59 -21 -112t-52 -87.5t-67 -60.5t-67 -37.5t-51 -11.5zM678 725h-55q-182 0 -279.5 -77t-97.5 -226q0 -146 107.5 -232t297.5 -86t298 86t108 232q0 148 -98.5 225.5t-280.5 77.5z
M1001 1094q0 115 -90 192.5t-260 77.5q-114 -1 -194.5 -39.5t-117 -97.5t-36.5 -133q0 -64 25 -113.5t62 -77t86 -44.5t89.5 -22.5t81.5 -5.5q44 0 86.5 5.5t93 22.5t87.5 44.5t62 77t25 113.5z" />
    <glyph glyph-name="nine" unicode="9" horiz-adv-x="1290" 
d="M600 528q-235 0 -366.5 128.5t-131.5 344.5q0 212 143 347t376 135q134 0 239.5 -55t172.5 -154t101.5 -231t34.5 -291q0 -170 -33 -307t-100.5 -241t-179 -161t-260.5 -57q-188 0 -309 103t-121 265v25h125v-25q0 -32 10 -65t33 -67t57 -59.5t87 -42t118 -16.5
q198 0 308 143.5t128 399.5q-61 -45 -171.5 -82t-260.5 -37zM623 1364q-181 0 -286.5 -102t-105.5 -265q0 -161 106 -257.5t281 -96.5q83 0 159 16t129 40.5t82 42t48 32.5q-5 278 -111.5 434t-301.5 156z" />
    <glyph glyph-name="colon" unicode=":" horiz-adv-x="458" 
d="M313 68q0 -35 -24.5 -58.5t-59.5 -23.5t-58.5 23.5t-23.5 58.5t23.5 58.5t58.5 23.5t59.5 -23.5t24.5 -58.5zM313 915q0 -34 -24.5 -57.5t-59.5 -23.5t-58.5 23.5t-23.5 57.5q0 35 23.5 59.5t58.5 24.5t59.5 -24.5t24.5 -59.5z" />
    <glyph glyph-name="semicolon" unicode=";" horiz-adv-x="489" 
d="M324 915q0 -34 -24.5 -57.5t-59.5 -23.5t-58.5 23.5t-23.5 57.5q0 35 23.5 59.5t58.5 24.5t59.5 -24.5t24.5 -59.5zM174 -184v37q0 6 12 6q33 0 58.5 28.5t25.5 87.5l-4 23q-10 -12 -39 -12q-30 0 -50.5 22t-20.5 58q0 35 23.5 58t58.5 23q46 0 72 -34t26 -97
q0 -107 -43.5 -155.5t-106.5 -48.5q-12 0 -12 4z" />
    <glyph glyph-name="less" unicode="&#x3c;" horiz-adv-x="964" 
d="M811 133l-723 348v74l723 350v-112l-573 -275l573 -274v-111z" />
    <glyph glyph-name="equal" unicode="=" horiz-adv-x="993" 
d="M836 707h-678v116h678v-116zM836 223h-678v115h678v-115z" />
    <glyph glyph-name="greater" unicode="&#x3e;" horiz-adv-x="966" 
d="M879 481l-723 -348v111l571 274l-571 275v112l723 -350v-74z" />
    <glyph glyph-name="question" unicode="?" horiz-adv-x="1052" 
d="M532 264h-122v23q0 93 23.5 172.5t61 135t82.5 104t90 90.5t82.5 83t61 93t23.5 110q0 129 -82 209t-228 80q-164 0 -242.5 -100t-80.5 -265v-22h-129v22q0 72 13 137.5t45.5 130t82.5 111.5t130 76t181 29q205 0 323 -113.5t118 -292.5q0 -75 -24 -139t-62 -110.5
t-84.5 -90t-92.5 -88.5t-84 -94t-62 -118t-24 -150v-23zM565 33q0 -37 -26.5 -62.5t-63.5 -25.5t-62.5 25.5t-25.5 62.5q0 38 25.5 64t62.5 26t63.5 -26t26.5 -64z" />
    <glyph glyph-name="at" unicode="@" horiz-adv-x="1636" 
d="M1268 -63l41 -91q-7 -4 -21 -11t-61 -25t-99 -32t-134 -25t-167 -11q-202 0 -366.5 95.5t-258 262.5t-93.5 371q0 163 63 312.5t169 258t252 173.5t304 65q154 0 280 -47.5t207.5 -129.5t125.5 -189.5t44 -229.5q0 -132 -39.5 -238t-106.5 -172t-151.5 -100.5
t-179.5 -34.5q-47 0 -66.5 16.5t-13.5 61.5l7 55q-3 -6 -8.5 -15t-26 -33t-44.5 -42.5t-62.5 -33.5t-80.5 -15q-57 0 -108.5 19t-96 58t-70.5 108.5t-26 162.5q0 96 33 177.5t88.5 136t127.5 84.5t151 30q138 0 188 -98l14 78h95l-84 -658h45q55 0 108.5 28.5t99 82.5
t73.5 142.5t28 197.5q0 218 -151.5 353.5t-399.5 135.5q-139 0 -265.5 -58.5t-215 -154.5t-141 -224t-52.5 -263q0 -131 47 -246.5t127.5 -196.5t192 -128t237.5 -47q83 0 158.5 8.5t125 21t86.5 25t54 20.5zM1026 451l29 219q-3 15 -8.5 30.5t-19 37.5t-32 38.5t-49 28.5
t-67.5 12q-115 0 -206 -92.5t-91 -239.5q0 -69 18.5 -120.5t50.5 -80t69 -42t79 -13.5q61 0 113.5 40t80.5 89.5t33 92.5z" />
    <glyph glyph-name="A" unicode="A" horiz-adv-x="1462" 
d="M1495 0h-465v111h170l-153 409h-619l-154 -409h170v-111h-462v111h163l469 1249h-125v110h328l514 -1359h164v-111zM1006 631l-265 704h-10l-260 -704h535z" />
    <glyph glyph-name="B" unicode="B" horiz-adv-x="1370" 
d="M764 0h-668v111h187v1249h-187v110h668q206 0 315 -106t109 -279q0 -105 -50.5 -186t-142.5 -127q149 -39 211 -130t62 -224q0 -88 -30 -162.5t-90 -132t-158.5 -90.5t-225.5 -33zM410 111h344q86 0 154.5 17.5t120.5 54.5t80 98.5t28 144.5q0 143 -95 213t-272 70h-360
v-598zM410 813h358q40 1 79.5 9.5t78 29t67 49.5t46.5 74t18 100q0 66 -19 117.5t-50 82t-73 50.5t-84 27.5t-88 7.5h-333v-547z" />
    <glyph glyph-name="C" unicode="C" horiz-adv-x="1521" 
d="M1339 399l97 -61q-16 -32 -39 -66t-78 -89t-121 -95.5t-172.5 -71t-228.5 -30.5q-143 0 -269 54.5t-217.5 152t-144.5 240t-53 310.5q0 134 36 252.5t100 206.5t149.5 152t187 96.5t209.5 32.5q101 0 186 -23.5t142 -63t92.5 -75.5t60.5 -76v225h121v-475h-129v43
q0 46 -35.5 101.5t-94.5 106t-150.5 84.5t-190.5 34q-78 0 -155 -23t-149 -73.5t-126.5 -122.5t-87.5 -177.5t-33 -230.5t32 -230.5t86 -178.5t126 -124.5t151 -75.5t162 -24q96 0 179.5 22t138.5 53.5t102.5 75t71 76t44.5 68.5z" />
    <glyph glyph-name="D" unicode="D" horiz-adv-x="1511" 
d="M410 111h243q300 0 456.5 161.5t156.5 466.5q0 142 -38 255.5t-113 195.5t-192 126t-270 44h-243v-1249zM678 0h-582v111h187v1249h-187v110h566q349 0 543 -193t194 -534q0 -349 -188.5 -546t-532.5 -197z" />
    <glyph glyph-name="E" unicode="E" horiz-adv-x="1325" 
d="M1210 0h-1114v111h187v1249h-187v110h1114v-337h-123v227h-677v-572h598v-110h-598v-567h675v225h125v-336z" />
    <glyph glyph-name="F" unicode="F" horiz-adv-x="1218" 
d="M659 0h-563v111h187v1249h-187v110h1069v-337h-125v227h-630v-572h551v-110h-551v-567h249v-111z" />
    <glyph glyph-name="G" unicode="G" horiz-adv-x="1566" 
d="M1425 0h-118v178q-183 -192 -500 -192q-148 0 -276 54.5t-220 152t-145 240t-53 310.5q0 137 38 256.5t104 207t153.5 150.5t188.5 94.5t208 31.5q100 0 183.5 -19.5t139 -53t90 -65t58.5 -67.5v192h121v-442h-129v49q0 44 -34 94t-92.5 93t-147 71.5t-185.5 28.5
q-84 0 -165.5 -27.5t-153 -81.5t-126.5 -128.5t-86.5 -175.5t-31.5 -214q0 -122 32.5 -226.5t87 -178t127 -126t153.5 -77.5t165 -25q96 0 179.5 20t142 54t99 70t68.5 76v208h-415v111h540v-643z" />
    <glyph glyph-name="H" unicode="H" horiz-adv-x="1658" 
d="M1563 0h-502v111h186v567h-837v-567h188v-111h-502v111h187v1249h-187v110h502v-110h-188v-572h837v572h-186v110h502v-110h-189v-1249h189v-111z" />
    <glyph glyph-name="I" unicode="I" horiz-adv-x="694" 
d="M598 0h-502v111h187v1249h-187v110h502v-110h-188v-1249h188v-111z" />
    <glyph glyph-name="J" unicode="J" horiz-adv-x="897" 
d="M516 510v850h-186v110h506v-110h-193v-830q0 -146 -33 -247.5t-103.5 -164t-172.5 -90.5t-246 -28h-25v111h25q122 0 205 24t132 75.5t70 123.5t21 176z" />
    <glyph glyph-name="K" unicode="K" horiz-adv-x="1476" 
d="M1436 0h-236l-252 500q-13 25 -17.5 33.5t-23 29.5t-38 29.5t-56 17t-84.5 8.5h-319v-507h215v-111h-529v111h187v1249h-187v110h473v-110h-159v-635h264q88 0 154.5 17.5t123 61t92 115t55.5 182t21 259.5h-166v110h457v-110h-166q-3 -539 -301 -682q12 -5 22.5 -11.5
t18.5 -12t17 -15t14.5 -14t14 -17t11.5 -17t11.5 -19.5t10.5 -19t11.5 -22t11.5 -21l203 -399h146v-111z" />
    <glyph glyph-name="L" unicode="L" horiz-adv-x="1308" 
d="M1272 0h-1176v111h187v1249h-187v110h502v-110h-188v-1249h739v225h123v-336z" />
    <glyph glyph-name="M" unicode="M" horiz-adv-x="1849" 
d="M1755 0h-495v111h178v1185h-2l-455 -1142h-113l-454 1142h-4v-1185h180v-111h-494v111h187v1249h-187v110h381l352 -876l93 -260h6q63 172 96 254l348 882h383v-110h-188v-1249h188v-111z" />
    <glyph glyph-name="N" unicode="N" horiz-adv-x="1638" 
d="M1372 0h-151l-697 1083q-29 45 -56.5 93.5t-40.5 73.5l-13 26h-4v-1165h190v-111h-504v111h187v1247h-187v112h328l700 -1079q31 -48 61 -99.5t44 -78.5l14 -27h2v1174h-186v110h504v-110h-191v-1360z" />
    <glyph glyph-name="O" unicode="O" horiz-adv-x="1626" 
d="M815 -14q-148 0 -277.5 55t-223.5 153t-148.5 240t-54.5 309q0 135 37 253t103 206t154 152t193 96.5t217 32.5q141 0 268 -52t224 -145t154 -234.5t57 -308.5t-54 -309.5t-148 -240t-223.5 -152.5t-277.5 -55zM815 104q83 0 163.5 24.5t153.5 76t128.5 125t88.5 178.5
t33 229t-34.5 229.5t-91.5 177.5t-131 122.5t-152.5 74t-157.5 23.5q-100 0 -197.5 -38.5t-182 -112.5t-137 -198t-52.5 -278q0 -124 33 -229t89 -178.5t129.5 -125t154 -76t163.5 -24.5z" />
    <glyph glyph-name="P" unicode="P" horiz-adv-x="1277" 
d="M643 0h-547v111h187v1249h-187v110h635q139 0 248 -50.5t174.5 -154t65.5 -245.5q0 -213 -132.5 -327.5t-377.5 -114.5h-299v-467h233v-111zM410 688h297q378 0 378 330q0 90 -31 157.5t-84.5 107t-119.5 58.5t-143 19h-297v-672z" />
    <glyph glyph-name="Q" unicode="Q" horiz-adv-x="1626" 
d="M1479 -33l32 -100l-12 -6q-12 -6 -26 -12.5t-39 -15t-51.5 -15t-63 -11t-74.5 -4.5q-72 0 -141 11t-121 28t-98 37.5t-78 41.5t-54.5 38t-33.5 28t-10 11q-262 34 -430 238t-168 507q0 135 37 253t103 206t154 152t193 96.5t217 32.5q141 0 268 -52t224 -145t154 -234.5
t57 -308.5q0 -157 -48 -293t-132.5 -232.5t-201 -156t-251.5 -71.5q1 0 9 -4t17.5 -8t25 -10.5t33 -12t40 -12t48.5 -11.5t54.5 -9t62 -6.5t68.5 -2.5q55 0 107.5 11t70 18t58.5 24zM815 104q83 0 163.5 24.5t153.5 76t128.5 125t88.5 178.5t33 229t-34.5 229.5t-91.5 177.5
t-131 122.5t-152.5 74t-157.5 23.5q-100 0 -197.5 -38.5t-182 -112.5t-137 -198t-52.5 -278q0 -124 33 -229t89 -178.5t129.5 -125t154 -76t163.5 -24.5z" />
    <glyph glyph-name="R" unicode="R" horiz-adv-x="1400" 
d="M1333 0h-237l-250 506q-28 58 -53.5 82.5t-75.5 25.5h-307v-503h215v-111h-529v111h187v1249h-187v110h637q104 0 191 -26.5t153.5 -78t104 -134.5t37.5 -189q0 -166 -82 -268.5t-240 -136.5q27 -20 48.5 -53.5t53.5 -96.5l191 -376h143v-111zM410 721h295
q183 0 282.5 72.5t99.5 244.5q0 72 -20.5 128.5t-55.5 92.5t-85 59t-104 32.5t-117 9.5h-295v-639z" />
    <glyph glyph-name="S" unicode="S" horiz-adv-x="1359" 
d="M242 0h-121v512h127v-61q0 -16 15.5 -52t53 -87t90.5 -96.5t139 -77.5t187 -32q187 0 291 73.5t104 209.5q0 79 -53 134t-137.5 85.5t-186.5 55t-204 55t-186.5 73t-137.5 121t-53 187.5q0 165 128 274t345 109q288 0 416 -172v164h121v-474h-127v89q0 27 -12.5 60.5
t-43 71.5t-74.5 68.5t-115 51t-157 20.5q-157 0 -252.5 -74t-95.5 -188q0 -64 33 -112.5t88.5 -79.5t127 -55t151 -44t159.5 -41.5t151.5 -52.5t127 -71.5t88.5 -103.5t33 -145q0 -85 -30 -157.5t-91 -129.5t-162 -89.5t-234 -32.5q-102 0 -189.5 25.5t-147.5 68.5t-98.5 85
t-67.5 89v-254z" />
    <glyph glyph-name="T" unicode="T" horiz-adv-x="1351" 
d="M913 0h-487v111h186v1249h-448v-227h-123v337h1270v-337h-123v227h-449v-1249h174v-111z" />
    <glyph glyph-name="U" unicode="U" horiz-adv-x="1574" 
d="M1198 535v825h-186v110h504v-110h-189v-807q0 -279 -139 -423t-400 -144q-262 0 -402 144t-140 423v807h-187v110h504v-110h-188v-813q0 -81 12.5 -147t42.5 -122t77 -94t118 -59t163 -21q410 0 410 431z" />
    <glyph glyph-name="V" unicode="V" horiz-adv-x="1462" 
d="M815 0h-168l-518 1360h-160v110h467v-110h-172l463 -1223h10l461 1223h-170v110h467v-110h-164z" />
    <glyph glyph-name="W" unicode="W" horiz-adv-x="2025" 
d="M1466 0h-180l-272 1202h-6l-269 -1202h-180l-420 1360h-159v110h466v-110h-172l367 -1223h10l299 1333h123l299 -1333h10l369 1223h-172v110h467v-110h-160z" />
    <glyph glyph-name="X" unicode="X" horiz-adv-x="1513" 
d="M1470 0h-505v111h165l-378 524l-385 -524h172v-111h-506v111h184l467 620l-473 629h-178v110h508v-110h-179l394 -524l389 526h-162v108h506v-108h-193l-471 -625l457 -626h188v-111z" />
    <glyph glyph-name="Y" unicode="Y" horiz-adv-x="1286" 
d="M897 0h-508v111h191v487l-433 762h-161v110h469v-110h-166l354 -643h8l350 643h-167v110h469v-110h-164l-432 -764v-485h190v-111z" />
    <glyph glyph-name="Z" unicode="Z" horiz-adv-x="1282" 
d="M1182 0h-1084v90l918 1270h-793v-186h-125v296h1084v-88l-916 -1271h793v186h123v-297z" />
    <glyph glyph-name="bracketleft" unicode="[" horiz-adv-x="673" 
d="M621 -145h-414v1714h414v-119h-289v-1477h289v-118z" />
    <glyph glyph-name="backslash" unicode="\" horiz-adv-x="796" 
d="M203 1556l516 -1708h-125l-518 1708h127z" />
    <glyph glyph-name="bracketright" unicode="]" horiz-adv-x="673" 
d="M469 -145h-414v118h289v1477h-289v119h414v-1714z" />
    <glyph glyph-name="underscore" unicode="_" horiz-adv-x="1245" 
d="M1100 -162h-955v113h955v-113z" />
    <glyph glyph-name="grave" unicode="`" horiz-adv-x="561" 
d="M492 1247l-66 -76l-360 293l75 88z" />
    <glyph glyph-name="a" unicode="a" 
d="M1096 0h-258v195h-4q-22 -32 -51 -62t-79 -67t-124.5 -59.5t-161.5 -22.5q-143 0 -238.5 75.5t-95.5 204.5q0 316 559 316h186v41q0 162 -78 229.5t-221 67.5q-67 0 -126.5 -12t-96.5 -29t-64 -34.5t-39 -29.5l-11 -12l-66 80l2 3q87 101 273 129q60 9 128 9
q207 0 314.5 -95t107.5 -309v-518h144v-100zM829 307v170h-182q-438 0 -438 -211q0 -75 62 -124.5t169 -49.5q69 0 134.5 22.5t115 59t82 68.5t57.5 65z" />
    <glyph glyph-name="b" unicode="b" horiz-adv-x="1208" 
d="M291 0h-119v1370h-141v100h264v-598l-4 -73h4q42 99 134 161t222 62q206 0 332.5 -142.5t126.5 -369.5q0 -233 -128 -378.5t-333 -145.5q-130 0 -221 64t-135 169h-2v-219zM637 90q152 0 252 116t100 300q0 188 -101 300t-251 112q-145 0 -245.5 -112t-100.5 -300
q0 -186 98.5 -301t247.5 -115z" />
    <glyph glyph-name="c" unicode="c" horiz-adv-x="1126" 
d="M954 283l76 -64q-12 -21 -30 -44.5t-57.5 -59t-86 -62.5t-118 -47t-150.5 -20q-101 0 -190.5 36t-156 102t-105 165.5t-38.5 220.5q0 120 40.5 218.5t108 161.5t153.5 97.5t180 34.5q123 0 206 -45.5t129 -114.5h3v148h96v-383h-105v61q0 47 -37 99t-113 91.5t-169 39.5
q-64 0 -128.5 -27.5t-118.5 -77.5t-88 -130.5t-34 -176.5q0 -97 32.5 -177.5t85.5 -131.5t118.5 -79t134.5 -28q60 0 114.5 14.5t93 35.5t71.5 49t51.5 50.5t31.5 43.5z" />
    <glyph glyph-name="d" unicode="d" horiz-adv-x="1236" 
d="M1178 0h-260v223h-3q-39 -102 -132.5 -169.5t-223.5 -67.5q-205 0 -333 145.5t-128 378.5q0 227 127.5 369.5t333.5 142.5q128 0 219 -61t135 -158h2q-2 37 -2 53v514h-147v100h270v-1370h142v-100zM569 90q150 0 249.5 115t99.5 301q0 188 -101 300t-248 112
q-148 0 -249 -112t-101 -300q0 -184 99.5 -300t250.5 -116z" />
    <glyph glyph-name="e" unicode="e" horiz-adv-x="1116" 
d="M1016 481h-795q3 -96 36.5 -172.5t86.5 -123t116.5 -71t131.5 -24.5q74 0 138.5 20.5t108 53t70 61t43.5 56.5l76 -62q-11 -20 -30 -44t-58 -59.5t-86 -62.5t-117.5 -47t-148.5 -20q-101 0 -190.5 36t-156 102t-105 165.5t-38.5 220.5q0 120 39 218.5t104.5 162t150 97.5
t177.5 34q214 0 332 -137.5t115 -378.5v-25zM225 584h668q-8 149 -92.5 241.5t-229.5 92.5q-131 0 -229.5 -88t-116.5 -246z" />
    <glyph glyph-name="f" unicode="f" horiz-adv-x="677" 
d="M555 0h-475v100h145v807h-151v101h151v143q0 162 81 246t224 84q111 0 191 -80l-57 -74q-6 6 -18.5 15.5t-43.5 22.5t-61 13q-91 0 -142 -57t-51 -172v-141h285v-101h-285v-807h207v-100z" />
    <glyph glyph-name="g" unicode="g" horiz-adv-x="1228" 
d="M565 -477q-46 0 -89.5 4.5t-77.5 13t-64.5 19t-54 22.5t-42.5 23t-33 22.5t-23 19.5t-15 15l-6 6l61 82l8 -8q8 -7 17 -14.5t26.5 -19.5t36.5 -22.5t47 -21.5t58 -19t69.5 -13t81.5 -5q58 0 108 10.5t94.5 35t76.5 61.5t50.5 92.5t18.5 124.5v270q-47 -104 -137 -169.5
t-219 -65.5q-205 0 -332 146.5t-127 375.5q0 230 128 372t333 142q127 0 218.5 -62.5t137.5 -160.5h5l-5 209h259v-101h-142v-956q0 -109 -35 -192t-98.5 -134t-147.5 -76.5t-186 -25.5zM569 90q150 0 249.5 114.5t99.5 301.5q0 189 -100.5 300.5t-248.5 111.5
q-149 0 -249.5 -113t-100.5 -301q0 -184 99.5 -299t250.5 -115z" />
    <glyph glyph-name="h" unicode="h" horiz-adv-x="1202" 
d="M1157 0h-268v647q0 127 -65.5 197.5t-184.5 70.5q-49 0 -93 -11t-75 -28t-57 -38t-42 -41.5t-27.5 -38t-16.5 -27.5l-4 -10v-621h141v-100h-408v100h144v1270h-144v100h267v-499q0 -91 -7 -119h5q17 27 40.5 52t63.5 54t100 46.5t131 17.5q165 0 260 -95.5t95 -258.5
v-568h145v-100z" />
    <glyph glyph-name="i" unicode="i" horiz-adv-x="544" 
d="M379 1315q0 -39 -28.5 -67.5t-67.5 -28.5q-41 0 -69 28t-28 68t28 69t69 29q38 0 67 -29t29 -69zM485 0h-409v100h145v807h-145v101h268v-908h141v-100z" />
    <glyph glyph-name="j" unicode="j" horiz-adv-x="501" 
d="M203 -145v1052h-144v101h267v-1155q0 -162 -81.5 -246t-224.5 -84q-51 0 -99 20t-64.5 33t-28.5 25l57 75l7 -5q6 -5 13 -10t19 -12t24.5 -12t29 -8.5t32.5 -3.5q91 0 142 57.5t51 172.5zM360 1315q0 -39 -28.5 -67.5t-67.5 -28.5q-41 0 -68.5 28t-27.5 68t27.5 69
t68.5 29q38 0 67 -29t29 -69z" />
    <glyph glyph-name="k" unicode="k" horiz-adv-x="1179" 
d="M1151 0h-168l-432 584l-227 -211v-273h141v-100h-408v100h144v1270h-144v100h267v-956l421 393h-100v101h410v-101h-150l-270 -243l418 -564h98v-100z" />
    <glyph glyph-name="l" unicode="l" horiz-adv-x="544" 
d="M475 0h-409v100h145v1270h-145v100h268v-1370h141v-100z" />
    <glyph glyph-name="m" unicode="m" horiz-adv-x="1875" 
d="M1827 0h-266v647q0 127 -66 199t-186 72q-176 0 -289 -154q14 -58 14 -102v-562h144v-100h-408v100h141v547q0 128 -64.5 199.5t-184.5 71.5q-176 0 -277 -135q-18 -25 -37 -62v-621h137v-100h-405v100h145v807h-145v101h258l-2 -166h4q12 20 26.5 38.5t45 46t65.5 47
t90 34t117 14.5q109 0 189 -45t120 -127q17 27 40 51.5t63 54.5t101 48t134 18q165 0 258.5 -95t93.5 -259v-568h144v-100z" />
    <glyph glyph-name="n" unicode="n" horiz-adv-x="1226" 
d="M1180 0h-269v647q0 128 -64.5 199.5t-184.5 71.5q-66 0 -122.5 -20.5t-90.5 -49t-58 -57.5t-33 -49l-10 -21v-621h137v-100h-405v100h145v807h-145v101h258l-2 -166h4q12 20 26.5 38.5t45 46t65.5 47t89 34t116 14.5q165 0 258.5 -95t93.5 -259v-568h146v-100z" />
    <glyph glyph-name="o" unicode="o" horiz-adv-x="1196" 
d="M598 -14q-103 0 -194.5 36.5t-159 103t-107 166t-39.5 218.5q0 118 40 216t108.5 162t159 99t192.5 35q138 0 251.5 -60.5t182 -178.5t68.5 -273q0 -118 -39 -217t-106.5 -166t-159.5 -104t-197 -37zM598 90q157 0 267 114.5t110 301.5q0 94 -31.5 173t-84 130.5t-120 80
t-141.5 28.5q-72 0 -139.5 -28.5t-120.5 -80t-85 -130.5t-32 -173t31 -173.5t83 -132t120 -81.5t143 -29z" />
    <glyph glyph-name="p" unicode="p" horiz-adv-x="1230" 
d="M473 -461h-418v101h142v1267h-142v101h260l-2 -209h2q44 98 137 160.5t222 62.5q205 0 333 -142t128 -372t-127 -376t-334 -146q-128 0 -219 65t-136 166h-4q4 -67 4 -98v-479h154v-101zM662 90q151 0 250.5 115t99.5 299q0 189 -100 301.5t-250 112.5
q-66 0 -126.5 -26.5t-110.5 -77.5t-80 -136.5t-30 -194.5q0 -90 29.5 -165.5t78.5 -124.5t111 -76t128 -27z" />
    <glyph glyph-name="q" unicode="q" horiz-adv-x="1208" 
d="M1178 -461h-420v101h155v491l7 90h-7q-45 -103 -135.5 -169t-218.5 -66q-207 0 -334 146t-127 376q0 231 128 372.5t333 141.5q128 0 219 -62t137 -161h5l-5 209h121v-1368h142v-101zM569 90q150 0 249.5 114.5t99.5 301.5q0 189 -100.5 300.5t-248.5 111.5
q-149 0 -249.5 -112.5t-100.5 -299.5q0 -185 100 -300.5t250 -115.5z" />
    <glyph glyph-name="r" unicode="r" horiz-adv-x="841" 
d="M489 0h-409v100h145v807h-145v101h258v-291h6q1 6 4.5 16.5t17.5 41t33.5 58t56 61.5t81 58.5t112 41t146.5 16.5h24v-113h-55q-100 0 -182 -37t-131.5 -97t-76 -131.5t-26.5 -144.5v-387h141v-100z" />
    <glyph glyph-name="s" unicode="s" horiz-adv-x="997" 
d="M537 -14q-78 0 -141.5 17.5t-101.5 45.5t-59 51t-32 45h-4q4 -143 4 -145h-101l2 352h103v-76q3 -8 8.5 -20.5t30.5 -44.5t57.5 -56.5t91 -44.5t129.5 -20q125 0 189.5 46t64.5 132q0 49 -35.5 83.5t-92 54.5t-125 37.5t-137.5 39t-125.5 51t-92 82t-35.5 123.5
q0 132 96.5 207.5t237.5 75.5q205 0 297 -123h4q-6 107 -6 109h96v-324h-102v57q0 23 -14.5 51t-45 57.5t-88 49t-131.5 19.5q-90 0 -155.5 -46.5t-65.5 -130.5q0 -45 28 -78.5t73.5 -53t103.5 -38t118.5 -32t118.5 -36.5t103.5 -50.5t73.5 -74.5t28 -108q0 -124 -91.5 -204
t-276.5 -80z" />
    <glyph glyph-name="t" unicode="t" horiz-adv-x="690" 
d="M637 141l59 -75q-80 -80 -192 -80q-143 0 -224 84t-81 245v592h-150v101h150v223h123v-223h286v-101h-286v-588q0 -115 51 -173t141 -58q70 0 123 53z" />
    <glyph glyph-name="u" unicode="u" horiz-adv-x="1204" 
d="M1147 0h-260v164h-4q-15 -28 -36 -53.5t-59.5 -56.5t-100.5 -49.5t-138 -18.5q-165 0 -260.5 95.5t-95.5 258.5v567h-146v101h268v-648q0 -127 65.5 -198.5t184.5 -71.5q66 0 123 20.5t91 48.5t58.5 58t34 48.5t9.5 21.5v620h-144v101h264v-908h146v-100z" />
    <glyph glyph-name="v" unicode="v" horiz-adv-x="1157" 
d="M639 0h-125l-364 907h-138v101h391v-101h-120l290 -755h5l301 755h-123v101h391v-101h-141z" />
    <glyph glyph-name="w" unicode="w" horiz-adv-x="1591" 
d="M1133 0h-123l-211 795h-6l-213 -795h-121l-303 907h-140v101h394v-101h-125l233 -755h4l197 755h-119v101h393v-101h-116l194 -755h4l232 755h-123v101h391v-101h-141z" />
    <glyph glyph-name="x" unicode="x" horiz-adv-x="1142" 
d="M1092 0h-404v100h139l-264 332l-260 -332h133v-100h-385v100h117l334 408l-320 399h-129v101h402v-101h-129l262 -329l241 327h-124v103h385v-103h-125l-314 -407l318 -398h123v-100z" />
    <glyph glyph-name="y" unicode="y" horiz-adv-x="1140" 
d="M475 -145l64 174h-37l-357 878h-139v101h387v-101h-119l301 -760h5l272 760h-123v101h391v-101h-141l-393 -1054q-31 -85 -59 -140t-66.5 -101.5t-88.5 -67.5t-116 -21q-113 0 -193 80l60 73q7 -7 18.5 -16t42.5 -22t62 -13q83 0 132 50t97 180z" />
    <glyph glyph-name="z" unicode="z" horiz-adv-x="1095" 
d="M991 0h-885v117l730 790h-621v-192h-109v293h885v-97l-745 -811h635v201h110v-301z" />
    <glyph glyph-name="braceleft" unicode="{" horiz-adv-x="624" 
d="M549 -31v-116h-27q-60 0 -109 14.5t-90 46t-64 89.5t-23 138v279q0 106 -51 176t-95 70h-20v96h20q44 0 95 70.5t51 177.5v264q0 80 23 138.5t63.5 91.5t90 48t109.5 15h27v-117h-27q-86 0 -124 -44t-38 -140v-254q0 -51 -14 -98t-34 -78t-40.5 -54.5t-34.5 -33.5
l-14 -11v-47q6 -4 15 -11t32.5 -32.5t41.5 -54.5t33 -76t15 -98v-271q0 -94 38 -136t124 -42h27z" />
    <glyph glyph-name="bar" unicode="|" horiz-adv-x="534" 
d="M330 -268h-125v1824h125v-1824z" />
    <glyph glyph-name="braceright" unicode="}" horiz-adv-x="624" 
d="M76 -147v116h24q86 0 125 42t39 136v271q0 51 14 97.5t34 77t40.5 53.5t34.5 34l14 10v47q-6 4 -15 11t-32.5 33t-41.5 55.5t-33 77t-15 98.5v254q0 96 -39 140t-125 44h-24v117h24q61 0 111 -15t91 -48t64 -91.5t23 -138.5v-264q0 -107 51 -177.5t95 -70.5h20v-96h-20
q-44 0 -95 -70t-51 -176v-279q0 -80 -23 -138t-64.5 -89.5t-91 -46t-110.5 -14.5h-24z" />
    <glyph glyph-name="exclamdown" unicode="&#xa1;" horiz-adv-x="497" 
d="M197 705h106l16 -1254h-137zM164 979q0 35 25.5 60.5t60.5 25.5q36 0 61 -25t25 -61q0 -37 -24.5 -62.5t-61.5 -25.5q-35 0 -60.5 25.5t-25.5 62.5z" />
    <glyph glyph-name="cent" unicode="&#xa2;" horiz-adv-x="1185" 
d="M651 -27h-110v133q-186 21 -306 160t-120 361q0 110 34.5 202.5t93.5 155.5t135.5 101.5t162.5 48.5v168h110v-170q103 -9 176 -50.5t109 -103.5h6l-6 147h96v-383h-104v62q0 35 -22.5 74t-62 74t-102 58t-133.5 23q-51 0 -102.5 -16.5t-99.5 -51t-85 -82.5t-59 -115.5
t-22 -145.5q0 -97 32.5 -177.5t85.5 -131.5t118 -79t134 -28q73 0 138 20.5t108.5 53.5t70.5 61.5t44 56.5l78 -63q-12 -20 -29 -42t-52.5 -55.5t-77.5 -60t-105.5 -48.5t-133.5 -28v-129z" />
    <glyph glyph-name="sterling" unicode="&#xa3;" horiz-adv-x="1253" 
d="M938 530h-430q4 -36 4 -53q0 -107 -61 -204t-144 -160h836v-113h-1006v113q3 3 35.5 27.5t53 41.5t53.5 51.5t53 66t35.5 76.5t15.5 91q0 33 -6 63h-285v101h252q-11 27 -54 112t-63 149.5t-20 135.5q0 143 64.5 247t176 156t257.5 52q194 0 311 -104t117 -289v-56h-127
v58q0 121 -82 198.5t-219 77.5q-58 0 -110 -11.5t-99.5 -37.5t-82 -65t-55 -98.5t-20.5 -133.5q0 -64 23.5 -128.5t63.5 -141.5t56 -121h457v-101z" />
    <glyph glyph-name="currency" unicode="&#xa4;" horiz-adv-x="1308" 
d="M651 190q-169 0 -303 97l-153 -181l-60 50l156 182q-139 145 -139 377q0 226 135 364l-150 178l58 50l149 -177q137 97 307 97q180 0 312 -101l153 181l58 -50l-154 -182q133 -143 133 -360q0 -228 -137 -375l160 -184l-60 -50l-158 185q-129 -101 -307 -101zM651 295
q157 0 267 114.5t110 301.5q0 94 -31.5 172.5t-84.5 130t-120.5 80t-140.5 28.5q-72 0 -139.5 -28.5t-120.5 -80t-85 -130t-32 -172.5t31 -173.5t83 -132t120 -81.5t143 -29z" />
    <glyph glyph-name="yen" unicode="&#xa5;" horiz-adv-x="1441" 
d="M369 543h286v55l-75 133h-285v96h229l-301 533h-162v110h469v-110h-165l354 -643h8l350 643h-168v110h469v-110h-164l-301 -533h228v-96h-283l-76 -135v-53h281v-97h-281v-335h191v-111h-508v111h190v335h-286v97z" />
    <glyph glyph-name="brokenbar" unicode="&#xa6;" horiz-adv-x="538" 
d="M334 840h-127v716h127v-716zM334 -268h-127v717h127v-717z" />
    <glyph glyph-name="section" unicode="&#xa7;" horiz-adv-x="1378" 
d="M1262 395q0 -144 -82 -248q82 -85 82 -213q0 -85 -30 -157.5t-91 -129.5t-162 -89.5t-234 -32.5q-102 0 -189.5 25.5t-147.5 68.5t-98.5 85t-67.5 89v-254h-121v512h127v-61q0 -15 15.5 -51.5t53 -87.5t90.5 -96t139 -77t187 -32q187 0 291 73t104 209q0 79 -53 134
t-137.5 85.5t-186.5 55t-204 55t-186.5 73t-137.5 121t-53 187.5q0 136 86 231q-86 92 -86 230q0 165 128 274t345 109q288 0 416 -172v164h121v-476h-127v91q0 27 -12.5 60.5t-43 71.5t-74.5 68.5t-115 51t-157 20.5q-157 0 -252.5 -74t-95.5 -188q0 -64 33 -112.5
t88.5 -79.5t127 -55t151 -44t159.5 -41.5t151.5 -52.5t127 -71.5t88.5 -103.5t33 -145zM1128 389q0 79 -51 133.5t-140 86t-183.5 54t-207.5 55.5t-186 73q-57 -66 -57 -152q0 -82 51.5 -138.5t141 -90t184 -57t208 -56.5t185.5 -72q55 64 55 164z" />
    <glyph glyph-name="dieresis" unicode="&#xa8;" horiz-adv-x="608" 
d="M225 1208q0 -32 -22.5 -53.5t-55.5 -21.5q-32 0 -53.5 21.5t-21.5 53.5q0 33 21.5 55.5t53.5 22.5t55 -23t23 -55zM539 1208q0 -32 -23.5 -53.5t-56.5 -21.5q-31 0 -52.5 21.5t-21.5 53.5t21.5 55t52.5 23q32 0 56 -23t24 -55z" />
    <glyph glyph-name="copyright" unicode="&#xa9;" horiz-adv-x="1462" 
d="M1339 713q0 -162 -82.5 -302.5t-223 -223.5t-302.5 -83t-302.5 83t-223 223.5t-82.5 302.5q0 121 49 233.5t131 194.5t194.5 131t233.5 49t233.5 -49t194.5 -131t131 -194.5t49 -233.5zM1251 713q0 106 -41 202t-111 165t-166 110t-202 41q-215 0 -366.5 -151.5
t-151.5 -366.5t151.5 -366.5t366.5 -151.5q106 0 202 41t166 110t111 165t41 202zM950 575l70 -43q-9 -17 -19.5 -33.5t-36 -44t-55.5 -47t-78.5 -34.5t-103.5 -15q-142 0 -239 98t-97 263t97 262.5t239 97.5q55 0 103.5 -15t78.5 -34.5t55.5 -47t36 -44t19.5 -33.5l-70 -47
q-12 20 -20.5 32.5t-28.5 33t-41.5 32.5t-56.5 21.5t-76 9.5q-101 0 -169.5 -68.5t-68.5 -197.5q0 -132 68.5 -201t171.5 -69q32 0 60 5.5t46 10.5t37.5 19.5t27.5 20t22 25t15 22t13 21.5z" />
    <glyph glyph-name="ordfeminine" unicode="&#xaa;" horiz-adv-x="727" 
d="M289 965q-76 0 -128 40.5t-52 114.5q0 72 56.5 109t162.5 37h137v6q0 76 -25 109.5t-108 33.5q-30 0 -56 -5.5t-43 -12.5t-29 -14.5t-18 -12.5l-6 -6l-37 49q2 3 6.5 7.5t21 16.5t36.5 21.5t53.5 17t71.5 7.5q112 0 160.5 -54.5t48.5 -156.5v-236h71v-63h-141v65h-2
q-78 -73 -180 -73zM299 1032q100 0 166 74v100l-135 2q-144 3 -144 -84q0 -41 31 -66.5t82 -25.5z" />
    <glyph glyph-name="guillemotleft" unicode="&#xab;" horiz-adv-x="1097" 
d="M590 115l-486 336v92l486 340v-113l-389 -272l389 -273v-110zM961 115l-488 336v92l488 340v-113l-390 -272l390 -273v-110z" />
    <glyph glyph-name="logicalnot" unicode="&#xac;" horiz-adv-x="1282" 
d="M1122 289h-110v393h-860v106h970v-499z" />
    <glyph glyph-name="registered" unicode="&#xae;" horiz-adv-x="1462" 
d="M1339 713q0 -162 -82.5 -302.5t-223 -223.5t-302.5 -83t-302.5 83t-223 223.5t-82.5 302.5q0 121 49 233.5t131 194.5t194.5 131t233.5 49t233.5 -49t194.5 -131t131 -194.5t49 -233.5zM731 190q142 0 262.5 70t190 190.5t69.5 262.5q0 106 -41 203t-111 167t-167 111
t-203 41t-203 -41t-167 -111t-111 -167t-41 -203q0 -142 69.5 -262.5t190 -190.5t262.5 -70zM1042 367h-122l-127 251q-14 26 -25.5 37t-32.5 11h-133v-224h96v-75h-258v75h82v559h-82v76h316q105 0 169 -50.5t64 -154.5q0 -155 -143 -194q14 -16 41 -72l82 -162h73v-77z
M602 739h148q78 0 116.5 31.5t38.5 99.5q0 65 -41.5 98t-113.5 33h-148v-262z" />
    <glyph glyph-name="macron" unicode="&#xaf;" horiz-adv-x="790" 
d="M713 1139h-635v104h635v-104z" />
    <glyph glyph-name="degree" unicode="&#xb0;" horiz-adv-x="550" 
d="M274 860q-61 0 -102 41t-41 115q0 64 41.5 107.5t101.5 43.5q62 0 104 -43.5t42 -107.5q0 -74 -42 -115t-104 -41zM274 930q31 0 53.5 22.5t22.5 63.5q0 36 -22 59t-54 23q-30 0 -51.5 -23t-21.5 -59q0 -41 21.5 -63.5t51.5 -22.5z" />
    <glyph glyph-name="plusminus" unicode="&#xb1;" horiz-adv-x="1103" 
d="M618 301h-120v365h-359v114h359v373h120v-373h347v-114h-347v-365zM965 76h-826v114h826v-114z" />
    <glyph glyph-name="twosuperior" unicode="&#xb2;" horiz-adv-x="802" 
d="M659 741h-522v56q0 61 23.5 107.5t60.5 76t81.5 53.5t89 45t81 44.5t59.5 59.5t23 83q0 61 -40 96t-107 35q-82 0 -127 -33.5t-45 -97.5v-19h-89v19q0 88 65 152.5t196 64.5q114 0 177.5 -60.5t63.5 -152.5q0 -57 -23 -102.5t-60 -75.5t-81.5 -55t-89.5 -46.5t-83 -44
t-62.5 -54.5t-26.5 -71h355v94h81v-174z" />
    <glyph glyph-name="threesuperior" unicode="&#xb3;" horiz-adv-x="739" 
d="M354 735q-164 0 -246 123l-2 2l56 51q2 -2 15.5 -16.5t21 -21t25.5 -19.5t34.5 -19.5t42 -12t53.5 -5.5q172 0 172 135q0 67 -44.5 104.5t-125.5 37.5h-45v71h41q55 0 102.5 31t47.5 92q0 50 -37.5 79.5t-106.5 29.5q-58 0 -93.5 -29.5t-35.5 -69.5v-16h-84v16
q0 81 60 133t153 52q117 0 176.5 -58t59.5 -133q0 -67 -44 -110t-81 -47q19 -3 42 -13.5t49.5 -31t43.5 -58.5t17 -86q0 -96 -74 -153.5t-193 -57.5z" />
    <glyph glyph-name="acute" unicode="&#xb4;" horiz-adv-x="561" 
d="M494 1462l-363 -291l-63 76l350 305z" />
    <glyph glyph-name="mu" unicode="&#xb5;" horiz-adv-x="1218" 
d="M324 -461h-121v1368h-146v101h269v-648q0 -127 65 -198.5t184 -71.5q66 0 123 20.5t91 48.5t58.5 58t34 48.5t9.5 21.5v620h-143v101h264v-908h145v-100h-260v164h-4q-15 -28 -36 -53.5t-59.5 -56.5t-100.5 -49.5t-138 -18.5q-146 0 -235 71v-518z" />
    <glyph glyph-name="paragraph" unicode="&#xb6;" horiz-adv-x="1316" 
d="M1067 -162h-129v1520h-152v-1520h-129v645h-82q-231 0 -366 121.5t-135 364.5q0 123 36.5 219.5t101.5 157.5t152 92.5t191 31.5h635v-112h-123v-1520z" />
    <glyph glyph-name="periodcentered" unicode="&#xb7;" horiz-adv-x="456" 
d="M311 580q0 -35 -24.5 -58.5t-59.5 -23.5q-34 0 -58 23.5t-24 58.5t24 58.5t58 23.5q35 0 59.5 -23.5t24.5 -58.5z" />
    <glyph glyph-name="cedilla" unicode="&#xb8;" horiz-adv-x="473" 
d="M221 -315q-83 0 -147 55l39 63q43 -36 104 -36q88 0 88 65q0 28 -25.5 39.5t-80.5 11.5h-45l51 152l84 -2l-31 -88q11 0 19 -0.5t33 -6t41.5 -15.5t31 -33.5t14.5 -55.5q0 -68 -47 -108.5t-129 -40.5z" />
    <glyph glyph-name="onesuperior" unicode="&#xb9;" horiz-adv-x="669" 
d="M573 741h-411v82h168v551l-176 -135l-48 66l222 172h94l2 -654h149v-82z" />
    <glyph glyph-name="ordmasculine" unicode="&#xba;" horiz-adv-x="706" 
d="M354 965q-103 0 -175.5 72t-72.5 190t72.5 187t175.5 69t174.5 -69.5t71.5 -186.5t-71.5 -189.5t-174.5 -72.5zM354 1032q73 0 122.5 51t49.5 142q0 90 -51 141t-121 51q-71 0 -123.5 -51.5t-52.5 -140.5q0 -90 51 -141.5t125 -51.5z" />
    <glyph glyph-name="guillemotright" unicode="&#xbb;" horiz-adv-x="1097" 
d="M993 451l-485 -336v110l387 273l-389 272v113l487 -340v-92zM625 451l-488 -336v110l389 273l-389 272v113l488 -340v-92z" />
    <glyph glyph-name="onequarter" unicode="&#xbc;" horiz-adv-x="1294" 
d="M416 -152h-111l516 1708h113zM1227 0h-287v80h119v158h-369v77l365 420h96v-422h94v-75h-94v-158h76v-80zM1059 309v307l-275 -307h275zM508 741h-410v82h168v551l-176 -135l-49 66l221 172h96l2 -654h148v-82z" />
    <glyph glyph-name="onehalf" unicode="&#xbd;" horiz-adv-x="1378" 
d="M428 -152h-111l517 1708h112zM522 741h-411v82h168v551l-177 -135l-49 66l221 172h97l2 -654h149v-82zM1292 0h-522v55q0 61 23.5 107.5t60.5 76t81.5 53.5t89 45t81 44.5t59.5 59.5t23 83q0 61 -40.5 96t-107.5 35q-82 0 -127 -33.5t-45 -97.5v-18h-88v18
q0 88 64.5 152.5t195.5 64.5q114 0 178 -60.5t64 -152.5q0 -57 -23 -102.5t-60 -75.5t-81.5 -54.5t-89.5 -46t-83 -44t-62.5 -54.5t-26.5 -71h354v94h82v-174z" />
    <glyph glyph-name="threequarters" unicode="&#xbe;" horiz-adv-x="1390" 
d="M510 -152h-111l516 1708h113zM1323 0h-289v80h119v158h-369v77l365 420h96v-422h94v-75h-94v-158h78v-80zM1153 309v307l-274 -307h274zM287 735q-164 0 -246 123l-2 2l55 51q1 -1 15.5 -16.5t21.5 -21.5t25.5 -19t34.5 -19.5t42 -12t54 -5.5q172 0 172 135
q0 67 -44.5 104.5t-125.5 37.5h-45v71h41q55 0 102 31t47 92q0 51 -37 80t-106 29q-58 0 -93.5 -29.5t-35.5 -69.5v-16h-84v16q0 81 60 133t153 52q117 0 176 -58t59 -133q0 -67 -44 -110t-81 -47q19 -3 42 -13.5t49.5 -31t43.5 -58.5t17 -86q0 -96 -73.5 -153.5
t-192.5 -57.5z" />
    <glyph glyph-name="questiondown" unicode="&#xbf;" horiz-adv-x="1026" 
d="M502 702h125v-24q0 -93 -23.5 -172t-61 -134t-83 -103.5t-91 -90.5t-83 -83.5t-61 -93.5t-23.5 -110q0 -129 82 -208.5t229 -79.5q164 0 243 99.5t81 264.5v23h127v-23q0 -72 -13 -137.5t-46 -130t-82.5 -111t-129 -75.5t-180.5 -29q-205 0 -322.5 113t-117.5 292
q0 75 23.5 139t61.5 110.5t84 90.5t92 88.5t84 93.5t61.5 117.5t23.5 149.5v24zM471 934q0 37 25.5 62.5t62.5 25.5t63.5 -25.5t26.5 -62.5q0 -38 -26.5 -64t-63.5 -26t-62.5 26t-25.5 64z" />
    <glyph glyph-name="Agrave" unicode="&#xc0;" horiz-adv-x="1462" 
d="M1495 0h-465v111h170l-153 409h-619l-154 -409h170v-111h-462v111h163l469 1249h-125v110h328l514 -1359h164v-111zM1006 631l-265 704h-10l-260 -704h535zM936 1710l-66 -76l-360 293l76 88z" />
    <glyph glyph-name="Aacute" unicode="&#xc1;" horiz-adv-x="1462" 
d="M1495 0h-465v111h170l-153 409h-619l-154 -409h170v-111h-462v111h163l469 1249h-125v110h328l514 -1359h164v-111zM1006 631l-265 704h-10l-260 -704h535zM1059 1925l-363 -291l-63 76l350 305z" />
    <glyph glyph-name="Acircumflex" unicode="&#xc2;" horiz-adv-x="1462" 
d="M1495 0h-465v111h170l-153 409h-619l-154 -409h170v-111h-462v111h163l469 1249h-125v110h328l514 -1359h164v-111zM1006 631l-265 704h-10l-260 -704h535zM1085 1710l-65 -76l-279 234l-276 -234l-64 76l342 297z" />
    <glyph glyph-name="Atilde" unicode="&#xc3;" horiz-adv-x="1462" 
d="M1495 0h-465v111h170l-153 409h-619l-154 -409h170v-111h-462v111h163l469 1249h-125v110h328l514 -1359h164v-111zM1006 631l-265 704h-10l-260 -704h535zM950 1849h90v-22q0 -215 -163 -215q-41 0 -75.5 11.5t-58.5 27.5t-45.5 32t-45.5 27.5t-50 11.5q-40 0 -58 -23
t-18 -81v-25h-90v25q0 95 41 147t121 52q44 0 84 -17.5t65.5 -39t59 -39t65.5 -17.5q44 0 61 26.5t17 96.5v22z" />
    <glyph glyph-name="Adieresis" unicode="&#xc4;" horiz-adv-x="1462" 
d="M1495 0h-465v111h170l-153 409h-619l-154 -409h170v-111h-462v111h163l469 1249h-125v110h328l514 -1359h164v-111zM1006 631l-265 704h-10l-260 -704h535zM664 1671q0 -32 -23 -54t-55 -22t-54 22t-22 54t22 55t54 23t55 -23t23 -55zM977 1671q0 -32 -23.5 -54
t-56.5 -22q-31 0 -52.5 22t-21.5 54t21.5 55t52.5 23q32 0 56 -23t24 -55z" />
    <glyph glyph-name="Aring" unicode="&#xc5;" horiz-adv-x="1462" 
d="M1495 0h-465v111h170l-153 409h-619l-154 -409h170v-111h-462v111h163l469 1249h-125v110h328l514 -1359h164v-111zM1006 631l-265 704h-10l-260 -704h535zM889 1757q0 -66 -47 -114t-113 -48t-114 48t-48 114t48 113t114 47t113 -47t47 -113zM805 1757q0 32 -22 54
t-54 22t-54 -22t-22 -54t22 -54t54 -22t54 22t22 54z" />
    <glyph glyph-name="AE" unicode="&#xc6;" horiz-adv-x="1978" 
d="M754 0v111h186v567h-432l-246 -567h170v-111h-463v111h164l541 1249h-125v110h1315v-337h-119v227h-678v-572h596v-110h-596v-567h676v225h121v-336h-1110zM940 788v572h-137l-248 -572h385z" />
    <glyph glyph-name="Ccedilla" unicode="&#xc7;" horiz-adv-x="1521" 
d="M758 -315q-84 0 -148 55l39 63q43 -36 105 -36q88 0 88 65q0 28 -26 39.5t-81 11.5h-45l35 107q-131 12 -243.5 71.5t-194 156t-128 232.5t-46.5 293q0 134 36 252.5t100 206.5t149.5 152t187 96.5t209.5 32.5q101 0 186 -23.5t142 -63t92.5 -75.5t60.5 -76v225h121v-475
h-129v43q0 46 -35.5 101.5t-94.5 106t-150.5 84.5t-190.5 34q-78 0 -155 -23t-149 -73.5t-126.5 -122.5t-87.5 -177.5t-33 -230.5t32 -230.5t86 -178.5t126 -124.5t151 -75.5t162 -24q96 0 179.5 22t138.5 53.5t102.5 75t71 76t44.5 68.5l97 -61q-16 -31 -39 -65.5
t-76.5 -88t-118.5 -94t-169.5 -71.5t-223.5 -33l-14 -41q11 0 19 -0.5t33 -6t41.5 -15.5t31 -33.5t14.5 -55.5q0 -68 -47 -108.5t-129 -40.5z" />
    <glyph glyph-name="Egrave" unicode="&#xc8;" horiz-adv-x="1325" 
d="M1210 0h-1114v111h187v1249h-187v110h1114v-337h-123v227h-677v-572h598v-110h-598v-567h675v225h125v-336zM805 1710l-66 -76l-360 293l76 88z" />
    <glyph glyph-name="Eacute" unicode="&#xc9;" horiz-adv-x="1325" 
d="M846 1925l-363 -291l-63 76l350 305zM1210 0h-1114v111h187v1249h-187v110h1114v-337h-123v227h-677v-572h598v-110h-598v-567h675v225h125v-336z" />
    <glyph glyph-name="Ecircumflex" unicode="&#xca;" horiz-adv-x="1325" 
d="M942 1710l-65 -76l-279 234l-276 -234l-64 76l342 297zM1210 0h-1114v111h187v1249h-187v110h1114v-337h-123v227h-677v-572h598v-110h-598v-567h675v225h125v-336z" />
    <glyph glyph-name="Edieresis" unicode="&#xcb;" horiz-adv-x="1325" 
d="M537 1671q0 -32 -23 -54t-55 -22t-54 22t-22 54t22 55t54 23t55 -23t23 -55zM850 1671q0 -32 -23.5 -54t-56.5 -22q-31 0 -52.5 22t-21.5 54t21.5 55t52.5 23q32 0 56 -23t24 -55zM1210 0h-1114v111h187v1249h-187v110h1114v-337h-123v227h-677v-572h598v-110h-598v-567
h675v225h125v-336z" />
    <glyph glyph-name="Igrave" unicode="&#xcc;" horiz-adv-x="694" 
d="M598 0h-502v111h187v1249h-187v110h502v-110h-188v-1249h188v-111zM451 1653l-66 -76l-360 293l75 88z" />
    <glyph glyph-name="Iacute" unicode="&#xcd;" horiz-adv-x="694" 
d="M598 0h-502v111h187v1249h-187v110h502v-110h-188v-1249h188v-111zM653 1864l-362 -291l-64 76l351 305z" />
    <glyph glyph-name="Icircumflex" unicode="&#xce;" horiz-adv-x="694" 
d="M596 0h-502v111h187v1249h-187v110h502v-110h-188v-1249h188v-111zM692 1710l-65 -76l-279 234l-276 -234l-64 76l342 297z" />
    <glyph glyph-name="Idieresis" unicode="&#xcf;" horiz-adv-x="694" 
d="M598 0h-502v111h187v1249h-187v110h502v-110h-188v-1249h188v-111zM270 1671q0 -32 -22.5 -54t-54.5 -22t-54 22t-22 54t22 55t54 23t54.5 -23t22.5 -55zM584 1671q0 -32 -23.5 -54t-56.5 -22q-31 0 -52.5 22t-21.5 54t21.5 55t52.5 23q32 0 56 -23t24 -55z" />
    <glyph glyph-name="Eth" unicode="&#xd0;" horiz-adv-x="1511" 
d="M678 0h-582v111h187v573h-168v107h168v569h-187v110h566q349 0 543 -193t194 -534q0 -349 -188.5 -546t-532.5 -197zM410 111h243q301 0 457 161t156 467q0 142 -38 255.5t-113 195.5t-192 126t-270 44h-243v-569h370v-107h-370v-573z" />
    <glyph glyph-name="Ntilde" unicode="&#xd1;" horiz-adv-x="1638" 
d="M1372 0h-151l-697 1083q-29 45 -56.5 93.5t-40.5 73.5l-13 26h-4v-1165h190v-111h-504v111h187v1247h-187v112h328l700 -1079q31 -48 61 -99.5t44 -78.5l14 -27h2v1174h-186v110h504v-110h-191v-1360zM1061 1849h90v-22q0 -215 -164 -215q-50 0 -91.5 17t-65.5 38t-55 38
t-62 17q-40 0 -58 -23t-18 -81v-25h-90v25q0 95 41 147t121 52q44 0 84 -17.5t65.5 -39t59 -39t65.5 -17.5q44 0 61 26.5t17 96.5v22z" />
    <glyph glyph-name="Ograve" unicode="&#xd2;" horiz-adv-x="1626" 
d="M815 -14q-148 0 -277.5 55t-223.5 153t-148.5 240t-54.5 309q0 135 37 253t103 206t154 152t193 96.5t217 32.5q141 0 268 -52t224 -145t154 -234.5t57 -308.5t-54 -309.5t-148 -240t-223.5 -152.5t-277.5 -55zM815 104q83 0 163.5 24.5t153.5 76t128.5 125t88.5 178.5
t33 229t-34.5 229.5t-91.5 177.5t-131 122.5t-152.5 74t-157.5 23.5q-100 0 -197.5 -38.5t-182 -112.5t-137 -198t-52.5 -278q0 -124 33 -229t89 -178.5t129.5 -125t154 -76t163.5 -24.5zM993 1710l-65 -76l-361 293l76 88z" />
    <glyph glyph-name="Oacute" unicode="&#xd3;" horiz-adv-x="1626" 
d="M1022 1925l-363 -291l-63 76l350 305zM815 -14q-148 0 -277.5 55t-223.5 153t-148.5 240t-54.5 309q0 135 37 253t103 206t154 152t193 96.5t217 32.5q141 0 268 -52t224 -145t154 -234.5t57 -308.5t-54 -309.5t-148 -240t-223.5 -152.5t-277.5 -55zM815 104
q83 0 163.5 24.5t153.5 76t128.5 125t88.5 178.5t33 229t-34.5 229.5t-91.5 177.5t-131 122.5t-152.5 74t-157.5 23.5q-100 0 -197.5 -38.5t-182 -112.5t-137 -198t-52.5 -278q0 -124 33 -229t89 -178.5t129.5 -125t154 -76t163.5 -24.5z" />
    <glyph glyph-name="Ocircumflex" unicode="&#xd4;" horiz-adv-x="1626" 
d="M1153 1710l-66 -76l-278 234l-277 -234l-63 76l342 297zM815 -14q-148 0 -277.5 55t-223.5 153t-148.5 240t-54.5 309q0 135 37 253t103 206t154 152t193 96.5t217 32.5q141 0 268 -52t224 -145t154 -234.5t57 -308.5t-54 -309.5t-148 -240t-223.5 -152.5t-277.5 -55z
M815 104q83 0 163.5 24.5t153.5 76t128.5 125t88.5 178.5t33 229t-34.5 229.5t-91.5 177.5t-131 122.5t-152.5 74t-157.5 23.5q-100 0 -197.5 -38.5t-182 -112.5t-137 -198t-52.5 -278q0 -124 33 -229t89 -178.5t129.5 -125t154 -76t163.5 -24.5z" />
    <glyph glyph-name="Otilde" unicode="&#xd5;" horiz-adv-x="1626" 
d="M815 -14q-148 0 -277.5 55t-223.5 153t-148.5 240t-54.5 309q0 135 37 253t103 206t154 152t193 96.5t217 32.5q141 0 268 -52t224 -145t154 -234.5t57 -308.5t-54 -309.5t-148 -240t-223.5 -152.5t-277.5 -55zM815 104q83 0 163.5 24.5t153.5 76t128.5 125t88.5 178.5
t33 229t-34.5 229.5t-91.5 177.5t-131 122.5t-152.5 74t-157.5 23.5q-100 0 -197.5 -38.5t-182 -112.5t-137 -198t-52.5 -278q0 -124 33 -229t89 -178.5t129.5 -125t154 -76t163.5 -24.5zM1030 1849h90v-22q0 -215 -164 -215q-50 0 -91.5 17t-65.5 38t-55 38t-62 17
q-40 0 -58 -23t-18 -81v-25h-90v25q0 95 41 147t121 52q44 0 84 -17.5t65.5 -39t59 -39t65.5 -17.5q44 0 61 26.5t17 96.5v22z" />
    <glyph glyph-name="Odieresis" unicode="&#xd6;" horiz-adv-x="1626" 
d="M731 1671q0 -32 -23 -54t-55 -22t-53.5 22t-21.5 54q0 33 21.5 55.5t53.5 22.5t55 -23t23 -55zM1044 1671q0 -32 -23 -54t-56 -22q-31 0 -52.5 22t-21.5 54t21.5 55t52.5 23q32 0 55.5 -23t23.5 -55zM815 -14q-148 0 -277.5 55t-223.5 153t-148.5 240t-54.5 309
q0 135 37 253t103 206t154 152t193 96.5t217 32.5q141 0 268 -52t224 -145t154 -234.5t57 -308.5t-54 -309.5t-148 -240t-223.5 -152.5t-277.5 -55zM815 104q83 0 163.5 24.5t153.5 76t128.5 125t88.5 178.5t33 229t-34.5 229.5t-91.5 177.5t-131 122.5t-152.5 74
t-157.5 23.5q-100 0 -197.5 -38.5t-182 -112.5t-137 -198t-52.5 -278q0 -124 33 -229t89 -178.5t129.5 -125t154 -76t163.5 -24.5z" />
    <glyph glyph-name="multiply" unicode="&#xd7;" horiz-adv-x="950" 
d="M815 324l-80 -84l-256 256l-252 -254l-82 84l250 252l-258 262l84 82l258 -260l242 241l82 -82l-240 -241z" />
    <glyph glyph-name="Oslash" unicode="&#xd8;" horiz-adv-x="1626" 
d="M618 -104h-104l41 137q-202 78 -323 266t-121 444q0 135 37 253t103 206t154 152t193 96.5t217 32.5q74 0 170 -21l43 142h105l-52 -172q195 -78 316 -259t121 -430q0 -167 -54 -309.5t-148 -240t-223.5 -152.5t-277.5 -55q-87 0 -164 18zM248 737q0 -220 95.5 -368.5
t248.5 -214.5l358 1192q-68 18 -135 18q-79 0 -157.5 -23.5t-152.5 -74t-131 -122.5t-91.5 -177.5t-34.5 -229.5zM815 106q83 0 163 24t153 75.5t128.5 124.5t88 178t32.5 229q0 110 -27 205t-74 165t-106 120.5t-129 83.5l-358 -1190q64 -15 129 -15z" />
    <glyph glyph-name="Ugrave" unicode="&#xd9;" horiz-adv-x="1574" 
d="M1198 535v825h-186v110h504v-110h-189v-807q0 -279 -139 -423t-400 -144q-262 0 -402 144t-140 423v807h-187v110h504v-110h-188v-813q0 -81 12.5 -147t42.5 -122t77 -94t118 -59t163 -21q410 0 410 431zM999 1710l-65 -76l-361 293l76 88z" />
    <glyph glyph-name="Uacute" unicode="&#xda;" horiz-adv-x="1574" 
d="M1069 1925l-362 -291l-64 76l350 305zM1198 535v825h-186v110h504v-110h-189v-807q0 -279 -139 -423t-400 -144q-262 0 -402 144t-140 423v807h-187v110h504v-110h-188v-813q0 -81 12.5 -147t42.5 -122t77 -94t118 -59t163 -21q410 0 410 431z" />
    <glyph glyph-name="Ucircumflex" unicode="&#xdb;" horiz-adv-x="1574" 
d="M1130 1710l-65 -76l-279 234l-276 -234l-64 76l342 297zM1198 535v825h-186v110h504v-110h-189v-807q0 -279 -139 -423t-400 -144q-262 0 -402 144t-140 423v807h-187v110h504v-110h-188v-813q0 -81 12.5 -147t42.5 -122t77 -94t118 -59t163 -21q410 0 410 431z" />
    <glyph glyph-name="Udieresis" unicode="&#xdc;" horiz-adv-x="1574" 
d="M707 1671q0 -32 -23 -54t-55 -22t-54 22t-22 54t22 55t54 23t55 -23t23 -55zM1020 1671q0 -32 -23.5 -54t-56.5 -22q-31 0 -52.5 22t-21.5 54t21.5 55t52.5 23q32 0 56 -23t24 -55zM1198 535v825h-186v110h504v-110h-189v-807q0 -279 -139 -423t-400 -144
q-262 0 -402 144t-140 423v807h-187v110h504v-110h-188v-813q0 -81 12.5 -147t42.5 -122t77 -94t118 -59t163 -21q410 0 410 431z" />
    <glyph glyph-name="Yacute" unicode="&#xdd;" horiz-adv-x="1286" 
d="M897 0h-508v111h191v487l-433 762h-161v110h469v-110h-166l354 -643h8l350 643h-167v110h469v-110h-164l-432 -764v-485h190v-111zM870 1925l-362 -291l-64 76l351 305z" />
    <glyph glyph-name="Thorn" unicode="&#xde;" horiz-adv-x="1284" 
d="M631 0h-533v106h183v1258h-181v106h303v-274h318q218 0 352.5 -113.5t134.5 -324.5t-130 -321.5t-378 -110.5h-299v-220h230v-106zM401 432h312q366 0 366 326q0 87 -30 152t-82.5 102t-116 55t-137.5 18h-312v-653z" />
    <glyph glyph-name="germandbls" unicode="&#xdf;" horiz-adv-x="1335" 
d="M438 0h-381v106h150v887q0 113 35 207t94.5 155t136.5 94.5t162 33.5q157 0 243.5 -74.5t86.5 -189.5q0 -49 -15.5 -87.5t-40.5 -63.5t-55 -47t-59.5 -43t-54.5 -45t-40.5 -60t-15.5 -82q0 -53 33 -91t85.5 -60.5t116.5 -42t128 -43.5t116.5 -56t85.5 -87.5t33 -131.5
q0 -135 -122.5 -221.5t-289.5 -86.5q-50 0 -95 8t-79.5 21t-65.5 32t-52.5 38t-41.5 43.5t-31.5 43.5t-22.5 42.5t-15.5 36.5t-10.5 29l-5 16l94 43l5 -14q5 -15 15 -36t25.5 -47.5t41 -52t57 -47t77 -34.5t98.5 -13q122 0 205.5 58t83.5 138q0 58 -32.5 99t-84 64.5
t-114 43t-125 42t-114 52.5t-84 83t-32.5 126q0 55 15 98.5t39.5 71.5t53.5 51t58.5 42.5t54 40t39.5 49.5t15 65q0 69 -51 116.5t-158 47.5q-130 0 -215.5 -102.5t-85.5 -272.5v-887h106v-106z" />
    <glyph glyph-name="agrave" unicode="&#xe0;" 
d="M1096 0h-258v195h-4q-22 -32 -51 -62t-79 -67t-124.5 -59.5t-161.5 -22.5q-143 0 -238.5 75.5t-95.5 204.5q0 316 559 316h186v41q0 162 -78 229.5t-221 67.5q-67 0 -126.5 -12t-96.5 -29t-64 -34.5t-39 -29.5l-11 -12l-66 80l2 3q87 101 273 129q60 9 128 9
q207 0 314.5 -95t107.5 -309v-518h144v-100zM829 307v170h-182q-438 0 -438 -211q0 -75 62 -124.5t169 -49.5q69 0 134.5 22.5t115 59t82 68.5t57.5 65zM750 1247l-66 -76l-360 293l75 88z" />
    <glyph glyph-name="aacute" unicode="&#xe1;" 
d="M1096 0h-258v195h-4q-22 -32 -51 -62t-79 -67t-124.5 -59.5t-161.5 -22.5q-143 0 -238.5 75.5t-95.5 204.5q0 316 559 316h186v41q0 162 -78 229.5t-221 67.5q-67 0 -126.5 -12t-96.5 -29t-64 -34.5t-39 -29.5l-11 -12l-66 80l2 3q87 101 273 129q60 9 128 9
q207 0 314.5 -95t107.5 -309v-518h144v-100zM829 307v170h-182q-438 0 -438 -211q0 -75 62 -124.5t169 -49.5q69 0 134.5 22.5t115 59t82 68.5t57.5 65zM815 1462l-362 -291l-64 76l350 305z" />
    <glyph glyph-name="acircumflex" unicode="&#xe2;" 
d="M1096 0h-258v195h-4q-22 -32 -51 -62t-79 -67t-124.5 -59.5t-161.5 -22.5q-143 0 -238.5 75.5t-95.5 204.5q0 316 559 316h186v41q0 162 -78 229.5t-221 67.5q-67 0 -126.5 -12t-96.5 -29t-64 -34.5t-39 -29.5l-11 -12l-66 80l2 3q87 101 273 129q60 9 128 9
q207 0 314.5 -95t107.5 -309v-518h144v-100zM829 307v170h-182q-438 0 -438 -211q0 -75 62 -124.5t169 -49.5q69 0 134.5 22.5t115 59t82 68.5t57.5 65zM901 1247l-65 -76l-279 234l-276 -234l-64 76l342 297z" />
    <glyph glyph-name="atilde" unicode="&#xe3;" 
d="M1096 0h-258v195h-4q-22 -32 -51 -62t-79 -67t-124.5 -59.5t-161.5 -22.5q-143 0 -238.5 75.5t-95.5 204.5q0 316 559 316h186v41q0 162 -78 229.5t-221 67.5q-67 0 -126.5 -12t-96.5 -29t-64 -34.5t-39 -29.5l-11 -12l-66 80l2 3q87 101 273 129q60 9 128 9
q207 0 314.5 -95t107.5 -309v-518h144v-100zM829 307v170h-182q-438 0 -438 -211q0 -75 62 -124.5t169 -49.5q69 0 134.5 22.5t115 59t82 68.5t57.5 65zM764 1386h90v-22q0 -215 -164 -215q-50 0 -91.5 17.5t-65.5 38t-55 38t-62 17.5q-40 0 -58 -23.5t-18 -81.5v-25h-90v25
q0 95 41 147t121 52q44 0 84 -17.5t65.5 -39t59 -39t65.5 -17.5q44 0 61 26.5t17 96.5v22z" />
    <glyph glyph-name="adieresis" unicode="&#xe4;" 
d="M1096 0h-258v195h-4q-22 -32 -51 -62t-79 -67t-124.5 -59.5t-161.5 -22.5q-143 0 -238.5 75.5t-95.5 204.5q0 316 559 316h186v41q0 162 -78 229.5t-221 67.5q-67 0 -126.5 -12t-96.5 -29t-64 -34.5t-39 -29.5l-11 -12l-66 80l2 3q87 101 273 129q60 9 128 9
q207 0 314.5 -95t107.5 -309v-518h144v-100zM829 307v170h-182q-438 0 -438 -211q0 -75 62 -124.5t169 -49.5q69 0 134.5 22.5t115 59t82 68.5t57.5 65zM506 1208q0 -32 -22.5 -53.5t-55.5 -21.5q-32 0 -54 21.5t-22 53.5t22 55t54 23t55 -23t23 -55zM819 1208
q0 -32 -23.5 -53.5t-56.5 -21.5q-31 0 -52 21.5t-21 53.5t21 55t52 23q32 0 56 -23t24 -55z" />
    <glyph glyph-name="aring" unicode="&#xe5;" 
d="M1096 0h-258v195h-4q-22 -32 -51 -62t-79 -67t-124.5 -59.5t-161.5 -22.5q-143 0 -238.5 75.5t-95.5 204.5q0 316 559 316h186v41q0 162 -78 229.5t-221 67.5q-67 0 -126.5 -12t-96.5 -29t-64 -34.5t-39 -29.5l-11 -12l-66 80l2 3q87 101 273 129q60 9 128 9
q207 0 314.5 -95t107.5 -309v-518h144v-100zM829 307v170h-182q-438 0 -438 -211q0 -75 62 -124.5t169 -49.5q69 0 134.5 22.5t115 59t82 68.5t57.5 65zM748 1294q0 -66 -47 -113.5t-113 -47.5t-114 47.5t-48 113.5t48 113t114 47t113 -47t47 -113zM664 1294q0 32 -22 54
t-54 22t-54 -22t-22 -54t22 -53.5t54 -21.5t54 21.5t22 53.5z" />
    <glyph glyph-name="ae" unicode="&#xe6;" horiz-adv-x="1847" 
d="M1319 -14q-141 0 -255 66t-175 188q-20 -31 -45 -61t-68.5 -67t-93 -64t-119 -45.5t-145.5 -18.5q-143 0 -238.5 75.5t-95.5 204.5q0 88 41 151t118.5 98t175 51t224.5 16h186v43q0 162 -78 228.5t-221 66.5q-51 0 -96.5 -6.5t-78.5 -17t-60.5 -22.5t-45.5 -24.5
t-30.5 -23t-18.5 -16.5l-7 -7l-66 80l3 3q12 13 24 24t48 34.5t76.5 39t107.5 28t144 12.5q152 0 247.5 -50.5t135.5 -162.5q64 103 166 158t221 55q214 0 332 -137.5t115 -378.5v-25h-793q6 -187 115.5 -289t255.5 -102q73 0 138 20.5t108.5 53t70.5 61t44 56.5l75 -62
q-12 -20 -30.5 -44t-57.5 -59.5t-86 -62.5t-118 -47t-150 -20zM846 342q-17 66 -17 135h-180q-77 0 -138 -5t-119.5 -18.5t-97 -35.5t-62 -58.5t-23.5 -85.5q0 -78 64 -131t169 -53q45 0 87 8.5t76 23t64.5 33t54.5 39.5t43.5 41.5t34 39.5t24 33.5t14.5 23.5zM958 584h668
q-6 149 -90.5 241.5t-228.5 92.5q-85 0 -158 -37t-125.5 -114t-65.5 -183z" />
    <glyph glyph-name="ccedilla" unicode="&#xe7;" horiz-adv-x="1126" 
d="M547 -315q-84 0 -148 55l39 63q43 -36 105 -36q88 0 88 65q0 28 -26 39.5t-81 11.5h-45l35 109q-183 24 -299.5 161.5t-116.5 356.5q0 120 40.5 218.5t108 161.5t153.5 97.5t180 34.5q123 0 206 -45.5t129 -114.5h3v148h96v-383h-105v61q0 47 -37 99t-113 91.5t-169 39.5
q-64 0 -128.5 -27.5t-118.5 -77.5t-88 -130.5t-34 -176.5q0 -97 32.5 -177.5t85.5 -131.5t118.5 -79t134.5 -28q60 0 114.5 14.5t93 35.5t71.5 49t51.5 50.5t31.5 43.5l76 -64q-11 -20 -29.5 -44t-57 -58.5t-84 -61.5t-115 -47.5t-146.5 -21.5l-14 -41q11 0 19 -0.5t33 -6
t41.5 -15.5t31 -33.5t14.5 -55.5q0 -68 -47 -108.5t-129 -40.5z" />
    <glyph glyph-name="egrave" unicode="&#xe8;" horiz-adv-x="1116" 
d="M1016 481h-795q3 -96 36.5 -172.5t86.5 -123t116.5 -71t131.5 -24.5q74 0 138.5 20.5t108 53t70 61t43.5 56.5l76 -62q-11 -20 -30 -44t-58 -59.5t-86 -62.5t-117.5 -47t-148.5 -20q-101 0 -190.5 36t-156 102t-105 165.5t-38.5 220.5q0 120 39 218.5t104.5 162t150 97.5
t177.5 34q214 0 332 -137.5t115 -378.5v-25zM225 584h668q-8 149 -92.5 241.5t-229.5 92.5q-131 0 -229.5 -88t-116.5 -246zM762 1247l-66 -76l-360 293l76 88z" />
    <glyph glyph-name="eacute" unicode="&#xe9;" horiz-adv-x="1116" 
d="M848 1462l-363 -291l-63 76l350 305zM1016 481h-795q3 -96 36.5 -172.5t86.5 -123t116.5 -71t131.5 -24.5q74 0 138.5 20.5t108 53t70 61t43.5 56.5l76 -62q-11 -20 -30 -44t-58 -59.5t-86 -62.5t-117.5 -47t-148.5 -20q-101 0 -190.5 36t-156 102t-105 165.5
t-38.5 220.5q0 120 39 218.5t104.5 162t150 97.5t177.5 34q214 0 332 -137.5t115 -378.5v-25zM225 584h668q-8 149 -92.5 241.5t-229.5 92.5q-131 0 -229.5 -88t-116.5 -246z" />
    <glyph glyph-name="ecircumflex" unicode="&#xea;" horiz-adv-x="1116" 
d="M903 1247l-65 -76l-279 234l-276 -234l-64 76l342 297zM1016 481h-795q3 -96 36.5 -172.5t86.5 -123t116.5 -71t131.5 -24.5q74 0 138.5 20.5t108 53t70 61t43.5 56.5l76 -62q-11 -20 -30 -44t-58 -59.5t-86 -62.5t-117.5 -47t-148.5 -20q-101 0 -190.5 36t-156 102
t-105 165.5t-38.5 220.5q0 120 39 218.5t104.5 162t150 97.5t177.5 34q214 0 332 -137.5t115 -378.5v-25zM225 584h668q-8 149 -92.5 241.5t-229.5 92.5q-131 0 -229.5 -88t-116.5 -246z" />
    <glyph glyph-name="edieresis" unicode="&#xeb;" horiz-adv-x="1116" 
d="M479 1208q0 -32 -22.5 -53.5t-55.5 -21.5q-32 0 -53.5 21.5t-21.5 53.5q0 33 21.5 55.5t53.5 22.5t55 -23t23 -55zM793 1208q0 -32 -23.5 -53.5t-56.5 -21.5q-31 0 -52.5 21.5t-21.5 53.5t21.5 55t52.5 23q32 0 56 -23t24 -55zM1016 481h-795q3 -96 36.5 -172.5
t86.5 -123t116.5 -71t131.5 -24.5q74 0 138.5 20.5t108 53t70 61t43.5 56.5l76 -62q-11 -20 -30 -44t-58 -59.5t-86 -62.5t-117.5 -47t-148.5 -20q-101 0 -190.5 36t-156 102t-105 165.5t-38.5 220.5q0 120 39 218.5t104.5 162t150 97.5t177.5 34q214 0 332 -137.5
t115 -378.5v-25zM225 584h668q-8 149 -92.5 241.5t-229.5 92.5q-131 0 -229.5 -88t-116.5 -246z" />
    <glyph glyph-name="igrave" unicode="&#xec;" horiz-adv-x="544" 
d="M485 0h-409v100h145v807h-145v101h268v-908h141v-100zM338 1235l-66 -76l-360 293l76 88z" />
    <glyph glyph-name="iacute" unicode="&#xed;" horiz-adv-x="544" 
d="M602 1462l-362 -291l-64 76l350 305zM485 0h-409v100h145v807h-145v101h268v-908h141v-100z" />
    <glyph glyph-name="icircumflex" unicode="&#xee;" horiz-adv-x="544" 
d="M612 1247l-65 -76l-279 234l-276 -234l-64 76l342 297zM483 0h-409v100h145v807h-145v101h268v-908h141v-100z" />
    <glyph glyph-name="idieresis" unicode="&#xef;" horiz-adv-x="544" 
d="M213 1208q0 -32 -22.5 -53.5t-55.5 -21.5q-32 0 -54 21.5t-22 53.5t22 55t54 23t55 -23t23 -55zM526 1208q0 -32 -23.5 -53.5t-56.5 -21.5q-31 0 -52 21.5t-21 53.5t21 55t52 23q32 0 56 -23t24 -55zM485 0h-409v100h145v807h-145v101h268v-908h141v-100z" />
    <glyph glyph-name="eth" unicode="&#xf0;" horiz-adv-x="1263" 
d="M1096 1430l-113 -113q174 -197 174 -600q0 -159 -34 -291t-100 -231t-171 -154t-240 -55q-230 0 -371 134.5t-141 346.5q0 213 131.5 339t370.5 126q149 0 255 -35.5t167 -79.5q-15 270 -127 412l-129 -129l-63 63l129 129q-105 78 -242 78q-82 0 -142 -19t-93 -53
t-48.5 -74t-15.5 -87h-121q0 164 115.5 255t302.5 91q193 0 330 -105l114 115zM612 98q200 0 306.5 158t109.5 446q-21 16 -51 34t-82.5 41.5t-126.5 38.5t-154 15q-175 0 -283 -100.5t-108 -265.5q0 -163 105 -265t284 -102z" />
    <glyph glyph-name="ntilde" unicode="&#xf1;" horiz-adv-x="1226" 
d="M1180 0h-269v647q0 128 -64.5 199.5t-184.5 71.5q-66 0 -122.5 -20.5t-90.5 -49t-58 -57.5t-33 -49l-10 -21v-621h137v-100h-405v100h145v807h-145v101h258l-2 -166h4q12 20 26.5 38.5t45 46t65.5 47t89 34t116 14.5q165 0 258.5 -95t93.5 -259v-568h146v-100zM846 1386
h90v-22q0 -215 -164 -215q-50 0 -91.5 17.5t-65.5 38t-55 38t-62 17.5q-40 0 -58 -23.5t-18 -81.5v-25h-90v25q0 95 41 147t121 52q44 0 84 -17.5t65.5 -39t59 -39t65.5 -17.5q44 0 61 26.5t17 96.5v22z" />
    <glyph glyph-name="ograve" unicode="&#xf2;" horiz-adv-x="1196" 
d="M598 -14q-103 0 -194.5 36.5t-159 103t-107 166t-39.5 218.5q0 118 40 216t108.5 162t159 99t192.5 35q138 0 251.5 -60.5t182 -178.5t68.5 -273q0 -118 -39 -217t-106.5 -166t-159.5 -104t-197 -37zM598 90q157 0 267 114.5t110 301.5q0 94 -31.5 173t-84 130.5t-120 80
t-141.5 28.5q-72 0 -139.5 -28.5t-120.5 -80t-85 -130.5t-32 -173t31 -173.5t83 -132t120 -81.5t143 -29zM719 1247l-66 -76l-360 293l76 88z" />
    <glyph glyph-name="oacute" unicode="&#xf3;" horiz-adv-x="1196" 
d="M879 1462l-363 -291l-63 76l350 305zM598 -14q-103 0 -194.5 36.5t-159 103t-107 166t-39.5 218.5q0 118 40 216t108.5 162t159 99t192.5 35q138 0 251.5 -60.5t182 -178.5t68.5 -273q0 -118 -39 -217t-106.5 -166t-159.5 -104t-197 -37zM598 90q157 0 267 114.5
t110 301.5q0 94 -31.5 173t-84 130.5t-120 80t-141.5 28.5q-72 0 -139.5 -28.5t-120.5 -80t-85 -130.5t-32 -173t31 -173.5t83 -132t120 -81.5t143 -29z" />
    <glyph glyph-name="ocircumflex" unicode="&#xf4;" horiz-adv-x="1196" 
d="M948 1247l-65 -76l-279 234l-276 -234l-64 76l342 297zM598 -14q-103 0 -194.5 36.5t-159 103t-107 166t-39.5 218.5q0 118 40 216t108.5 162t159 99t192.5 35q138 0 251.5 -60.5t182 -178.5t68.5 -273q0 -118 -39 -217t-106.5 -166t-159.5 -104t-197 -37zM598 90
q157 0 267 114.5t110 301.5q0 94 -31.5 173t-84 130.5t-120 80t-141.5 28.5q-72 0 -139.5 -28.5t-120.5 -80t-85 -130.5t-32 -173t31 -173.5t83 -132t120 -81.5t143 -29z" />
    <glyph glyph-name="otilde" unicode="&#xf5;" horiz-adv-x="1196" 
d="M598 -14q-103 0 -194.5 36.5t-159 103t-107 166t-39.5 218.5q0 118 40 216t108.5 162t159 99t192.5 35q138 0 251.5 -60.5t182 -178.5t68.5 -273q0 -118 -39 -217t-106.5 -166t-159.5 -104t-197 -37zM598 90q157 0 267 114.5t110 301.5q0 94 -31.5 173t-84 130.5t-120 80
t-141.5 28.5q-72 0 -139.5 -28.5t-120.5 -80t-85 -130.5t-32 -173t31 -173.5t83 -132t120 -81.5t143 -29zM817 1386h90v-22q0 -215 -164 -215q-50 0 -91.5 17.5t-65.5 38t-55 38t-62 17.5q-40 0 -58 -23.5t-18 -81.5v-25h-90v25q0 95 41 147t121 52q44 0 84 -17.5t65.5 -39
t59 -39t65.5 -17.5q44 0 61 26.5t17 96.5v22z" />
    <glyph glyph-name="odieresis" unicode="&#xf6;" horiz-adv-x="1196" 
d="M522 1208q0 -32 -22.5 -53.5t-55.5 -21.5q-32 0 -53.5 21.5t-21.5 53.5q0 33 21.5 55.5t53.5 22.5t55 -23t23 -55zM836 1208q0 -32 -23.5 -53.5t-56.5 -21.5q-31 0 -52.5 21.5t-21.5 53.5t21.5 55t52.5 23q32 0 56 -23t24 -55zM598 -14q-103 0 -194.5 36.5t-159 103
t-107 166t-39.5 218.5q0 118 40 216t108.5 162t159 99t192.5 35q138 0 251.5 -60.5t182 -178.5t68.5 -273q0 -118 -39 -217t-106.5 -166t-159.5 -104t-197 -37zM598 90q157 0 267 114.5t110 301.5q0 94 -31.5 173t-84 130.5t-120 80t-141.5 28.5q-72 0 -139.5 -28.5
t-120.5 -80t-85 -130.5t-32 -173t31 -173.5t83 -132t120 -81.5t143 -29z" />
    <glyph glyph-name="divide" unicode="&#xf7;" horiz-adv-x="968" 
d="M819 492h-672v114h672v-114zM567 301q0 -34 -24 -58t-58 -24q-35 0 -59.5 24t-24.5 58q0 35 24.5 59.5t59.5 24.5q34 0 58 -24.5t24 -59.5zM567 805q0 -34 -24 -58t-58 -24q-35 0 -59.5 24t-24.5 58t24.5 59t59.5 25q34 0 58 -25t24 -59z" />
    <glyph glyph-name="oslash" unicode="&#xf8;" horiz-adv-x="1196" 
d="M377 -59h-98l57 112q-111 67 -174.5 184.5t-63.5 272.5q0 118 40 216t108.5 162t159 99t192.5 35q111 0 207 -41l33 63h98l-53 -104q101 -67 159 -177t58 -253q0 -118 -39 -217t-106.5 -166t-159.5 -104t-197 -37q-90 0 -182 30zM221 506q0 -116 44.5 -205.5
t121.5 -144.5l369 727q-75 35 -158 35q-72 0 -139.5 -28.5t-120.5 -80t-85 -130.5t-32 -173zM598 90q157 0 267 114.5t110 301.5q0 105 -39.5 189t-106.5 139l-364 -719q64 -25 133 -25z" />
    <glyph glyph-name="ugrave" unicode="&#xf9;" horiz-adv-x="1204" 
d="M1147 0h-260v164h-4q-15 -28 -36 -53.5t-59.5 -56.5t-100.5 -49.5t-138 -18.5q-165 0 -260.5 95.5t-95.5 258.5v567h-146v101h268v-648q0 -127 65.5 -198.5t184.5 -71.5q66 0 123 20.5t91 48.5t58.5 58t34 48.5t9.5 21.5v620h-144v101h264v-908h146v-100zM725 1247
l-66 -76l-360 293l76 88z" />
    <glyph glyph-name="uacute" unicode="&#xfa;" horiz-adv-x="1204" 
d="M797 1462l-363 -291l-63 76l350 305zM1147 0h-260v164h-4q-15 -28 -36 -53.5t-59.5 -56.5t-100.5 -49.5t-138 -18.5q-165 0 -260.5 95.5t-95.5 258.5v567h-146v101h268v-648q0 -127 65.5 -198.5t184.5 -71.5q66 0 123 20.5t91 48.5t58.5 58t34 48.5t9.5 21.5v620h-144
v101h264v-908h146v-100z" />
    <glyph glyph-name="ucircumflex" unicode="&#xfb;" horiz-adv-x="1204" 
d="M922 1247l-66 -76l-278 234l-277 -234l-63 76l342 297zM1147 0h-260v164h-4q-15 -28 -36 -53.5t-59.5 -56.5t-100.5 -49.5t-138 -18.5q-165 0 -260.5 95.5t-95.5 258.5v567h-146v101h268v-648q0 -127 65.5 -198.5t184.5 -71.5q66 0 123 20.5t91 48.5t58.5 58t34 48.5
t9.5 21.5v620h-144v101h264v-908h146v-100z" />
    <glyph glyph-name="udieresis" unicode="&#xfc;" horiz-adv-x="1204" 
d="M500 1208q0 -32 -22.5 -53.5t-55.5 -21.5q-32 0 -54 21.5t-22 53.5t22 55t54 23t55 -23t23 -55zM813 1208q0 -32 -23.5 -53.5t-56.5 -21.5q-31 0 -52.5 21.5t-21.5 53.5t21.5 55t52.5 23q32 0 56 -23t24 -55zM1147 0h-260v164h-4q-15 -28 -36 -53.5t-59.5 -56.5
t-100.5 -49.5t-138 -18.5q-165 0 -260.5 95.5t-95.5 258.5v567h-146v101h268v-648q0 -127 65.5 -198.5t184.5 -71.5q66 0 123 20.5t91 48.5t58.5 58t34 48.5t9.5 21.5v620h-144v101h264v-908h146v-100z" />
    <glyph glyph-name="yacute" unicode="&#xfd;" horiz-adv-x="1140" 
d="M475 -145l64 174h-37l-357 878h-139v101h387v-101h-119l301 -760h5l272 760h-123v101h391v-101h-141l-393 -1054q-31 -85 -59 -140t-66.5 -101.5t-88.5 -67.5t-116 -21q-113 0 -193 80l60 73q7 -7 18.5 -16t42.5 -22t62 -13q83 0 132 50t97 180zM821 1462l-362 -291
l-64 76l350 305z" />
    <glyph glyph-name="thorn" unicode="&#xfe;" horiz-adv-x="1210" 
d="M453 -461h-420v101h145v1728h-143v100h266v-665q46 101 136.5 160t213.5 59q205 0 333 -142t128 -372t-127 -376t-334 -146q-128 0 -218.5 65t-135.5 166h-4q4 -43 4 -72v-505h156v-101zM639 90q151 0 251.5 115t100.5 299q0 189 -100.5 301.5t-251.5 112.5
q-147 0 -246.5 -111.5t-99.5 -300.5q0 -187 98.5 -301.5t247.5 -114.5z" />
    <glyph glyph-name="ydieresis" unicode="&#xff;" horiz-adv-x="1140" 
d="M475 -145l64 174h-37l-357 878h-139v101h387v-101h-119l301 -760h5l272 760h-123v101h391v-101h-141l-393 -1054q-31 -85 -59 -140t-66.5 -101.5t-88.5 -67.5t-116 -21q-113 0 -193 80l60 73q7 -7 18.5 -16t42.5 -22t62 -13q83 0 132 50t97 180zM508 1208
q0 -32 -22.5 -53.5t-55.5 -21.5q-32 0 -54 21.5t-22 53.5t22 55t54 23t55 -23t23 -55zM821 1208q0 -32 -23.5 -53.5t-56.5 -21.5q-31 0 -52 21.5t-21 53.5t21 55t52 23q32 0 56 -23t24 -55z" />
    <glyph glyph-name="Amacron" unicode="&#x100;" horiz-adv-x="1462" 
d="M1495 0h-465v111h170l-153 409h-619l-154 -409h170v-111h-462v111h163l469 1249h-125v110h328l514 -1359h164v-111zM1006 631l-265 704h-10l-260 -704h535zM1055 1602h-635v104h635v-104z" />
    <glyph glyph-name="amacron" unicode="&#x101;" 
d="M1096 0h-258v195h-4q-22 -32 -51 -62t-79 -67t-124.5 -59.5t-161.5 -22.5q-143 0 -238.5 75.5t-95.5 204.5q0 316 559 316h186v41q0 162 -78 229.5t-221 67.5q-67 0 -126.5 -12t-96.5 -29t-64 -34.5t-39 -29.5l-11 -12l-66 80l2 3q87 101 273 129q60 9 128 9
q207 0 314.5 -95t107.5 -309v-518h144v-100zM829 307v170h-182q-438 0 -438 -211q0 -75 62 -124.5t169 -49.5q69 0 134.5 22.5t115 59t82 68.5t57.5 65zM868 1139h-635v104h635v-104z" />
    <glyph glyph-name="Abreve" unicode="&#x102;" horiz-adv-x="1462" 
d="M1495 0h-465v111h170l-153 409h-619l-154 -409h170v-111h-462v111h163l469 1249h-125v110h328l514 -1359h164v-111zM1006 631l-265 704h-10l-260 -704h535zM909 1935h103v-24q0 -136 -76 -208.5t-201 -72.5q-122 0 -197 72.5t-75 208.5v24h100v-24q0 -90 49.5 -139.5
t122.5 -49.5t123.5 50t50.5 139v24z" />
    <glyph glyph-name="abreve" unicode="&#x103;" 
d="M1096 0h-258v195h-4q-22 -32 -51 -62t-79 -67t-124.5 -59.5t-161.5 -22.5q-143 0 -238.5 75.5t-95.5 204.5q0 316 559 316h186v41q0 162 -78 229.5t-221 67.5q-67 0 -126.5 -12t-96.5 -29t-64 -34.5t-39 -29.5l-11 -12l-66 80l2 3q87 101 273 129q60 9 128 9
q207 0 314.5 -95t107.5 -309v-518h144v-100zM829 307v170h-182q-438 0 -438 -211q0 -75 62 -124.5t169 -49.5q69 0 134.5 22.5t115 59t82 68.5t57.5 65zM750 1473h102v-25q0 -136 -76 -208.5t-201 -72.5q-122 0 -197 72.5t-75 208.5v25h100v-25q0 -90 49.5 -139t122.5 -49
q74 0 124.5 49.5t50.5 138.5v25z" />
    <glyph glyph-name="Aogonek" unicode="&#x104;" horiz-adv-x="1462" 
d="M1458 -203l39 -61q-71 -53 -147 -53q-69 0 -111.5 40t-42.5 103q0 38 16 70t41.5 52.5t46 32t41.5 19.5h-311v111h170l-153 409h-619l-154 -409h170v-111h-462v111h163l469 1249h-125v110h328l514 -1359h164v-111h-59q-21 -9 -42 -21.5t-47.5 -34t-43.5 -51t-17 -61.5
q0 -31 21 -49.5t53 -18.5q16 0 33 4.5t27 9t22 11t16 8.5zM1006 631l-265 704h-10l-260 -704h535z" />
    <glyph glyph-name="aogonek" unicode="&#x105;" 
d="M1059 -203l39 -61q-71 -53 -148 -53q-69 0 -111 40t-42 103q0 38 16 70t41.5 52.5t46 32t41.5 19.5h-104v195h-4q-22 -32 -51 -62t-79 -67t-124.5 -59.5t-161.5 -22.5q-143 0 -238.5 75.5t-95.5 204.5q0 316 559 316h186v41q0 162 -78 229.5t-221 67.5q-67 0 -126.5 -12
t-96.5 -29t-64 -34.5t-39 -29.5l-11 -12l-66 80l2 3q87 101 273 129q60 9 128 9q207 0 314.5 -95t107.5 -309v-518h144v-100h-60q-20 -9 -41 -21.5t-48 -34t-43.5 -51t-16.5 -61.5q0 -31 21 -49.5t53 -18.5q16 0 33 4.5t27 9t22 11t16 8.5zM829 307v170h-182
q-438 0 -438 -211q0 -75 62 -124.5t169 -49.5q69 0 134.5 22.5t115 59t82 68.5t57.5 65z" />
    <glyph glyph-name="Cacute" unicode="&#x106;" horiz-adv-x="1521" 
d="M1008 1925l-363 -291l-63 76l350 305zM1339 399l97 -61q-16 -32 -39 -66t-78 -89t-121 -95.5t-172.5 -71t-228.5 -30.5q-143 0 -269 54.5t-217.5 152t-144.5 240t-53 310.5q0 134 36 252.5t100 206.5t149.5 152t187 96.5t209.5 32.5q101 0 186 -23.5t142 -63t92.5 -75.5
t60.5 -76v225h121v-475h-129v43q0 46 -35.5 101.5t-94.5 106t-150.5 84.5t-190.5 34q-78 0 -155 -23t-149 -73.5t-126.5 -122.5t-87.5 -177.5t-33 -230.5t32 -230.5t86 -178.5t126 -124.5t151 -75.5t162 -24q96 0 179.5 22t138.5 53.5t102.5 75t71 76t44.5 68.5z" />
    <glyph glyph-name="cacute" unicode="&#x107;" horiz-adv-x="1126" 
d="M913 1462l-362 -291l-64 76l351 305zM954 283l76 -64q-12 -21 -30 -44.5t-57.5 -59t-86 -62.5t-118 -47t-150.5 -20q-101 0 -190.5 36t-156 102t-105 165.5t-38.5 220.5q0 120 40.5 218.5t108 161.5t153.5 97.5t180 34.5q123 0 206 -45.5t129 -114.5h3v148h96v-383h-105
v61q0 47 -37 99t-113 91.5t-169 39.5q-64 0 -128.5 -27.5t-118.5 -77.5t-88 -130.5t-34 -176.5q0 -97 32.5 -177.5t85.5 -131.5t118.5 -79t134.5 -28q60 0 114.5 14.5t93 35.5t71.5 49t51.5 50.5t31.5 43.5z" />
    <glyph glyph-name="Ccircumflex" unicode="&#x108;" horiz-adv-x="1521" 
d="M1118 1710l-65 -76l-279 234l-276 -234l-64 76l342 297zM1339 399l97 -61q-16 -32 -39 -66t-78 -89t-121 -95.5t-172.5 -71t-228.5 -30.5q-143 0 -269 54.5t-217.5 152t-144.5 240t-53 310.5q0 134 36 252.5t100 206.5t149.5 152t187 96.5t209.5 32.5q101 0 186 -23.5
t142 -63t92.5 -75.5t60.5 -76v225h121v-475h-129v43q0 46 -35.5 101.5t-94.5 106t-150.5 84.5t-190.5 34q-78 0 -155 -23t-149 -73.5t-126.5 -122.5t-87.5 -177.5t-33 -230.5t32 -230.5t86 -178.5t126 -124.5t151 -75.5t162 -24q96 0 179.5 22t138.5 53.5t102.5 75t71 76
t44.5 68.5z" />
    <glyph glyph-name="ccircumflex" unicode="&#x109;" horiz-adv-x="1126" 
d="M932 1247l-66 -76l-278 234l-277 -234l-63 76l342 297zM954 283l76 -64q-12 -21 -30 -44.5t-57.5 -59t-86 -62.5t-118 -47t-150.5 -20q-101 0 -190.5 36t-156 102t-105 165.5t-38.5 220.5q0 120 40.5 218.5t108 161.5t153.5 97.5t180 34.5q123 0 206 -45.5t129 -114.5h3
v148h96v-383h-105v61q0 47 -37 99t-113 91.5t-169 39.5q-64 0 -128.5 -27.5t-118.5 -77.5t-88 -130.5t-34 -176.5q0 -97 32.5 -177.5t85.5 -131.5t118.5 -79t134.5 -28q60 0 114.5 14.5t93 35.5t71.5 49t51.5 50.5t31.5 43.5z" />
    <glyph glyph-name="Cdotaccent" unicode="&#x10a;" horiz-adv-x="1521" 
d="M1339 399l97 -61q-16 -32 -39 -66t-78 -89t-121 -95.5t-172.5 -71t-228.5 -30.5q-143 0 -269 54.5t-217.5 152t-144.5 240t-53 310.5q0 134 36 252.5t100 206.5t149.5 152t187 96.5t209.5 32.5q101 0 186 -23.5t142 -63t92.5 -75.5t60.5 -76v225h121v-475h-129v43
q0 46 -35.5 101.5t-94.5 106t-150.5 84.5t-190.5 34q-78 0 -155 -23t-149 -73.5t-126.5 -122.5t-87.5 -177.5t-33 -230.5t32 -230.5t86 -178.5t126 -124.5t151 -75.5t162 -24q96 0 179.5 22t138.5 53.5t102.5 75t71 76t44.5 68.5zM920 1724q0 -41 -29 -69.5t-70 -28.5
t-69.5 28.5t-28.5 69.5q0 42 28.5 71.5t69.5 29.5t70 -30t29 -71z" />
    <glyph glyph-name="cdotaccent" unicode="&#x10b;" horiz-adv-x="1126" 
d="M954 283l76 -64q-12 -21 -30 -44.5t-57.5 -59t-86 -62.5t-118 -47t-150.5 -20q-101 0 -190.5 36t-156 102t-105 165.5t-38.5 220.5q0 120 40.5 218.5t108 161.5t153.5 97.5t180 34.5q123 0 206 -45.5t129 -114.5h3v148h96v-383h-105v61q0 47 -37 99t-113 91.5t-169 39.5
q-64 0 -128.5 -27.5t-118.5 -77.5t-88 -130.5t-34 -176.5q0 -97 32.5 -177.5t85.5 -131.5t118.5 -79t134.5 -28q60 0 114.5 14.5t93 35.5t71.5 49t51.5 50.5t31.5 43.5zM688 1262q0 -41 -28.5 -70t-69.5 -29t-69.5 29t-28.5 70t28.5 70.5t69.5 29.5t69.5 -29.5t28.5 -70.5z
" />
    <glyph glyph-name="Ccaron" unicode="&#x10c;" horiz-adv-x="1521" 
d="M1120 1935l-342 -297l-344 297l66 76l276 -233l279 233zM1339 399l97 -61q-16 -32 -39 -66t-78 -89t-121 -95.5t-172.5 -71t-228.5 -30.5q-143 0 -269 54.5t-217.5 152t-144.5 240t-53 310.5q0 134 36 252.5t100 206.5t149.5 152t187 96.5t209.5 32.5q101 0 186 -23.5
t142 -63t92.5 -75.5t60.5 -76v225h121v-475h-129v43q0 46 -35.5 101.5t-94.5 106t-150.5 84.5t-190.5 34q-78 0 -155 -23t-149 -73.5t-126.5 -122.5t-87.5 -177.5t-33 -230.5t32 -230.5t86 -178.5t126 -124.5t151 -75.5t162 -24q96 0 179.5 22t138.5 53.5t102.5 75t71 76
t44.5 68.5z" />
    <glyph glyph-name="ccaron" unicode="&#x10d;" horiz-adv-x="1126" 
d="M946 1473l-342 -297l-344 297l66 75l276 -233l279 233zM954 283l76 -64q-12 -21 -30 -44.5t-57.5 -59t-86 -62.5t-118 -47t-150.5 -20q-101 0 -190.5 36t-156 102t-105 165.5t-38.5 220.5q0 120 40.5 218.5t108 161.5t153.5 97.5t180 34.5q123 0 206 -45.5t129 -114.5h3
v148h96v-383h-105v61q0 47 -37 99t-113 91.5t-169 39.5q-64 0 -128.5 -27.5t-118.5 -77.5t-88 -130.5t-34 -176.5q0 -97 32.5 -177.5t85.5 -131.5t118.5 -79t134.5 -28q60 0 114.5 14.5t93 35.5t71.5 49t51.5 50.5t31.5 43.5z" />
    <glyph glyph-name="Dcaron" unicode="&#x10e;" horiz-adv-x="1511" 
d="M1079 1935l-342 -297l-344 297l66 76l276 -233l279 233zM410 111h243q300 0 456.5 161.5t156.5 466.5q0 142 -38 255.5t-113 195.5t-192 126t-270 44h-243v-1249zM678 0h-582v111h187v1249h-187v110h566q349 0 543 -193t194 -534q0 -349 -188.5 -546t-532.5 -197z" />
    <glyph glyph-name="dcaron" unicode="&#x10f;" horiz-adv-x="1236" 
d="M1120 1184v49h13q32 0 58 29t26 88q0 7 -1.5 12.5t-2.5 7.5l-1 2q-10 -12 -41 -12q-29 0 -50 22t-21 58q0 35 24 58.5t58 23.5q47 0 73.5 -34t26.5 -97q0 -108 -43.5 -157.5t-105.5 -49.5h-13zM1178 0h-260v223h-3q-39 -102 -132.5 -169.5t-223.5 -67.5
q-205 0 -333 145.5t-128 378.5q0 227 127.5 369.5t333.5 142.5q128 0 219 -61t135 -158h2q-2 37 -2 53v514h-147v100h270v-1370h142v-100zM569 90q150 0 249.5 115t99.5 301q0 188 -101 300t-248 112q-148 0 -249 -112t-101 -300q0 -184 99.5 -300t250.5 -116z" />
    <glyph glyph-name="Dcroat" unicode="&#x110;" horiz-adv-x="1511" 
d="M678 0h-582v111h187v573h-168v107h168v569h-187v110h566q349 0 543 -193t194 -534q0 -349 -188.5 -546t-532.5 -197zM410 111h243q301 0 458 161t157 467q0 289 -156 455t-459 166h-243v-569h370v-107h-370v-573z" />
    <glyph glyph-name="dcroat" unicode="&#x111;" horiz-adv-x="1236" 
d="M1178 0h-260v223h-3q-39 -102 -132.5 -169.5t-223.5 -67.5q-205 0 -333 145.5t-128 378.5q0 227 127.5 369.5t333.5 142.5q128 0 219 -61t135 -158h2q-2 37 -2 53v305h-325v72h325v137h-147v100h270v-237h140v-72h-140v-1061h142v-100zM569 90q150 0 249.5 115t99.5 301
q0 188 -101 300t-248 112q-148 0 -249 -112t-101 -300q0 -184 99.5 -300t250.5 -116z" />
    <glyph glyph-name="Emacron" unicode="&#x112;" horiz-adv-x="1325" 
d="M1210 0h-1114v111h187v1249h-187v110h1114v-337h-123v227h-677v-572h598v-110h-598v-567h675v225h125v-336zM932 1602h-635v104h635v-104z" />
    <glyph glyph-name="emacron" unicode="&#x113;" horiz-adv-x="1116" 
d="M1016 481h-795q3 -96 36.5 -172.5t86.5 -123t116.5 -71t131.5 -24.5q74 0 138.5 20.5t108 53t70 61t43.5 56.5l76 -62q-11 -20 -30 -44t-58 -59.5t-86 -62.5t-117.5 -47t-148.5 -20q-101 0 -190.5 36t-156 102t-105 165.5t-38.5 220.5q0 120 39 218.5t104.5 162t150 97.5
t177.5 34q214 0 332 -137.5t115 -378.5v-25zM225 584h668q-8 149 -92.5 241.5t-229.5 92.5q-131 0 -229.5 -88t-116.5 -246zM872 1139h-634v104h634v-104z" />
    <glyph glyph-name="Ebreve" unicode="&#x114;" horiz-adv-x="1325" 
d="M1210 0h-1114v111h187v1249h-187v110h1114v-337h-123v227h-677v-572h598v-110h-598v-567h675v225h125v-336zM784 1935h103v-24q0 -136 -76 -208.5t-201 -72.5q-122 0 -197 72.5t-75 208.5v24h100v-24q0 -90 49.5 -139.5t122.5 -49.5t123.5 50t50.5 139v24z" />
    <glyph glyph-name="ebreve" unicode="&#x115;" horiz-adv-x="1116" 
d="M1016 481h-795q3 -96 36.5 -172.5t86.5 -123t116.5 -71t131.5 -24.5q74 0 138.5 20.5t108 53t70 61t43.5 56.5l76 -62q-11 -20 -30 -44t-58 -59.5t-86 -62.5t-117.5 -47t-148.5 -20q-101 0 -190.5 36t-156 102t-105 165.5t-38.5 220.5q0 120 39 218.5t104.5 162t150 97.5
t177.5 34q214 0 332 -137.5t115 -378.5v-25zM225 584h668q-8 149 -92.5 241.5t-229.5 92.5q-131 0 -229.5 -88t-116.5 -246zM762 1473h102v-25q0 -137 -75.5 -209t-200.5 -72q-122 0 -197.5 72.5t-75.5 208.5v25h101v-25q0 -90 49.5 -139t122.5 -49t123.5 49.5t50.5 138.5
v25z" />
    <glyph glyph-name="Edotaccent" unicode="&#x116;" horiz-adv-x="1325" 
d="M1210 0h-1114v111h187v1249h-187v110h1114v-337h-123v227h-677v-572h598v-110h-598v-567h675v225h125v-336zM711 1724q0 -41 -29 -69.5t-70 -28.5t-69.5 28.5t-28.5 69.5q0 42 28.5 71.5t69.5 29.5t70 -30t29 -71z" />
    <glyph glyph-name="edotaccent" unicode="&#x117;" horiz-adv-x="1116" 
d="M1016 481h-795q3 -96 36.5 -172.5t86.5 -123t116.5 -71t131.5 -24.5q74 0 138.5 20.5t108 53t70 61t43.5 56.5l76 -62q-11 -20 -30 -44t-58 -59.5t-86 -62.5t-117.5 -47t-148.5 -20q-101 0 -190.5 36t-156 102t-105 165.5t-38.5 220.5q0 120 39 218.5t104.5 162t150 97.5
t177.5 34q214 0 332 -137.5t115 -378.5v-25zM225 584h668q-8 149 -92.5 241.5t-229.5 92.5q-131 0 -229.5 -88t-116.5 -246zM662 1262q0 -41 -29 -70t-70 -29t-69.5 29t-28.5 70t28.5 70.5t69.5 29.5t70 -29.5t29 -70.5z" />
    <glyph glyph-name="Eogonek" unicode="&#x118;" horiz-adv-x="1325" 
d="M1210 0h-61q-21 -9 -42 -21.5t-47.5 -34t-43.5 -51t-17 -61.5q0 -31 21 -49.5t53 -18.5q16 0 33 4.5t27 9t22 11t16 8.5l39 -61q-71 -53 -147 -53q-69 0 -111.5 40t-42.5 103q0 38 16 70t42 52.5t46.5 32t41.5 19.5h-959v111h187v1249h-187v110h1114v-337h-123v227h-677
v-572h598v-110h-598v-567h675v225h125v-336z" />
    <glyph glyph-name="eogonek" unicode="&#x119;" horiz-adv-x="1116" 
d="M1016 481h-795q3 -96 36.5 -172.5t86.5 -123t116.5 -71t131.5 -24.5q74 0 138.5 20.5t108 53t70 61t43.5 56.5l76 -62q-14 -25 -39 -54t-70.5 -68.5t-116.5 -69t-153 -37.5q-127 -73 -127 -158q0 -31 21 -49.5t53 -18.5q16 0 33 4.5t27 9t22 11t16 8.5l39 -61
q-71 -53 -147 -53q-69 0 -111.5 40t-42.5 103q0 101 115 162q-195 12 -322 153t-127 369q0 120 39 218.5t104.5 162t150 97.5t177.5 34q214 0 332 -137.5t115 -378.5v-25zM225 584h668q-8 149 -92.5 241.5t-229.5 92.5q-131 0 -229.5 -88t-116.5 -246z" />
    <glyph glyph-name="Ecaron" unicode="&#x11a;" horiz-adv-x="1325" 
d="M961 1935l-343 -297l-344 297l66 76l276 -233l279 233zM1210 0h-1114v111h187v1249h-187v110h1114v-337h-123v227h-677v-572h598v-110h-598v-567h675v225h125v-336z" />
    <glyph glyph-name="ecaron" unicode="&#x11b;" horiz-adv-x="1116" 
d="M901 1473l-342 -297l-344 297l66 75l276 -233l279 233zM1016 481h-795q3 -96 36.5 -172.5t86.5 -123t116.5 -71t131.5 -24.5q74 0 138.5 20.5t108 53t70 61t43.5 56.5l76 -62q-11 -20 -30 -44t-58 -59.5t-86 -62.5t-117.5 -47t-148.5 -20q-101 0 -190.5 36t-156 102
t-105 165.5t-38.5 220.5q0 120 39 218.5t104.5 162t150 97.5t177.5 34q214 0 332 -137.5t115 -378.5v-25zM225 584h668q-8 149 -92.5 241.5t-229.5 92.5q-131 0 -229.5 -88t-116.5 -246z" />
    <glyph glyph-name="Gcircumflex" unicode="&#x11c;" horiz-adv-x="1566" 
d="M1143 1710l-66 -76l-278 234l-277 -234l-63 76l342 297zM1425 0h-118v178q-183 -192 -500 -192q-148 0 -276 54.5t-220 152t-145 240t-53 310.5q0 137 38 256.5t104 207t153.5 150.5t188.5 94.5t208 31.5q100 0 183.5 -19.5t139 -53t90 -65t58.5 -67.5v192h121v-442h-129
v49q0 44 -34 94t-92.5 93t-147 71.5t-185.5 28.5q-84 0 -165.5 -27.5t-153 -81.5t-126.5 -128.5t-86.5 -175.5t-31.5 -214q0 -122 32.5 -226.5t87 -178t127 -126t153.5 -77.5t165 -25q96 0 179.5 20t142 54t99 70t68.5 76v208h-415v111h540v-643z" />
    <glyph glyph-name="gcircumflex" unicode="&#x11d;" horiz-adv-x="1228" 
d="M965 1247l-66 -76l-278 234l-277 -234l-63 76l342 297zM565 -477q-46 0 -89.5 4.5t-77.5 13t-64.5 19t-54 22.5t-42.5 23t-33 22.5t-23 19.5t-15 15l-6 6l61 82l8 -8q8 -7 17 -14.5t26.5 -19.5t36.5 -22.5t47 -21.5t58 -19t69.5 -13t81.5 -5q58 0 108 10.5t94.5 35
t76.5 61.5t50.5 92.5t18.5 124.5v270q-47 -104 -137 -169.5t-219 -65.5q-205 0 -332 146.5t-127 375.5q0 230 128 372t333 142q127 0 218.5 -62.5t137.5 -160.5h5l-5 209h259v-101h-142v-956q0 -109 -35 -192t-98.5 -134t-147.5 -76.5t-186 -25.5zM569 90q150 0 249.5 114.5
t99.5 301.5q0 189 -100.5 300.5t-248.5 111.5q-149 0 -249.5 -113t-100.5 -301q0 -184 99.5 -299t250.5 -115z" />
    <glyph glyph-name="Gbreve" unicode="&#x11e;" horiz-adv-x="1566" 
d="M1425 0h-118v178q-183 -192 -500 -192q-148 0 -276 54.5t-220 152t-145 240t-53 310.5q0 137 38 256.5t104 207t153.5 150.5t188.5 94.5t208 31.5q100 0 183.5 -19.5t139 -53t90 -65t58.5 -67.5v192h121v-442h-129v49q0 44 -34 94t-92.5 93t-147 71.5t-185.5 28.5
q-84 0 -165.5 -27.5t-153 -81.5t-126.5 -128.5t-86.5 -175.5t-31.5 -214q0 -122 32.5 -226.5t87 -178t127 -126t153.5 -77.5t165 -25q96 0 179.5 20t142 54t99 70t68.5 76v208h-415v111h540v-643zM979 1935h102v-24q0 -137 -75.5 -209t-200.5 -72q-122 0 -197.5 72.5
t-75.5 208.5v24h101v-24q0 -90 49.5 -139.5t122.5 -49.5t123.5 50t50.5 139v24z" />
    <glyph glyph-name="gbreve" unicode="&#x11f;" horiz-adv-x="1228" 
d="M565 -477q-46 0 -89.5 4.5t-77.5 13t-64.5 19t-54 22.5t-42.5 23t-33 22.5t-23 19.5t-15 15l-6 6l61 82l8 -8q8 -7 17 -14.5t26.5 -19.5t36.5 -22.5t47 -21.5t58 -19t69.5 -13t81.5 -5q58 0 108 10.5t94.5 35t76.5 61.5t50.5 92.5t18.5 124.5v270q-47 -104 -137 -169.5
t-219 -65.5q-205 0 -332 146.5t-127 375.5q0 230 128 372t333 142q127 0 218.5 -62.5t137.5 -160.5h5l-5 209h259v-101h-142v-956q0 -109 -35 -192t-98.5 -134t-147.5 -76.5t-186 -25.5zM569 90q150 0 249.5 114.5t99.5 301.5q0 189 -100.5 300.5t-248.5 111.5
q-149 0 -249.5 -113t-100.5 -301q0 -184 99.5 -299t250.5 -115zM797 1473h102v-25q0 -137 -75.5 -209t-200.5 -72q-122 0 -197.5 72.5t-75.5 208.5v25h101v-25q0 -90 49.5 -139t122.5 -49t123.5 49.5t50.5 138.5v25z" />
    <glyph glyph-name="Gdotaccent" unicode="&#x120;" horiz-adv-x="1566" 
d="M1425 0h-118v178q-183 -192 -500 -192q-148 0 -276 54.5t-220 152t-145 240t-53 310.5q0 137 38 256.5t104 207t153.5 150.5t188.5 94.5t208 31.5q100 0 183.5 -19.5t139 -53t90 -65t58.5 -67.5v192h121v-442h-129v49q0 44 -34 94t-92.5 93t-147 71.5t-185.5 28.5
q-84 0 -165.5 -27.5t-153 -81.5t-126.5 -128.5t-86.5 -175.5t-31.5 -214q0 -122 32.5 -226.5t87 -178t127 -126t153.5 -77.5t165 -25q96 0 179.5 20t142 54t99 70t68.5 76v208h-415v111h540v-643zM897 1724q0 -41 -28.5 -69.5t-69.5 -28.5t-70 28.5t-29 69.5t29 71t70 30
t69.5 -29.5t28.5 -71.5z" />
    <glyph glyph-name="gdotaccent" unicode="&#x121;" horiz-adv-x="1228" 
d="M565 -477q-46 0 -89.5 4.5t-77.5 13t-64.5 19t-54 22.5t-42.5 23t-33 22.5t-23 19.5t-15 15l-6 6l61 82l8 -8q8 -7 17 -14.5t26.5 -19.5t36.5 -22.5t47 -21.5t58 -19t69.5 -13t81.5 -5q58 0 108 10.5t94.5 35t76.5 61.5t50.5 92.5t18.5 124.5v270q-47 -104 -137 -169.5
t-219 -65.5q-205 0 -332 146.5t-127 375.5q0 230 128 372t333 142q127 0 218.5 -62.5t137.5 -160.5h5l-5 209h259v-101h-142v-956q0 -109 -35 -192t-98.5 -134t-147.5 -76.5t-186 -25.5zM569 90q150 0 249.5 114.5t99.5 301.5q0 189 -100.5 300.5t-248.5 111.5
q-149 0 -249.5 -113t-100.5 -301q0 -184 99.5 -299t250.5 -115zM729 1262q0 -41 -28.5 -70t-69.5 -29t-70 29t-29 70t29 70.5t70 29.5t69.5 -29.5t28.5 -70.5z" />
    <glyph glyph-name="Gcommaaccent" unicode="&#x122;" horiz-adv-x="1566" 
d="M731 -424v27q0 12 12 12q32 0 58 29t26 88l-4 22q-10 -12 -39 -12q-30 0 -50.5 22.5t-20.5 59.5q0 34 23.5 57t58.5 23q46 0 72 -34t26 -97q0 -107 -44 -157t-106 -50q-12 0 -12 10zM1425 0h-118v178q-183 -192 -500 -192q-148 0 -276 54.5t-220 152t-145 240t-53 310.5
q0 137 38 256.5t104 207t153.5 150.5t188.5 94.5t208 31.5q100 0 183.5 -19.5t139 -53t90 -65t58.5 -67.5v192h121v-442h-129v49q0 44 -34 94t-92.5 93t-147 71.5t-185.5 28.5q-84 0 -165.5 -27.5t-153 -81.5t-126.5 -128.5t-86.5 -175.5t-31.5 -214q0 -122 32.5 -226.5
t87 -178t127 -126t153.5 -77.5t165 -25q96 0 179.5 20t142 54t99 70t68.5 76v208h-415v111h540v-643z" />
    <glyph glyph-name="gcommaaccent" unicode="&#x123;" horiz-adv-x="1228" 
d="M565 -477q-46 0 -89.5 4.5t-77.5 13t-64.5 19t-54 22.5t-42.5 23t-33 22.5t-23 19.5t-15 15l-6 6l61 82l8 -8q8 -7 17 -14.5t26.5 -19.5t36.5 -22.5t47 -21.5t58 -19t69.5 -13t81.5 -5q58 0 108 10.5t94.5 35t76.5 61.5t50.5 92.5t18.5 124.5v270q-47 -104 -137 -169.5
t-219 -65.5q-205 0 -332 146.5t-127 375.5q0 230 128 372t333 142q127 0 218.5 -62.5t137.5 -160.5h5l-5 209h259v-101h-142v-956q0 -109 -35 -192t-98.5 -134t-147.5 -76.5t-186 -25.5zM569 90q150 0 249.5 114.5t99.5 301.5q0 189 -100.5 300.5t-248.5 111.5
q-149 0 -249.5 -113t-100.5 -301q0 -184 99.5 -299t250.5 -115zM678 1430v-50h-12q-32 0 -58 -28.5t-26 -87.5l4 -23q10 12 39 12q30 0 51.5 -21.5t21.5 -57.5q0 -35 -24.5 -58.5t-59.5 -23.5q-46 0 -72 34t-26 97q0 108 44 157.5t106 49.5h12z" />
    <glyph glyph-name="Hcircumflex" unicode="&#x124;" horiz-adv-x="1658" 
d="M1194 1710l-66 -76l-278 234l-277 -234l-63 76l342 297zM1563 0h-502v111h186v567h-837v-567h188v-111h-502v111h187v1249h-187v110h502v-110h-188v-572h837v572h-186v110h502v-110h-189v-1249h189v-111z" />
    <glyph glyph-name="hcircumflex" unicode="&#x125;" horiz-adv-x="1202" 
d="M946 1638l-65 -75l-279 233l-276 -233l-64 75l342 297zM1157 0h-268v647q0 127 -65.5 197.5t-184.5 70.5q-49 0 -93 -11t-75 -28t-57 -38t-42 -41.5t-27.5 -38t-16.5 -27.5l-4 -10v-621h141v-100h-408v100h144v1270h-144v100h267v-499q0 -91 -7 -119h5q17 27 40.5 52
t63.5 54t100 46.5t131 17.5q165 0 260 -95.5t95 -258.5v-568h145v-100z" />
    <glyph glyph-name="Hbar" unicode="&#x126;" horiz-adv-x="1658" 
d="M1505 1020h-131v-909h189v-111h-502v111h186v567h-837v-567h190v-111h-504v111h187v909h-160v84h160v256h-187v110h504v-110h-190v-256h837v256h-186v110h502v-110h-189v-256h131v-84zM410 788h837v232h-837v-232z" />
    <glyph glyph-name="hbar" unicode="&#x127;" horiz-adv-x="1202" 
d="M645 1165h-321v-194q0 -91 -7 -119h5q17 27 40.5 52t63.5 54t100 46.5t131 17.5q165 0 259 -95t94 -259l2 -568h145v-100h-268v647q0 127 -65.5 197.5t-184.5 70.5q-49 0 -93 -11t-75 -28t-57 -38t-42 -41.5t-27.5 -38t-16.5 -27.5l-4 -10v-621h141v-100h-408v100h144
v1065h-144v72h144v133h-144v100h267v-233h321v-72z" />
    <glyph glyph-name="Itilde" unicode="&#x128;" horiz-adv-x="694" 
d="M598 0h-502v111h187v1249h-187v110h502v-110h-188v-1249h188v-111zM559 1849h90v-22q0 -215 -164 -215q-50 0 -91.5 17t-65.5 38t-55 38t-62 17q-40 0 -58 -23t-18 -81v-25h-90v25q0 95 41 147t121 52q44 0 84 -17.5t65.5 -39t59 -39t65.5 -17.5q44 0 61 26.5t17 96.5v22
z" />
    <glyph glyph-name="itilde" unicode="&#x129;" horiz-adv-x="544" 
d="M485 0h-409v100h145v807h-145v101h268v-908h141v-100zM463 1386h90v-22q0 -215 -164 -215q-50 0 -91.5 17.5t-65.5 38t-55 38t-62 17.5q-40 0 -58 -23.5t-18 -81.5v-25h-90v25q0 95 41 147t121 52q44 0 84 -17.5t65.5 -39t59 -39t65.5 -17.5q44 0 61 26.5t17 96.5v22z
" />
    <glyph glyph-name="Imacron" unicode="&#x12a;" horiz-adv-x="694" 
d="M598 0h-502v111h187v1249h-187v110h502v-110h-188v-1249h188v-111zM666 1602h-635v104h635v-104z" />
    <glyph glyph-name="imacron" unicode="&#x12b;" horiz-adv-x="544" 
d="M485 0h-409v100h145v807h-145v101h268v-908h141v-100zM573 1139h-634v104h634v-104z" />
    <glyph glyph-name="Ibreve" unicode="&#x12c;" horiz-adv-x="694" 
d="M598 0h-502v111h187v1249h-187v110h502v-110h-188v-1249h188v-111zM524 1935h103v-24q0 -136 -76 -208.5t-201 -72.5q-122 0 -197 72.5t-75 208.5v24h100v-24q0 -90 49.5 -139.5t122.5 -49.5t123.5 50t50.5 139v24z" />
    <glyph glyph-name="ibreve" unicode="&#x12d;" horiz-adv-x="544" 
d="M485 0h-409v100h145v807h-145v101h268v-908h141v-100zM449 1473h102v-25q0 -136 -76 -208.5t-201 -72.5q-122 0 -197 72.5t-75 208.5v25h100v-25q0 -90 49.5 -139t122.5 -49q74 0 124.5 49.5t50.5 138.5v25z" />
    <glyph glyph-name="Iogonek" unicode="&#x12e;" horiz-adv-x="694" 
d="M565 -203l39 -61q-71 -53 -147 -53q-69 0 -111.5 40t-42.5 103q0 38 16 70t42 52.5t46.5 32t41.5 19.5h-353v111h187v1249h-187v110h502v-110h-188v-1249h188v-111h-55q-21 -9 -42 -21.5t-47.5 -34t-43.5 -51t-17 -61.5q0 -31 21 -49.5t53 -18.5q16 0 33 4.5t27 9t22 11
t16 8.5z" />
    <glyph glyph-name="iogonek" unicode="&#x12f;" horiz-adv-x="544" 
d="M401 -203l39 -61q-71 -53 -147 -53q-69 0 -111.5 40t-42.5 103q0 38 16 70t42 52.5t46.5 32t41.5 19.5h-209v100h145v807h-145v101h268v-908h141v-100h-106q-21 -9 -42 -21.5t-47.5 -34t-43.5 -51t-17 -61.5q0 -31 21 -49.5t53 -18.5q16 0 33 4.5t27 9t22 11t16 8.5z
M379 1315q0 -39 -28.5 -67.5t-67.5 -28.5q-41 0 -69 28t-28 68t28 69t69 29q38 0 67 -29t29 -69z" />
    <glyph glyph-name="Idotaccent" unicode="&#x130;" horiz-adv-x="694" 
d="M598 0h-502v111h187v1249h-187v110h502v-110h-188v-1249h188v-111zM451 1724q0 -41 -29 -69.5t-70 -28.5t-69.5 28.5t-28.5 69.5q0 42 28.5 71.5t69.5 29.5t70 -30t29 -71z" />
    <glyph glyph-name="dotlessi" unicode="&#x131;" horiz-adv-x="544" 
d="M485 0h-409v100h145v807h-145v101h268v-908h141v-100z" />
    <glyph glyph-name="Jcircumflex" unicode="&#x134;" horiz-adv-x="897" 
d="M926 1710l-66 -76l-278 234l-277 -234l-63 76l342 297zM516 510v850h-186v110h506v-110h-193v-830q0 -146 -33 -247.5t-103.5 -164t-172.5 -90.5t-246 -28h-25v111h25q122 0 205 24t132 75.5t70 123.5t21 176z" />
    <glyph glyph-name="jcircumflex" unicode="&#x135;" horiz-adv-x="501" 
d="M203 -145v1052h-121q-23 0 -23 23v55q0 23 23 23h221q23 0 23 -23v-1132q0 -162 -81.5 -246t-224.5 -84q-95 0 -174 63q-20 20 -2 35l27 37q17 17 35 4q4 -4 15 -11.5t37 -16.5t52 -9q91 0 142 57.5t51 172.5zM592 1247l-66 -76l-278 234l-277 -234l-63 76l342 297z" />
    <glyph glyph-name="Kcommaaccent" unicode="&#x136;" horiz-adv-x="1476" 
d="M715 -424v27q0 12 12 12q32 0 58 29t26 88l-4 22q-10 -12 -39 -12q-30 0 -51 22.5t-21 59.5q0 34 23.5 57t58.5 23q46 0 72.5 -34.5t26.5 -96.5q0 -107 -44 -157t-106 -50q-12 0 -12 10zM1436 0h-236l-252 500q-13 25 -17.5 33.5t-23 29.5t-38 29.5t-56 17t-84.5 8.5
h-319v-507h215v-111h-529v111h187v1249h-187v110h473v-110h-159v-635h264q88 0 154.5 17.5t123 61t92 115t55.5 182t21 259.5h-166v110h457v-110h-166q-3 -539 -301 -682q12 -5 22.5 -11.5t18.5 -12t17 -15t14.5 -14t14 -17t11.5 -17t11.5 -19.5t10.5 -19t11.5 -22t11.5 -21
l203 -399h146v-111z" />
    <glyph glyph-name="kcommaaccent" unicode="&#x137;" horiz-adv-x="1179" 
d="M539 -424v27q0 12 12 12q32 0 58 29t26 88l-4 22q-10 -12 -39 -12q-30 0 -51 22.5t-21 59.5q0 34 23.5 57t58.5 23q46 0 72 -34t26 -97q0 -107 -43.5 -157t-105.5 -50q-12 0 -12 10zM1151 0h-168l-432 584l-227 -211v-273h141v-100h-408v100h144v1270h-144v100h267v-956
l421 393h-100v101h410v-101h-150l-270 -243l418 -564h98v-100z" />
    <glyph glyph-name="kgreenlandic" unicode="&#x138;" horiz-adv-x="1200" 
d="M1174 0h-170l-431 584l-227 -211v-273h141v-100h-409v100h145v807h-145v101h268v-494l422 393h-100v101h407v-101h-149l-269 -243l416 -564h101v-100z" />
    <glyph glyph-name="Lacute" unicode="&#x139;" horiz-adv-x="1308" 
d="M854 1925l-362 -291l-64 76l350 305zM1272 0h-1176v111h187v1249h-187v110h502v-110h-188v-1249h739v225h123v-336z" />
    <glyph glyph-name="lacute" unicode="&#x13a;" horiz-adv-x="544" 
d="M594 1835l-363 -291l-63 76l350 305zM475 0h-409v100h145v1270h-145v100h268v-1370h141v-100z" />
    <glyph glyph-name="Lcommaaccent" unicode="&#x13b;" horiz-adv-x="1308" 
d="M565 -424v27q0 12 13 12q32 0 58 29t26 88q0 7 -1 12.5t-3 7.5l-1 2q-10 -12 -39 -12q-30 0 -50.5 22.5t-20.5 59.5q0 34 23.5 57t58.5 23q46 0 72 -34t26 -97q0 -107 -43.5 -157t-105.5 -50q-13 0 -13 10zM1272 0h-1176v111h187v1249h-187v110h502v-110h-188v-1249h739
v225h123v-336z" />
    <glyph glyph-name="lcommaaccent" unicode="&#x13c;" horiz-adv-x="544" 
d="M211 -424v27q0 12 12 12q32 0 58 29t26 88l-4 22q-10 -12 -39 -12q-30 0 -50.5 22.5t-20.5 59.5q0 34 23 57t58 23q46 0 72.5 -34.5t26.5 -96.5q0 -107 -44 -157t-106 -50q-12 0 -12 10zM475 0h-409v100h145v1270h-145v100h268v-1370h141v-100z" />
    <glyph glyph-name="Lcaron" unicode="&#x13d;" horiz-adv-x="1308" 
d="M649 1128v50h13q32 0 57.5 28.5t25.5 87.5l-4 23q-10 -12 -41 -12q-29 0 -50 22t-21 57t24 58.5t58 23.5q47 0 73.5 -34t26.5 -97q0 -108 -43.5 -157.5t-105.5 -49.5h-13zM1272 0h-1176v111h187v1249h-187v110h502v-110h-188v-1249h739v225h123v-336z" />
    <glyph glyph-name="lcaron" unicode="&#x13e;" horiz-adv-x="544" 
d="M451 1184v49h12q32 0 58 29t26 88l-4 22q-10 -12 -41 -12q-29 0 -50.5 22.5t-21.5 57.5t24 58.5t58 23.5q47 0 73.5 -34t26.5 -97q0 -108 -43.5 -157.5t-105.5 -49.5h-12zM475 0h-409v100h145v1270h-145v100h268v-1370h141v-100z" />
    <glyph glyph-name="Ldot" unicode="&#x13f;" horiz-adv-x="1308" 
d="M1272 0h-1176v111h187v1249h-187v110h502v-110h-188v-1249h739v225h123v-336zM709 537q0 -41 -29 -70t-70 -29t-69.5 29t-28.5 70t28.5 70.5t69.5 29.5t70 -29.5t29 -70.5z" />
    <glyph glyph-name="ldot" unicode="&#x140;" horiz-adv-x="618" 
d="M475 0h-409v100h145v1270h-145v100h268v-1370h141v-100zM653 737q0 -41 -28.5 -69.5t-69.5 -28.5t-69.5 28.5t-28.5 69.5q0 42 28.5 71.5t69.5 29.5t69.5 -29.5t28.5 -71.5z" />
    <glyph glyph-name="Lslash" unicode="&#x141;" horiz-adv-x="1312" 
d="M1272 0h-1176v111h187v460l-170 -170l-64 66l234 233v660h-187v110h502v-110h-188v-533l299 299l63 -65l-362 -363v-587h739v225h123v-336z" />
    <glyph glyph-name="lslash" unicode="&#x142;" horiz-adv-x="665" 
d="M573 0h-409v100h145v529l-229 -228l-60 64l289 289v616h-145v100h268v-593l248 247l59 -65l-307 -307v-652h141v-100z" />
    <glyph glyph-name="Nacute" unicode="&#x143;" horiz-adv-x="1638" 
d="M1061 1925l-363 -291l-63 76l350 305zM1372 0h-151l-697 1083q-29 45 -56.5 93.5t-40.5 73.5l-13 26h-4v-1165h190v-111h-504v111h187v1247h-187v112h328l700 -1079q31 -48 61 -99.5t44 -78.5l14 -27h2v1174h-186v110h504v-110h-191v-1360z" />
    <glyph glyph-name="nacute" unicode="&#x144;" horiz-adv-x="1226" 
d="M862 1462l-362 -291l-64 76l350 305zM1180 0h-269v647q0 128 -64.5 199.5t-184.5 71.5q-66 0 -122.5 -20.5t-90.5 -49t-58 -57.5t-33 -49l-10 -21v-621h137v-100h-405v100h145v807h-145v101h258l-2 -166h4q12 20 26.5 38.5t45 46t65.5 47t89 34t116 14.5q165 0 258.5 -95
t93.5 -259v-568h146v-100z" />
    <glyph glyph-name="Ncommaaccent" unicode="&#x145;" horiz-adv-x="1638" 
d="M774 -424v27q0 12 12 12q32 0 58 29t26 88l-4 22q-10 -12 -39 -12q-30 0 -50.5 22.5t-20.5 59.5q0 34 23.5 57t58.5 23q46 0 72 -34t26 -97q0 -107 -44 -157t-106 -50q-12 0 -12 10zM1372 0h-151l-697 1083q-29 45 -56.5 93.5t-40.5 73.5l-13 26h-4v-1165h190v-111h-504
v111h187v1247h-187v112h328l700 -1079q31 -48 61 -99.5t44 -78.5l14 -27h2v1174h-186v110h504v-110h-191v-1360z" />
    <glyph glyph-name="ncommaaccent" unicode="&#x146;" horiz-adv-x="1226" 
d="M563 -424v27q0 12 12 12q32 0 58 29t26 88l-4 22q-10 -12 -39 -12q-30 0 -50.5 22.5t-20.5 59.5q0 34 23.5 57t58.5 23q46 0 72 -34t26 -97q0 -107 -44 -157t-106 -50q-12 0 -12 10zM1180 0h-269v647q0 128 -64.5 199.5t-184.5 71.5q-66 0 -122.5 -20.5t-90.5 -49
t-58 -57.5t-33 -49l-10 -21v-621h137v-100h-405v100h145v807h-145v101h258l-2 -166h4q12 20 26.5 38.5t45 46t65.5 47t89 34t116 14.5q165 0 258.5 -95t93.5 -259v-568h146v-100z" />
    <glyph glyph-name="Ncaron" unicode="&#x147;" horiz-adv-x="1638" 
d="M1188 1935l-342 -297l-344 297l65 76l277 -233l278 233zM1372 0h-151l-697 1083q-29 45 -56.5 93.5t-40.5 73.5l-13 26h-4v-1165h190v-111h-504v111h187v1247h-187v112h328l700 -1079q31 -48 61 -99.5t44 -78.5l14 -27h2v1174h-186v110h504v-110h-191v-1360z" />
    <glyph glyph-name="ncaron" unicode="&#x148;" horiz-adv-x="1226" 
d="M977 1473l-342 -297l-344 297l65 75l277 -233l278 233zM1180 0h-269v647q0 128 -64.5 199.5t-184.5 71.5q-66 0 -122.5 -20.5t-90.5 -49t-58 -57.5t-33 -49l-10 -21v-621h137v-100h-405v100h145v807h-145v101h258l-2 -166h4q12 20 26.5 38.5t45 46t65.5 47t89 34
t116 14.5q165 0 258.5 -95t93.5 -259v-568h146v-100z" />
    <glyph glyph-name="napostrophe" unicode="&#x149;" horiz-adv-x="1226" 
d="M18 1153v27q0 12 13 12q32 0 58 29t26 88l-4 22q-10 -12 -39 -12q-30 0 -51 22.5t-21 59.5q0 34 23.5 57t58.5 23q46 0 72 -34t26 -97q0 -107 -43.5 -157t-105.5 -50q-13 0 -13 10zM1180 0h-269v647q0 128 -64.5 199.5t-184.5 71.5q-66 0 -122.5 -20.5t-90.5 -49
t-58 -57.5t-33 -49l-10 -21v-621h137v-100h-405v100h145v807h-145v101h258l-2 -166h4q12 20 26.5 38.5t45 46t65.5 47t89 34t116 14.5q165 0 258.5 -95t93.5 -259v-568h146v-100z" />
    <glyph glyph-name="Eng" unicode="&#x14a;" horiz-adv-x="1638" 
d="M1245 -4v4h-24l-697 1083q-29 45 -56.5 93.5t-40.5 73.5l-13 26h-4v-1165h190v-111h-504v111h187v1247h-187v112h328l700 -1079q31 -48 61 -99.5t44 -78.5l14 -27h2v1174h-186v110h504v-110h-191v-1344q0 -266 -138.5 -380t-440.5 -111v110q172 -1 272.5 40.5t140 118.5
t39.5 202z" />
    <glyph glyph-name="eng" unicode="&#x14b;" horiz-adv-x="1198" 
d="M1034 668v-815q0 -161 -81 -245.5t-224 -84.5q-112 0 -192 80l57 73l6 -5l14 -10t19 -12t24.5 -12t29 -8.5t32.5 -3.5q90 0 141 58t51 174v790q0 128 -64.5 199.5t-184.5 71.5q-66 0 -122.5 -20.5t-90.5 -49t-58 -57.5t-33 -49l-10 -21v-621h137v-100h-405v100h145v807
h-145v101h258l-2 -166h4q12 20 26.5 38.5t45 46t65.5 47t89 34t116 14.5q165 0 258.5 -95t93.5 -259z" />
    <glyph glyph-name="Omacron" unicode="&#x14c;" horiz-adv-x="1626" 
d="M1130 1602h-634v104h634v-104zM815 -14q-148 0 -277.5 55t-223.5 153t-148.5 240t-54.5 309q0 135 37 253t103 206t154 152t193 96.5t217 32.5q141 0 268 -52t224 -145t154 -234.5t57 -308.5t-54 -309.5t-148 -240t-223.5 -152.5t-277.5 -55zM815 104q83 0 163.5 24.5
t153.5 76t128.5 125t88.5 178.5t33 229t-34.5 229.5t-91.5 177.5t-131 122.5t-152.5 74t-157.5 23.5q-100 0 -197.5 -38.5t-182 -112.5t-137 -198t-52.5 -278q0 -124 33 -229t89 -178.5t129.5 -125t154 -76t163.5 -24.5z" />
    <glyph glyph-name="omacron" unicode="&#x14d;" horiz-adv-x="1196" 
d="M918 1139h-635v104h635v-104zM598 -14q-103 0 -194.5 36.5t-159 103t-107 166t-39.5 218.5q0 118 40 216t108.5 162t159 99t192.5 35q138 0 251.5 -60.5t182 -178.5t68.5 -273q0 -118 -39 -217t-106.5 -166t-159.5 -104t-197 -37zM598 90q157 0 267 114.5t110 301.5
q0 94 -31.5 173t-84 130.5t-120 80t-141.5 28.5q-72 0 -139.5 -28.5t-120.5 -80t-85 -130.5t-32 -173t31 -173.5t83 -132t120 -81.5t143 -29z" />
    <glyph glyph-name="Obreve" unicode="&#x14e;" horiz-adv-x="1626" 
d="M815 -14q-148 0 -277.5 55t-223.5 153t-148.5 240t-54.5 309q0 135 37 253t103 206t154 152t193 96.5t217 32.5q141 0 268 -52t224 -145t154 -234.5t57 -308.5t-54 -309.5t-148 -240t-223.5 -152.5t-277.5 -55zM815 104q83 0 163.5 24.5t153.5 76t128.5 125t88.5 178.5
t33 229t-34.5 229.5t-91.5 177.5t-131 122.5t-152.5 74t-157.5 23.5q-100 0 -197.5 -38.5t-182 -112.5t-137 -198t-52.5 -278q0 -124 33 -229t89 -178.5t129.5 -125t154 -76t163.5 -24.5zM991 1935h103v-24q0 -136 -76 -208.5t-201 -72.5q-122 0 -197 72.5t-75 208.5v24h100
v-24q0 -90 49.5 -139.5t122.5 -49.5t123.5 50t50.5 139v24z" />
    <glyph glyph-name="obreve" unicode="&#x14f;" horiz-adv-x="1196" 
d="M598 -14q-103 0 -194.5 36.5t-159 103t-107 166t-39.5 218.5q0 118 40 216t108.5 162t159 99t192.5 35q138 0 251.5 -60.5t182 -178.5t68.5 -273q0 -118 -39 -217t-106.5 -166t-159.5 -104t-197 -37zM598 90q157 0 267 114.5t110 301.5q0 94 -31.5 173t-84 130.5t-120 80
t-141.5 28.5q-72 0 -139.5 -28.5t-120.5 -80t-85 -130.5t-32 -173t31 -173.5t83 -132t120 -81.5t143 -29zM776 1473h103v-25q0 -136 -76 -208.5t-201 -72.5q-122 0 -197 72.5t-75 208.5v25h100v-25q0 -90 49.5 -139t122.5 -49t123.5 49.5t50.5 138.5v25z" />
    <glyph glyph-name="Ohungarumlaut" unicode="&#x150;" horiz-adv-x="1626" 
d="M985 1935l-360 -293l-66 78l350 303zM1298 1935l-360 -293l-66 78l351 303zM815 -14q-148 0 -277.5 55t-223.5 153t-148.5 240t-54.5 309q0 135 37 253t103 206t154 152t193 96.5t217 32.5q141 0 268 -52t224 -145t154 -234.5t57 -308.5t-54 -309.5t-148 -240
t-223.5 -152.5t-277.5 -55zM815 104q83 0 163.5 24.5t153.5 76t128.5 125t88.5 178.5t33 229t-34.5 229.5t-91.5 177.5t-131 122.5t-152.5 74t-157.5 23.5q-100 0 -197.5 -38.5t-182 -112.5t-137 -198t-52.5 -278q0 -124 33 -229t89 -178.5t129.5 -125t154 -76t163.5 -24.5z
" />
    <glyph glyph-name="ohungarumlaut" unicode="&#x151;" horiz-adv-x="1196" 
d="M672 1473l-361 -293l-65 77l350 304zM985 1473l-360 -293l-66 77l350 304zM598 -14q-103 0 -194.5 36.5t-159 103t-107 166t-39.5 218.5q0 118 40 216t108.5 162t159 99t192.5 35q138 0 251.5 -60.5t182 -178.5t68.5 -273q0 -118 -39 -217t-106.5 -166t-159.5 -104
t-197 -37zM598 90q157 0 267 114.5t110 301.5q0 94 -31.5 173t-84 130.5t-120 80t-141.5 28.5q-72 0 -139.5 -28.5t-120.5 -80t-85 -130.5t-32 -173t31 -173.5t83 -132t120 -81.5t143 -29z" />
    <glyph glyph-name="OE" unicode="&#x152;" horiz-adv-x="1849" 
d="M1735 0h-928q-146 0 -273.5 53.5t-221 149t-147.5 235.5t-54 305q0 133 36.5 249.5t101 203t151.5 149t190.5 94t214.5 31.5h930v-337h-123v227h-678v-572h596v-110h-596v-567h678v223h123v-334zM805 119v1235q-78 -2 -155 -25.5t-150 -73t-128.5 -119.5t-89.5 -173
t-34 -226t32 -225.5t86 -173.5t126 -121t151 -73.5t162 -24.5z" />
    <glyph glyph-name="oe" unicode="&#x153;" horiz-adv-x="1996" 
d="M1896 481h-792q3 -96 36.5 -172.5t86.5 -123t116.5 -71t131.5 -24.5q74 0 138.5 20.5t108 53t70 61t43.5 56.5l76 -62q-11 -20 -30 -44t-58.5 -59.5t-86 -62.5t-117.5 -47t-149 -20q-142 0 -256.5 68.5t-175.5 193.5q-61 -124 -178 -193t-262 -69q-103 0 -194.5 36.5
t-159 103t-107 166t-39.5 218.5q0 118 40 216t108.5 162t159 99t192.5 35q142 0 259.5 -68t178.5 -188q60 122 172 189t244 67q213 0 330 -137.5t114 -378.5v-25zM598 90q157 0 267 114.5t110 301.5q0 94 -31.5 173t-84 130.5t-120 80t-141.5 28.5q-72 0 -139.5 -28.5
t-120.5 -80t-85 -130.5t-32 -173t31 -173.5t83 -132t120 -81.5t143 -29zM1106 584h668q-6 149 -91 241.5t-229 92.5q-85 0 -158 -37t-125 -114t-65 -183z" />
    <glyph glyph-name="Racute" unicode="&#x154;" horiz-adv-x="1400" 
d="M881 1925l-363 -291l-63 76l350 305zM1333 0h-237l-250 506q-28 58 -53.5 82.5t-75.5 25.5h-307v-503h215v-111h-529v111h187v1249h-187v110h637q104 0 191 -26.5t153.5 -78t104 -134.5t37.5 -189q0 -166 -82 -268.5t-240 -136.5q27 -20 48.5 -53.5t53.5 -96.5l191 -376
h143v-111zM410 721h295q183 0 282.5 72.5t99.5 244.5q0 72 -20.5 128.5t-55.5 92.5t-85 59t-104 32.5t-117 9.5h-295v-639z" />
    <glyph glyph-name="racute" unicode="&#x155;" horiz-adv-x="841" 
d="M737 1462l-362 -291l-64 76l351 305zM489 0h-409v100h145v807h-145v101h258v-291h6q1 6 4.5 16.5t17.5 41t33.5 58t56 61.5t81 58.5t112 41t146.5 16.5h24v-113h-55q-100 0 -182 -37t-131.5 -97t-76 -131.5t-26.5 -144.5v-387h141v-100z" />
    <glyph glyph-name="Rcommaaccent" unicode="&#x156;" horiz-adv-x="1400" 
d="M616 -424v27q0 12 13 12q32 0 58 29t26 88l-4 22q-10 -12 -39 -12q-30 0 -51 22.5t-21 59.5q0 34 23.5 57t58.5 23q46 0 72 -34t26 -97q0 -107 -43.5 -157t-105.5 -50q-13 0 -13 10zM1333 0h-237l-250 506q-28 58 -53.5 82.5t-75.5 25.5h-307v-503h215v-111h-529v111h187
v1249h-187v110h637q104 0 191 -26.5t153.5 -78t104 -134.5t37.5 -189q0 -166 -82 -268.5t-240 -136.5q27 -20 48.5 -53.5t53.5 -96.5l191 -376h143v-111zM410 721h295q183 0 282.5 72.5t99.5 244.5q0 72 -20.5 128.5t-55.5 92.5t-85 59t-104 32.5t-117 9.5h-295v-639z" />
    <glyph glyph-name="rcommaaccent" unicode="&#x157;" horiz-adv-x="841" 
d="M221 -424v27q0 12 12 12q32 0 58 29t26 88l-4 22q-10 -12 -39 -12q-30 0 -50.5 22.5t-20.5 59.5q0 34 23.5 57t58.5 23q46 0 72 -34t26 -97q0 -107 -44 -157t-106 -50q-12 0 -12 10zM489 0h-409v100h145v807h-145v101h258v-291h6q1 6 4.5 16.5t17.5 41t33.5 58t56 61.5
t81 58.5t112 41t146.5 16.5h24v-113h-55q-100 0 -182 -37t-131.5 -97t-76 -131.5t-26.5 -144.5v-387h141v-100z" />
    <glyph glyph-name="Rcaron" unicode="&#x158;" horiz-adv-x="1400" 
d="M1004 1935l-342 -297l-345 297l66 76l276 -233l279 233zM1333 0h-237l-250 506q-28 58 -53.5 82.5t-75.5 25.5h-307v-503h215v-111h-529v111h187v1249h-187v110h637q104 0 191 -26.5t153.5 -78t104 -134.5t37.5 -189q0 -166 -82 -268.5t-240 -136.5q27 -20 48.5 -53.5
t53.5 -96.5l191 -376h143v-111zM410 721h295q183 0 282.5 72.5t99.5 244.5q0 72 -20.5 128.5t-55.5 92.5t-85 59t-104 32.5t-117 9.5h-295v-639z" />
    <glyph glyph-name="rcaron" unicode="&#x159;" horiz-adv-x="841" 
d="M754 1473l-342 -297l-344 297l65 75l277 -233l278 233zM489 0h-409v100h145v807h-145v101h258v-291h6q1 6 4.5 16.5t17.5 41t33.5 58t56 61.5t81 58.5t112 41t146.5 16.5h24v-113h-55q-100 0 -182 -37t-131.5 -97t-76 -131.5t-26.5 -144.5v-387h141v-100z" />
    <glyph glyph-name="Sacute" unicode="&#x15a;" horiz-adv-x="1359" 
d="M922 1925l-363 -291l-63 76l350 305zM242 0h-121v512h127v-61q0 -16 15.5 -52t53 -87t90.5 -96.5t139 -77.5t187 -32q187 0 291 73.5t104 209.5q0 79 -53 134t-137.5 85.5t-186.5 55t-204 55t-186.5 73t-137.5 121t-53 187.5q0 165 128 274t345 109q288 0 416 -172v164
h121v-474h-127v89q0 27 -12.5 60.5t-43 71.5t-74.5 68.5t-115 51t-157 20.5q-157 0 -252.5 -74t-95.5 -188q0 -64 33 -112.5t88.5 -79.5t127 -55t151 -44t159.5 -41.5t151.5 -52.5t127 -71.5t88.5 -103.5t33 -145q0 -85 -30 -157.5t-91 -129.5t-162 -89.5t-234 -32.5
q-102 0 -189.5 25.5t-147.5 68.5t-98.5 85t-67.5 89v-254z" />
    <glyph glyph-name="sacute" unicode="&#x15b;" horiz-adv-x="997" 
d="M725 1462l-363 -291l-63 76l350 305zM537 -14q-78 0 -141.5 17.5t-101.5 45.5t-59 51t-32 45h-4q4 -143 4 -145h-101l2 352h103v-76q3 -8 8.5 -20.5t30.5 -44.5t57.5 -56.5t91 -44.5t129.5 -20q125 0 189.5 46t64.5 132q0 49 -35.5 83.5t-92 54.5t-125 37.5t-137.5 39
t-125.5 51t-92 82t-35.5 123.5q0 132 96.5 207.5t237.5 75.5q205 0 297 -123h4q-6 107 -6 109h96v-324h-102v57q0 23 -14.5 51t-45 57.5t-88 49t-131.5 19.5q-90 0 -155.5 -46.5t-65.5 -130.5q0 -45 28 -78.5t73.5 -53t103.5 -38t118.5 -32t118.5 -36.5t103.5 -50.5
t73.5 -74.5t28 -108q0 -124 -91.5 -204t-276.5 -80z" />
    <glyph glyph-name="Scircumflex" unicode="&#x15c;" horiz-adv-x="1359" 
d="M1028 1710l-65 -76l-279 234l-276 -234l-64 76l342 297zM242 0h-121v512h127v-61q0 -16 15.5 -52t53 -87t90.5 -96.5t139 -77.5t187 -32q187 0 291 73.5t104 209.5q0 79 -53 134t-137.5 85.5t-186.5 55t-204 55t-186.5 73t-137.5 121t-53 187.5q0 165 128 274t345 109
q288 0 416 -172v164h121v-474h-127v89q0 27 -12.5 60.5t-43 71.5t-74.5 68.5t-115 51t-157 20.5q-157 0 -252.5 -74t-95.5 -188q0 -64 33 -112.5t88.5 -79.5t127 -55t151 -44t159.5 -41.5t151.5 -52.5t127 -71.5t88.5 -103.5t33 -145q0 -85 -30 -157.5t-91 -129.5
t-162 -89.5t-234 -32.5q-102 0 -189.5 25.5t-147.5 68.5t-98.5 85t-67.5 89v-254z" />
    <glyph glyph-name="scircumflex" unicode="&#x15d;" horiz-adv-x="997" 
d="M823 1247l-65 -76l-279 234l-276 -234l-64 76l342 297zM537 -14q-78 0 -141.5 17.5t-101.5 45.5t-59 51t-32 45h-4q4 -143 4 -145h-101l2 352h103v-76q3 -8 8.5 -20.5t30.5 -44.5t57.5 -56.5t91 -44.5t129.5 -20q125 0 189.5 46t64.5 132q0 49 -35.5 83.5t-92 54.5
t-125 37.5t-137.5 39t-125.5 51t-92 82t-35.5 123.5q0 132 96.5 207.5t237.5 75.5q205 0 297 -123h4q-6 107 -6 109h96v-324h-102v57q0 23 -14.5 51t-45 57.5t-88 49t-131.5 19.5q-90 0 -155.5 -46.5t-65.5 -130.5q0 -45 28 -78.5t73.5 -53t103.5 -38t118.5 -32t118.5 -36.5
t103.5 -50.5t73.5 -74.5t28 -108q0 -124 -91.5 -204t-276.5 -80z" />
    <glyph glyph-name="Scedilla" unicode="&#x15e;" horiz-adv-x="1359" 
d="M678 -315q-84 0 -148 55l39 63q43 -36 105 -36q88 0 88 65q0 28 -26 39.5t-81 11.5h-45l37 109q-151 21 -251 96t-154 166v-254h-121v512h127v-61q0 -16 15.5 -52t53 -87t90.5 -96.5t139 -77.5t187 -32q187 0 291 73.5t104 209.5q0 79 -53 134t-137.5 85.5t-186.5 55
t-204 55t-186.5 73t-137.5 121t-53 187.5q0 165 128 274t345 109q288 0 416 -172v164h121v-474h-127v89q0 27 -12.5 60.5t-43 71.5t-74.5 68.5t-115 51t-157 20.5q-157 0 -252.5 -74t-95.5 -188q0 -64 33 -112.5t88.5 -79.5t127 -55t151 -44t159.5 -41.5t151.5 -52.5
t127 -71.5t88.5 -103.5t33 -145q0 -85 -30 -157.5t-91 -129.5t-162 -89.5t-234 -32.5h-16l-14 -41q11 0 19 -0.5t33 -6t41.5 -15.5t31 -33.5t14.5 -55.5q0 -68 -47 -108.5t-129 -40.5z" />
    <glyph glyph-name="scedilla" unicode="&#x15f;" horiz-adv-x="997" 
d="M492 -315q-84 0 -148 55l39 63q43 -36 104 -36q88 0 88 65q0 28 -25.5 39.5t-80.5 11.5h-45l35 109q-110 13 -173 60.5t-83 92.5h-4q4 -143 4 -145h-101l2 352h103v-76q3 -8 8.5 -20.5t30.5 -44.5t57.5 -56.5t91 -44.5t129.5 -20q125 0 189.5 46t64.5 132
q0 49 -35.5 83.5t-92 54.5t-125 37.5t-137.5 39t-125.5 51t-92 82t-35.5 123.5q0 132 96.5 207.5t237.5 75.5q205 0 297 -123h4q-6 107 -6 109h96v-324h-102v57q0 23 -14.5 51t-45 57.5t-88 49t-131.5 19.5q-90 0 -155.5 -46.5t-65.5 -130.5q0 -45 28 -78.5t73.5 -53
t103.5 -38t118.5 -32t118.5 -36.5t103.5 -50.5t73.5 -74.5t28 -108q0 -59 -21 -108.5t-63 -89.5t-113 -62.5t-165 -23.5l-15 -41q11 0 19 -0.5t33.5 -6t42 -15.5t31 -33.5t14.5 -55.5q0 -68 -47 -108.5t-129 -40.5z" />
    <glyph glyph-name="Scaron" unicode="&#x160;" horiz-adv-x="1359" 
d="M1030 1935l-342 -297l-344 297l66 76l276 -233l279 233zM242 0h-121v512h127v-61q0 -16 15.5 -52t53 -87t90.5 -96.5t139 -77.5t187 -32q187 0 291 73.5t104 209.5q0 79 -53 134t-137.5 85.5t-186.5 55t-204 55t-186.5 73t-137.5 121t-53 187.5q0 165 128 274t345 109
q288 0 416 -172v164h121v-474h-127v89q0 27 -12.5 60.5t-43 71.5t-74.5 68.5t-115 51t-157 20.5q-157 0 -252.5 -74t-95.5 -188q0 -64 33 -112.5t88.5 -79.5t127 -55t151 -44t159.5 -41.5t151.5 -52.5t127 -71.5t88.5 -103.5t33 -145q0 -85 -30 -157.5t-91 -129.5
t-162 -89.5t-234 -32.5q-102 0 -189.5 25.5t-147.5 68.5t-98.5 85t-67.5 89v-254z" />
    <glyph glyph-name="scaron" unicode="&#x161;" horiz-adv-x="997" 
d="M829 1473l-342 -297l-344 297l66 75l276 -233l279 233zM537 -14q-78 0 -141.5 17.5t-101.5 45.5t-59 51t-32 45h-4q4 -143 4 -145h-101l2 352h103v-76q3 -8 8.5 -20.5t30.5 -44.5t57.5 -56.5t91 -44.5t129.5 -20q125 0 189.5 46t64.5 132q0 49 -35.5 83.5t-92 54.5
t-125 37.5t-137.5 39t-125.5 51t-92 82t-35.5 123.5q0 132 96.5 207.5t237.5 75.5q205 0 297 -123h4q-6 107 -6 109h96v-324h-102v57q0 23 -14.5 51t-45 57.5t-88 49t-131.5 19.5q-90 0 -155.5 -46.5t-65.5 -130.5q0 -45 28 -78.5t73.5 -53t103.5 -38t118.5 -32t118.5 -36.5
t103.5 -50.5t73.5 -74.5t28 -108q0 -124 -91.5 -204t-276.5 -80z" />
    <glyph glyph-name="Tcommaaccent" unicode="&#x162;" horiz-adv-x="1351" 
d="M606 -424v27q0 12 12 12q32 0 58 29t26 88l-4 22q-10 -12 -39 -12q-30 0 -50.5 22.5t-20.5 59.5q0 34 23.5 57t58.5 23q46 0 72 -34t26 -97q0 -107 -44 -157t-106 -50q-12 0 -12 10zM913 0h-487v111h186v1249h-448v-227h-123v337h1270v-337h-123v227h-449v-1249h174v-111
z" />
    <glyph glyph-name="tcommaaccent" unicode="&#x163;" horiz-adv-x="690" 
d="M315 -424v27q0 12 13 12q32 0 58 29t26 88l-4 22q-10 -12 -39 -12q-30 0 -51 22.5t-21 59.5q0 34 23.5 57t58.5 23q46 0 72 -34t26 -97q0 -107 -43.5 -157t-105.5 -50q-13 0 -13 10zM692 141l60 -75q-80 -80 -193 -80q-143 0 -224 84t-81 245v592h-150v101h150v223h123
v-223h287v-101h-287v-588q0 -115 51 -173t141 -58q70 0 123 53z" />
    <glyph glyph-name="Tcaron" unicode="&#x164;" horiz-adv-x="1351" 
d="M961 1935l-343 -297l-344 297l66 76l276 -233l279 233zM913 0h-487v111h186v1249h-448v-227h-123v337h1270v-337h-123v227h-449v-1249h174v-111z" />
    <glyph glyph-name="tcaron" unicode="&#x165;" horiz-adv-x="690" 
d="M420 1112v49h12q32 0 58 29t26 88l-4 22q-10 -12 -41 -12q-29 0 -50.5 22.5t-21.5 57.5t24 58.5t58 23.5q48 0 74.5 -34t26.5 -97q0 -108 -44 -157.5t-106 -49.5h-12zM752 66l-60 75q-53 -53 -123 -53q-90 0 -141 58t-51 173v588h287v101h-287v223h-123v-223h-150v-101
h150v-592q0 -161 81 -245t224 -84q113 0 193 80z" />
    <glyph glyph-name="Tbar" unicode="&#x166;" horiz-adv-x="1351" 
d="M995 614h-256v-503h174v-111h-487v111h186v503h-250v107h250v639h-446v-227h-125v337h1270v-337h-125v227h-447v-639h256v-107z" />
    <glyph glyph-name="tbar" unicode="&#x167;" horiz-adv-x="698" 
d="M535 526h-213v-207q0 -115 51 -173t141 -58q32 0 62 13t43.5 24.5t15.5 15.5l61 -75q-80 -80 -192 -80q-143 0 -224 84t-81 245v211h-144v72h144v309h-150v101h150v223h123v-223h286v-101h-286v-309h213v-72z" />
    <glyph glyph-name="Utilde" unicode="&#x168;" horiz-adv-x="1574" 
d="M1198 535v825h-186v110h504v-110h-189v-807q0 -279 -139 -423t-400 -144q-262 0 -402 144t-140 423v807h-187v110h504v-110h-188v-813q0 -81 12.5 -147t42.5 -122t77 -94t118 -59t163 -21q410 0 410 431zM1010 1849h90v-22q0 -215 -164 -215q-50 0 -91.5 17t-65.5 38
t-55 38t-62 17q-40 0 -58 -23t-18 -81v-25h-90v25q0 96 40.5 147.5t120.5 51.5q44 0 84.5 -17.5t65.5 -39t59 -39t66 -17.5q44 0 61 26.5t17 96.5v22z" />
    <glyph glyph-name="utilde" unicode="&#x169;" horiz-adv-x="1204" 
d="M1147 0h-260v164h-4q-15 -28 -36 -53.5t-59.5 -56.5t-100.5 -49.5t-138 -18.5q-165 0 -260.5 95.5t-95.5 258.5v567h-146v101h268v-648q0 -127 65.5 -198.5t184.5 -71.5q66 0 123 20.5t91 48.5t58.5 58t34 48.5t9.5 21.5v620h-144v101h264v-908h146v-100zM793 1386h90
v-22q0 -215 -164 -215q-50 0 -92 17.5t-66 38t-55 38t-62 17.5q-39 0 -57 -23.5t-18 -81.5v-25h-90v25q0 96 40.5 147.5t120.5 51.5q44 0 84.5 -17.5t65.5 -39t59 -39t66 -17.5q44 0 61 26.5t17 96.5v22z" />
    <glyph glyph-name="Umacron" unicode="&#x16a;" horiz-adv-x="1574" 
d="M1198 535v825h-186v110h504v-110h-189v-807q0 -279 -139 -423t-400 -144q-262 0 -402 144t-140 423v807h-187v110h504v-110h-188v-813q0 -81 12.5 -147t42.5 -122t77 -94t118 -59t163 -21q410 0 410 431zM1100 1602h-635v104h635v-104z" />
    <glyph glyph-name="umacron" unicode="&#x16b;" horiz-adv-x="1204" 
d="M1147 0h-260v164h-4q-15 -28 -36 -53.5t-59.5 -56.5t-100.5 -49.5t-138 -18.5q-165 0 -260.5 95.5t-95.5 258.5v567h-146v101h268v-648q0 -127 65.5 -198.5t184.5 -71.5q66 0 123 20.5t91 48.5t58.5 58t34 48.5t9.5 21.5v620h-144v101h264v-908h146v-100zM897 1139h-635
v104h635v-104z" />
    <glyph glyph-name="Ubreve" unicode="&#x16c;" horiz-adv-x="1574" 
d="M1198 535v825h-186v110h504v-110h-189v-807q0 -279 -139 -423t-400 -144q-262 0 -402 144t-140 423v807h-187v110h504v-110h-188v-813q0 -81 12.5 -147t42.5 -122t77 -94t118 -59t163 -21q410 0 410 431zM975 1935h102v-24q0 -137 -75.5 -209t-200.5 -72
q-122 0 -197.5 72.5t-75.5 208.5v24h101v-24q0 -90 49.5 -139.5t122.5 -49.5t123.5 50t50.5 139v24z" />
    <glyph glyph-name="ubreve" unicode="&#x16d;" horiz-adv-x="1204" 
d="M1147 0h-260v164h-4q-15 -28 -36 -53.5t-59.5 -56.5t-100.5 -49.5t-138 -18.5q-165 0 -260.5 95.5t-95.5 258.5v567h-146v101h268v-648q0 -127 65.5 -198.5t184.5 -71.5q66 0 123 20.5t91 48.5t58.5 58t34 48.5t9.5 21.5v620h-144v101h264v-908h146v-100zM748 1473h102
v-25q0 -136 -76 -208.5t-201 -72.5q-122 0 -197 72.5t-75 208.5v25h100v-25q0 -90 49.5 -139t122.5 -49q74 0 124.5 49.5t50.5 138.5v25z" />
    <glyph glyph-name="Uring" unicode="&#x16e;" horiz-adv-x="1574" 
d="M1169 1683q0 -66 -46.5 -113.5t-112.5 -47.5t-114 47.5t-48 113.5t48 113t114 47t112.5 -47t46.5 -113zM1085 1683q0 32 -21.5 54t-53.5 22t-54 -22t-22 -54t22 -53.5t54 -21.5t53.5 21.5t21.5 53.5zM1198 535v825h-186v110h504v-110h-189v-807q0 -279 -139 -423
t-400 -144q-262 0 -402 144t-140 423v807h-187v110h504v-110h-188v-813q0 -81 12.5 -147t42.5 -122t77 -94t118 -59t163 -21q410 0 410 431z" />
    <glyph glyph-name="uring" unicode="&#x16f;" horiz-adv-x="1204" 
d="M748 1294q0 -66 -47 -113.5t-113 -47.5t-114 47.5t-48 113.5t48 113t114 47t113 -47t47 -113zM664 1294q0 32 -22 54t-54 22t-54 -22t-22 -54t22 -53.5t54 -21.5t54 21.5t22 53.5zM1147 0h-260v164h-4q-15 -28 -36 -53.5t-59.5 -56.5t-100.5 -49.5t-138 -18.5
q-165 0 -260.5 95.5t-95.5 258.5v567h-146v101h268v-648q0 -127 65.5 -198.5t184.5 -71.5q66 0 123 20.5t91 48.5t58.5 58t34 48.5t9.5 21.5v620h-144v101h264v-908h146v-100z" />
    <glyph glyph-name="Uhungarumlaut" unicode="&#x170;" horiz-adv-x="1574" 
d="M1198 535v825h-186v110h504v-110h-189v-807q0 -279 -139 -423t-400 -144q-262 0 -402 144t-140 423v807h-187v110h504v-110h-188v-813q0 -81 12.5 -147t42.5 -122t77 -94t118 -59t163 -21q410 0 410 431zM911 1935l-360 -293l-66 78l351 303zM1225 1935l-361 -293l-65 78
l350 303z" />
    <glyph glyph-name="uhungarumlaut" unicode="&#x171;" horiz-adv-x="1204" 
d="M1147 0h-260v164h-4q-15 -28 -36 -53.5t-59.5 -56.5t-100.5 -49.5t-138 -18.5q-165 0 -260.5 95.5t-95.5 258.5v567h-146v101h268v-648q0 -127 65.5 -198.5t184.5 -71.5q66 0 123 20.5t91 48.5t58.5 58t34 48.5t9.5 21.5v620h-144v101h264v-908h146v-100zM678 1473
l-361 -293l-65 77l350 304zM991 1473l-360 -293l-66 77l350 304z" />
    <glyph glyph-name="Uogonek" unicode="&#x172;" horiz-adv-x="1572" 
d="M1198 535v825h-186v110h504v-110h-189v-807q0 -268 -127.5 -411t-368.5 -154q-122 -67 -122 -156q0 -31 20.5 -49.5t52.5 -18.5q16 0 33 4.5t27 9t23 11.5t16 8l39 -61q-71 -53 -148 -53q-69 0 -111.5 40t-42.5 103q0 101 115 162q-235 14 -361 157t-126 408v807h-187
v110h504v-110h-188v-813q0 -81 12.5 -147t42.5 -122t77 -94t118 -59t163 -21q410 0 410 431z" />
    <glyph glyph-name="uogonek" unicode="&#x173;" horiz-adv-x="1204" 
d="M1147 0h-57q-21 -9 -42 -21.5t-47.5 -34t-43.5 -51t-17 -61.5q0 -31 21 -49.5t53 -18.5q16 0 33 4.5t27 9t22 11t16 8.5l39 -61q-71 -53 -147 -53q-69 0 -111.5 40t-42.5 103q0 38 16 70t41.5 52.5t46 32t41.5 19.5h-108v164h-4q-15 -28 -36 -53.5t-59.5 -56.5
t-100.5 -49.5t-138 -18.5q-165 0 -260.5 95.5t-95.5 258.5v567h-146v101h268v-648q0 -127 65.5 -198.5t184.5 -71.5q66 0 123 20.5t91 48.5t58.5 58t34 48.5t9.5 21.5v620h-144v101h264v-908h146v-100z" />
    <glyph glyph-name="Wcircumflex" unicode="&#x174;" horiz-adv-x="2025" 
d="M1337 1710l-65 -76l-279 234l-276 -234l-64 76l342 297zM1466 0h-180l-272 1202h-6l-269 -1202h-180l-420 1360h-159v110h466v-110h-172l367 -1223h10l299 1333h123l299 -1333h10l369 1223h-172v110h467v-110h-160z" />
    <glyph glyph-name="wcircumflex" unicode="&#x175;" horiz-adv-x="1591" 
d="M1147 1247l-66 -76l-278 234l-277 -234l-63 76l342 297zM1133 0h-123l-211 795h-6l-213 -795h-121l-303 907h-140v101h394v-101h-125l233 -755h4l197 755h-119v101h393v-101h-116l194 -755h4l232 755h-123v101h391v-101h-141z" />
    <glyph glyph-name="Ycircumflex" unicode="&#x176;" horiz-adv-x="1286" 
d="M897 0h-508v111h191v487l-433 762h-161v110h469v-110h-166l354 -643h8l350 643h-167v110h469v-110h-164l-432 -764v-485h190v-111zM977 1710l-66 -76l-278 234l-277 -234l-63 76l342 297z" />
    <glyph glyph-name="ycircumflex" unicode="&#x177;" horiz-adv-x="1140" 
d="M475 -145l64 174h-37l-357 878h-139v101h387v-101h-119l301 -760h5l272 760h-123v101h391v-101h-141l-393 -1054q-31 -85 -59 -140t-66.5 -101.5t-88.5 -67.5t-116 -21q-113 0 -193 80l60 73q7 -7 18.5 -16t42.5 -22t62 -13q83 0 132 50t97 180zM930 1247l-66 -76
l-278 234l-277 -234l-63 76l342 297z" />
    <glyph glyph-name="Ydieresis" unicode="&#x178;" horiz-adv-x="1286" 
d="M897 0h-508v111h191v487l-433 762h-161v110h469v-110h-166l354 -643h8l350 643h-167v110h469v-110h-164l-432 -764v-485h190v-111zM571 1671q0 -32 -22.5 -54t-54.5 -22t-54 22t-22 54t22 55t54 23t54.5 -23t22.5 -55zM885 1671q0 -32 -23.5 -54t-56.5 -22
q-31 0 -52.5 22t-21.5 54t21.5 55t52.5 23q32 0 56 -23t24 -55z" />
    <glyph glyph-name="Zacute" unicode="&#x179;" horiz-adv-x="1282" 
d="M893 1925l-363 -291l-63 76l350 305zM1182 0h-1084v90l918 1270h-793v-186h-125v296h1084v-88l-916 -1271h793v186h123v-297z" />
    <glyph glyph-name="zacute" unicode="&#x17a;" horiz-adv-x="1095" 
d="M805 1462l-363 -291l-63 76l350 305zM991 0h-885v117l730 790h-621v-192h-109v293h885v-97l-745 -811h635v201h110v-301z" />
    <glyph glyph-name="Zdotaccent" unicode="&#x17b;" horiz-adv-x="1282" 
d="M1182 0h-1084v90l918 1270h-793v-186h-125v296h1084v-88l-916 -1271h793v186h123v-297zM776 1724q0 -41 -28.5 -69.5t-69.5 -28.5t-69.5 28.5t-28.5 69.5q0 42 28.5 71.5t69.5 29.5t69.5 -29.5t28.5 -71.5z" />
    <glyph glyph-name="zdotaccent" unicode="&#x17c;" horiz-adv-x="1095" 
d="M991 0h-885v117l730 790h-621v-192h-109v293h885v-97l-745 -811h635v201h110v-301zM670 1262q0 -41 -29 -70t-70 -29t-69.5 29t-28.5 70t28.5 70.5t69.5 29.5t70 -29.5t29 -70.5z" />
    <glyph glyph-name="Zcaron" unicode="&#x17d;" horiz-adv-x="1282" 
d="M1020 1935l-342 -297l-344 297l65 76l277 -233l278 233zM1182 0h-1084v90l918 1270h-793v-186h-125v296h1084v-88l-916 -1271h793v186h123v-297z" />
    <glyph glyph-name="zcaron" unicode="&#x17e;" horiz-adv-x="1095" 
d="M911 1473l-342 -297l-344 297l66 75l276 -233l279 233zM991 0h-885v117l730 790h-621v-192h-109v293h885v-97l-745 -811h635v201h110v-301z" />
    <glyph glyph-name="longs" unicode="&#x17f;" horiz-adv-x="610" 
d="M555 0h-475v100h145v807h-151v101h151v143q0 162 81 246t224 84q51 0 98.5 -20t64 -33t28.5 -25l-57 -76q-6 6 -18.5 15.5t-43.5 22.5t-61 13q-91 0 -142 -57t-51 -172v-1049h207v-100z" />
    <glyph glyph-name="florin" unicode="&#x192;" horiz-adv-x="997" 
d="M432 -143v1052h-149v101h149v141q0 162 81 246t224 84q28 0 55 -5.5t45.5 -13.5t37 -19t27.5 -19l18 -16l10 -9l-58 -72l-6 5q-6 5 -13 10t-18.5 12t-23.5 12t-29 8.5t-34 3.5q-91 0 -142 -57t-51 -172v-139h285v-101h-285v-1054q0 -162 -81 -247t-224 -85
q-111 0 -193 82l60 71q7 -7 18 -15.5t42 -21t63 -12.5q91 0 141.5 57.5t50.5 172.5z" />
    <glyph glyph-name="AEacute" unicode="&#x1fc;" horiz-adv-x="1978" 
d="M1419 1925l-362 -291l-64 76l350 305zM754 0v111h186v567h-432l-246 -567h170v-111h-463v111h164l541 1249h-125v110h1315v-337h-119v227h-678v-572h596v-110h-596v-567h676v225h121v-336h-1110zM940 788v572h-137l-248 -572h385z" />
    <glyph glyph-name="aeacute" unicode="&#x1fd;" horiz-adv-x="1847" 
d="M1239 1462l-362 -291l-64 76l350 305zM1319 -14q-141 0 -255 66t-175 188q-20 -31 -45 -61t-68.5 -67t-93 -64t-119 -45.5t-145.5 -18.5q-143 0 -238.5 75.5t-95.5 204.5q0 88 41 151t118.5 98t175 51t224.5 16h186v43q0 162 -78 228.5t-221 66.5q-51 0 -96.5 -6.5
t-78.5 -17t-60.5 -22.5t-45.5 -24.5t-30.5 -23t-18.5 -16.5l-7 -7l-66 80l3 3q12 13 24 24t48 34.5t76.5 39t107.5 28t144 12.5q152 0 247.5 -50.5t135.5 -162.5q64 103 166 158t221 55q214 0 332 -137.5t115 -378.5v-25h-793q6 -187 115.5 -289t255.5 -102q73 0 138 20.5
t108.5 53t70.5 61t44 56.5l75 -62q-12 -20 -30.5 -44t-57.5 -59.5t-86 -62.5t-118 -47t-150 -20zM846 342q-17 66 -17 135h-180q-77 0 -138 -5t-119.5 -18.5t-97 -35.5t-62 -58.5t-23.5 -85.5q0 -78 64 -131t169 -53q45 0 87 8.5t76 23t64.5 33t54.5 39.5t43.5 41.5t34 39.5
t24 33.5t14.5 23.5zM958 584h668q-6 149 -90.5 241.5t-228.5 92.5q-85 0 -158 -37t-125.5 -114t-65.5 -183z" />
    <glyph glyph-name="Oslashacute" unicode="&#x1fe;" horiz-adv-x="1626" 
d="M618 -104h-104l41 137q-202 78 -323 266t-121 444q0 135 37 253t103 206t154 152t193 96.5t217 32.5q74 0 170 -21l43 142h105l-52 -172q195 -78 316 -259t121 -430q0 -167 -54 -309.5t-148 -240t-223.5 -152.5t-277.5 -55q-87 0 -164 18zM248 737q0 -220 95.5 -368.5
t248.5 -214.5l358 1192q-68 18 -135 18q-79 0 -157.5 -23.5t-152.5 -74t-131 -122.5t-91.5 -177.5t-34.5 -229.5zM815 106q83 0 163 24t153 75.5t128.5 124.5t88 178t32.5 229q0 110 -27 205t-74 165t-106 120.5t-129 83.5l-358 -1190q64 -15 129 -15zM1169 1929l-362 -291
l-64 76l351 305z" />
    <glyph glyph-name="oslashacute" unicode="&#x1ff;" horiz-adv-x="1196" 
d="M377 -59h-98l57 112q-111 67 -174.5 184.5t-63.5 272.5q0 118 40 216t108.5 162t159 99t192.5 35q111 0 207 -41l33 63h98l-53 -104q101 -67 159 -177t58 -253q0 -118 -39 -217t-106.5 -166t-159.5 -104t-197 -37q-90 0 -182 30zM221 506q0 -116 44.5 -205.5
t121.5 -144.5l369 727q-75 35 -158 35q-72 0 -139.5 -28.5t-120.5 -80t-85 -130.5t-32 -173zM598 90q157 0 267 114.5t110 301.5q0 105 -39.5 189t-106.5 139l-364 -719q64 -25 133 -25zM915 1462l-362 -291l-64 76l351 305z" />
    <glyph glyph-name="Scommaaccent" unicode="&#x218;" horiz-adv-x="1359" 
d="M641 -424v27q0 12 12 12q32 0 58 29t26 88l-4 22q-10 -12 -39 -12q-30 0 -50.5 22.5t-20.5 59.5q0 34 23.5 57t58.5 23q46 0 72 -34t26 -97q0 -107 -44 -157t-106 -50q-12 0 -12 10zM242 0h-121v512h127v-61q0 -16 15.5 -52t53 -87t90.5 -96.5t139 -77.5t187 -32
q187 0 291 73.5t104 209.5q0 79 -53 134t-137.5 85.5t-186.5 55t-204 55t-186.5 73t-137.5 121t-53 187.5q0 165 128 274t345 109q288 0 416 -172v164h121v-474h-127v89q0 27 -12.5 60.5t-43 71.5t-74.5 68.5t-115 51t-157 20.5q-157 0 -252.5 -74t-95.5 -188
q0 -64 33 -112.5t88.5 -79.5t127 -55t151 -44t159.5 -41.5t151.5 -52.5t127 -71.5t88.5 -103.5t33 -145q0 -85 -30 -157.5t-91 -129.5t-162 -89.5t-234 -32.5q-102 0 -189.5 25.5t-147.5 68.5t-98.5 85t-67.5 89v-254z" />
    <glyph glyph-name="scommaaccent" unicode="&#x219;" horiz-adv-x="997" 
d="M428 -424v27q0 12 12 12q32 0 58 29t26 88l-4 22q-10 -12 -39 -12q-30 0 -50.5 22.5t-20.5 59.5q0 34 23.5 57t58.5 23q46 0 72 -34t26 -97q0 -107 -44 -157t-106 -50q-12 0 -12 10zM537 -14q-78 0 -141.5 17.5t-101.5 45.5t-59 51t-32 45h-4q4 -143 4 -145h-101l2 352
h103v-76q3 -8 8.5 -20.5t30.5 -44.5t57.5 -56.5t91 -44.5t129.5 -20q125 0 189.5 46t64.5 132q0 49 -35.5 83.5t-92 54.5t-125 37.5t-137.5 39t-125.5 51t-92 82t-35.5 123.5q0 132 96.5 207.5t237.5 75.5q205 0 297 -123h4q-6 107 -6 109h96v-324h-102v57q0 23 -14.5 51
t-45 57.5t-88 49t-131.5 19.5q-90 0 -155.5 -46.5t-65.5 -130.5q0 -45 28 -78.5t73.5 -53t103.5 -38t118.5 -32t118.5 -36.5t103.5 -50.5t73.5 -74.5t28 -108q0 -124 -91.5 -204t-276.5 -80z" />
    <glyph glyph-name="circumflex" unicode="&#x2c6;" horiz-adv-x="821" 
d="M752 1247l-66 -76l-278 234l-277 -234l-63 76l342 297z" />
    <glyph glyph-name="caron" unicode="&#x2c7;" horiz-adv-x="821" 
d="M752 1473l-342 -297l-344 297l65 75l277 -233l278 233z" />
    <glyph glyph-name="breve" unicode="&#x2d8;" horiz-adv-x="704" 
d="M524 1473h103v-25q0 -136 -76 -208.5t-201 -72.5q-122 0 -197 72.5t-75 208.5v25h100v-25q0 -90 49.5 -139t122.5 -49t123.5 49.5t50.5 138.5v25z" />
    <glyph glyph-name="dotaccent" unicode="&#x2d9;" horiz-adv-x="348" 
d="M274 1262q0 -41 -28.5 -70t-69.5 -29t-69.5 29t-28.5 70t28.5 70.5t69.5 29.5t69.5 -29.5t28.5 -70.5z" />
    <glyph glyph-name="ring" unicode="&#x2da;" horiz-adv-x="464" 
d="M393 1294q0 -66 -47 -113.5t-113 -47.5t-113.5 47.5t-47.5 113.5t47.5 113t113.5 47t113 -47t47 -113zM309 1294q0 32 -22 54t-54 22t-53.5 -22t-21.5 -54t21.5 -53.5t53.5 -21.5t54 21.5t22 53.5z" />
    <glyph glyph-name="ogonek" unicode="&#x2db;" horiz-adv-x="450" 
d="M340 -203l39 -61q-71 -53 -148 -53q-69 0 -111 40t-42 103q0 38 17 70.5t41 51.5t48 33t41 19l17 6h90l-6 -3q-7 -3 -14.5 -6.5t-18.5 -9.5t-22 -12.5t-24 -16t-24 -19.5t-21 -22.5t-17.5 -25t-12 -28t-4.5 -31.5q0 -31 21 -49.5t53 -18.5q16 0 33 4.5t27 9t22 11t16 8.5
z" />
    <glyph glyph-name="tilde" unicode="&#x2dc;" horiz-adv-x="751" 
d="M588 1386h90v-22q0 -215 -164 -215q-50 0 -91.5 17.5t-65.5 38t-55 38t-62 17.5q-40 0 -58 -23.5t-18 -81.5v-25h-90v25q0 95 41 147t121 52q44 0 84 -17.5t65.5 -39t59 -39t65.5 -17.5q44 0 61 26.5t17 96.5v22z" />
    <glyph glyph-name="hungarumlaut" unicode="&#x2dd;" horiz-adv-x="874" 
d="M494 1473l-361 -293l-65 77l350 304zM807 1473l-361 -293l-65 77l350 304z" />
    <glyph glyph-name="Wgrave" unicode="&#x1e80;" horiz-adv-x="2025" 
d="M1466 0h-180l-272 1202h-6l-269 -1202h-180l-420 1360h-159v110h466v-110h-172l367 -1223h10l299 1333h123l299 -1333h10l369 1223h-172v110h467v-110h-160zM1130 1710l-65 -76l-360 293l75 88z" />
    <glyph glyph-name="wgrave" unicode="&#x1e81;" horiz-adv-x="1591" 
d="M1133 0h-123l-211 795h-6l-213 -795h-121l-303 907h-140v101h394v-101h-125l233 -755h4l197 755h-119v101h393v-101h-116l194 -755h4l232 755h-123v101h391v-101h-141zM983 1247l-65 -76l-361 293l76 88z" />
    <glyph glyph-name="Wacute" unicode="&#x1e82;" horiz-adv-x="2025" 
d="M1376 1925l-362 -291l-64 76l350 305zM1466 0h-180l-272 1202h-6l-269 -1202h-180l-420 1360h-159v110h466v-110h-172l367 -1223h10l299 1333h123l299 -1333h10l369 1223h-172v110h467v-110h-160z" />
    <glyph glyph-name="wacute" unicode="&#x1e83;" horiz-adv-x="1591" 
d="M1038 1462l-362 -291l-64 76l351 305zM1133 0h-123l-211 795h-6l-213 -795h-121l-303 907h-140v101h394v-101h-125l233 -755h4l197 755h-119v101h393v-101h-116l194 -755h4l232 755h-123v101h391v-101h-141z" />
    <glyph glyph-name="Wdieresis" unicode="&#x1e84;" horiz-adv-x="2025" 
d="M934 1671q0 -32 -23 -54t-55 -22t-54 22t-22 54t22 55t54 23t55 -23t23 -55zM1247 1671q0 -32 -23.5 -54t-56.5 -22q-31 0 -52 22t-21 54t21 55t52 23q32 0 56 -23t24 -55zM1466 0h-180l-272 1202h-6l-269 -1202h-180l-420 1360h-159v110h466v-110h-172l367 -1223h10
l299 1333h123l299 -1333h10l369 1223h-172v110h467v-110h-160z" />
    <glyph glyph-name="wdieresis" unicode="&#x1e85;" horiz-adv-x="1591" 
d="M727 1208q0 -32 -22.5 -53.5t-55.5 -21.5q-32 0 -54 21.5t-22 53.5t22 55t54 23t55 -23t23 -55zM1040 1208q0 -32 -23 -53.5t-56 -21.5q-31 0 -52.5 21.5t-21.5 53.5t21.5 55t52.5 23q32 0 55.5 -23t23.5 -55zM1133 0h-123l-211 795h-6l-213 -795h-121l-303 907h-140v101
h394v-101h-125l233 -755h4l197 755h-119v101h393v-101h-116l194 -755h4l232 755h-123v101h391v-101h-141z" />
    <glyph glyph-name="Ygrave" unicode="&#x1ef2;" horiz-adv-x="1286" 
d="M897 0h-508v111h191v487l-433 762h-161v110h469v-110h-166l354 -643h8l350 643h-167v110h469v-110h-164l-432 -764v-485h190v-111zM866 1710l-65 -76l-361 293l76 88z" />
    <glyph glyph-name="ygrave" unicode="&#x1ef3;" horiz-adv-x="1140" 
d="M475 -145l64 174h-37l-357 878h-139v101h387v-101h-119l301 -760h5l272 760h-123v101h391v-101h-141l-393 -1054q-31 -85 -59 -140t-66.5 -101.5t-88.5 -67.5t-116 -21q-113 0 -193 80l60 73q7 -7 18.5 -16t42.5 -22t62 -13q83 0 132 50t97 180zM780 1247l-65 -76
l-361 293l76 88z" />
    <glyph glyph-name="endash" unicode="&#x2013;" horiz-adv-x="1247" 
d="M1102 473h-955v115h955v-115z" />
    <glyph glyph-name="emdash" unicode="&#x2014;" horiz-adv-x="1914" 
d="M1769 473h-1622v115h1622v-115z" />
    <glyph glyph-name="quoteleft" unicode="&#x2018;" horiz-adv-x="399" 
d="M272 1554v-49h-12q-32 0 -58 -28.5t-26 -87.5l4 -23q10 12 39 12q30 0 52 -22t22 -58q0 -35 -24 -58t-60 -23q-46 0 -72 34t-26 97q0 108 43.5 157t105.5 49h12z" />
    <glyph glyph-name="quoteright" unicode="&#x2019;" horiz-adv-x="403" 
d="M139 1184v49h13q32 0 58 29t26 88q0 7 -1 12.5t-3 7.5l-1 2q-10 -12 -41 -12q-29 0 -50 22t-21 58q0 35 24 58.5t58 23.5q47 0 73.5 -34t26.5 -97q0 -108 -43.5 -157.5t-105.5 -49.5h-13z" />
    <glyph glyph-name="quotesinglbase" unicode="&#x201a;" horiz-adv-x="458" 
d="M162 -190v49h12q32 0 58 28.5t26 87.5l-4 23q-10 -12 -41 -12q-29 0 -50.5 22.5t-21.5 57.5t24 58t58 23q48 0 74.5 -34t26.5 -97q0 -108 -44 -157t-106 -49h-12z" />
    <glyph glyph-name="quotedblleft" unicode="&#x201c;" horiz-adv-x="714" 
d="M588 1554v-49h-13q-32 0 -57.5 -28.5t-25.5 -87.5l4 -23q10 12 41 12q29 0 50 -22t21 -58q0 -35 -24 -58t-58 -23q-47 0 -73.5 34t-26.5 97q0 108 43.5 157t105.5 49h13zM272 1554v-49h-12q-32 0 -58 -28.5t-26 -87.5l4 -23q10 12 39 12q30 0 52 -22t22 -58
q0 -35 -24 -58t-60 -23q-46 0 -72 34t-26 97q0 108 43.5 157t105.5 49h12z" />
    <glyph glyph-name="quotedblright" unicode="&#x201d;" horiz-adv-x="718" 
d="M139 1184v49h13q32 0 58 29t26 88q0 7 -1 12.5t-3 7.5l-1 2q-10 -12 -41 -12q-29 0 -50 22t-21 58q0 35 24 58.5t58 23.5q47 0 73.5 -34t26.5 -97q0 -108 -43.5 -157.5t-105.5 -49.5h-13zM455 1184v49h12q32 0 58 29t26 88l-4 22q-10 -12 -39 -12q-30 0 -52 22t-22 58
q0 35 24.5 58.5t59.5 23.5q46 0 72 -34t26 -97q0 -108 -43.5 -157.5t-105.5 -49.5h-12z" />
    <glyph glyph-name="quotedblbase" unicode="&#x201e;" horiz-adv-x="743" 
d="M162 -190v49h12q32 0 58 28.5t26 87.5l-4 23q-10 -12 -41 -12q-29 0 -50.5 22.5t-21.5 57.5t24 58t58 23q48 0 74.5 -34t26.5 -97q0 -108 -44 -157t-106 -49h-12zM446 -190v49h13q32 0 58 28.5t26 87.5l-4 23q-10 -12 -39 -12t-50.5 22.5t-21.5 57.5t24 58t58 23
q46 0 72 -34t26 -97q0 -108 -43 -157t-106 -49h-13z" />
    <glyph glyph-name="dagger" unicode="&#x2020;" horiz-adv-x="811" 
d="M459 -268h-101l-12 1327h-250v115h250v382h127v-382h240v-115h-240z" />
    <glyph glyph-name="daggerdbl" unicode="&#x2021;" horiz-adv-x="833" 
d="M725 145h-252l-2 -413h-102l-4 413h-259v115h256l-4 799h-252v115h252v382h125v-382h242v-115h-242l-6 -799h248v-115z" />
    <glyph glyph-name="bullet" unicode="&#x2022;" horiz-adv-x="753" 
d="M377 489q-91 0 -141 52.5t-50 144.5q0 90 50.5 144.5t140.5 54.5q87 0 139.5 -55t52.5 -144q0 -91 -52 -144t-140 -53z" />
    <glyph glyph-name="ellipsis" unicode="&#x2026;" horiz-adv-x="892" 
d="M305 68q0 -35 -24.5 -58.5t-59.5 -23.5q-34 0 -58 23.5t-24 58.5t24 58.5t58 23.5q35 0 59.5 -23.5t24.5 -58.5zM530 68q0 -35 -23.5 -58.5t-57.5 -23.5q-35 0 -58.5 23.5t-23.5 58.5t23.5 58.5t58.5 23.5q34 0 57.5 -23.5t23.5 -58.5zM756 68q0 -35 -24.5 -58.5
t-59.5 -23.5t-58.5 23.5t-23.5 58.5t23.5 58.5t58.5 23.5t59.5 -23.5t24.5 -58.5z" />
    <glyph glyph-name="perthousand" unicode="&#x2030;" horiz-adv-x="2131" 
d="M362 735q-137 0 -212.5 105.5t-75.5 273.5q0 159 76 264t212 105q135 0 212 -105t77 -264q0 -168 -76 -273.5t-213 -105.5zM362 823q91 0 142 75.5t51 211.5q0 135 -51.5 209t-141.5 74q-91 0 -141.5 -74t-50.5 -209t50.5 -211t141.5 -76zM1106 -14q-137 0 -212 105
t-75 274q0 159 75.5 263.5t211.5 104.5t212.5 -104.5t76.5 -263.5q0 -168 -76 -273.5t-213 -105.5zM1106 74q91 0 141.5 75t50.5 211t-50.5 209.5t-141.5 73.5q-90 0 -141.5 -74.5t-51.5 -208.5q0 -135 51 -210.5t142 -75.5zM508 -152h-96l516 1708h98zM1769 -14
q-136 0 -211 105.5t-75 273.5q0 159 75.5 263.5t210.5 104.5q136 0 212.5 -104.5t76.5 -263.5q0 -168 -76 -273.5t-213 -105.5zM1769 74q91 0 143 75t52 211q0 135 -51.5 209t-143.5 74q-90 0 -141 -74.5t-51 -208.5q0 -135 50.5 -210.5t141.5 -75.5z" />
    <glyph glyph-name="fraction" unicode="&#x2044;" horiz-adv-x="673" 
d="M141 -152h-127l516 1708h127z" />
    <glyph glyph-name="zerosuperior" unicode="&#x2070;" horiz-adv-x="800" 
d="M399 735q-137 0 -211.5 105t-74.5 274q0 104 31.5 186t97.5 132.5t157 50.5q136 0 212.5 -105t76.5 -264q0 -168 -76 -273.5t-213 -105.5zM399 823q91 0 142 75.5t51 211.5t-51 209.5t-142 73.5q-90 0 -140 -74.5t-50 -208.5q0 -136 50 -211.5t140 -75.5z" />
    <glyph glyph-name="Euro" unicode="&#x20ac;" horiz-adv-x="1415" 
d="M84 614h168q-8 52 -8 119q0 51 6 103h-166v98h180q57 244 234.5 396.5t431.5 152.5q71 0 133.5 -11.5t112.5 -33.5t77.5 -37t63.5 -39l-76 -94q-62 44 -133 70t-176 26q-192 0 -331.5 -120t-194.5 -310h589v-98h-610q-6 -49 -6 -101q0 -69 8 -121h494v-98h-469
q57 -183 195 -296.5t325 -113.5q106 0 177 25.5t132 69.5l78 -97q-37 -23 -64 -37.5t-78 -36.5t-113.5 -33t-133.5 -11q-250 0 -425.5 146.5t-234.5 383.5h-186v98z" />
    <glyph glyph-name="trademark" unicode="&#x2122;" horiz-adv-x="2215" 
d="M684 590h-328v84h115v712h-260v-122h-88v206h795v-206h-89v122h-256v-712h111v-84zM2073 590h-308v84h103v672h-2l-271 -666h-61l-270 666h-2v-672h102v-84h-305v84h108v712h-108v84h241l213 -520l50 -147h2q31 96 51 147l211 520h246v-84h-107v-712h107v-84z" />
    <glyph glyph-name="Omega" unicode="&#x2126;" horiz-adv-x="1656" 
d="M1552 0h-624v350q95 0 178.5 30t149.5 88.5t104.5 154t38.5 217.5q0 105 -35 193t-92.5 148t-132.5 102t-154 61.5t-158 19.5q-78 0 -156.5 -19.5t-153.5 -61.5t-132 -102t-92 -148t-35 -193q0 -122 38 -217.5t104 -154t149.5 -88.5t179.5 -30v-350h-625v100h519v154
q-220 33 -360 194t-140 398q0 116 37 218t103 178t154 131t193 82.5t217 27.5q141 0 268.5 -44.5t225.5 -124.5t155.5 -201.5t57.5 -266.5q0 -237 -140 -398t-360 -194v-154h518v-100z" />
    <glyph glyph-name="onethird" unicode="&#x2153;" horiz-adv-x="1361" 
d="M465 -152h-103l517 1708h102zM535 741h-410v82h168v551l-176 -135l-49 66l221 172h96l2 -654h148v-82zM1018 -10q-48 0 -90.5 12t-69.5 30.5t-46 35.5t-30 32l-12 15l55 53q1 -1 11.5 -12.5t14.5 -15.5t16 -15t21 -16t24 -13t30 -12t34.5 -7t41.5 -3q174 0 174 133
q0 67 -45 104t-127 37h-43v74h41q33 0 65 10.5t58 39.5t26 71q0 52 -37 81t-106 29q-57 0 -93 -29.5t-36 -68.5v-16h-86v16q0 79 61 130.5t154 51.5q116 0 174.5 -57t58.5 -133q0 -66 -42.5 -109t-79.5 -49q19 -3 41.5 -13.5t48 -31t42.5 -58t17 -85.5q0 -95 -73.5 -153
t-192.5 -58z" />
    <glyph glyph-name="partialdiff" unicode="&#x2202;" horiz-adv-x="1284" 
d="M631 932q261 0 411 -117v27q0 249 -94 388.5t-282 139.5q-155 0 -234 -68.5t-88 -164.5h-119q0 151 128.5 248.5t322.5 97.5q102 0 184.5 -30.5t140 -85t96 -133.5t56.5 -173.5t18 -206.5q0 -185 -40.5 -342t-118 -275t-198.5 -184.5t-273 -66.5q-214 0 -339.5 120.5
t-125.5 313.5q0 230 148 371t407 141zM551 98q208 0 333.5 157.5t151.5 442.5q-18 16 -45 33t-78 42.5t-125 41.5t-157 16q-190 0 -311 -112t-121 -291q0 -149 93 -239.5t259 -90.5z" />
    <glyph glyph-name="minus" unicode="&#x2212;" horiz-adv-x="985" 
d="M829 473h-671v115h671v-115z" />
    <glyph glyph-name="integral" unicode="&#x222b;" horiz-adv-x="806" 
d="M385 1151q0 162 81 246t224 84q113 0 193 -80l-58 -74q-6 6 -18.5 15.5t-44 22.5t-62.5 13q-91 0 -141.5 -57t-50.5 -172v-1294q0 -162 -81 -247t-224 -85q-111 0 -193 82l58 71l6 -5q7 -5 13.5 -9.5t19 -11t24.5 -11.5t28.5 -8.5t33.5 -3.5q91 0 141.5 57.5t50.5 172.5
v1294z" />
    <glyph glyph-name="approxequal" unicode="&#x2248;" horiz-adv-x="915" 
d="M670 883h92v-25q0 -213 -166 -213q-49 0 -90.5 17.5t-65.5 38t-55 38t-61 17.5q-39 0 -57.5 -24.5t-18.5 -82.5v-22h-90v22q0 199 161 199q44 0 84 -17.5t65 -38.5t58.5 -38.5t65.5 -18.5q44 0 61 27t17 96v25zM670 571h92v-22q0 -215 -166 -215q-49 0 -90.5 17.5
t-65.5 38.5t-55 38.5t-61 17.5q-40 0 -58 -24t-18 -82v-25h-90v25q0 199 161 199q44 0 84 -17.5t65 -38.5t58.5 -38.5t65.5 -18.5q44 0 61 27t17 96v22z" />
    <glyph glyph-name="notequal" unicode="&#x2260;" horiz-adv-x="954" 
d="M817 223h-379l-39 -133h-108l39 133h-193v115h228l112 369h-340v116h375l55 178h107l-56 -178h199v-116h-233l-111 -369h344v-115z" />
    <glyph glyph-name="commaaccent" unicode="&#xf6c3;" horiz-adv-x="333" 
d="M96 -424v27q0 12 13 12q32 0 58 29t26 88q0 7 -1.5 12.5t-2.5 7.5l-1 2q-9 -12 -38 -12q-30 0 -51 22.5t-21 59.5q0 34 23.5 57t58.5 23q46 0 72 -34t26 -97q0 -107 -43.5 -157t-105.5 -50q-13 0 -13 10z" />
    <glyph glyph-name="a.alt" horiz-adv-x="1234" 
d="M1178 0h-260v217h-3q-102 -231 -356 -231q-207 0 -334 146t-127 376t128 372t333 142q138 0 225 -56.5t129 -150.5h2v193h117v-908h146v-100zM569 90q150 0 249.5 114.5t99.5 301.5q0 189 -100.5 300.5t-248.5 111.5q-149 0 -249.5 -113t-100.5 -301q0 -183 100 -298.5
t250 -115.5z" />
    <glyph glyph-name="aacute.alt" horiz-adv-x="1234" 
d="M868 1462l-362 -291l-64 76l351 305zM1178 0h-260v217h-3q-102 -231 -356 -231q-207 0 -334 146t-127 376t128 372t333 142q138 0 225 -56.5t129 -150.5h2v193h117v-908h146v-100zM569 90q150 0 249.5 114.5t99.5 301.5q0 189 -100.5 300.5t-248.5 111.5
q-149 0 -249.5 -113t-100.5 -301q0 -183 100 -298.5t250 -115.5z" />
    <glyph glyph-name="abreve.alt" horiz-adv-x="1234" 
d="M1178 0h-260v217h-3q-102 -231 -356 -231q-207 0 -334 146t-127 376t128 372t333 142q138 0 225 -56.5t129 -150.5h2v193h117v-908h146v-100zM569 90q150 0 249.5 114.5t99.5 301.5q0 189 -100.5 300.5t-248.5 111.5q-149 0 -249.5 -113t-100.5 -301q0 -183 100 -298.5
t250 -115.5zM774 1473h103v-25q0 -136 -76 -208.5t-201 -72.5q-122 0 -197 72.5t-75 208.5v25h100v-25q0 -90 49.5 -139t122.5 -49t123.5 49.5t50.5 138.5v25z" />
    <glyph glyph-name="acircumflex.alt" horiz-adv-x="1234" 
d="M963 1247l-66 -76l-279 234l-276 -234l-63 76l342 297zM1178 0h-260v217h-3q-102 -231 -356 -231q-207 0 -334 146t-127 376t128 372t333 142q138 0 225 -56.5t129 -150.5h2v193h117v-908h146v-100zM569 90q150 0 249.5 114.5t99.5 301.5q0 189 -100.5 300.5
t-248.5 111.5q-149 0 -249.5 -113t-100.5 -301q0 -183 100 -298.5t250 -115.5z" />
    <glyph glyph-name="adieresis.alt" horiz-adv-x="1234" 
d="M528 1208q0 -32 -22.5 -53.5t-54.5 -21.5t-54 21.5t-22 53.5t22 55t54 23t54.5 -23t22.5 -55zM842 1208q0 -32 -23.5 -53.5t-56.5 -21.5q-31 0 -52.5 21.5t-21.5 53.5t21.5 55t52.5 23q32 0 56 -23t24 -55zM1178 0h-260v217h-3q-102 -231 -356 -231q-207 0 -334 146
t-127 376t128 372t333 142q138 0 225 -56.5t129 -150.5h2v193h117v-908h146v-100zM569 90q150 0 249.5 114.5t99.5 301.5q0 189 -100.5 300.5t-248.5 111.5q-149 0 -249.5 -113t-100.5 -301q0 -183 100 -298.5t250 -115.5z" />
    <glyph glyph-name="agrave.alt" horiz-adv-x="1234" 
d="M1178 0h-260v217h-3q-102 -231 -356 -231q-207 0 -334 146t-127 376t128 372t333 142q138 0 225 -56.5t129 -150.5h2v193h117v-908h146v-100zM569 90q150 0 249.5 114.5t99.5 301.5q0 189 -100.5 300.5t-248.5 111.5q-149 0 -249.5 -113t-100.5 -301q0 -183 100 -298.5
t250 -115.5zM768 1247l-66 -76l-360 293l76 88z" />
    <glyph glyph-name="amacron.alt" horiz-adv-x="1234" 
d="M1178 0h-260v217h-3q-102 -231 -356 -231q-207 0 -334 146t-127 376t128 372t333 142q138 0 225 -56.5t129 -150.5h2v193h117v-908h146v-100zM569 90q150 0 249.5 114.5t99.5 301.5q0 189 -100.5 300.5t-248.5 111.5q-149 0 -249.5 -113t-100.5 -301q0 -183 100 -298.5
t250 -115.5zM907 1139h-635v104h635v-104z" />
    <glyph glyph-name="aogonek.alt" horiz-adv-x="1234" 
d="M1116 -203l39 -61q-71 -53 -147 -53q-69 0 -111.5 40t-42.5 103q0 38 16 70t41.5 52.5t46 32t41.5 19.5h-81v217h-3q-102 -231 -356 -231q-207 0 -334 146t-127 376t128 372t333 142q138 0 225 -56.5t129 -150.5h2v193h117v-908h146v-100h-84q-21 -9 -42 -21.5t-47.5 -34
t-43.5 -51t-17 -61.5q0 -31 21 -49.5t53 -18.5q16 0 33 4.5t27 9t22 11t16 8.5zM569 90q150 0 249.5 114.5t99.5 301.5q0 189 -100.5 300.5t-248.5 111.5q-149 0 -249.5 -113t-100.5 -301q0 -183 100 -298.5t250 -115.5z" />
    <glyph glyph-name="aring.alt" horiz-adv-x="1234" 
d="M762 1294q0 -66 -47 -113.5t-113 -47.5t-114 47.5t-48 113.5t48 113t114 47t113 -47t47 -113zM678 1294q0 32 -22 54t-54 22t-54 -22t-22 -54t22 -53.5t54 -21.5t54 21.5t22 53.5zM1178 0h-260v217h-3q-102 -231 -356 -231q-207 0 -334 146t-127 376t128 372t333 142
q138 0 225 -56.5t129 -150.5h2v193h117v-908h146v-100zM569 90q150 0 249.5 114.5t99.5 301.5q0 189 -100.5 300.5t-248.5 111.5q-149 0 -249.5 -113t-100.5 -301q0 -183 100 -298.5t250 -115.5z" />
    <glyph glyph-name="atilde.alt" horiz-adv-x="1234" 
d="M1178 0h-260v217h-3q-102 -231 -356 -231q-207 0 -334 146t-127 376t128 372t333 142q138 0 225 -56.5t129 -150.5h2v193h117v-908h146v-100zM569 90q150 0 249.5 114.5t99.5 301.5q0 189 -100.5 300.5t-248.5 111.5q-149 0 -249.5 -113t-100.5 -301q0 -183 100 -298.5
t250 -115.5zM809 1386h90v-22q0 -215 -164 -215q-50 0 -91.5 17.5t-65.5 38t-55 38t-62 17.5q-40 0 -58 -23.5t-18 -81.5v-25h-90v25q0 95 41 147t121 52q44 0 84 -17.5t65.5 -39t59 -39t65.5 -17.5q44 0 61 26.5t17 96.5v22z" />
    <glyph glyph-name="y.alt" horiz-adv-x="1177" 
d="M1001 1008v-1057q0 -214 -126.5 -321t-339.5 -107q-53 0 -101.5 6t-84.5 15t-68.5 22t-54.5 25.5t-41.5 26t-29.5 23t-18 17.5l-8 8l61 82q1 -1 9 -8t16 -13t22.5 -16t30.5 -18.5t37 -18.5t45.5 -17.5t52.5 -14t62 -10t70 -3.5q74 0 135 17.5t111 54t78 100.5t28 150v213
h-4q-11 -22 -25.5 -42t-43 -46t-63.5 -45t-88.5 -32t-115.5 -13q-165 0 -259.5 95.5t-94.5 258.5v567h-146v101h268v-648q0 -127 65.5 -197.5t184.5 -70.5q66 0 122.5 20t90.5 48t58 57.5t33.5 48t9.5 21.5v620h-142v101h264z" />
    <glyph glyph-name="yacute.alt" horiz-adv-x="1177" 
d="M1001 1008v-1057q0 -214 -126.5 -321t-339.5 -107q-53 0 -101.5 6t-84.5 15t-68.5 22t-54.5 25.5t-41.5 26t-29.5 23t-18 17.5l-8 8l61 82q1 -1 9 -8t16 -13t22.5 -16t30.5 -18.5t37 -18.5t45.5 -17.5t52.5 -14t62 -10t70 -3.5q74 0 135 17.5t111 54t78 100.5t28 150v213
h-4q-11 -22 -25.5 -42t-43 -46t-63.5 -45t-88.5 -32t-115.5 -13q-165 0 -259.5 95.5t-94.5 258.5v567h-146v101h268v-648q0 -127 65.5 -197.5t184.5 -70.5q66 0 122.5 20t90.5 48t58 57.5t33.5 48t9.5 21.5v620h-142v101h264zM797 1462l-363 -291l-63 76l350 305z" />
    <glyph glyph-name="ycircumflex.alt" horiz-adv-x="1177" 
d="M1001 1008v-1057q0 -214 -126.5 -321t-339.5 -107q-53 0 -101.5 6t-84.5 15t-68.5 22t-54.5 25.5t-41.5 26t-29.5 23t-18 17.5l-8 8l61 82q1 -1 9 -8t16 -13t22.5 -16t30.5 -18.5t37 -18.5t45.5 -17.5t52.5 -14t62 -10t70 -3.5q74 0 135 17.5t111 54t78 100.5t28 150v213
h-4q-11 -22 -25.5 -42t-43 -46t-63.5 -45t-88.5 -32t-115.5 -13q-165 0 -259.5 95.5t-94.5 258.5v567h-146v101h268v-648q0 -127 65.5 -197.5t184.5 -70.5q66 0 122.5 20t90.5 48t58 57.5t33.5 48t9.5 21.5v620h-142v101h264zM920 1247l-66 -76l-279 234l-276 -234l-63 76
l342 297z" />
    <glyph glyph-name="ydieresis.alt" horiz-adv-x="1177" 
d="M1001 1008v-1057q0 -214 -126.5 -321t-339.5 -107q-53 0 -101.5 6t-84.5 15t-68.5 22t-54.5 25.5t-41.5 26t-29.5 23t-18 17.5l-8 8l61 82q1 -1 9 -8t16 -13t22.5 -16t30.5 -18.5t37 -18.5t45.5 -17.5t52.5 -14t62 -10t70 -3.5q74 0 135 17.5t111 54t78 100.5t28 150v213
h-4q-11 -22 -25.5 -42t-43 -46t-63.5 -45t-88.5 -32t-115.5 -13q-165 0 -259.5 95.5t-94.5 258.5v567h-146v101h268v-648q0 -127 65.5 -197.5t184.5 -70.5q66 0 122.5 20t90.5 48t58 57.5t33.5 48t9.5 21.5v620h-142v101h264zM500 1208q0 -32 -22.5 -53.5t-55.5 -21.5
q-32 0 -54 21.5t-22 53.5t22 55t54 23t55 -23t23 -55zM813 1208q0 -32 -23.5 -53.5t-56.5 -21.5q-31 0 -52.5 21.5t-21.5 53.5t21.5 55t52.5 23q32 0 56 -23t24 -55z" />
    <glyph glyph-name="ygrave.alt" horiz-adv-x="1177" 
d="M1001 1008v-1057q0 -214 -126.5 -321t-339.5 -107q-53 0 -101.5 6t-84.5 15t-68.5 22t-54.5 25.5t-41.5 26t-29.5 23t-18 17.5l-8 8l61 82q1 -1 9 -8t16 -13t22.5 -16t30.5 -18.5t37 -18.5t45.5 -17.5t52.5 -14t62 -10t70 -3.5q74 0 135 17.5t111 54t78 100.5t28 150v213
h-4q-11 -22 -25.5 -42t-43 -46t-63.5 -45t-88.5 -32t-115.5 -13q-165 0 -259.5 95.5t-94.5 258.5v567h-146v101h268v-648q0 -127 65.5 -197.5t184.5 -70.5q66 0 122.5 20t90.5 48t58 57.5t33.5 48t9.5 21.5v620h-142v101h264zM717 1247l-66 -76l-360 293l76 88z" />
    <glyph glyph-name="k.alt" horiz-adv-x="1169" 
d="M526 481h97q72 0 139.5 24.5t115.5 79t48 128.5q0 93 -61 149t-169 56q-102 0 -190 -67t-135 -159.5t-47 -177.5l-2 -414h143v-100h-408v100h144v1270h-146v100h267v-714q12 29 31 60t53 69.5t74.5 67.5t99.5 49t125 20q168 0 256 -84t88 -217q0 -94 -57.5 -169
t-140.5 -113.5t-171 -41.5l338 -297h100v-100h-147l-445 391v90z" />
    <glyph glyph-name="kcommaaccent.alt" horiz-adv-x="1169" 
d="M526 481h97q72 0 139.5 24.5t115.5 79t48 128.5q0 93 -61 149t-169 56q-102 0 -190 -67t-135 -159.5t-47 -177.5l-2 -414h143v-100h-408v100h144v1270h-146v100h267v-714q12 29 31 60t53 69.5t74.5 67.5t99.5 49t125 20q168 0 256 -84t88 -217q0 -94 -57.5 -169
t-140.5 -113.5t-171 -41.5l338 -297h100v-100h-147l-445 391v90zM547 -424v27q0 12 12 12q32 0 58 29t26 88l-4 22q-10 -12 -39 -12q-30 0 -51 22.5t-21 59.5q0 34 23.5 57t58.5 23q46 0 72.5 -34.5t26.5 -96.5q0 -107 -44 -157t-106 -50q-12 0 -12 10z" />
    <glyph glyph-name="R.alt" horiz-adv-x="1378" 
d="M1333 0h-57q-73 0 -142 34t-122 88t-100 119.5t-79 131t-56 119.5t-35 88l-11 34h-321v-503h215v-111h-529v111h187v1249h-187v110h637q104 0 191 -26.5t153.5 -78t104 -134.5t37.5 -189q0 -92 -30 -168t-81.5 -126t-115.5 -79.5t-136 -37.5q4 -11 10.5 -29.5t29.5 -72.5
t49 -103.5t67 -109.5t83.5 -103t99 -72.5t114.5 -29.5h24v-111zM410 721h295q183 0 282.5 72.5t99.5 244.5q0 72 -20.5 128.5t-55.5 92.5t-85 59t-104 32.5t-117 9.5h-295v-639z" />
    <glyph glyph-name="Racute.alt" horiz-adv-x="1378" 
d="M881 1925l-363 -291l-63 76l350 305zM1333 0h-57q-73 0 -142 34t-122 88t-100 119.5t-79 131t-56 119.5t-35 88l-11 34h-321v-503h215v-111h-529v111h187v1249h-187v110h637q104 0 191 -26.5t153.5 -78t104 -134.5t37.5 -189q0 -92 -30 -168t-81.5 -126t-115.5 -79.5
t-136 -37.5q4 -11 10.5 -29.5t29.5 -72.5t49 -103.5t67 -109.5t83.5 -103t99 -72.5t114.5 -29.5h24v-111zM410 721h295q183 0 282.5 72.5t99.5 244.5q0 72 -20.5 128.5t-55.5 92.5t-85 59t-104 32.5t-117 9.5h-295v-639z" />
    <glyph glyph-name="Rcaron.alt" horiz-adv-x="1378" 
d="M1004 1935l-342 -297l-345 297l66 76l276 -233l279 233zM1333 0h-57q-73 0 -142 34t-122 88t-100 119.5t-79 131t-56 119.5t-35 88l-11 34h-321v-503h215v-111h-529v111h187v1249h-187v110h637q104 0 191 -26.5t153.5 -78t104 -134.5t37.5 -189q0 -92 -30 -168
t-81.5 -126t-115.5 -79.5t-136 -37.5q4 -11 10.5 -29.5t29.5 -72.5t49 -103.5t67 -109.5t83.5 -103t99 -72.5t114.5 -29.5h24v-111zM410 721h295q183 0 282.5 72.5t99.5 244.5q0 72 -20.5 128.5t-55.5 92.5t-85 59t-104 32.5t-117 9.5h-295v-639z" />
    <glyph glyph-name="Rcommaaccent.alt" horiz-adv-x="1378" 
d="M616 -424v27q0 12 13 12q32 0 58 29t26 88l-4 22q-10 -12 -39 -12q-30 0 -51 22.5t-21 59.5q0 34 23.5 57t58.5 23q46 0 72 -34t26 -97q0 -107 -43.5 -157t-105.5 -50q-13 0 -13 10zM1333 0h-57q-73 0 -142 34t-122 88t-100 119.5t-79 131t-56 119.5t-35 88l-11 34h-321
v-503h215v-111h-529v111h187v1249h-187v110h637q104 0 191 -26.5t153.5 -78t104 -134.5t37.5 -189q0 -92 -30 -168t-81.5 -126t-115.5 -79.5t-136 -37.5q4 -11 10.5 -29.5t29.5 -72.5t49 -103.5t67 -109.5t83.5 -103t99 -72.5t114.5 -29.5h24v-111zM410 721h295
q183 0 282.5 72.5t99.5 244.5q0 72 -20.5 128.5t-55.5 92.5t-85 59t-104 32.5t-117 9.5h-295v-639z" />
    <glyph glyph-name="K.alt" horiz-adv-x="1482" 
d="M1432 0h-58q-81 0 -157 32.5t-132 80.5t-108 115t-84 124.5t-60.5 121.5t-39 92.5t-17.5 51.5h-366v-507h215v-111h-529v111h187v1249h-187v110h473v-110h-159v-635h252q88 0 155.5 17.5t126 61t96 115t58.5 182t22 259.5h-168v110h459v-110h-166q0 -169 -26 -295.5
t-75.5 -208t-109 -130t-137.5 -79.5q0 -2 10 -30.5t31.5 -77.5t51 -105t73 -113.5t93 -104t115.5 -76t136 -29.5h25v-111z" />
    <glyph glyph-name="Kcommaaccent.alt" horiz-adv-x="1482" 
d="M715 -424v27q0 12 12 12q32 0 58 29t26 88l-4 22q-10 -12 -39 -12q-30 0 -51 22.5t-21 59.5q0 34 23.5 57t58.5 23q46 0 72.5 -34.5t26.5 -96.5q0 -107 -44 -157t-106 -50q-12 0 -12 10zM1432 0h-58q-81 0 -157 32.5t-132 80.5t-108 115t-84 124.5t-60.5 121.5t-39 92.5
t-17.5 51.5h-366v-507h215v-111h-529v111h187v1249h-187v110h473v-110h-159v-635h252q88 0 155.5 17.5t126 61t96 115t58.5 182t22 259.5h-168v110h459v-110h-166q0 -169 -26 -295.5t-75.5 -208t-109 -130t-137.5 -79.5q0 -2 10 -30.5t31.5 -77.5t51 -105t73 -113.5t93 -104
t115.5 -76t136 -29.5h25v-111z" />
    <glyph glyph-name="a.alt1" 
d="M1096 0h-258v195h-4q-17 -24 -37 -47.5t-58 -55t-81.5 -54t-107 -38.5t-134.5 -16q-143 0 -237.5 75t-94.5 205q0 316 557 316h188v38q0 165 -78 232.5t-221 67.5q-88 0 -157.5 -18t-102.5 -40v-198h-110v258q49 35 89 52q117 50 281 50q207 0 314.5 -95t107.5 -309v-518
h144v-100zM829 307v170h-182q-438 0 -438 -211q0 -75 62 -124.5t169 -49.5q69 0 134.5 22.5t115 59t82 68.5t57.5 65z" />
    <glyph glyph-name="aacute.alt1" 
d="M815 1462l-362 -291l-64 76l350 305zM1096 0h-258v195h-4q-17 -24 -37 -47.5t-58 -55t-81.5 -54t-107 -38.5t-134.5 -16q-143 0 -237.5 75t-94.5 205q0 316 557 316h188v38q0 165 -78 232.5t-221 67.5q-88 0 -157.5 -18t-102.5 -40v-198h-110v258q49 35 89 52
q117 50 281 50q207 0 314.5 -95t107.5 -309v-518h144v-100zM829 307v170h-182q-438 0 -438 -211q0 -75 62 -124.5t169 -49.5q69 0 134.5 22.5t115 59t82 68.5t57.5 65z" />
    <glyph glyph-name="abreve.alt1" 
d="M1096 0h-258v195h-4q-17 -24 -37 -47.5t-58 -55t-81.5 -54t-107 -38.5t-134.5 -16q-143 0 -237.5 75t-94.5 205q0 316 557 316h188v38q0 165 -78 232.5t-221 67.5q-88 0 -157.5 -18t-102.5 -40v-198h-110v258q49 35 89 52q117 50 281 50q207 0 314.5 -95t107.5 -309v-518
h144v-100zM829 307v170h-182q-438 0 -438 -211q0 -75 62 -124.5t169 -49.5q69 0 134.5 22.5t115 59t82 68.5t57.5 65zM750 1473h102v-25q0 -136 -76 -208.5t-201 -72.5q-122 0 -197 72.5t-75 208.5v25h100v-25q0 -90 49.5 -139t122.5 -49q74 0 124.5 49.5t50.5 138.5v25z
" />
    <glyph glyph-name="acircumflex.alt1" 
d="M901 1247l-65 -76l-279 234l-276 -234l-64 76l342 297zM1096 0h-258v195h-4q-17 -24 -37 -47.5t-58 -55t-81.5 -54t-107 -38.5t-134.5 -16q-143 0 -237.5 75t-94.5 205q0 316 557 316h188v38q0 165 -78 232.5t-221 67.5q-88 0 -157.5 -18t-102.5 -40v-198h-110v258
q49 35 89 52q117 50 281 50q207 0 314.5 -95t107.5 -309v-518h144v-100zM829 307v170h-182q-438 0 -438 -211q0 -75 62 -124.5t169 -49.5q69 0 134.5 22.5t115 59t82 68.5t57.5 65z" />
    <glyph glyph-name="adieresis.alt1" 
d="M506 1208q0 -32 -22.5 -53.5t-55.5 -21.5q-32 0 -54 21.5t-22 53.5t22 55t54 23t55 -23t23 -55zM819 1208q0 -32 -23.5 -53.5t-56.5 -21.5q-31 0 -52 21.5t-21 53.5t21 55t52 23q32 0 56 -23t24 -55zM1096 0h-258v195h-4q-17 -24 -37 -47.5t-58 -55t-81.5 -54t-107 -38.5
t-134.5 -16q-143 0 -237.5 75t-94.5 205q0 316 557 316h188v38q0 165 -78 232.5t-221 67.5q-88 0 -157.5 -18t-102.5 -40v-198h-110v258q49 35 89 52q117 50 281 50q207 0 314.5 -95t107.5 -309v-518h144v-100zM829 307v170h-182q-438 0 -438 -211q0 -75 62 -124.5
t169 -49.5q69 0 134.5 22.5t115 59t82 68.5t57.5 65z" />
    <glyph glyph-name="agrave.alt1" 
d="M1096 0h-258v195h-4q-17 -24 -37 -47.5t-58 -55t-81.5 -54t-107 -38.5t-134.5 -16q-143 0 -237.5 75t-94.5 205q0 316 557 316h188v38q0 165 -78 232.5t-221 67.5q-88 0 -157.5 -18t-102.5 -40v-198h-110v258q49 35 89 52q117 50 281 50q207 0 314.5 -95t107.5 -309v-518
h144v-100zM829 307v170h-182q-438 0 -438 -211q0 -75 62 -124.5t169 -49.5q69 0 134.5 22.5t115 59t82 68.5t57.5 65zM750 1247l-66 -76l-360 293l75 88z" />
    <glyph glyph-name="amacron.alt1" 
d="M868 1139h-635v104h635v-104zM1096 0h-258v195h-4q-17 -24 -37 -47.5t-58 -55t-81.5 -54t-107 -38.5t-134.5 -16q-143 0 -237.5 75t-94.5 205q0 316 557 316h188v38q0 165 -78 232.5t-221 67.5q-88 0 -157.5 -18t-102.5 -40v-198h-110v258q49 35 89 52q117 50 281 50
q207 0 314.5 -95t107.5 -309v-518h144v-100zM829 307v170h-182q-438 0 -438 -211q0 -75 62 -124.5t169 -49.5q69 0 134.5 22.5t115 59t82 68.5t57.5 65z" />
    <glyph glyph-name="aogonek.alt1" 
d="M1096 0h-60q-20 -9 -41 -21.5t-48 -34t-43.5 -51t-16.5 -61.5q0 -31 21 -49.5t53 -18.5q16 0 33 4.5t27 9t22 11t16 8.5l39 -61q-71 -53 -148 -53q-69 0 -111 40t-42 103q0 38 16 70t41.5 52.5t46 32t41.5 19.5h-104v195h-4q-17 -24 -37 -47.5t-58 -55t-81.5 -54
t-107 -38.5t-134.5 -16q-143 0 -237.5 75t-94.5 205q0 316 557 316h188v38q0 165 -78 232.5t-221 67.5q-88 0 -157.5 -18t-102.5 -40v-198h-110v258q49 35 89 52q117 50 281 50q207 0 314.5 -95t107.5 -309v-518h144v-100zM829 307v170h-182q-438 0 -438 -211
q0 -75 62 -124.5t169 -49.5q69 0 134.5 22.5t115 59t82 68.5t57.5 65z" />
    <glyph glyph-name="aring.alt1" 
d="M748 1294q0 -66 -47 -113.5t-113 -47.5t-114 47.5t-48 113.5t48 113t114 47t113 -47t47 -113zM664 1294q0 32 -22 54t-54 22t-54 -22t-22 -54t22 -53.5t54 -21.5t54 21.5t22 53.5zM1096 0h-258v195h-4q-17 -24 -37 -47.5t-58 -55t-81.5 -54t-107 -38.5t-134.5 -16
q-143 0 -237.5 75t-94.5 205q0 316 557 316h188v38q0 165 -78 232.5t-221 67.5q-88 0 -157.5 -18t-102.5 -40v-198h-110v258q49 35 89 52q117 50 281 50q207 0 314.5 -95t107.5 -309v-518h144v-100zM829 307v170h-182q-438 0 -438 -211q0 -75 62 -124.5t169 -49.5
q69 0 134.5 22.5t115 59t82 68.5t57.5 65z" />
    <glyph glyph-name="atilde.alt1" 
d="M1096 0h-258v195h-4q-17 -24 -37 -47.5t-58 -55t-81.5 -54t-107 -38.5t-134.5 -16q-143 0 -237.5 75t-94.5 205q0 316 557 316h188v38q0 165 -78 232.5t-221 67.5q-88 0 -157.5 -18t-102.5 -40v-198h-110v258q49 35 89 52q117 50 281 50q207 0 314.5 -95t107.5 -309v-518
h144v-100zM829 307v170h-182q-438 0 -438 -211q0 -75 62 -124.5t169 -49.5q69 0 134.5 22.5t115 59t82 68.5t57.5 65zM764 1386h90v-22q0 -215 -164 -215q-50 0 -91.5 17.5t-65.5 38t-55 38t-62 17.5q-40 0 -58 -23.5t-18 -81.5v-25h-90v25q0 95 41 147t121 52
q44 0 84 -17.5t65.5 -39t59 -39t65.5 -17.5q44 0 61 26.5t17 96.5v22z" />
    <glyph glyph-name="A.alt" horiz-adv-x="1456" 
d="M1485 0h-465v111h170l-154 409h-616l-154 -409h170v-111h-463v111h164l510 1359h160l514 -1359h164v-111zM995 631l-264 702h-10l-260 -702h534z" />
    <glyph glyph-name="Aacute.alt" horiz-adv-x="1456" 
d="M1051 1925l-363 -291l-63 76l350 305zM1485 0h-465v111h170l-154 409h-616l-154 -409h170v-111h-463v111h164l510 1359h160l514 -1359h164v-111zM995 631l-264 702h-10l-260 -702h534z" />
    <glyph glyph-name="Abreve.alt" horiz-adv-x="1456" 
d="M1485 0h-465v111h170l-154 409h-616l-154 -409h170v-111h-463v111h164l510 1359h160l514 -1359h164v-111zM995 631l-264 702h-10l-260 -702h534zM909 1935h103v-24q0 -136 -76 -208.5t-201 -72.5q-122 0 -197 72.5t-75 208.5v24h100v-24q0 -90 49.5 -139.5t122.5 -49.5
t123.5 50t50.5 139v24z" />
    <glyph glyph-name="Acircumflex.alt" horiz-adv-x="1456" 
d="M1079 1710l-65 -76l-279 234l-276 -234l-64 76l342 297zM1485 0h-465v111h170l-154 409h-616l-154 -409h170v-111h-463v111h164l510 1359h160l514 -1359h164v-111zM995 631l-264 702h-10l-260 -702h534z" />
    <glyph glyph-name="Adieresis.alt" horiz-adv-x="1456" 
d="M657 1671q0 -32 -22.5 -54t-54.5 -22t-54 22t-22 54t22 55t54 23t54.5 -23t22.5 -55zM971 1671q0 -32 -23.5 -54t-56.5 -22q-31 0 -52.5 22t-21.5 54t21.5 55t52.5 23q32 0 56 -23t24 -55zM1485 0h-465v111h170l-154 409h-616l-154 -409h170v-111h-463v111h164l510 1359
h160l514 -1359h164v-111zM995 631l-264 702h-10l-260 -702h534z" />
    <glyph glyph-name="Agrave.alt" horiz-adv-x="1456" 
d="M1485 0h-465v111h170l-154 409h-616l-154 -409h170v-111h-463v111h164l510 1359h160l514 -1359h164v-111zM995 631l-264 702h-10l-260 -702h534zM922 1710l-66 -76l-360 293l75 88z" />
    <glyph glyph-name="Amacron.alt" horiz-adv-x="1456" 
d="M1485 0h-465v111h170l-154 409h-616l-154 -409h170v-111h-463v111h164l510 1359h160l514 -1359h164v-111zM995 631l-264 702h-10l-260 -702h534zM1055 1602h-635v104h635v-104z" />
    <glyph glyph-name="Aogonek.alt" horiz-adv-x="1456" 
d="M1450 -203l39 -61q-71 -53 -148 -53q-69 0 -111 40t-42 103q0 38 16 70t41.5 52.5t46 32t41.5 19.5h-313v111h170l-154 409h-616l-154 -409h170v-111h-463v111h164l510 1359h160l514 -1359h164v-111h-58q-20 -9 -41 -21.5t-48 -34t-43.5 -51t-16.5 -61.5q0 -31 21 -49.5
t53 -18.5q16 0 33 4.5t27 9t22 11t16 8.5zM995 631l-264 702h-10l-260 -702h534z" />
    <glyph glyph-name="Aring.alt" horiz-adv-x="1456" 
d="M883 1757q0 -66 -47 -114t-113 -48t-114 48t-48 114t48 113t114 47t113 -47t47 -113zM799 1757q0 32 -22 54t-54 22t-54 -22t-22 -54t22 -54t54 -22t54 22t22 54zM1485 0h-465v111h170l-154 409h-616l-154 -409h170v-111h-463v111h164l510 1359h160l514 -1359h164v-111z
M995 631l-264 702h-10l-260 -702h534z" />
    <glyph glyph-name="Atilde.alt" horiz-adv-x="1456" 
d="M1485 0h-465v111h170l-154 409h-616l-154 -409h170v-111h-463v111h164l510 1359h160l514 -1359h164v-111zM995 631l-264 702h-10l-260 -702h534zM948 1849h90v-22q0 -215 -164 -215q-50 0 -91.5 17t-65.5 38t-55 38t-62 17q-40 0 -58 -23t-18 -81v-25h-90v25q0 95 41 147
t121 52q44 0 84 -17.5t65.5 -39t59 -39t65.5 -17.5q44 0 61 26.5t17 96.5v22z" />
    <glyph glyph-name="zero.slash" horiz-adv-x="1390" 
d="M694 -14q-184 0 -315.5 99.5t-195.5 268.5t-64 389q0 154 37.5 288t108 235t181 159t248.5 58q182 0 315 -101t198 -266.5t65 -372.5q0 -163 -38 -300.5t-109.5 -239.5t-182 -159.5t-248.5 -57.5zM254 737q0 -218 62 -366.5t178 -214.5l340 1183q-67 25 -140 25
q-202 0 -321 -168.5t-119 -458.5zM694 106q207 0 326 165.5t119 465.5q0 197 -60 341.5t-166 217.5l-338 -1173q63 -17 119 -17z" />
    </font>
</defs>
</svg>
