<?xml version="1.0" standalone="no"?>
<!DOCTYPE svg PUBLIC "-//W3C//DTD SVG 1.1//EN" "http://www.w3.org/Graphics/SVG/1.1/DTD/svg11.dtd" >
<svg xmlns="http://www.w3.org/2000/svg" xmlns:xlink="http://www.w3.org/1999/xlink" version="1.1">
<metadata>
Created by FontForge 20170731 at Mon Oct  4 07:41:50 2021
 By Aleksey,,,
Copyright (c) 2013 by Daniel hernA~ndez. All rights reserved.
</metadata>
<defs>
<font id="SanchezSlab-Bold" horiz-adv-x="1269" >
  <font-face 
    font-family="Sanchez Slab Bold"
    font-weight="700"
    font-stretch="normal"
    units-per-em="2048"
    panose-1="2 0 0 0 0 0 0 0 0 0"
    ascent="1536"
    descent="-512"
    x-height="1008"
    cap-height="1470"
    bbox="-227 -659 2296 2154"
    underline-thickness="102"
    underline-position="-307"
    unicode-range="U+0020-FB04"
  />
<missing-glyph horiz-adv-x="641" 
 />
    <glyph glyph-name="ff" unicode="ff" horiz-adv-x="1634" 
d="M1501 0h-600v217h129v574h-549v-574h199v-217h-600v217h129v574h-131v217h131v90q0 191 97.5 290t281.5 99q36 0 69.5 -5.5t61.5 -16.5t49.5 -21.5t43 -27t32.5 -25.5t27.5 -25t19.5 -18l-125 -164q-1 1 -8.5 8t-11 10t-13 10.5t-17 11t-19 9.5t-23 9t-26 5t-30.5 2
q-69 0 -103 -41t-34 -112v-88h549v90q0 191 97.5 290t281.5 99q37 0 70.5 -5.5t61.5 -16.5t50 -21.5t43.5 -27t32.5 -25.5t27.5 -25t19.5 -18l-127 -164q-1 1 -9.5 9t-13.5 12t-15.5 12t-20.5 12.5t-23.5 9.5t-30 7.5t-34.5 2.5q-69 0 -102 -41t-33 -112v-88h286l2 -217
h-288v-574h196v-217z" />
    <glyph glyph-name="fi" unicode="fi" horiz-adv-x="1482" 
d="M1319 1315q0 -72 -50.5 -122t-121.5 -50q-72 0 -123 50t-51 122t51 123t123 51q71 0 121.5 -51t50.5 -123zM1421 0h-518v217h129v574h-551v-574h197v-217h-598v217h129v574h-131v217h131v90q0 191 97.5 290t281.5 99q31 0 61 -5t53 -11t48 -18.5t40 -20.5t35.5 -23.5
t27.5 -21.5t23 -21l17 -16l-127 -166q-1 1 -9.5 9t-13.5 12t-15.5 12t-20.5 12.5t-24 9.5t-30.5 7.5t-34.5 2.5q-69 0 -103 -41t-34 -112v-88h822v-791h118v-217z" />
    <glyph glyph-name="fl" unicode="fl" horiz-adv-x="1476" 
d="M678 0h-598v217h129v574h-131v217h131v90q0 191 97.5 290t281.5 99q32 0 62 -4.5t54.5 -12.5t47 -17.5t40.5 -21.5t33 -23t26.5 -22t19 -19t13.5 -15l5 -6l-125 -164q-3 5 -18.5 19.5t-52 31t-75.5 16.5q-69 0 -103 -41t-34 -112v-88h289v-217h-289v-574h197v-217z
M1405 0h-516v217h129v1036h-90v220h360v-1256h117v-217z" />
    <glyph glyph-name="ffi" unicode="ffi" horiz-adv-x="2306" 
d="M2243 0h-519v217h129v574h-548v-574h196v-217h-600v217h129v574h-549v-574h197v-217h-598v217h129v574h-131v217h131v90q0 191 97.5 290t281.5 99q36 0 69.5 -5.5t61.5 -16.5t49.5 -21.5t43 -27t32.5 -25.5t27.5 -25t19.5 -18l-125 -164q-1 1 -8.5 8t-11 10t-13 10.5
t-17 11t-19 9.5t-23 9t-26 5t-30.5 2q-69 0 -103 -41t-34 -112v-88h549v90q0 191 97.5 290t281.5 99q36 0 69 -5.5t61.5 -17t49.5 -21t44 -27t33 -25t28.5 -25t19.5 -18.5l-127 -164l-9 9q-10 9 -14.5 12t-15.5 11.5t-20.5 13t-23.5 9.5t-30 7.5t-34 2.5q-69 0 -102 -41
t-33 -112v-88h821v-791h117v-217zM2142 1315q0 -72 -51 -122t-123 -50t-123 50t-51 122t51 123t123 51t123 -51t51 -123z" />
    <glyph glyph-name="ffl" unicode="ffl" horiz-adv-x="2299" 
d="M1501 0h-600v217h129v574h-549v-574h197v-217h-598v217h129v574h-131v217h131v90q0 191 97.5 290t281.5 99q36 0 69.5 -5.5t61.5 -16.5t49.5 -21.5t43 -27t32.5 -25.5t27.5 -25t19.5 -18l-125 -164q-1 1 -8.5 8t-11 10t-13 10.5t-17 11t-19 9.5t-23 9t-26 5t-30.5 2
q-69 0 -103 -41t-34 -112v-88h549v90q0 191 97.5 290t281.5 99q36 0 69 -5.5t61.5 -17t49.5 -21t44 -27t33 -25t28.5 -25t19.5 -18.5l-127 -164l-9 9q-10 9 -14.5 12t-15.5 11.5t-20.5 13t-23.5 9.5t-30 7.5t-34 2.5q-69 0 -102 -41t-33 -112v-88h286l2 -217h-288v-574h196
v-217zM2226 0h-516v217h129v1036h-90v220h360v-1256h117v-217z" />
    <glyph glyph-name=".notdef" horiz-adv-x="641" 
 />
    <glyph glyph-name=".notdef" horiz-adv-x="641" 
 />
    <glyph glyph-name=".null" horiz-adv-x="0" 
 />
    <glyph glyph-name="nonmarkingreturn" horiz-adv-x="682" 
 />
    <glyph glyph-name="space" unicode=" " horiz-adv-x="512" 
 />
    <glyph glyph-name="exclam" unicode="!" horiz-adv-x="626" 
d="M424 303h-223l-27 1253h277zM473 -41q0 -66 -46 -112t-112 -46t-111.5 46t-45.5 112t45.5 112t111.5 46t112 -46t46 -112z" />
    <glyph glyph-name="quotedbl" unicode="&#x22;" horiz-adv-x="772" 
d="M309 1110h-182l-18 426h221zM643 1110h-182l-19 426h222z" />
    <glyph glyph-name="numbersign" unicode="#" horiz-adv-x="1290" 
d="M1110 205h-215l-64 -219h-227l64 219h-207l-62 -219h-227l61 219h-159v184h211l57 197h-164v184h217l64 217h227l-61 -217h204l64 217h227l-63 -217h157v-184h-210l-58 -197h164v-184zM719 389l57 197h-207l-57 -197h207z" />
    <glyph glyph-name="dollar" unicode="$" horiz-adv-x="1374" 
d="M836 -168h-250v188q-151 37 -238 150h-8l6 -107h-254v478h283v-49q0 -7 9 -30t34 -59.5t61 -69.5t99.5 -57t140.5 -24q102 0 163.5 45.5t61.5 120.5q0 40 -28 71t-75 52.5t-108 40t-129 38t-135.5 42.5t-128.5 57.5t-108 78t-75 109.5t-28 148q0 180 119.5 298t326.5 128
v170h248v-209q99 -23 164 -99l-10 84h256v-485h-281v64q-1 32 -18 66t-51 66t-94.5 52t-137.5 20q-96 0 -152.5 -42.5t-56.5 -112.5q0 -45 29 -80t78.5 -58t113 -42.5t134 -38.5t141 -41t134 -55t113 -75.5t78.5 -107t29 -145.5t-26.5 -152.5t-79.5 -131.5t-143 -97
t-207 -43v-156z" />
    <glyph glyph-name="percent" unicode="%" horiz-adv-x="1662" 
d="M381 735q-143 0 -229 100t-86 279q0 173 88.5 271t226.5 98q139 0 225 -97.5t86 -271.5q0 -180 -84 -279.5t-227 -99.5zM381 903q63 0 97 53t34 154q0 207 -131 207q-65 0 -100 -53.5t-35 -153.5q0 -99 35.5 -153t99.5 -54zM1284 -14q-143 0 -229 100t-86 279
q0 173 88.5 270.5t226.5 97.5q139 0 225 -97t86 -271q0 -180 -84 -279.5t-227 -99.5zM1284 154q63 0 97 52.5t34 153.5q0 207 -131 207q-66 0 -100.5 -53.5t-34.5 -153.5q0 -99 35 -152.5t100 -53.5zM666 -152h-201l498 1708h200z" />
    <glyph glyph-name="ampersand" unicode="&#x26;" horiz-adv-x="1413" 
d="M1303 0h-306l-69 98q-134 -112 -330 -112q-122 0 -222 34t-163.5 92.5t-98 134t-34.5 159.5q0 72 20.5 135t51 106t75 80t83 59.5t85.5 42.5q-119 139 -119 295q0 161 103.5 260t275.5 99q173 0 277 -93t104 -255q0 -67 -24.5 -126t-68.5 -105.5t-90 -80.5t-105 -67
l182 -254q22 60 22 264h402v-195h-174q-14 -155 -90 -290l40 -58h173v-223zM793 283l-258 358q-36 -17 -63 -34.5t-56 -44t-44.5 -62.5t-15.5 -78q0 -101 67.5 -158t178.5 -57q124 0 191 76zM627 924q88 43 129 83.5t41 114.5q0 61 -34 101.5t-93 40.5q-66 0 -104 -41.5
t-38 -108.5q0 -29 8 -55.5t28 -55.5t28 -39t35 -40z" />
    <glyph glyph-name="quotesingle" unicode="'" horiz-adv-x="438" 
d="M309 1110h-182l-18 426h221z" />
    <glyph glyph-name="parenleft" unicode="(" horiz-adv-x="878" 
d="M811 113v-256h-33q-95 0 -190 30.5t-186 98.5t-161 166t-112.5 244.5t-42.5 322.5q0 175 42.5 320t112.5 241t161 162.5t186 95.5t190 29h33v-254h-33q-75 0 -149 -38.5t-137 -110t-102.5 -189.5t-39.5 -262q0 -117 26.5 -217.5t69.5 -169.5t99 -118t115.5 -72t117.5 -23
h33z" />
    <glyph glyph-name="parenright" unicode=")" horiz-adv-x="878" 
d="M68 -143v254h32q58 0 117.5 23t115.5 72.5t99 118.5t69.5 170t26.5 218q0 144 -39.5 261.5t-102.5 189t-137 109.5t-149 38h-32v256h32q95 0 190 -29t186.5 -95.5t161 -162.5t112.5 -241t43 -320q0 -176 -43 -322.5t-112.5 -244.5t-161 -166t-186.5 -98.5t-190 -30.5h-32
z" />
    <glyph glyph-name="asterisk" unicode="*" horiz-adv-x="901" 
d="M547 844h-193l45 248l-133 -215l-135 139l215 137l-254 -47v192l252 -57l-213 145l133 136l144 -211l-54 248h193l-49 -250l139 213l137 -133l-213 -148l248 55v-190l-246 41l207 -131l-133 -135l-141 206z" />
    <glyph glyph-name="plus" unicode="+" horiz-adv-x="1052" 
d="M668 127h-273v313h-315v256h315v326h273v-326h303v-256h-303v-313z" />
    <glyph glyph-name="comma" unicode="," horiz-adv-x="501" 
d="M180 -215v88h17q33 0 58.5 24t25.5 66q0 10 -1.5 17.5t-2.5 9.5l-1 2q-11 -8 -36 -8q-53 0 -89 36.5t-36 90.5t37 91.5t90 37.5q68 0 107.5 -50t39.5 -139q0 -266 -192 -266h-17z" />
    <glyph glyph-name="hyphen" unicode="-" horiz-adv-x="997" 
d="M866 414h-735v254h735v-254z" />
    <glyph glyph-name="period" unicode="." horiz-adv-x="483" 
d="M371 113q0 -55 -37.5 -92t-91.5 -37t-90.5 37t-36.5 92q0 53 36.5 90t90.5 37t91.5 -37t37.5 -90z" />
    <glyph glyph-name="slash" unicode="/" horiz-adv-x="886" 
d="M330 -152h-273l498 1708h272z" />
    <glyph glyph-name="zero" unicode="0" horiz-adv-x="1447" 
d="M729 -14q-288 0 -458.5 199t-170.5 558q0 176 48 317t132.5 233t199 141t249.5 49t248.5 -49t196.5 -141t129.5 -233t46.5 -317q0 -360 -167.5 -558.5t-453.5 -198.5zM729 250q155 0 237.5 123.5t82.5 363.5q0 236 -82.5 360t-239.5 124q-158 0 -243 -126t-85 -358
q0 -233 87.5 -360t242.5 -127z" />
    <glyph glyph-name="one" unicode="1" horiz-adv-x="1069" 
d="M1049 0h-938v238h346v919l-262 -184l-142 201l428 296h254v-1232h314v-238z" />
    <glyph glyph-name="two" unicode="2" horiz-adv-x="1341" 
d="M1227 0h-1127v127q0 104 28 189.5t75 144.5t108 107t129 82t135.5 64t128.5 59t108 60.5t75 74.5t28 96q0 96 -70.5 156.5t-182.5 60.5q-127 0 -200 -67.5t-73 -172.5v-29h-283v29q0 104 35.5 194t103.5 159.5t175 109t242 39.5q136 0 244.5 -39t174 -104.5t99.5 -146
t34 -169.5q0 -105 -41 -189t-107.5 -139t-147 -99t-164 -81t-154.5 -74.5t-121.5 -89t-62.5 -114.5h549v163h262v-401z" />
    <glyph glyph-name="three" unicode="3" horiz-adv-x="1277" 
d="M920 752v-4q12 0 37.5 -8t64 -32.5t72 -60.5t58 -100t24.5 -144q0 -185 -155 -301t-407 -116q-87 0 -165 17t-129.5 39t-101.5 58t-73.5 59.5t-55 58.5t-36.5 40l203 188q9 -8 36 -35t45 -43.5t51.5 -41.5t64 -39.5t73 -25.5t86.5 -11q116 0 189 55.5t73 147.5
q0 178 -256 178h-135v221h101q37 0 69.5 4t68 16.5t60.5 32t41.5 53.5t16.5 78q0 81 -56.5 134t-165.5 53q-102 0 -163.5 -56t-61.5 -137v-29h-272v29q0 213 127.5 333t369.5 120q109 0 199.5 -26t149 -68t99 -96.5t58 -108.5t17.5 -107q0 -68 -21 -125.5t-50 -93t-62 -61
t-56 -35.5t-32 -10z" />
    <glyph glyph-name="four" unicode="4" horiz-adv-x="1257" 
d="M1161 0h-774v238h305v208h-657v218l667 806h269v-798h184v-226h-184v-208h190v-238zM692 651v455l-373 -455h373z" />
    <glyph glyph-name="five" unicode="5" horiz-adv-x="1288" 
d="M616 -14q-64 0 -123.5 9.5t-104.5 23.5t-89.5 37.5t-73 42.5t-60.5 47t-47 44t-37 41t-26 29l205 189q1 -1 27.5 -31t36.5 -38.5t38.5 -35t50.5 -38t55 -27.5t69.5 -22.5t76.5 -6.5q134 0 208.5 67t74.5 185q0 102 -73.5 165.5t-217.5 63.5q-82 0 -162 -15.5
t-139.5 -33.5t-79.5 -20h-57v817h946v-381h-260v135h-403v-301q3 0 51 10.5t90.5 15.5t89.5 5q254 0 385 -131t131 -349q0 -141 -69.5 -253t-203 -178t-309.5 -66z" />
    <glyph glyph-name="six" unicode="6" horiz-adv-x="1353" 
d="M750 952q128 0 225.5 -34.5t158 -97.5t91 -148t30.5 -189q0 -103 -37 -192.5t-106 -157.5t-176.5 -107.5t-239.5 -39.5q-273 0 -434.5 196.5t-161.5 552.5q0 180 46.5 322.5t130 235.5t198.5 141.5t254 48.5q238 0 365 -114.5t127 -299.5v-27h-273v27q0 56 -59.5 106
t-159.5 50q-137 0 -217 -90.5t-102 -262.5q60 30 151 55t189 25zM694 250q124 0 193 68t69 178q0 102 -69.5 163.5t-212.5 61.5q-142 0 -271 -70q12 -193 85 -297t206 -104z" />
    <glyph glyph-name="seven" unicode="7" horiz-adv-x="1173" 
d="M674 0h-289q0 179 22.5 324.5t59 240t80.5 170t89.5 132.5t84.5 109t66 116.5t32 140.5h-510v-189h-262v426h1098v-135q-1 -105 -27.5 -193t-68 -153.5t-91.5 -130.5t-100 -142.5t-91 -170.5t-67 -233t-26 -312z" />
    <glyph glyph-name="eight" unicode="8" horiz-adv-x="1341" 
d="M987 784v-6q10 0 36.5 -11t65 -38.5t73 -66t59 -101.5t24.5 -137q0 -190 -150 -314t-423 -124q-138 0 -249.5 34.5t-182.5 94t-108.5 138.5t-37.5 171q0 74 24.5 137t59 101.5t73 66t65 38.5t36.5 11v6q-8 0 -28.5 9t-50.5 32t-56.5 56t-45.5 88t-19 121q0 68 28.5 134
t86.5 125.5t162.5 96.5t240.5 37q110 0 200 -24.5t148 -64.5t97.5 -92.5t56 -105.5t16.5 -106q0 -66 -19 -121t-46 -88t-57 -56t-50.5 -32t-28.5 -9zM694 662h-45q-130 0 -193 -57.5t-63 -149.5q0 -102 75 -163t206 -61q129 0 200.5 60.5t71.5 163.5q0 91 -63.5 149
t-188.5 58zM893 1040q0 85 -57.5 140t-167.5 55q-108 0 -165 -55.5t-57 -139.5q0 -45 15 -80t37.5 -55t53.5 -32.5t59 -16.5t59 -4q40 0 75 7.5t70.5 26.5t56.5 58.5t21 95.5z" />
    <glyph glyph-name="nine" unicode="9" horiz-adv-x="1351" 
d="M602 516q-252 0 -379 127t-127 342q0 103 37.5 193t106.5 158t176.5 107.5t238.5 39.5q274 0 435 -196.5t161 -553.5q0 -180 -46 -322.5t-129.5 -235t-198.5 -141t-254 -48.5q-236 0 -363 114.5t-127 298.5v27h270v-27q0 -56 60.5 -105.5t161.5 -49.5q135 0 214 90
t101 262q-163 -80 -338 -80zM657 1219q-124 0 -192 -67.5t-68 -178.5q0 -102 69.5 -163.5t211.5 -61.5q137 0 268 67q-11 193 -84 298.5t-205 105.5z" />
    <glyph glyph-name="colon" unicode=":" horiz-adv-x="518" 
d="M387 113q0 -55 -37.5 -92t-91.5 -37t-90.5 37t-36.5 92q0 53 36.5 90t90.5 37t91.5 -37t37.5 -90zM387 870q0 -54 -37.5 -90.5t-91.5 -36.5t-90.5 36.5t-36.5 90.5t36.5 91.5t90.5 37.5t91.5 -37.5t37.5 -91.5z" />
    <glyph glyph-name="semicolon" unicode=";" horiz-adv-x="548" 
d="M397 870q0 -54 -37.5 -90.5t-93.5 -36.5q-53 0 -90 36.5t-37 90.5t37 91.5t90 37.5q55 0 93 -37.5t38 -91.5zM205 -197v58q0 12 14 12q34 0 59 24t25 66l-4 29q-10 -8 -37 -8q-51 0 -87 36.5t-36 90.5t36.5 91.5t90.5 37.5q68 0 108 -50t40 -139q0 -130 -51 -194
t-144 -64q-14 0 -14 10z" />
    <glyph glyph-name="less" unicode="&#x3c;" horiz-adv-x="987" 
d="M850 98l-778 369v115l778 370v-217l-442 -211l442 -209v-217z" />
    <glyph glyph-name="equal" unicode="=" horiz-adv-x="1050" 
d="M911 641h-772v256h772v-256zM911 162h-772v254h772v-254z" />
    <glyph glyph-name="greater" unicode="&#x3e;" horiz-adv-x="987" 
d="M915 467l-778 -369v217l443 209l-443 211v217l778 -370v-115z" />
    <glyph glyph-name="question" unicode="?" horiz-adv-x="1163" 
d="M643 270h-270v29q0 99 23 179t59.5 132.5t80.5 95.5t88.5 76t81 65.5t59.5 73t23 89.5q0 96 -55 154.5t-149 58.5q-124 0 -180 -76t-56 -207v-29h-282v29q0 92 16 170t54 147.5t96.5 118t148 77t203.5 28.5q125 0 223.5 -38t159 -103t92 -146t31.5 -172q0 -84 -24.5 -152
t-64 -114t-87.5 -86t-95.5 -76.5t-87 -76.5t-64 -95.5t-24.5 -122.5v-29zM690 -27q0 -72 -49.5 -122t-120.5 -50q-72 0 -122 50t-50 122q0 71 50 120.5t122 49.5q70 0 120 -49.5t50 -120.5z" />
    <glyph glyph-name="at" unicode="@" horiz-adv-x="1640" 
d="M1251 39l84 -178q-8 -5 -23.5 -13t-66 -28.5t-105.5 -36t-139.5 -28.5t-169.5 -13q-152 0 -287.5 53.5t-234 148.5t-156 231.5t-57.5 295.5q0 172 65.5 324t175.5 257.5t257 166.5t307 61q153 0 280 -46t210.5 -125.5t129.5 -185.5t46 -227q0 -133 -45.5 -241.5
t-121 -176t-168 -103.5t-190.5 -36q-56 0 -78.5 17.5t-19.5 60.5l2 29l-4 -8q-5 -7 -12.5 -16.5t-19 -21.5t-27.5 -23.5t-35 -21.5t-44.5 -16t-53.5 -6q-50 0 -98 19.5t-90 58.5t-67.5 109t-25.5 161q0 191 118 309.5t281 118.5q53 0 91.5 -16t50.5 -29t18 -24l8 49h152
l-72 -570h17q100 0 168.5 105t68.5 264q0 175 -125 281t-344 106q-131 0 -243 -50.5t-186.5 -135t-116.5 -193t-42 -225.5q0 -122 43 -223t115.5 -165.5t166 -100t196.5 -35.5q82 0 155 9.5t119 23t80 27t48 23.5zM967 455l24 198q-1 8 -6.5 20.5t-18 31.5t-37 32t-57.5 13
q-91 0 -154 -71.5t-63 -193.5q0 -87 43.5 -128.5t106.5 -41.5q53 0 104.5 43.5t57.5 96.5z" />
    <glyph glyph-name="A" unicode="A" horiz-adv-x="1495" 
d="M1528 0h-606v238h161l-82 225h-479l-84 -225h166v-238h-606v238h166l377 995h-168v237h522l469 -1232h164v-238zM928 666l-160 442h-12l-156 -442h328z" />
    <glyph glyph-name="B" unicode="B" horiz-adv-x="1402" 
d="M809 0h-717v238h170v995h-170v237h711q198 0 320 -112.5t122 -296.5q0 -187 -162 -303q123 -43 182.5 -128.5t59.5 -199.5q0 -430 -516 -430zM541 238h233q125 0 195.5 52.5t70.5 153.5q0 96 -67.5 146.5t-194.5 50.5h-237v-403zM541 854h202q93 0 155.5 46.5t62.5 133.5
q0 102 -65 151.5t-167 49.5h-188v-381z" />
    <glyph glyph-name="C" unicode="C" horiz-adv-x="1556" 
d="M1290 530l203 -137q-52 -106 -114 -176q-207 -231 -570 -231q-149 0 -280.5 52t-230 147.5t-155.5 239.5t-57 318q0 142 38 263t104.5 207.5t156 148t191.5 91.5t212 30q157 0 257.5 -52.5t152.5 -127.5l-4 167h250v-544h-281v47q0 36 -25 77.5t-68.5 79.5t-112.5 63.5
t-148 25.5q-86 0 -162 -31.5t-135 -90.5t-93 -152t-34 -208q0 -113 38 -207t100.5 -154t141.5 -93t164 -33q63 0 119.5 12t98 29.5t79.5 46t61.5 51t47 54.5t33 47.5t22.5 39.5z" />
    <glyph glyph-name="D" unicode="D" horiz-adv-x="1517" 
d="M541 238h116q233 2 353 116t120 367t-126 382.5t-365 129.5h-98v-995zM762 0h-670v238h170v995h-170v237h588q157 0 293.5 -50t239.5 -142.5t162 -235t59 -317.5q0 -166 -53 -304t-144 -229.5t-213.5 -141.5t-261.5 -50z" />
    <glyph glyph-name="E" unicode="E" horiz-adv-x="1404" 
d="M1288 0h-1196v238h170v995h-170v237h1196l2 -462h-262v225h-487v-377h432v-238h-432v-380h485v225h262v-463z" />
    <glyph glyph-name="F" unicode="F" horiz-adv-x="1314" 
d="M815 0h-723v238h170v995h-170v237h1184v-462h-262v225h-473v-377h415v-238h-415v-380h274v-238z" />
    <glyph glyph-name="G" unicode="G" horiz-adv-x="1593" 
d="M1470 0h-239l2 139q-160 -153 -420 -153q-151 0 -283 52t-231 147.5t-156 239.5t-57 318q0 142 39 263.5t106.5 208t157.5 148t192.5 91t211.5 29.5q156 0 255 -49t150 -121l-6 157h252v-534h-281v51q0 35 -24.5 74.5t-67.5 75t-111.5 59t-146.5 23.5
q-183 0 -305.5 -130.5t-122.5 -351.5q0 -111 38 -205t101 -154.5t142.5 -94t164.5 -33.5q234 0 371 149v107h-391v223h659v-729z" />
    <glyph glyph-name="H" unicode="H" horiz-adv-x="1687" 
d="M1595 0h-618v238h170v380h-606v-380h170v-238h-619v238h170v995h-170v237h619v-237h-170v-383h606v383h-170v237h618v-237h-170v-995h170v-238z" />
    <glyph glyph-name="I" unicode="I" horiz-adv-x="802" 
d="M711 0h-619v238h170v995h-170v237h619v-237h-170v-995h170v-238z" />
    <glyph glyph-name="J" unicode="J" horiz-adv-x="942" 
d="M455 584v649h-170v237h620v-237h-172v-625q0 -326 -156.5 -467t-482.5 -141h-26v238h26q200 0 280.5 86.5t80.5 259.5z" />
    <glyph glyph-name="K" unicode="K" horiz-adv-x="1550" 
d="M1489 0h-361l-219 465q-19 39 -49.5 61.5t-95.5 22.5h-223v-311h213v-238h-662v238h170v995h-170v237h576v-237h-127v-459h141q194 0 276 105t82 354h-163v237h604v-237h-162q-3 -412 -236 -574q39 -21 64 -55.5t57 -99.5l127 -266h158v-238z" />
    <glyph glyph-name="L" unicode="L" horiz-adv-x="1308" 
d="M1276 0h-1184v238h170v995h-170v237h617v-237h-168v-995h471v225h264v-463z" />
    <glyph glyph-name="M" unicode="M" horiz-adv-x="1906" 
d="M1796 0h-557v238h125v751h-4l-313 -864h-189l-313 864h-4v-751h127v-238h-576v238h170v995h-170v237h516l250 -653l90 -256h10q66 182 95 254l250 655h512v-237h-170v-995h151v-238z" />
    <glyph glyph-name="N" unicode="N" horiz-adv-x="1650" 
d="M1417 0l-287 2l-503 786q-20 31 -40.5 70t-30.5 62l-11 24h-4v-706h170v-238h-619v238h170v989h-170v243h440l490 -770q26 -43 54 -97t42 -87l15 -33h6v750h-170v237h620v-237h-172v-1233z" />
    <glyph glyph-name="O" unicode="O" horiz-adv-x="1632" 
d="M817 -14q-205 0 -372.5 95.5t-264 269t-96.5 392.5q0 141 41 262.5t112 208t164.5 148t199 91.5t216.5 30t216.5 -30t198.5 -91.5t163.5 -148t111.5 -208t41 -262.5q0 -171 -56.5 -314.5t-154.5 -240t-232 -149.5t-288 -53zM817 248q86 0 164.5 35.5t138 98t94.5 155
t35 200.5q0 113 -36 206t-96.5 153t-138.5 92.5t-163 32.5q-84 0 -161.5 -32.5t-138 -92.5t-96.5 -153t-36 -206q0 -108 35 -200.5t94.5 -155t138.5 -98t166 -35.5z" />
    <glyph glyph-name="P" unicode="P" horiz-adv-x="1335" 
d="M750 0h-658v238h170v995h-170v237h696q221 0 362.5 -140t141.5 -357q0 -218 -142.5 -343.5t-387.5 -125.5h-221v-266h209v-238zM541 727h186q144 0 212.5 61t68.5 183q0 128 -77 195t-200 67h-190v-506z" />
    <glyph glyph-name="Q" unicode="Q" horiz-adv-x="1632" 
d="M1432 -33l69 -207q-45 -23 -128.5 -45t-186.5 -22q-88 0 -169 18.5t-140.5 48.5t-110.5 66t-85.5 72t-58 66t-34.5 48.5t-10 18.5q-223 69 -358.5 259.5t-135.5 452.5q0 141 41 262.5t112 208t164.5 148t199 91.5t216.5 30t216.5 -30t198.5 -91.5t163.5 -148t111.5 -208
t41 -262.5q0 -212 -84 -377.5t-229.5 -260t-331.5 -113.5q3 -4 13 -11.5t34.5 -18.5t55.5 -20t82 -15.5t110 -6.5q137 0 234 47zM817 250q179 0 305.5 136t126.5 351q0 113 -36 206t-96.5 153t-138.5 92.5t-163 32.5q-84 0 -161.5 -32.5t-138 -92.5t-96.5 -153t-36 -206
q0 -108 35 -200t94.5 -154.5t138.5 -97.5t166 -35z" />
    <glyph glyph-name="R" unicode="R" horiz-adv-x="1466" 
d="M1423 0h-360l-225 453q-22 44 -49 69.5t-76 26.5h-172v-311h209v-238h-658v238h170v995h-170v237h703q224 0 364.5 -129t140.5 -344q0 -143 -65 -243t-188 -150q36 -31 81 -110l136 -256h159v-238zM541 768h184q145 0 218 52t73 169q0 127 -78 185.5t-213 58.5h-184v-465
z" />
    <glyph glyph-name="S" unicode="S" horiz-adv-x="1392" 
d="M356 0h-252v545h281v-56q0 -7 9.5 -30.5t36 -59.5t65 -69t106.5 -56.5t150 -23.5q111 0 171 44.5t60 117.5q0 46 -36.5 81t-95.5 56.5t-135 45t-155 44.5t-155 56.5t-135 80t-95.5 116.5t-36.5 163q0 188 131.5 308t354.5 120q248 0 374 -140l-8 127h254v-536h-282v72
q0 32 -17 67.5t-51 69t-94.5 55t-136.5 21.5q-107 0 -166.5 -46t-59.5 -118q0 -57 48 -97.5t124.5 -66.5t168.5 -50t184.5 -56.5t169 -76.5t124.5 -119.5t48 -176.5q0 -84 -29.5 -158.5t-88 -135.5t-157.5 -96.5t-227 -35.5q-82 0 -156 19t-121 43.5t-88 57.5t-57.5 51.5
t-28.5 35.5z" />
    <glyph glyph-name="T" unicode="T" horiz-adv-x="1402" 
d="M1010 0h-615v238h170v995h-264v-229h-264v466h1327v-466h-262v229h-258v-995h166v-238z" />
    <glyph glyph-name="U" unicode="U" horiz-adv-x="1554" 
d="M1067 530v703h-170v237h621v-237h-172v-684q0 -275 -151.5 -419t-414.5 -144q-265 0 -419 144t-154 419v684h-170v237h620v-237h-172v-690q0 -60 14 -109.5t46 -92.5t92 -67t143 -24q141 0 214 78t73 202z" />
    <glyph glyph-name="V" unicode="V" horiz-adv-x="1521" 
d="M911 0h-301l-479 1233h-156v237h615v-237h-156l320 -864h16l317 864h-155v237h616v-237h-157z" />
    <glyph glyph-name="W" unicode="W" horiz-adv-x="2093" 
d="M1602 0h-332l-221 956h-11l-215 -956h-331l-357 1233h-147v237h614v-237h-164l207 -864h19l251 1101h259l256 -1101h18l207 864h-164v237h614v-237h-151z" />
    <glyph glyph-name="X" unicode="X" horiz-adv-x="1603" 
d="M1548 0h-628v238h133l-254 321l-256 -321h137v-238h-627v238h178l398 483l-404 512h-172v237h627v-237h-139l262 -344l260 346h-135v235h626v-235h-180l-401 -510l395 -487h180v-238z" />
    <glyph glyph-name="Y" unicode="Y" horiz-adv-x="1417" 
d="M1022 0h-629v238h174v331q-3 4 -60 97t-160 258t-197 309h-168v237h632v-237h-143l242 -426h10l238 426h-152v237h629v-237h-168q-91 -140 -197.5 -308t-164 -259.5t-62.5 -96.5v-331h176v-238z" />
    <glyph glyph-name="Z" unicode="Z" horiz-adv-x="1380" 
d="M1278 0h-1176v223l801 1010h-538v-211h-263v448h1176v-221l-803 -1011h539v211h264v-449z" />
    <glyph glyph-name="bracketleft" unicode="[" horiz-adv-x="841" 
d="M772 -145h-582v1714l582 -2v-256h-309v-1200h309v-256z" />
    <glyph glyph-name="backslash" unicode="\" horiz-adv-x="886" 
d="M330 1556l497 -1708h-272l-498 1708h273z" />
    <glyph glyph-name="bracketright" unicode="]" horiz-adv-x="841" 
d="M653 -145h-581v256h309v1200h-309v256l581 2v-1714z" />
    <glyph glyph-name="underscore" unicode="_" horiz-adv-x="1277" 
d="M1155 -299h-1032v254h1032v-254z" />
    <glyph glyph-name="grave" unicode="`" horiz-adv-x="671" 
d="M623 1280l-134 -158l-444 344l160 189z" />
    <glyph glyph-name="a" unicode="a" horiz-adv-x="1153" 
d="M1128 0h-358l-6 170h-4q-39 -56 -77 -89q-116 -99 -284 -99q-154 0 -247 80.5t-93 213.5q0 155 143.5 234.5t395.5 79.5h129v16q0 178 -199 178q-55 0 -104.5 -9.5t-81.5 -23.5t-56.5 -28t-35.5 -23l-10 -10l-138 174q5 6 15.5 17t50 38t86 48t125.5 38t168 17
q102 0 182.5 -23t142 -72t94.5 -132t33 -195v-383h129v-217zM727 338v98h-125q-119 0 -188.5 -30t-69.5 -91q0 -50 41 -76t113 -26q131 0 229 125z" />
    <glyph glyph-name="b" unicode="b" horiz-adv-x="1228" 
d="M387 0h-244v1253h-127v217h390v-503l-9 -95h9q7 18 27 41t54 49t89.5 43t119.5 17q211 0 335 -142.5t124 -371.5q0 -245 -128 -383.5t-333 -138.5q-68 0 -125.5 17t-93 42t-56.5 48t-28 42h-4v-135zM643 215q110 0 177 81.5t67 213.5q0 129 -68.5 206t-175.5 77
q-100 0 -167.5 -73.5t-67.5 -211.5t66 -215.5t169 -77.5z" />
    <glyph glyph-name="c" unicode="c" horiz-adv-x="1155" 
d="M926 377l145 -156q-7 -12 -21.5 -32t-55 -58t-90 -68t-130.5 -53.5t-172 -23.5q-109 0 -205.5 35.5t-168.5 101t-114 164.5t-42 219q0 121 42 221t112.5 163t157.5 97.5t181 34.5q206 0 303 -135h4l-2 121h197v-435h-231v58q-2 63 -64.5 111.5t-159.5 48.5
q-102 0 -183 -75t-81 -208q0 -136 81.5 -214.5t195.5 -78.5q50 0 97.5 15t81 36t62 45.5t42 40.5t18.5 25z" />
    <glyph glyph-name="d" unicode="d" 
d="M1212 0h-360l-4 152h-4q-7 -19 -29 -44t-58.5 -54t-95.5 -48.5t-126 -19.5q-205 0 -333 138.5t-128 383.5q0 228 127.5 371t339.5 143q64 0 118 -16.5t86.5 -42t50.5 -46.5t27 -40h4q-4 41 -4 84v292h-131v217h393v-1253h127v-217zM586 215q103 0 169 77.5t66 215.5
t-67.5 211.5t-167.5 73.5q-107 0 -175.5 -77t-68.5 -206q0 -132 67 -213.5t177 -81.5z" />
    <glyph glyph-name="e" unicode="e" horiz-adv-x="1134" 
d="M1057 461h-705q13 -121 90 -183.5t183 -62.5q64 0 123 21t96.5 51t58.5 51.5t27 32.5l143 -150q-5 -11 -21.5 -32.5t-57.5 -58.5t-91.5 -67.5t-131 -53.5t-169.5 -23q-109 0 -205.5 35.5t-168.5 101t-114 164.5t-42 219q0 121 44.5 221t117.5 163t162 97.5t182 34.5
q237 0 358 -136.5t121 -391.5v-33zM356 618h441q-3 79 -55.5 134t-153.5 55q-92 0 -153.5 -47.5t-78.5 -141.5z" />
    <glyph glyph-name="f" unicode="f" horiz-adv-x="811" 
d="M678 0h-598v217h129v574h-131v217h131v90q0 191 97.5 290t281.5 99q32 0 62 -4.5t54.5 -12.5t47 -17.5t40.5 -21.5t33 -23t26.5 -22t19 -19t13.5 -15l5 -6l-125 -164q-3 5 -18.5 19.5t-52 31t-75.5 16.5q-69 0 -103 -41t-34 -112v-88h289v-217h-289v-574h197v-217z" />
    <glyph glyph-name="g" unicode="g" horiz-adv-x="1261" 
d="M553 -483q-62 0 -119.5 9.5t-100.5 24.5t-80 33t-63.5 37t-44.5 34t-28 25.5t-11 10.5l130 184l8 -9q7 -8 18.5 -18t28.5 -23t41.5 -25t54 -22.5t70 -17t84.5 -6.5q134 0 208 57t74 173v153q-9 -19 -29 -41.5t-54.5 -49.5t-90 -44.5t-119.5 -17.5q-209 0 -332.5 143.5
t-123.5 374.5q0 244 128.5 383t332.5 139q66 0 123.5 -17.5t93.5 -43.5t57 -48.5t29 -40.5h4l4 134h356v-217h-121v-807q0 -116 -41 -207t-113.5 -147t-167 -84.5t-206.5 -28.5zM584 213q101 0 169 75.5t68 211.5q0 139 -67 215t-170 76q-109 0 -175.5 -80t-66.5 -213
q0 -129 68 -207t174 -78z" />
    <glyph glyph-name="h" unicode="h" horiz-adv-x="1241" 
d="M1202 0h-401v573q0 102 -37.5 155.5t-130.5 53.5q-24 0 -45.5 -4.5t-37.5 -12t-30 -17.5t-23.5 -21t-17.5 -22t-12.5 -20.5t-8 -17.5t-4.5 -12l-1 -4v-434h116v-217h-516v217h129v1036h-129v217h400v-438q0 -32 -15 -141h6q91 131 279 131q163 0 255.5 -99.5t92.5 -260.5
v-445h131v-217z" />
    <glyph glyph-name="i" unicode="i" horiz-adv-x="659" 
d="M508 1315q0 -72 -50.5 -122t-121.5 -50q-72 0 -123 50t-51 122t51 123t123 51q71 0 121.5 -51t50.5 -123zM596 0h-516v217h127v574h-127v217h399v-791h117v-217z" />
    <glyph glyph-name="j" unicode="j" horiz-adv-x="600" 
d="M184 -92v883h-131v217h402v-1102q0 -191 -97.5 -290t-281.5 -99q-46 0 -89.5 10t-74 24.5t-58 33t-43 33t-27.5 26.5l-11 12l127 168q70 -70 145 -70q69 0 104 41.5t35 112.5zM481 1315q0 -72 -50.5 -122t-121.5 -50q-72 0 -123 50t-51 122t51 123t123 51q71 0 121.5 -51
t50.5 -123z" />
    <glyph glyph-name="k" unicode="k" horiz-adv-x="1253" 
d="M1208 0h-274l-338 451l-143 -123v-111h116v-217h-516v217h129v1036h-129v217h400v-913l266 234h-96v217h518v-217h-135l-230 -193l285 -381h147v-217z" />
    <glyph glyph-name="l" unicode="l" horiz-adv-x="649" 
d="M578 0h-519v217h129v1036h-129v220h402v-1256h117v-217z" />
    <glyph glyph-name="m" unicode="m" horiz-adv-x="1871" 
d="M1833 0h-401v573q0 101 -38 156t-130 55q-41 0 -73.5 -13t-51.5 -34t-29 -37t-16 -32q6 -30 6 -35v-416h129v-217h-516v217h114v356q0 102 -37.5 156.5t-130.5 54.5q-31 0 -57.5 -7.5t-44 -19t-32 -26.5t-23 -28.5t-14 -26t-7.5 -18.5l-2 -7v-434h96v-217h-495v217h129
v574h-129v217h356l6 -162h7q35 63 78 99q92 77 231 77q106 0 181.5 -44.5t113.5 -123.5q1 2 4 6q102 162 305 162q162 0 251 -98.5t89 -261.5v-445h131v-217z" />
    <glyph glyph-name="n" unicode="n" horiz-adv-x="1267" 
d="M1229 0h-402v573q0 102 -37.5 156.5t-130.5 54.5q-40 0 -72.5 -13t-51 -30t-32.5 -38.5t-18 -32.5t-6 -17v-436h115v-217h-514v217h129v574h-129v217h356l6 -160h7l5 10q6 10 11.5 19t16 23.5t23.5 27t30.5 27t40 26t48.5 21t59.5 15t70.5 5.5q162 0 253 -99t93 -261
v-445h129v-217z" />
    <glyph glyph-name="o" unicode="o" horiz-adv-x="1208" 
d="M602 -14q-240 0 -384 141.5t-144 378.5q0 236 147.5 376t382.5 140t383 -140.5t148 -375.5q0 -236 -145.5 -378t-387.5 -142zM602 215q113 0 184.5 80.5t71.5 212.5q0 129 -72 206t-182 77t-182 -77t-72 -206q0 -132 70.5 -212.5t181.5 -80.5z" />
    <glyph glyph-name="p" unicode="p" horiz-adv-x="1263" 
d="M610 -463h-559v219h127v1035h-119v217h357l4 -134h6q8 18 29 40t57 48t93.5 43t123.5 17q205 0 333 -138.5t128 -381.5q0 -230 -124 -373t-335 -143q-121 0 -196 45.5t-95 89.5h-6q6 -61 6 -86v-279h170v-219zM678 213q107 0 175.5 78t68.5 207q0 133 -67.5 213
t-176.5 80q-101 0 -168.5 -75.5t-67.5 -221.5q0 -134 69.5 -207.5t166.5 -73.5z" />
    <glyph glyph-name="q" unicode="q" horiz-adv-x="1228" 
d="M1212 -463h-559v219h170v285l6 98h-6q-8 -19 -28 -42t-54 -49.5t-89.5 -44t-119.5 -17.5q-211 0 -334.5 143.5t-123.5 372.5q0 245 128 382.5t333 137.5q67 0 124 -16.5t93 -41.5t57 -47t29 -40h4l6 131h237v-1252h127v-219zM586 215q99 0 167 75.5t68 211.5
q0 139 -66 215t-169 76q-109 0 -176.5 -80t-67.5 -213q0 -130 69 -207.5t175 -77.5z" />
    <glyph glyph-name="r" unicode="r" horiz-adv-x="925" 
d="M596 0h-516v217h129v574h-129v217h350l12 -256h9q2 6 5.5 15.5t18 37t33.5 52.5t53.5 56t74.5 53t100 37t128 15h33v-270h-102q-132 0 -224 -85.5t-92 -195.5v-250h117v-217z" />
    <glyph glyph-name="s" unicode="s" horiz-adv-x="1050" 
d="M578 -16q-53 0 -103 11.5t-84 28t-60.5 35.5t-39.5 31.5t-15 18.5h-4q4 -97 4 -109h-196l2 379h215v-53q0 -11 12.5 -30t37.5 -41.5t73 -39t108 -16.5q73 0 112.5 24.5t39.5 71.5q0 30 -31 51t-80.5 34t-109.5 27t-120.5 36t-110 53.5t-80.5 87t-31 129.5
q0 138 96.5 223.5t265.5 85.5q188 0 281 -111h4q-6 89 -6 93h184v-373h-217v51q0 47 -54.5 86t-148.5 39q-61 0 -99 -26t-38 -74q0 -36 32.5 -60t84.5 -38t114.5 -27t125 -34t114.5 -51t84.5 -85.5t32.5 -130.5q0 -57 -21.5 -107.5t-65.5 -94t-123.5 -69.5t-184.5 -26z" />
    <glyph glyph-name="t" unicode="t" horiz-adv-x="839" 
d="M721 297l129 -172l-4 -5q-5 -5 -10.5 -11.5t-16 -16t-21.5 -19t-27 -20t-33 -20t-38.5 -18.5t-44 -15t-50 -10t-56.5 -4q-184 0 -281.5 99t-97.5 290v416h-131v217h131v262h272v-262h289v-217h-289v-414q0 -71 34.5 -112.5t103.5 -41.5q20 0 38 4t31.5 10t25 13.5
t20 15.5t13.5 14.5t9 11.5z" />
    <glyph glyph-name="u" unicode="u" horiz-adv-x="1243" 
d="M1190 0h-359l-6 160h-6l-5 -10q-4 -9 -7.5 -16t-11.5 -20t-16.5 -24t-22.5 -24.5t-29 -24t-36.5 -21.5t-44.5 -18t-53 -11.5t-63 -4.5q-164 0 -262 100t-98 260v445h-129v217h401v-574q0 -102 37.5 -156.5t130.5 -54.5q40 0 73 12.5t52 30.5t32.5 37.5t18.5 32.5t5 18
v437h-119v217h389v-791h129v-217z" />
    <glyph glyph-name="v" unicode="v" horiz-adv-x="1255" 
d="M815 0h-377l-286 791h-134v217h517v-217h-99l191 -549h4l192 549h-102v217h520v-217h-137z" />
    <glyph glyph-name="w" unicode="w" horiz-adv-x="1757" 
d="M1352 0h-344l-127 588h-4l-127 -588h-342l-254 791h-134v217h521v-217h-107l146 -549h4l143 549h-70v217h445v-217h-68l142 -549h4l143 549h-104v217h520v-217h-135z" />
    <glyph glyph-name="x" unicode="x" horiz-adv-x="1222" 
d="M1151 0h-506v217h96l-174 180l-147 -180h74v-217h-424v217h116l258 299l-268 275h-104v217h506v-217h-101l180 -187l144 184h-72v220h422v-220h-117l-250 -303l267 -268h100v-217z" />
    <glyph glyph-name="y" unicode="y" horiz-adv-x="1230" 
d="M508 -92l37 102h-109l-284 781h-134v217h496v-217h-86l180 -551h4l185 551h-103v217h520v-217h-137l-317 -885q-30 -84 -51.5 -135t-53.5 -105t-67 -83t-86 -47.5t-115 -18.5q-47 0 -90.5 10t-73.5 25t-57 33.5t-42 33t-26 27.5l-12 12l131 166l3 -4l6.5 -6.5l9 -9
t13 -11t16 -11.5t19 -11t22 -9t25 -6t27.5 -2q58 0 90 37.5t60 116.5z" />
    <glyph glyph-name="z" unicode="z" horiz-adv-x="1138" 
d="M1044 0h-950v217l611 574h-400v-162h-211v379h950v-205l-610 -586h400v158h210v-375z" />
    <glyph glyph-name="braceleft" unicode="{" horiz-adv-x="808" 
d="M731 109v-256h-33q-103 0 -182.5 18t-146 60t-102.5 120t-36 189v172q0 102 -48 158.5t-93 56.5h-33v168h33q46 0 93.5 57t47.5 160v166q0 111 36 189.5t102.5 120.5t146.5 60.5t182 18.5h33v-256h-33q-103 0 -147.5 -34.5t-44.5 -127.5v-135q0 -51 -13 -94.5t-31 -69.5
t-36.5 -44.5t-31.5 -25.5l-13 -8v-121q5 -2 13.5 -7.5t30 -25.5t38 -44.5t30 -68.5t13.5 -95v-142q0 -93 44.5 -126t147.5 -33h33z" />
    <glyph glyph-name="bar" unicode="|" horiz-adv-x="649" 
d="M461 -268h-273v1824h273v-1824z" />
    <glyph glyph-name="braceright" unicode="}" horiz-adv-x="808" 
d="M78 -147v256h33q103 0 147.5 33t44.5 126v142q0 51 13 94.5t31.5 69.5t36.5 44.5t31 25.5l13 7v121q-5 2 -13.5 7.5t-30 25.5t-38 45t-30 69t-13.5 95v135q0 93 -44.5 127.5t-147.5 34.5h-33v256h33q102 0 182 -18.5t146.5 -60.5t102.5 -120.5t36 -189.5v-166
q0 -103 47.5 -160t93.5 -57h33v-168h-33q-45 0 -93 -56.5t-48 -158.5v-172q0 -111 -36 -189t-102.5 -120t-146 -60t-182.5 -18h-33z" />
    <glyph glyph-name="exclamdown" unicode="&#xa1;" horiz-adv-x="610" 
d="M195 705h223l26 -1254h-276zM150 1049q0 66 46 111.5t111 45.5q66 0 112 -45.5t46 -111.5q0 -65 -46 -111.5t-112 -46.5q-64 0 -110.5 46.5t-46.5 111.5z" />
    <glyph glyph-name="cent" unicode="&#xa2;" horiz-adv-x="1218" 
d="M711 -27h-203v140q-184 34 -299 168t-115 342q0 107 34 198t92 153t131.5 102t156.5 54v173h203v-185q73 -20 119 -55t61 -62h6l-6 123h199v-436h-230v57q-3 64 -65.5 112t-159.5 48q-47 0 -92.5 -18t-84.5 -51.5t-63 -89t-24 -123.5q0 -136 81 -214.5t195 -78.5
q49 0 97 15t81 36t61.5 45.5t42.5 40.5t19 25l148 -156q-8 -14 -23.5 -34t-50.5 -52.5t-76 -60t-104 -51.5t-131 -32v-133z" />
    <glyph glyph-name="sterling" unicode="&#xa3;" horiz-adv-x="1376" 
d="M1085 489h-397q-12 -74 -52 -139.5t-93 -105.5h733v-244h-1143v242q4 2 36 15t64 30.5t68 44t62 67.5t32 90h-309v185h250q-9 13 -39 53.5t-44 63.5t-34 61.5t-28.5 78t-8.5 83.5q0 97 36 181t105 148.5t178.5 102t246.5 37.5q244 0 384 -133.5t140 -352.5v-59h-289v59
q0 100 -64.5 164t-170.5 64q-113 0 -186 -61.5t-73 -176.5q0 -56 28.5 -107.5t75 -109.5t66.5 -96h426v-185z" />
    <glyph glyph-name="currency" unicode="&#xa4;" horiz-adv-x="1327" 
d="M662 190q-189 0 -320 89l-152 -170l-67 57l149 170q-139 142 -139 375q0 229 143 372l-151 172l68 58l151 -174q133 88 320 88q180 0 311 -86l151 172l68 -58l-150 -170q148 -145 148 -374q0 -237 -145 -379l147 -166l-66 -57l-149 167q-134 -86 -317 -86zM662 420
q113 0 184.5 80.5t71.5 212.5q0 129 -72.5 205.5t-181.5 76.5q-110 0 -183 -76.5t-73 -205.5q0 -133 70.5 -213t183.5 -80z" />
    <glyph glyph-name="yen" unicode="&#xa5;" horiz-adv-x="1579" 
d="M375 596h254l-74 123h-279v168h175q-122 193 -222 346h-168v237h633v-237h-143l242 -426h10l237 426h-151v237h629v-237h-168q-182 -280 -224 -346h172v-168h-276l-78 -123h256v-168h-274v-190h176v-238h-629v238h174v190h-272v168z" />
    <glyph glyph-name="brokenbar" unicode="&#xa6;" horiz-adv-x="655" 
d="M465 840h-272v716h272v-716zM465 -270h-272v719h272v-719z" />
    <glyph glyph-name="section" unicode="&#xa7;" horiz-adv-x="1417" 
d="M1311 412q0 -147 -80 -252q80 -87 80 -209q0 -84 -29.5 -158.5t-88 -135.5t-157.5 -96.5t-227 -35.5q-98 0 -183.5 23.5t-140 58.5t-84 61t-43.5 45l4 -172h-251v547h280v-53q0 -7 9 -30.5t34 -61t61.5 -71t101 -57.5t142.5 -24q107 0 170.5 45.5t63.5 120.5
q0 39 -28.5 69.5t-76 51.5t-110 39.5t-131 38t-137 42.5t-131 57.5t-110 79t-76 111t-28.5 148.5q0 151 74 250q-74 90 -74 211q0 188 131 308t353 120q253 0 375 -140l-5 127h252v-536h-282v72q0 32 -17 66t-51 66.5t-94.5 53t-136.5 20.5q-99 0 -157 -43.5t-58 -113.5
q0 -44 29.5 -77.5t79 -56t113.5 -42t135 -38.5t142 -41.5t135 -56t113.5 -76.5t79 -108.5t29.5 -146.5zM989 418q0 37 -23 68t-58.5 51.5t-91 41.5t-107.5 35t-122 35.5t-120 40.5q-29 -44 -29 -96q0 -34 15.5 -62.5t46 -50.5t65.5 -39.5t86 -34.5t95.5 -30t105 -31
t104.5 -33q33 48 33 105z" />
    <glyph glyph-name="dieresis" unicode="&#xa8;" horiz-adv-x="710" 
d="M287 1260q0 -52 -37 -88.5t-90 -36.5q-52 0 -87.5 36t-35.5 89t35.5 89.5t87.5 36.5q53 0 90 -37t37 -89zM676 1260q0 -52 -37 -88.5t-90 -36.5t-89 36.5t-36 88.5q0 53 36.5 89.5t88.5 36.5q53 0 90 -37t37 -89z" />
    <glyph glyph-name="copyright" unicode="&#xa9;" horiz-adv-x="1423" 
d="M1321 713q0 -162 -82.5 -302.5t-223 -223.5t-302.5 -83t-302.5 83t-223.5 223.5t-83 302.5t83 302.5t223.5 223t302.5 82.5q121 0 233.5 -49t194.5 -131t131 -194.5t49 -233.5zM1171 713q0 190 -134.5 324t-323.5 134q-191 0 -326 -134t-135 -324t135 -324.5t326 -134.5
q189 0 323.5 134.5t134.5 324.5zM879 614l120 -82q-89 -174 -290 -174q-143 0 -243.5 98.5t-100.5 262.5t100.5 262t243.5 98q55 0 103 -14.5t78 -34.5t55 -46.5t36 -44.5t18 -34l-122 -92q-10 20 -19.5 34t-28.5 31t-49.5 26t-70.5 9q-71 0 -121.5 -51t-50.5 -141
q0 -93 51.5 -145t128.5 -52q119 0 162 90z" />
    <glyph glyph-name="ordfeminine" unicode="&#xaa;" horiz-adv-x="733" 
d="M270 963q-77 0 -125.5 41.5t-48.5 109.5q0 77 62 117.5t182 40.5h86v4q0 39 -21 58.5t-73 19.5q-41 0 -74 -11t-50 -21.5t-18 -10.5l-67 94l8.5 8.5t26 19t43.5 23.5t60.5 18.5t78.5 8.5q108 0 166.5 -53.5t58.5 -161.5v-178h66v-119h-182l-5 78h-2l-4 -5q-3 -4 -6 -7.5
l-9 -10.5t-12 -12t-15 -12t-18 -12t-21.5 -10.5t-25.5 -9t-28.5 -5.5t-32.5 -2zM324 1085q64 0 102 48v63h-78q-54 1 -77 -13t-23 -44q0 -26 20 -40t56 -14z" />
    <glyph glyph-name="guillemotleft" unicode="&#xab;" horiz-adv-x="1228" 
d="M623 88l-545 375v112l545 373v-217l-312 -213l312 -213v-217zM1102 88l-543 375v112l545 373v-217l-311 -213l309 -213v-217z" />
    <glyph glyph-name="logicalnot" unicode="&#xac;" horiz-adv-x="1329" 
d="M1184 289h-223v336h-842v217h1065v-553z" />
    <glyph glyph-name="registered" unicode="&#xae;" horiz-adv-x="1423" 
d="M1321 713q0 -162 -82.5 -302.5t-223 -223.5t-302.5 -83t-302.5 83t-223.5 223.5t-83 302.5t83 302.5t223.5 223t302.5 82.5q121 0 233.5 -49t194.5 -131t131 -194.5t49 -233.5zM713 238q96 0 184 37.5t151 101.5t100.5 151.5t37.5 184.5t-37.5 184.5t-100.5 151.5
t-151 101.5t-184 37.5q-97 0 -185.5 -37.5t-152.5 -101.5t-101.5 -151.5t-37.5 -184.5t37.5 -184.5t101.5 -151.5t152.5 -101.5t185.5 -37.5zM1006 367h-154l-127 241q-11 20 -19.5 28t-23.5 9h-49v-143h72v-135h-269v135h56v440h-56v135h307q107 0 170.5 -58t63.5 -165
q0 -75 -35.5 -125t-101.5 -70q1 -1 26 -41l64 -114h76v-137zM633 766h104q92 0 92 88q0 39 -23.5 63.5t-68.5 24.5h-104v-176z" />
    <glyph glyph-name="macron" unicode="&#xaf;" horiz-adv-x="829" 
d="M770 1126h-709v220h709v-220z" />
    <glyph glyph-name="degree" unicode="&#xb0;" horiz-adv-x="532" 
d="M264 852q-64 0 -107.5 42.5t-43.5 121.5q0 68 44 114t107 46q65 0 109.5 -45.5t44.5 -114.5q0 -79 -44 -121.5t-110 -42.5zM264 948q25 0 42.5 18t17.5 50q0 27 -17.5 45t-42.5 18q-24 0 -40.5 -18t-16.5 -45q0 -32 17 -50t40 -18z" />
    <glyph glyph-name="plusminus" unicode="&#xb1;" horiz-adv-x="1142" 
d="M713 391h-273v316h-315v256h315v327h273v-327h305v-256h-305v-316zM1018 41h-893v254h893v-254z" />
    <glyph glyph-name="twosuperior" unicode="&#xb2;" horiz-adv-x="827" 
d="M702 739h-577v82q1 63 23.5 111.5t57 78t76.5 52t83.5 39.5t75.5 34.5t55.5 42.5t21.5 58q0 98 -112 98q-59 0 -92 -30.5t-33 -83.5v-15h-152v15q0 109 72.5 184.5t204.5 75.5q136 0 208 -67t72 -163q0 -71 -36 -122.5t-89 -80t-107 -51.5t-98.5 -52.5t-54.5 -67.5h250
v77h151v-215z" />
    <glyph glyph-name="threesuperior" unicode="&#xb3;" horiz-adv-x="757" 
d="M369 733q-38 0 -72 5.5t-60.5 16.5t-46 21t-38 27t-27.5 25.5t-22 25t-15 18.5l107 95q19 -19 29 -27.5t33.5 -25.5t51.5 -25t60 -8q123 0 123 86q0 39 -30.5 61.5t-90.5 22.5h-68v118h51q115 0 115 86q0 36 -24.5 58t-73.5 22q-45 0 -72 -21t-27 -57v-16h-151v16
q0 105 64.5 164.5t185.5 59.5q69 0 122 -19t83 -50t44.5 -64.5t14.5 -67.5q0 -41 -14.5 -74t-35 -51t-35.5 -27.5t-24 -11.5q11 -4 20.5 -7.5t31 -18t36.5 -31.5t27 -48.5t12 -68.5q0 -91 -78.5 -150t-205.5 -59z" />
    <glyph glyph-name="acute" unicode="&#xb4;" horiz-adv-x="671" 
d="M625 1466l-445 -344l-135 158l420 375z" />
    <glyph glyph-name="mu" unicode="&#xb5;" horiz-adv-x="1259" 
d="M455 -461h-271v1252h-129v217h402v-574q0 -102 37.5 -156.5t130.5 -54.5q40 0 73 12.5t52 30.5t32 37.5t18 32.5t5 18v437h-119v217h389v-791h129v-217h-358l-6 160h-6l-4 -10q-5 -9 -8.5 -16t-11.5 -20t-16.5 -24t-22.5 -24.5t-29 -24t-36.5 -21.5t-44.5 -18t-53 -11.5
t-63 -4.5q-45 0 -90 10v-457z" />
    <glyph glyph-name="paragraph" unicode="&#xb6;" horiz-adv-x="1591" 
d="M1362 -160h-285v1387h-139v-1387h-287v643h-82q-231 0 -366 121.5t-135 364.5q0 123 36.5 219.5t101.5 157.5t152 92.5t191 31.5h907v-243h-94v-1387z" />
    <glyph glyph-name="periodcentered" unicode="&#xb7;" horiz-adv-x="503" 
d="M379 625q0 -55 -37 -92t-90 -37q-56 0 -92.5 37t-36.5 92q0 53 37 90t92 37q52 0 89.5 -37t37.5 -90z" />
    <glyph glyph-name="cedilla" unicode="&#xb8;" horiz-adv-x="503" 
d="M256 -330q-22 0 -44 3t-39.5 8t-34.5 12t-29.5 13.5t-24 13.5t-18 12t-12.5 10l-5 4l60 92q1 0 9.5 -6t19 -12t25 -12.5t33 -10.5t37.5 -4q62 0 62 41q0 23 -16 33t-56 10h-63l55 162l121 -2l-27 -80q9 0 20.5 -1t33.5 -8t38.5 -19t29.5 -37t13 -58q0 -75 -51 -119.5
t-137 -44.5z" />
    <glyph glyph-name="onesuperior" unicode="&#xb9;" horiz-adv-x="702" 
d="M612 741h-473v138h170v424l-135 -97l-78 111l221 160h156v-598h139v-138z" />
    <glyph glyph-name="ordmasculine" unicode="&#xba;" horiz-adv-x="673" 
d="M338 965q-103 0 -175.5 72t-72.5 190t72.5 187t175.5 69t174.5 -69.5t71.5 -186.5t-71.5 -189.5t-174.5 -72.5zM338 1090q50 0 85.5 36t35.5 99q0 62 -36.5 98.5t-84.5 36.5q-50 0 -87.5 -36.5t-37.5 -98.5q0 -63 36.5 -99t88.5 -36z" />
    <glyph glyph-name="guillemotright" unicode="&#xbb;" horiz-adv-x="1228" 
d="M1151 463l-545 -375v217l312 213l-312 213v217l545 -373v-112zM670 463l-545 -375v217l311 213l-311 213v217l545 -373v-112z" />
    <glyph glyph-name="onequarter" unicode="&#xbc;" horiz-adv-x="1452" 
d="M567 -152h-205l500 1706h207zM1403 0h-397v137h151v88h-336v115l342 395h158v-383h88v-127h-88v-88h82v-137zM1157 334v205l-178 -205h178zM545 741h-473v138h170v424l-136 -97l-77 111l221 160h156v-598h139v-138z" />
    <glyph glyph-name="onehalf" unicode="&#xbd;" horiz-adv-x="1562" 
d="M567 -152h-205l500 1706h207zM545 741h-473v138h170v424l-136 -97l-77 111l221 160h156v-598h139v-138zM1487 0h-578v82q1 62 23.5 110.5t57.5 77.5t76.5 52t83.5 40t76 34.5t55.5 43t21.5 58.5q0 47 -29.5 72.5t-81.5 25.5q-60 0 -92.5 -30.5t-32.5 -84.5v-14h-154v14
q0 110 73 185t206 75q135 0 208 -67t73 -162q0 -53 -19.5 -94.5t-51 -68.5t-70 -49t-78.5 -39t-75 -34t-60.5 -40.5t-33.5 -51.5h252v78h150v-213z" />
    <glyph glyph-name="threequarters" unicode="&#xbe;" horiz-adv-x="1527" 
d="M604 -152h-205l500 1706h207zM1440 0h-400v137h154v88h-336v115l342 395h158v-383h88v-127h-88v-88h82v-137zM301 733q-38 0 -72 5.5t-60.5 16.5t-46 21t-38 27t-27.5 25.5t-22 25t-15 18.5l107 95q19 -19 29 -27.5t33.5 -25.5t51.5 -25t60 -8q123 0 123 86
q0 39 -30.5 61.5t-90.5 22.5h-67v118h51q114 0 114 86q0 36 -24.5 58t-73.5 22q-45 0 -71.5 -21t-26.5 -57v-16h-152v16q0 105 64.5 164.5t185.5 59.5q69 0 122 -19t83 -50t44.5 -64.5t14.5 -67.5q0 -41 -14 -74t-34.5 -51t-35.5 -27.5t-24 -11.5q11 -4 20.5 -7.5t31 -18
t36.5 -31.5t27 -48.5t12 -68.5q0 -91 -79 -150t-206 -59zM1194 334v205l-178 -205h178z" />
    <glyph glyph-name="questiondown" unicode="&#xbf;" horiz-adv-x="1142" 
d="M508 553h270v-29q0 -99 -23 -179t-59.5 -132t-81 -95t-89 -76.5t-81 -65.5t-59.5 -72.5t-23 -89.5q0 -97 55 -155t150 -58q124 0 180 75.5t56 206.5v29h282v-29q0 -92 -16 -170t-54 -148t-96.5 -118.5t-148 -77t-203.5 -28.5q-125 0 -223.5 38t-159 103t-92 145.5
t-31.5 171.5q0 84 24.5 152t64 114t87 86t95.5 77t87.5 76.5t64 95.5t24.5 124v29zM461 850q0 71 50 120.5t122 49.5q71 0 120.5 -50t49.5 -120t-49.5 -120t-120.5 -50q-72 0 -122 49.5t-50 120.5z" />
    <glyph glyph-name="Agrave" unicode="&#xc0;" horiz-adv-x="1495" 
d="M1528 0h-606v238h161l-82 225h-479l-84 -225h166v-238h-606v238h166l377 995h-168v237h522l469 -1232h164v-238zM928 666l-160 442h-12l-156 -442h328zM958 1743l-133 -158l-444 344l160 189z" />
    <glyph glyph-name="Aacute" unicode="&#xc1;" horiz-adv-x="1495" 
d="M1528 0h-606v238h161l-82 225h-479l-84 -225h166v-238h-606v238h166l377 995h-168v237h522l469 -1232h164v-238zM928 666l-160 442h-12l-156 -442h328zM1198 1929l-444 -344l-136 158l420 375z" />
    <glyph glyph-name="Acircumflex" unicode="&#xc2;" horiz-adv-x="1495" 
d="M1528 0h-606v238h161l-82 225h-479l-84 -225h166v-238h-606v238h166l377 995h-168v237h522l469 -1232h164v-238zM928 666l-160 442h-12l-156 -442h328zM1139 1743l-131 -156l-263 232l-260 -232l-133 156l393 350z" />
    <glyph glyph-name="Atilde" unicode="&#xc3;" horiz-adv-x="1495" 
d="M1528 0h-606v238h161l-82 225h-479l-84 -225h166v-238h-606v238h166l377 995h-168v237h522l469 -1232h164v-238zM928 666l-160 442h-12l-156 -442h328zM954 1911h156v-29q0 -134 -54 -208.5t-163 -74.5q-47 0 -86.5 12.5t-66 30.5t-50 36.5t-49 31t-51.5 12.5
q-37 0 -54.5 -22.5t-17.5 -87.5v-29h-156v29q0 128 54.5 201t163.5 73q46 0 85 -13t65.5 -32t49.5 -37.5t48.5 -32t52.5 -14.5q38 0 55.5 27t17.5 98v29z" />
    <glyph glyph-name="Adieresis" unicode="&#xc4;" horiz-adv-x="1495" 
d="M1528 0h-606v238h161l-82 225h-479l-84 -225h166v-238h-606v238h166l377 995h-168v237h522l469 -1232h164v-238zM928 666l-160 442h-12l-156 -442h328zM680 1722q0 -52 -37 -88.5t-90 -36.5q-52 0 -87.5 36t-35.5 89t35.5 90t87.5 37q53 0 90 -37.5t37 -89.5zM1069 1722
q0 -52 -37 -88.5t-90 -36.5q-52 0 -88.5 36.5t-36.5 88.5q0 53 36.5 90t88.5 37t89.5 -37.5t37.5 -89.5z" />
    <glyph glyph-name="Aring" unicode="&#xc5;" horiz-adv-x="1495" 
d="M1528 0h-606v238h161l-82 225h-479l-84 -225h166v-238h-606v238h166l377 995h-168v237h522l469 -1232h164v-238zM928 666l-160 442h-12l-156 -442h328zM819 1655q-41 -29 -91 -19.5t-79 50.5q-29 43 -20.5 94t51.5 80q41 29 91 19.5t79 -52.5q29 -41 20.5 -92t-51.5 -80z
M778 1724q13 10 13.5 29.5t-11.5 32.5q-11 12 -28 14t-31 -10q-12 -11 -13 -29t11 -32q11 -13 28 -14.5t31 9.5z" />
    <glyph glyph-name="AE" unicode="&#xc6;" horiz-adv-x="2115" 
d="M821 0v238h170v380h-413l-150 -380h166v-238h-606v238h162l401 995h-166v237h1630v-462h-258v225h-487v-377h430v-238h-430v-380h485v225h260v-463h-1194zM991 856v377h-164l-155 -377h319z" />
    <glyph glyph-name="Ccedilla" unicode="&#xc7;" horiz-adv-x="1556" 
d="M793 -330q-22 0 -44 3t-39.5 8t-34.5 12t-29.5 13.5t-24 13.5t-18 12t-11.5 10l-6 4l59 92q1 0 9.5 -6t19.5 -12t25.5 -12.5t33 -10.5t37.5 -4q61 0 61 41q0 23 -15.5 33t-55.5 10h-64l37 113q-136 12 -253.5 69.5t-205.5 151.5t-138 231.5t-50 300.5q0 142 38 263
t104.5 207.5t156 148t191.5 91.5t212 30q157 0 257.5 -52.5t152.5 -127.5l-4 167h250v-544h-281v47q0 36 -25 77.5t-68.5 79.5t-112.5 63.5t-148 25.5q-86 0 -162 -31.5t-135 -90.5t-93 -152t-34 -208q0 -113 38 -207t100.5 -154t141.5 -93t164 -33q63 0 119.5 12t98 29.5
t79.5 46t61.5 51t47 54.5t33 47.5t22.5 39.5l203 -137l-4 -8q-13 -26 -23.5 -45.5t-40 -62t-61 -75t-84 -73t-110.5 -68t-140 -48.5t-174 -25l-10 -31q9 0 20.5 -1t33.5 -8t38.5 -19t29.5 -37t13 -58q0 -75 -51 -119.5t-137 -44.5z" />
    <glyph glyph-name="Egrave" unicode="&#xc8;" horiz-adv-x="1404" 
d="M1288 0h-1196v238h170v995h-170v237h1196l2 -462h-262v225h-487v-377h432v-238h-432v-380h485v225h262v-463zM909 1743l-133 -158l-444 344l160 189z" />
    <glyph glyph-name="Eacute" unicode="&#xc9;" horiz-adv-x="1404" 
d="M1075 1929l-444 -344l-135 158l419 375zM1288 0h-1196v238h170v995h-170v237h1196l2 -462h-262v225h-487v-377h432v-238h-432v-380h485v225h262v-463z" />
    <glyph glyph-name="Ecircumflex" unicode="&#xca;" horiz-adv-x="1404" 
d="M1049 1743l-131 -156l-263 232l-260 -232l-133 156l393 350zM1288 0h-1196v238h170v995h-170v237h1196l2 -462h-262v225h-487v-377h432v-238h-432v-380h485v225h262v-463z" />
    <glyph glyph-name="Edieresis" unicode="&#xcb;" horiz-adv-x="1404" 
d="M655 1722q0 -52 -37 -88.5t-90 -36.5q-52 0 -87 36t-35 89t35 90t87 37t89.5 -37.5t37.5 -89.5zM1044 1722q0 -52 -36.5 -88.5t-89.5 -36.5q-52 0 -88.5 36.5t-36.5 88.5q0 53 36.5 90t88.5 37t89 -37t37 -90zM1288 0h-1196v238h170v995h-170v237h1196l2 -462h-262v225
h-487v-377h432v-238h-432v-380h485v225h262v-463z" />
    <glyph glyph-name="Igrave" unicode="&#xcc;" horiz-adv-x="802" 
d="M709 0h-619v238h170v995h-170v237h619v-237h-170v-995h170v-238zM569 1724l-133 -157l-444 344l160 188z" />
    <glyph glyph-name="Iacute" unicode="&#xcd;" horiz-adv-x="802" 
d="M711 0h-619v238h170v995h-170v237h619v-237h-170v-995h170v-238zM838 1909l-445 -344l-135 157l420 375z" />
    <glyph glyph-name="Icircumflex" unicode="&#xce;" horiz-adv-x="802" 
d="M711 0h-619v238h170v995h-170v237h619v-237h-170v-995h170v-238zM805 1743l-131 -156l-262 232l-260 -232l-134 156l394 350z" />
    <glyph glyph-name="Idieresis" unicode="&#xcf;" horiz-adv-x="802" 
d="M711 0h-619v238h170v995h-170v237h619v-237h-170v-995h170v-238zM346 1722q0 -52 -37 -88.5t-90 -36.5q-52 0 -87.5 36t-35.5 89t35.5 90t87.5 37q53 0 90 -37.5t37 -89.5zM735 1722q0 -52 -37 -88.5t-90 -36.5q-52 0 -88.5 36.5t-36.5 88.5q0 53 36.5 90t88.5 37
t89.5 -37.5t37.5 -89.5z" />
    <glyph glyph-name="Eth" unicode="&#xd0;" horiz-adv-x="1517" 
d="M762 0h-670v238h170v378h-164v220h164v397h-170v237h588q157 0 293.5 -50t239.5 -142.5t162 -235t59 -317.5q0 -166 -53 -304t-144 -229.5t-213.5 -141.5t-261.5 -50zM541 238h116q236 2 358 116t122 367t-127.5 382.5t-370.5 129.5h-98v-397h268v-220h-268v-378z" />
    <glyph glyph-name="Ntilde" unicode="&#xd1;" horiz-adv-x="1650" 
d="M1417 0l-287 2l-503 786q-20 31 -40.5 70t-30.5 62l-11 24h-4v-706h170v-238h-619v238h170v989h-170v243h440l490 -770q26 -43 54 -97t42 -87l15 -33h6v750h-170v237h620v-237h-172v-1233zM1063 1911h156v-29q0 -133 -54.5 -208t-163.5 -75q-47 0 -86.5 12.5t-66 30.5
t-50 36.5t-49 31t-51.5 12.5q-37 0 -54 -22.5t-17 -87.5v-29h-156v29q0 128 54 201t163 73q46 0 85 -13t65.5 -32t49.5 -37.5t48.5 -32t52.5 -14.5q38 0 56 27t18 98v29z" />
    <glyph glyph-name="Ograve" unicode="&#xd2;" horiz-adv-x="1632" 
d="M817 -14q-205 0 -372.5 95.5t-264 269t-96.5 392.5q0 141 41 262.5t112 208t164.5 148t199 91.5t216.5 30t216.5 -30t198.5 -91.5t163.5 -148t111.5 -208t41 -262.5q0 -171 -56.5 -314.5t-154.5 -240t-232 -149.5t-288 -53zM817 248q86 0 164.5 35.5t138 98t94.5 155
t35 200.5q0 113 -36 206t-96.5 153t-138.5 92.5t-163 32.5q-84 0 -161.5 -32.5t-138 -92.5t-96.5 -153t-36 -206q0 -108 35 -200.5t94.5 -155t138.5 -98t166 -35.5zM985 1743l-133 -158l-444 344l159 189z" />
    <glyph glyph-name="Oacute" unicode="&#xd3;" horiz-adv-x="1632" 
d="M1100 1929l-445 -344l-135 158l420 375zM817 -14q-205 0 -372.5 95.5t-264 269t-96.5 392.5q0 141 41 262.5t112 208t164.5 148t199 91.5t216.5 30t216.5 -30t198.5 -91.5t163.5 -148t111.5 -208t41 -262.5q0 -171 -56.5 -314.5t-154.5 -240t-232 -149.5t-288 -53z
M817 248q86 0 164.5 35.5t138 98t94.5 155t35 200.5q0 113 -36 206t-96.5 153t-138.5 92.5t-163 32.5q-84 0 -161.5 -32.5t-138 -92.5t-96.5 -153t-36 -206q0 -108 35 -200.5t94.5 -155t138.5 -98t166 -35.5z" />
    <glyph glyph-name="Ocircumflex" unicode="&#xd4;" horiz-adv-x="1632" 
d="M1214 1743l-131 -156l-262 232l-260 -232l-133 156l393 350zM817 -14q-205 0 -372.5 95.5t-264 269t-96.5 392.5q0 141 41 262.5t112 208t164.5 148t199 91.5t216.5 30t216.5 -30t198.5 -91.5t163.5 -148t111.5 -208t41 -262.5q0 -171 -56.5 -314.5t-154.5 -240
t-232 -149.5t-288 -53zM817 248q86 0 164.5 35.5t138 98t94.5 155t35 200.5q0 113 -36 206t-96.5 153t-138.5 92.5t-163 32.5q-84 0 -161.5 -32.5t-138 -92.5t-96.5 -153t-36 -206q0 -108 35 -200.5t94.5 -155t138.5 -98t166 -35.5z" />
    <glyph glyph-name="Otilde" unicode="&#xd5;" horiz-adv-x="1632" 
d="M817 -14q-205 0 -372.5 95.5t-264 269t-96.5 392.5q0 141 41 262.5t112 208t164.5 148t199 91.5t216.5 30t216.5 -30t198.5 -91.5t163.5 -148t111.5 -208t41 -262.5q0 -171 -56.5 -314.5t-154.5 -240t-232 -149.5t-288 -53zM817 248q86 0 164.5 35.5t138 98t94.5 155
t35 200.5q0 113 -36 206t-96.5 153t-138.5 92.5t-163 32.5q-84 0 -161.5 -32.5t-138 -92.5t-96.5 -153t-36 -206q0 -108 35 -200.5t94.5 -155t138.5 -98t166 -35.5zM1073 1911h156v-29q0 -134 -54 -208.5t-163 -74.5q-47 0 -86.5 12.5t-66 30.5t-50 36.5t-49 31t-51.5 12.5
q-37 0 -54.5 -22.5t-17.5 -87.5v-29h-156v29q0 128 54 201t163 73q46 0 85 -13t65.5 -32t49.5 -37.5t48.5 -32t52.5 -14.5q38 0 56 27t18 98v29z" />
    <glyph glyph-name="Odieresis" unicode="&#xd6;" horiz-adv-x="1632" 
d="M756 1722q0 -52 -37 -88.5t-90 -36.5q-52 0 -87.5 36t-35.5 89t35.5 90t87.5 37q53 0 90 -37.5t37 -89.5zM1145 1722q0 -52 -37 -88.5t-90 -36.5q-52 0 -88.5 36.5t-36.5 88.5q0 53 36.5 90t88.5 37t89.5 -37.5t37.5 -89.5zM817 -14q-205 0 -372.5 95.5t-264 269
t-96.5 392.5q0 141 41 262.5t112 208t164.5 148t199 91.5t216.5 30t216.5 -30t198.5 -91.5t163.5 -148t111.5 -208t41 -262.5q0 -171 -56.5 -314.5t-154.5 -240t-232 -149.5t-288 -53zM817 248q86 0 164.5 35.5t138 98t94.5 155t35 200.5q0 113 -36 206t-96.5 153
t-138.5 92.5t-163 32.5q-84 0 -161.5 -32.5t-138 -92.5t-96.5 -153t-36 -206q0 -108 35 -200.5t94.5 -155t138.5 -98t166 -35.5z" />
    <glyph glyph-name="multiply" unicode="&#xd7;" horiz-adv-x="1009" 
d="M911 383l-182 -182l-215 217l-219 -219l-189 192l216 217l-209 213l180 178l211 -211l198 201l191 -190l-199 -199z" />
    <glyph glyph-name="Oslash" unicode="&#xd8;" horiz-adv-x="1632" 
d="M664 -111h-177l43 150q-203 83 -324.5 269.5t-121.5 434.5q0 141 41 262.5t112 208t164.5 148t199 91.5t216.5 30q59 0 129 -13l37 127h176l-51 -172q196 -78 318 -254t122 -428q0 -171 -56.5 -314.5t-154.5 -240t-232 -149.5t-288 -53q-58 0 -123 10zM385 737
q0 -147 60 -259.5t163 -172.5l264 912q-40 4 -57 4q-84 0 -161 -32.5t-137.5 -92.5t-96 -153t-35.5 -206zM817 250q86 0 164.5 35t137.5 97.5t93.5 154.5t34.5 200q0 148 -58 256t-157 168l-264 -909q16 -2 49 -2z" />
    <glyph glyph-name="Ugrave" unicode="&#xd9;" horiz-adv-x="1554" 
d="M1067 530v703h-170v237h621v-237h-172v-684q0 -275 -151.5 -419t-414.5 -144q-265 0 -419 144t-154 419v684h-170v237h620v-237h-172v-690q0 -60 14 -109.5t46 -92.5t92 -67t143 -24q141 0 214 78t73 202zM1073 1743l-133 -158l-444 344l159 189z" />
    <glyph glyph-name="Uacute" unicode="&#xda;" horiz-adv-x="1554" 
d="M1133 1929l-445 -344l-135 158l420 375zM1067 530v703h-170v237h621v-237h-172v-684q0 -275 -151.5 -419t-414.5 -144q-265 0 -419 144t-154 419v684h-170v237h620v-237h-172v-690q0 -60 14 -109.5t46 -92.5t92 -67t143 -24q141 0 214 78t73 202z" />
    <glyph glyph-name="Ucircumflex" unicode="&#xdb;" horiz-adv-x="1554" 
d="M1176 1743l-132 -156l-262 232l-260 -232l-133 156l393 350zM1067 530v703h-170v237h621v-237h-172v-684q0 -275 -151.5 -419t-414.5 -144q-265 0 -419 144t-154 419v684h-170v237h620v-237h-172v-690q0 -60 14 -109.5t46 -92.5t92 -67t143 -24q141 0 214 78t73 202z" />
    <glyph glyph-name="Udieresis" unicode="&#xdc;" horiz-adv-x="1554" 
d="M705 1722q0 -52 -37 -88.5t-90 -36.5q-52 0 -87.5 36t-35.5 89t35.5 90t87.5 37t89.5 -37.5t37.5 -89.5zM1094 1722q0 -52 -37 -88.5t-90 -36.5t-89 36.5t-36 88.5q0 53 36.5 90t88.5 37q53 0 90 -37.5t37 -89.5zM1067 530v703h-170v237h621v-237h-172v-684
q0 -275 -151.5 -419t-414.5 -144q-265 0 -419 144t-154 419v684h-170v237h620v-237h-172v-690q0 -60 14 -109.5t46 -92.5t92 -67t143 -24q141 0 214 78t73 202z" />
    <glyph glyph-name="Yacute" unicode="&#xdd;" horiz-adv-x="1417" 
d="M1022 0h-629v238h174v331q-3 4 -60 97t-160 258t-197 309h-168v237h632v-237h-143l242 -426h10l238 426h-152v237h629v-237h-168q-91 -140 -197.5 -308t-164 -259.5t-62.5 -96.5v-331h176v-238zM989 1929l-444 -344l-135 158l419 375z" />
    <glyph glyph-name="Thorn" unicode="&#xde;" horiz-adv-x="1300" 
d="M696 0h-592v219h144v1032h-133v219h397v-274h233q235 0 370.5 -116.5t135.5 -327.5q0 -210 -136 -318t-396 -108h-219v-107h196v-219zM504 545h241q105 0 164.5 51.5t59.5 155.5t-61.5 155t-162.5 51h-241v-413z" />
    <glyph glyph-name="germandbls" unicode="&#xdf;" horiz-adv-x="1456" 
d="M561 0h-508v219h129v754q0 237 140.5 373.5t363.5 136.5q104 0 186 -26t130 -69.5t73 -95t25 -106.5q0 -63 -25 -112t-60.5 -80t-71 -57.5t-60.5 -59.5t-25 -72q0 -32 24.5 -58.5t64 -44t90.5 -38t103.5 -39.5t103.5 -50t90.5 -67.5t64 -94t24.5 -128.5
q0 -122 -112.5 -212.5t-296.5 -90.5q-52 0 -99 8.5t-83 22.5t-69 35.5t-56.5 41.5t-45 47.5t-34.5 48t-26 47.5t-18.5 41t-12.5 33.5t-7 20.5l174 80q2 -3 13.5 -31t28 -55.5t43 -58t69.5 -49.5t96 -19q63 0 103 28.5t40 77.5q0 43 -28.5 75.5t-74.5 53.5t-101 40.5t-110 44
t-101 57t-74.5 86t-28.5 124.5q0 58 21.5 103t53 72.5t62.5 51.5t52.5 54t21.5 67q0 47 -41 81t-118 34q-89 0 -149 -65t-60 -207v-754h106v-219z" />
    <glyph glyph-name="agrave" unicode="&#xe0;" horiz-adv-x="1153" 
d="M1128 0h-358l-6 170h-4q-39 -56 -77 -89q-116 -99 -284 -99q-154 0 -247 80.5t-93 213.5q0 155 143.5 234.5t395.5 79.5h129v16q0 178 -199 178q-55 0 -104.5 -9.5t-81.5 -23.5t-56.5 -28t-35.5 -23l-10 -10l-138 174q5 6 15.5 17t50 38t86 48t125.5 38t168 17
q102 0 182.5 -23t142 -72t94.5 -132t33 -195v-383h129v-217zM727 338v98h-125q-119 0 -188.5 -30t-69.5 -91q0 -50 41 -76t113 -26q131 0 229 125zM817 1280l-133 -158l-444 344l159 189z" />
    <glyph glyph-name="aacute" unicode="&#xe1;" horiz-adv-x="1153" 
d="M1128 0h-358l-6 170h-4q-39 -56 -77 -89q-116 -99 -284 -99q-154 0 -247 80.5t-93 213.5q0 155 143.5 234.5t395.5 79.5h129v16q0 178 -199 178q-55 0 -104.5 -9.5t-81.5 -23.5t-56.5 -28t-35.5 -23l-10 -10l-138 174q5 6 15.5 17t50 38t86 48t125.5 38t168 17
q102 0 182.5 -23t142 -72t94.5 -132t33 -195v-383h129v-217zM727 338v98h-125q-119 0 -188.5 -30t-69.5 -91q0 -50 41 -76t113 -26q131 0 229 125zM934 1466l-445 -344l-135 158l420 375z" />
    <glyph glyph-name="acircumflex" unicode="&#xe2;" horiz-adv-x="1153" 
d="M1128 0h-358l-6 170h-4q-39 -56 -77 -89q-116 -99 -284 -99q-154 0 -247 80.5t-93 213.5q0 155 143.5 234.5t395.5 79.5h129v16q0 178 -199 178q-55 0 -104.5 -9.5t-81.5 -23.5t-56.5 -28t-35.5 -23l-10 -10l-138 174q5 6 15.5 17t50 38t86 48t125.5 38t168 17
q102 0 182.5 -23t142 -72t94.5 -132t33 -195v-383h129v-217zM727 338v98h-125q-119 0 -188.5 -30t-69.5 -91q0 -50 41 -76t113 -26q131 0 229 125zM997 1280l-131 -156l-262 232l-260 -232l-133 156l393 350z" />
    <glyph glyph-name="atilde" unicode="&#xe3;" horiz-adv-x="1153" 
d="M1128 0h-358l-6 170h-4q-39 -56 -77 -89q-116 -99 -284 -99q-154 0 -247 80.5t-93 213.5q0 155 143.5 234.5t395.5 79.5h129v16q0 178 -199 178q-55 0 -104.5 -9.5t-81.5 -23.5t-56.5 -28t-35.5 -23l-10 -10l-138 174q5 6 15.5 17t50 38t86 48t125.5 38t168 17
q102 0 182.5 -23t142 -72t94.5 -132t33 -195v-383h129v-217zM727 338v98h-125q-119 0 -188.5 -30t-69.5 -91q0 -50 41 -76t113 -26q131 0 229 125zM829 1448h156v-29q0 -133 -54 -207.5t-163 -74.5q-47 0 -86.5 12.5t-66 30.5t-50 36.5t-49 31t-51.5 12.5q-37 0 -54.5 -23
t-17.5 -88v-29h-155v29q0 128 54 201t163 73q46 0 85 -13t65.5 -32t49.5 -37.5t48.5 -32t52.5 -14.5q38 0 55.5 27t17.5 98v29z" />
    <glyph glyph-name="adieresis" unicode="&#xe4;" horiz-adv-x="1153" 
d="M1128 0h-358l-6 170h-4q-39 -56 -77 -89q-116 -99 -284 -99q-154 0 -247 80.5t-93 213.5q0 155 143.5 234.5t395.5 79.5h129v16q0 178 -199 178q-55 0 -104.5 -9.5t-81.5 -23.5t-56.5 -28t-35.5 -23l-10 -10l-138 174q5 6 15.5 17t50 38t86 48t125.5 38t168 17
q102 0 182.5 -23t142 -72t94.5 -132t33 -195v-383h129v-217zM727 338v98h-125q-119 0 -188.5 -30t-69.5 -91q0 -50 41 -76t113 -26q131 0 229 125zM539 1260q0 -52 -37 -88.5t-90 -36.5q-52 0 -87.5 36t-35.5 89t35.5 89.5t87.5 36.5q53 0 90 -37t37 -89zM928 1260
q0 -52 -37 -88.5t-90 -36.5t-89 36.5t-36 88.5q0 53 36.5 89.5t88.5 36.5q53 0 90 -37t37 -89z" />
    <glyph glyph-name="aring" unicode="&#xe5;" horiz-adv-x="1153" 
d="M1128 0h-358l-6 170h-4q-39 -56 -77 -89q-116 -99 -284 -99q-154 0 -247 80.5t-93 213.5q0 155 143.5 234.5t395.5 79.5h129v16q0 178 -199 178q-55 0 -104.5 -9.5t-81.5 -23.5t-56.5 -28t-35.5 -23l-10 -10l-138 174q5 6 15.5 17t50 38t86 48t125.5 38t168 17
q102 0 182.5 -23t142 -72t94.5 -132t33 -195v-383h129v-217zM727 338v98h-125q-119 0 -188.5 -30t-69.5 -91q0 -50 41 -76t113 -26q131 0 229 125zM668 1192q-41 -29 -91 -19.5t-79 50.5q-30 43 -21 94t51 80q41 29 91 19.5t79 -52.5q30 -41 21 -92t-51 -80zM627 1262
q13 10 13.5 29t-11.5 32q-11 12 -28.5 14t-31.5 -10q-12 -11 -13 -29t11 -32q11 -12 28.5 -14t31.5 10z" />
    <glyph glyph-name="ae" unicode="&#xe6;" horiz-adv-x="1789" 
d="M1257 -14q-139 0 -255 56t-187 161q-26 -38 -61.5 -73t-86.5 -69.5t-121 -55.5t-147 -21q-154 0 -247 79.5t-93 212.5q0 156 137 235t388 79h143v14q0 93 -49.5 136.5t-149.5 43.5q-68 0 -126.5 -14t-88 -31t-51.5 -31t-26 -14l-134 170q128 128 352 153q45 5 93 5
q240 0 348 -133q68 64 157 98.5t181 34.5q238 0 358.5 -136t120.5 -392v-33h-704q14 -121 91 -183.5t181 -62.5q64 0 122.5 21t96.5 51t59.5 52t28.5 34l142 -152q-9 -16 -27 -38.5t-60 -59t-92.5 -65.5t-128.5 -50.5t-164 -21.5zM733 344q-6 15 -6 92h-125
q-258 0 -258 -112q0 -53 43 -83t113 -30q21 0 40.5 3t36 8t32.5 13t28 15.5t25 18t21 18t17.5 18t14 16t11 14t7.5 9.5zM1014 618h440q-5 79 -57 134t-152 55q-94 0 -155 -47.5t-76 -141.5z" />
    <glyph glyph-name="ccedilla" unicode="&#xe7;" horiz-adv-x="1155" 
d="M575 -330q-22 0 -44 3t-39.5 8t-34.5 12t-29 13.5t-23.5 13.5t-18 12t-12.5 10l-5 4l59 92q1 0 9.5 -6t19.5 -12t25.5 -12.5t33 -10.5t37.5 -4q61 0 61 41q0 23 -15.5 33t-55.5 10h-64l39 115q-196 26 -321 162t-125 352q0 121 42 221t112.5 163t157.5 97.5t181 34.5
q206 0 303 -135h4l-2 121h197v-435h-231v58q-2 63 -64.5 111.5t-159.5 48.5q-102 0 -183 -75t-81 -208q0 -136 81.5 -214.5t195.5 -78.5q50 0 97.5 15t81 36t62 45.5t42 40.5t18.5 25l145 -156q-7 -12 -20 -30.5t-51 -54.5t-83.5 -65.5t-120 -54t-157.5 -28.5l-10 -31
q9 0 20.5 -1t33.5 -8t38.5 -19t29.5 -37t13 -58q0 -75 -51.5 -119.5t-137.5 -44.5z" />
    <glyph glyph-name="egrave" unicode="&#xe8;" horiz-adv-x="1134" 
d="M1057 461h-705q13 -121 90 -183.5t183 -62.5q64 0 123 21t96.5 51t58.5 51.5t27 32.5l143 -150q-5 -11 -21.5 -32.5t-57.5 -58.5t-91.5 -67.5t-131 -53.5t-169.5 -23q-109 0 -205.5 35.5t-168.5 101t-114 164.5t-42 219q0 121 44.5 221t117.5 163t162 97.5t182 34.5
q237 0 358 -136.5t121 -391.5v-33zM356 618h441q-3 79 -55.5 134t-153.5 55q-92 0 -153.5 -47.5t-78.5 -141.5zM846 1280l-133 -158l-445 344l160 189z" />
    <glyph glyph-name="eacute" unicode="&#xe9;" horiz-adv-x="1134" 
d="M967 1466l-445 -344l-135 158l420 375zM1057 461h-705q13 -121 90 -183.5t183 -62.5q64 0 123 21t96.5 51t58.5 51.5t27 32.5l143 -150q-5 -11 -21.5 -32.5t-57.5 -58.5t-91.5 -67.5t-131 -53.5t-169.5 -23q-109 0 -205.5 35.5t-168.5 101t-114 164.5t-42 219
q0 121 44.5 221t117.5 163t162 97.5t182 34.5q237 0 358 -136.5t121 -391.5v-33zM356 618h441q-3 79 -55.5 134t-153.5 55q-92 0 -153.5 -47.5t-78.5 -141.5z" />
    <glyph glyph-name="ecircumflex" unicode="&#xea;" horiz-adv-x="1134" 
d="M1001 1280l-131 -156l-262 232l-260 -232l-133 156l393 350zM1057 461h-705q13 -121 90 -183.5t183 -62.5q64 0 123 21t96.5 51t58.5 51.5t27 32.5l143 -150q-5 -11 -21.5 -32.5t-57.5 -58.5t-91.5 -67.5t-131 -53.5t-169.5 -23q-109 0 -205.5 35.5t-168.5 101
t-114 164.5t-42 219q0 121 44.5 221t117.5 163t162 97.5t182 34.5q237 0 358 -136.5t121 -391.5v-33zM356 618h441q-3 79 -55.5 134t-153.5 55q-92 0 -153.5 -47.5t-78.5 -141.5z" />
    <glyph glyph-name="edieresis" unicode="&#xeb;" horiz-adv-x="1134" 
d="M524 1260q0 -52 -37 -88.5t-90 -36.5q-52 0 -87.5 36t-35.5 89t35.5 89.5t87.5 36.5q53 0 90 -37t37 -89zM913 1260q0 -52 -37 -88.5t-90 -36.5q-52 0 -88 36t-36 89t36 89.5t88 36.5q53 0 90 -37t37 -89zM1057 461h-705q13 -121 90 -183.5t183 -62.5q64 0 123 21
t96.5 51t58.5 51.5t27 32.5l143 -150q-5 -11 -21.5 -32.5t-57.5 -58.5t-91.5 -67.5t-131 -53.5t-169.5 -23q-109 0 -205.5 35.5t-168.5 101t-114 164.5t-42 219q0 121 44.5 221t117.5 163t162 97.5t182 34.5q237 0 358 -136.5t121 -391.5v-33zM356 618h441q-3 79 -55.5 134
t-153.5 55q-92 0 -153.5 -47.5t-78.5 -141.5z" />
    <glyph glyph-name="igrave" unicode="&#xec;" horiz-adv-x="659" 
d="M594 0h-516v217h127v574h-127v217h399v-791h117v-217zM449 1276l-134 -158l-444 344l160 189z" />
    <glyph glyph-name="iacute" unicode="&#xed;" horiz-adv-x="659" 
d="M772 1466l-444 -344l-135 158l419 375zM596 0h-516v217h127v574h-127v217h399v-791h117v-217z" />
    <glyph glyph-name="icircumflex" unicode="&#xee;" horiz-adv-x="659" 
d="M725 1280l-131 -156l-262 232l-260 -232l-133 156l393 350zM596 0h-516v217h127v574h-127v217h399v-791h117v-217z" />
    <glyph glyph-name="idieresis" unicode="&#xef;" horiz-adv-x="659" 
d="M252 1260q0 -52 -37 -88.5t-90 -36.5q-52 0 -87.5 36t-35.5 89t35.5 89.5t87.5 36.5q53 0 90 -37t37 -89zM641 1260q0 -52 -37 -88.5t-90 -36.5q-52 0 -88.5 36.5t-36.5 88.5q0 53 36.5 89.5t88.5 36.5q53 0 90 -37t37 -89zM596 0h-516v217h127v574h-127v217h399v-791
h117v-217z" />
    <glyph glyph-name="eth" unicode="&#xf0;" 
d="M1114 1393l-96 -97q170 -204 170 -561q0 -362 -151 -555.5t-423 -193.5q-127 0 -230.5 39.5t-170 107.5t-102 157.5t-35.5 192.5q0 203 132.5 324t397.5 121q182 0 297 -70q-12 154 -67 254l-105 -106l-115 114l107 105q-60 26 -125 26q-111 0 -155 -36t-44 -111h-249
q0 184 113 281.5t333 97.5q171 0 305 -84l107 104zM604 217q149 0 221.5 110t81.5 337q-123 63 -256 63q-148 0 -222.5 -74t-74.5 -182q0 -116 66 -185t184 -69z" />
    <glyph glyph-name="ntilde" unicode="&#xf1;" horiz-adv-x="1267" 
d="M1229 0h-402v573q0 102 -37.5 156.5t-130.5 54.5q-40 0 -72.5 -13t-51 -30t-32.5 -38.5t-18 -32.5t-6 -17v-436h115v-217h-514v217h129v574h-129v217h356l6 -160h7l5 10q6 10 11.5 19t16 23.5t23.5 27t30.5 27t40 26t48.5 21t59.5 15t70.5 5.5q162 0 253 -99t93 -261
v-445h129v-217zM842 1448h155v-29q0 -133 -54 -207.5t-163 -74.5q-47 0 -86.5 12.5t-66 30.5t-50 36.5t-49 31t-51.5 12.5q-37 0 -54 -23t-17 -88v-29h-156v29q0 128 54 201t163 73q46 0 85 -13t65.5 -32t49.5 -37.5t48.5 -32t52.5 -14.5q38 0 56 27t18 98v29z" />
    <glyph glyph-name="ograve" unicode="&#xf2;" horiz-adv-x="1208" 
d="M602 -14q-240 0 -384 141.5t-144 378.5q0 236 147.5 376t382.5 140t383 -140.5t148 -375.5q0 -236 -145.5 -378t-387.5 -142zM602 215q113 0 184.5 80.5t71.5 212.5q0 129 -72 206t-182 77t-182 -77t-72 -206q0 -132 70.5 -212.5t181.5 -80.5zM817 1280l-133 -158
l-444 344l159 189z" />
    <glyph glyph-name="oacute" unicode="&#xf3;" horiz-adv-x="1208" 
d="M989 1466l-444 -344l-135 158l419 375zM602 -14q-240 0 -384 141.5t-144 378.5q0 236 147.5 376t382.5 140t383 -140.5t148 -375.5q0 -236 -145.5 -378t-387.5 -142zM602 215q113 0 184.5 80.5t71.5 212.5q0 129 -72 206t-182 77t-182 -77t-72 -206q0 -132 70.5 -212.5
t181.5 -80.5z" />
    <glyph glyph-name="ocircumflex" unicode="&#xf4;" horiz-adv-x="1208" 
d="M1016 1280l-131 -156l-262 232l-261 -232l-133 156l394 350zM602 -14q-240 0 -384 141.5t-144 378.5q0 236 147.5 376t382.5 140t383 -140.5t148 -375.5q0 -236 -145.5 -378t-387.5 -142zM602 215q113 0 184.5 80.5t71.5 212.5q0 129 -72 206t-182 77t-182 -77t-72 -206
q0 -132 70.5 -212.5t181.5 -80.5z" />
    <glyph glyph-name="otilde" unicode="&#xf5;" horiz-adv-x="1208" 
d="M602 -14q-240 0 -384 141.5t-144 378.5q0 236 147.5 376t382.5 140t383 -140.5t148 -375.5q0 -236 -145.5 -378t-387.5 -142zM602 215q113 0 184.5 80.5t71.5 212.5q0 129 -72 206t-182 77t-182 -77t-72 -206q0 -132 70.5 -212.5t181.5 -80.5zM852 1448h156v-29
q0 -133 -54 -207.5t-163 -74.5q-47 0 -86.5 12.5t-66.5 30.5t-50.5 36.5t-49 31t-51.5 12.5q-37 0 -54 -23t-17 -88v-29h-156v29q0 128 54 201t163 73q46 0 85 -13t65.5 -32t49.5 -37.5t48.5 -32t52.5 -14.5q38 0 56 27t18 98v29z" />
    <glyph glyph-name="odieresis" unicode="&#xf6;" horiz-adv-x="1208" 
d="M543 1260q0 -52 -37 -88.5t-90 -36.5q-52 0 -87.5 36t-35.5 89t35.5 89.5t87.5 36.5q53 0 90 -37t37 -89zM932 1260q0 -52 -37 -88.5t-90 -36.5t-89 36.5t-36 88.5q0 53 36.5 89.5t88.5 36.5q53 0 90 -37t37 -89zM602 -14q-240 0 -384 141.5t-144 378.5q0 236 147.5 376
t382.5 140t383 -140.5t148 -375.5q0 -236 -145.5 -378t-387.5 -142zM602 215q113 0 184.5 80.5t71.5 212.5q0 129 -72 206t-182 77t-182 -77t-72 -206q0 -132 70.5 -212.5t181.5 -80.5z" />
    <glyph glyph-name="divide" unicode="&#xf7;" horiz-adv-x="942" 
d="M838 487h-736v256h736v-256zM608 283q0 -54 -37.5 -91.5t-91.5 -37.5t-90.5 37.5t-36.5 91.5t36.5 91.5t90.5 37.5t91.5 -37.5t37.5 -91.5zM608 948q0 -54 -37.5 -90.5t-91.5 -36.5t-90.5 36.5t-36.5 90.5t36.5 91.5t90.5 37.5t91.5 -37.5t37.5 -91.5z" />
    <glyph glyph-name="oslash" unicode="&#xf8;" horiz-adv-x="1208" 
d="M389 -61h-119l56 108q-120 64 -186 182.5t-66 276.5q0 236 147.5 376t382.5 140q100 0 201 -33l26 53h119l-49 -96q110 -66 172 -179.5t62 -260.5q0 -236 -145.5 -378t-387.5 -142q-92 0 -178 22zM350 508q0 -151 90 -234l254 500q-46 17 -90 17q-110 0 -182 -77
t-72 -206zM602 215q113 0 184.5 80.5t71.5 212.5q0 128 -74 209l-252 -494q31 -8 70 -8z" />
    <glyph glyph-name="ugrave" unicode="&#xf9;" horiz-adv-x="1243" 
d="M1190 0h-359l-6 160h-6l-5 -10q-4 -9 -7.5 -16t-11.5 -20t-16.5 -24t-22.5 -24.5t-29 -24t-36.5 -21.5t-44.5 -18t-53 -11.5t-63 -4.5q-164 0 -262 100t-98 260v445h-129v217h401v-574q0 -102 37.5 -156.5t130.5 -54.5q40 0 73 12.5t52 30.5t32.5 37.5t18.5 32.5t5 18
v437h-119v217h389v-791h129v-217zM772 1280l-133 -158l-444 344l159 189z" />
    <glyph glyph-name="uacute" unicode="&#xfa;" horiz-adv-x="1243" 
d="M889 1466l-445 -344l-135 158l420 375zM1190 0h-359l-6 160h-6l-5 -10q-4 -9 -7.5 -16t-11.5 -20t-16.5 -24t-22.5 -24.5t-29 -24t-36.5 -21.5t-44.5 -18t-53 -11.5t-63 -4.5q-164 0 -262 100t-98 260v445h-129v217h401v-574q0 -102 37.5 -156.5t130.5 -54.5
q40 0 73 12.5t52 30.5t32.5 37.5t18.5 32.5t5 18v437h-119v217h389v-791h129v-217z" />
    <glyph glyph-name="ucircumflex" unicode="&#xfb;" horiz-adv-x="1243" 
d="M969 1280l-131 -156l-263 232l-260 -232l-133 156l393 350zM1190 0h-359l-6 160h-6l-5 -10q-4 -9 -7.5 -16t-11.5 -20t-16.5 -24t-22.5 -24.5t-29 -24t-36.5 -21.5t-44.5 -18t-53 -11.5t-63 -4.5q-164 0 -262 100t-98 260v445h-129v217h401v-574q0 -102 37.5 -156.5
t130.5 -54.5q40 0 73 12.5t52 30.5t32.5 37.5t18.5 32.5t5 18v437h-119v217h389v-791h129v-217z" />
    <glyph glyph-name="udieresis" unicode="&#xfc;" horiz-adv-x="1243" 
d="M514 1260q0 -52 -37 -88.5t-90 -36.5q-52 0 -87.5 36t-35.5 89t35.5 89.5t87.5 36.5q53 0 90 -37t37 -89zM903 1260q0 -52 -37 -88.5t-90 -36.5q-52 0 -88.5 36.5t-36.5 88.5q0 53 36.5 89.5t88.5 36.5q53 0 90 -37t37 -89zM1190 0h-359l-6 160h-6l-5 -10q-4 -9 -7.5 -16
t-11.5 -20t-16.5 -24t-22.5 -24.5t-29 -24t-36.5 -21.5t-44.5 -18t-53 -11.5t-63 -4.5q-164 0 -262 100t-98 260v445h-129v217h401v-574q0 -102 37.5 -156.5t130.5 -54.5q40 0 73 12.5t52 30.5t32.5 37.5t18.5 32.5t5 18v437h-119v217h389v-791h129v-217z" />
    <glyph glyph-name="yacute" unicode="&#xfd;" horiz-adv-x="1230" 
d="M508 -92l37 102h-109l-284 781h-134v217h496v-217h-86l180 -551h4l185 551h-103v217h520v-217h-137l-317 -885q-30 -84 -51.5 -135t-53.5 -105t-67 -83t-86 -47.5t-115 -18.5q-47 0 -90.5 10t-73.5 25t-57 33.5t-42 33t-26 27.5l-12 12l131 166l3 -4l6.5 -6.5l9 -9
t13 -11t16 -11.5t19 -11t22 -9t25 -6t27.5 -2q58 0 90 37.5t60 116.5zM997 1466l-444 -344l-135 158l420 375z" />
    <glyph glyph-name="thorn" unicode="&#xfe;" horiz-adv-x="1228" 
d="M575 -465h-559v219h129v1497h-120v219h393v-569q40 53 109.5 88t166.5 35q204 0 332.5 -139t128.5 -383q0 -230 -124 -373t-335 -143q-65 0 -119.5 15t-88.5 37.5t-54 43.5t-28 39h-5q5 -53 5 -78v-289h169v-219zM643 213q107 0 175.5 78t68.5 207q0 133 -67.5 213
t-176.5 80q-103 0 -169 -76t-66 -215q0 -136 68 -211.5t167 -75.5z" />
    <glyph glyph-name="ydieresis" unicode="&#xff;" horiz-adv-x="1230" 
d="M508 -92l37 102h-109l-284 781h-134v217h496v-217h-86l180 -551h4l185 551h-103v217h520v-217h-137l-317 -885q-30 -84 -51.5 -135t-53.5 -105t-67 -83t-86 -47.5t-115 -18.5q-47 0 -90.5 10t-73.5 25t-57 33.5t-42 33t-26 27.5l-12 12l131 166l3 -4l6.5 -6.5l9 -9
t13 -11t16 -11.5t19 -11t22 -9t25 -6t27.5 -2q58 0 90 37.5t60 116.5zM549 1260q0 -52 -37 -88.5t-90 -36.5q-52 0 -87.5 36t-35.5 89t35.5 89.5t87.5 36.5q53 0 90 -37t37 -89zM938 1260q0 -52 -37 -88.5t-90 -36.5t-89 36.5t-36 88.5q0 53 36.5 89.5t88.5 36.5
q53 0 90 -37t37 -89z" />
    <glyph glyph-name="Amacron" unicode="&#x100;" horiz-adv-x="1495" 
d="M1528 0h-606v238h161l-82 225h-479l-84 -225h166v-238h-606v238h166l377 995h-168v237h522l469 -1232h164v-238zM928 666l-160 442h-12l-156 -442h328zM1083 1589h-708v219h708v-219z" />
    <glyph glyph-name="amacron" unicode="&#x101;" horiz-adv-x="1153" 
d="M1128 0h-358l-6 170h-4q-39 -56 -77 -89q-116 -99 -284 -99q-154 0 -247 80.5t-93 213.5q0 155 143.5 234.5t395.5 79.5h129v16q0 178 -199 178q-55 0 -104.5 -9.5t-81.5 -23.5t-56.5 -28t-35.5 -23l-10 -10l-138 174q5 6 15.5 17t50 38t86 48t125.5 38t168 17
q102 0 182.5 -23t142 -72t94.5 -132t33 -195v-383h129v-217zM727 338v98h-125q-119 0 -188.5 -30t-69.5 -91q0 -50 41 -76t113 -26q131 0 229 125zM938 1126h-709v220h709v-220z" />
    <glyph glyph-name="Abreve" unicode="&#x102;" horiz-adv-x="1495" 
d="M1528 0h-606v238h161l-82 225h-479l-84 -225h166v-238h-606v238h166l377 995h-168v237h522l469 -1232h164v-238zM928 666l-160 442h-12l-156 -442h328zM856 1909h186v-33q0 -136 -88 -212.5t-227 -76.5q-137 0 -223 76.5t-86 212.5v33h188v-33q0 -59 34.5 -95t86.5 -36
q56 0 92.5 36t36.5 95v33z" />
    <glyph glyph-name="abreve" unicode="&#x103;" horiz-adv-x="1153" 
d="M1128 0h-358l-6 170h-4q-39 -56 -77 -89q-116 -99 -284 -99q-154 0 -247 80.5t-93 213.5q0 155 143.5 234.5t395.5 79.5h129v16q0 178 -199 178q-55 0 -104.5 -9.5t-81.5 -23.5t-56.5 -28t-35.5 -23l-10 -10l-138 174q5 6 15.5 17t50 38t86 48t125.5 38t168 17
q102 0 182.5 -23t142 -72t94.5 -132t33 -195v-383h129v-217zM727 338v98h-125q-119 0 -188.5 -30t-69.5 -91q0 -50 41 -76t113 -26q131 0 229 125zM698 1446h187v-33q0 -136 -88.5 -212.5t-227.5 -76.5q-137 0 -223 76.5t-86 212.5v33h189v-33q0 -59 34 -95t86 -36
q56 0 92.5 36t36.5 95v33z" />
    <glyph glyph-name="Aogonek" unicode="&#x104;" horiz-adv-x="1495" 
d="M1481 -174l57 -96q-37 -34 -94.5 -59t-124.5 -25q-84 0 -132 43.5t-48 117.5q0 71 44.5 121.5t104.5 71.5h-366v238h161l-82 225h-479l-84 -225h166v-238h-606v238h166l377 995h-168v237h522l469 -1232h164v-238h-90q-29 -15 -54.5 -34t-51 -54t-25.5 -72q0 -27 17 -42
t44 -15q11 0 23 2t20 4.5t20 8.5l17 8.5t17.5 10t15.5 9.5zM928 666l-160 442h-12l-156 -442h328z" />
    <glyph glyph-name="aogonek" unicode="&#x105;" horiz-adv-x="1153" 
d="M1075 -174l58 -96q-37 -33 -95 -58.5t-125 -25.5q-84 0 -132 43.5t-48 117.5q0 70 45 120.5t105 72.5h-113l-6 170h-4q-39 -56 -77 -89q-116 -99 -284 -99q-154 0 -247 80.5t-93 213.5q0 155 143.5 234.5t395.5 79.5h129v16q0 178 -199 178q-55 0 -104.5 -9.5
t-81.5 -23.5t-56.5 -28t-35.5 -23l-10 -10l-138 174q5 6 15.5 17t50 38t86 48t125.5 38t168 17q102 0 182.5 -23t142 -72t94.5 -132t33 -195v-383h129v-217h-96q-29 -15 -54.5 -34t-51 -54t-25.5 -72q0 -27 17.5 -42t44.5 -15q13 0 25.5 2t26.5 8.5t19.5 9t22.5 12.5t18 11z
M727 338v98h-125q-119 0 -188.5 -30t-69.5 -91q0 -50 41 -76t113 -26q131 0 229 125z" />
    <glyph glyph-name="Cacute" unicode="&#x106;" horiz-adv-x="1556" 
d="M1176 1929l-445 -344l-135 158l420 375zM1290 530l203 -137q-52 -106 -114 -176q-207 -231 -570 -231q-149 0 -280.5 52t-230 147.5t-155.5 239.5t-57 318q0 142 38 263t104.5 207.5t156 148t191.5 91.5t212 30q157 0 257.5 -52.5t152.5 -127.5l-4 167h250v-544h-281v47
q0 36 -25 77.5t-68.5 79.5t-112.5 63.5t-148 25.5q-86 0 -162 -31.5t-135 -90.5t-93 -152t-34 -208q0 -113 38 -207t100.5 -154t141.5 -93t164 -33q63 0 119.5 12t98 29.5t79.5 46t61.5 51t47 54.5t33 47.5t22.5 39.5z" />
    <glyph glyph-name="cacute" unicode="&#x107;" horiz-adv-x="1155" 
d="M1006 1466l-445 -344l-135 158l420 375zM926 377l145 -156q-7 -12 -21.5 -32t-55 -58t-90 -68t-130.5 -53.5t-172 -23.5q-109 0 -205.5 35.5t-168.5 101t-114 164.5t-42 219q0 121 42 221t112.5 163t157.5 97.5t181 34.5q206 0 303 -135h4l-2 121h197v-435h-231v58
q-2 63 -64.5 111.5t-159.5 48.5q-102 0 -183 -75t-81 -208q0 -136 81.5 -214.5t195.5 -78.5q50 0 97.5 15t81 36t62 45.5t42 40.5t18.5 25z" />
    <glyph glyph-name="Ccircumflex" unicode="&#x108;" horiz-adv-x="1556" 
d="M1202 1743l-131 -156l-262 232l-260 -232l-133 156l393 350zM1290 530l203 -137q-52 -106 -114 -176q-207 -231 -570 -231q-149 0 -280.5 52t-230 147.5t-155.5 239.5t-57 318q0 142 38 263t104.5 207.5t156 148t191.5 91.5t212 30q157 0 257.5 -52.5t152.5 -127.5
l-4 167h250v-544h-281v47q0 36 -25 77.5t-68.5 79.5t-112.5 63.5t-148 25.5q-86 0 -162 -31.5t-135 -90.5t-93 -152t-34 -208q0 -113 38 -207t100.5 -154t141.5 -93t164 -33q63 0 119.5 12t98 29.5t79.5 46t61.5 51t47 54.5t33 47.5t22.5 39.5z" />
    <glyph glyph-name="ccircumflex" unicode="&#x109;" horiz-adv-x="1155" 
d="M973 1280l-131 -156l-262 232l-261 -232l-133 156l394 350zM926 377l145 -156q-7 -12 -21.5 -32t-55 -58t-90 -68t-130.5 -53.5t-172 -23.5q-109 0 -205.5 35.5t-168.5 101t-114 164.5t-42 219q0 121 42 221t112.5 163t157.5 97.5t181 34.5q206 0 303 -135h4l-2 121h197
v-435h-231v58q-2 63 -64.5 111.5t-159.5 48.5q-102 0 -183 -75t-81 -208q0 -136 81.5 -214.5t195.5 -78.5q50 0 97.5 15t81 36t62 45.5t42 40.5t18.5 25z" />
    <glyph glyph-name="Cdotaccent" unicode="&#x10a;" horiz-adv-x="1556" 
d="M1290 530l203 -137q-52 -106 -114 -176q-207 -231 -570 -231q-149 0 -280.5 52t-230 147.5t-155.5 239.5t-57 318q0 142 38 263t104.5 207.5t156 148t191.5 91.5t212 30q157 0 257.5 -52.5t152.5 -127.5l-4 167h250v-544h-281v47q0 36 -25 77.5t-68.5 79.5t-112.5 63.5
t-148 25.5q-86 0 -162 -31.5t-135 -90.5t-93 -152t-34 -208q0 -113 38 -207t100.5 -154t141.5 -93t164 -33q63 0 119.5 12t98 29.5t79.5 46t61.5 51t47 54.5t33 47.5t22.5 39.5zM944 1739q0 -51 -36.5 -87t-88.5 -36q-51 0 -87 36t-36 87q0 52 36 88.5t87 36.5q53 0 89 -36
t36 -89z" />
    <glyph glyph-name="cdotaccent" unicode="&#x10b;" horiz-adv-x="1155" 
d="M926 377l145 -156q-7 -12 -21.5 -32t-55 -58t-90 -68t-130.5 -53.5t-172 -23.5q-109 0 -205.5 35.5t-168.5 101t-114 164.5t-42 219q0 121 42 221t112.5 163t157.5 97.5t181 34.5q206 0 303 -135h4l-2 121h197v-435h-231v58q-2 63 -64.5 111.5t-159.5 48.5
q-102 0 -183 -75t-81 -208q0 -136 81.5 -214.5t195.5 -78.5q50 0 97.5 15t81 36t62 45.5t42 40.5t18.5 25zM715 1276q0 -51 -36.5 -87t-88.5 -36q-51 0 -87 36t-36 87q0 52 36 88.5t87 36.5q52 0 88.5 -36.5t36.5 -88.5z" />
    <glyph glyph-name="Ccaron" unicode="&#x10c;" horiz-adv-x="1556" 
d="M1206 1954l-393 -350l-393 350l133 155l260 -235l262 235zM1290 530l203 -137q-52 -106 -114 -176q-207 -231 -570 -231q-149 0 -280.5 52t-230 147.5t-155.5 239.5t-57 318q0 142 38 263t104.5 207.5t156 148t191.5 91.5t212 30q157 0 257.5 -52.5t152.5 -127.5l-4 167
h250v-544h-281v47q0 36 -25 77.5t-68.5 79.5t-112.5 63.5t-148 25.5q-86 0 -162 -31.5t-135 -90.5t-93 -152t-34 -208q0 -113 38 -207t100.5 -154t141.5 -93t164 -33q63 0 119.5 12t98 29.5t79.5 46t61.5 51t47 54.5t33 47.5t22.5 39.5z" />
    <glyph glyph-name="ccaron" unicode="&#x10d;" horiz-adv-x="1155" 
d="M1010 1491l-394 -350l-393 350l133 156l260 -236l263 236zM926 377l145 -156q-7 -12 -21.5 -32t-55 -58t-90 -68t-130.5 -53.5t-172 -23.5q-109 0 -205.5 35.5t-168.5 101t-114 164.5t-42 219q0 121 42 221t112.5 163t157.5 97.5t181 34.5q206 0 303 -135h4l-2 121h197
v-435h-231v58q-2 63 -64.5 111.5t-159.5 48.5q-102 0 -183 -75t-81 -208q0 -136 81.5 -214.5t195.5 -78.5q50 0 97.5 15t81 36t62 45.5t42 40.5t18.5 25z" />
    <glyph glyph-name="Dcaron" unicode="&#x10e;" horiz-adv-x="1517" 
d="M1114 1954l-393 -350l-393 350l133 155l260 -235l262 235zM541 238h116q233 2 353 116t120 367t-126 382.5t-365 129.5h-98v-995zM762 0h-670v238h170v995h-170v237h588q157 0 293.5 -50t239.5 -142.5t162 -235t59 -317.5q0 -166 -53 -304t-144 -229.5t-213.5 -141.5
t-261.5 -50z" />
    <glyph glyph-name="dcaron" unicode="&#x10f;" 
d="M1217 1067v88h14q33 0 58.5 24.5t25.5 67.5l-4 27q-12 -8 -37 -8q-51 0 -87 36.5t-36 90.5t36.5 91.5t90.5 37.5q68 0 107.5 -50t39.5 -139q0 -135 -50.5 -200.5t-143.5 -65.5h-14zM1212 0h-360l-4 152h-4q-7 -19 -29 -44t-58.5 -54t-95.5 -48.5t-126 -19.5
q-205 0 -333 138.5t-128 383.5q0 228 127.5 371t339.5 143q64 0 118 -16.5t86.5 -42t50.5 -46.5t27 -40h4q-4 41 -4 84v292h-131v217h393v-1253h127v-217zM586 215q103 0 169 77.5t66 215.5t-67.5 211.5t-167.5 73.5q-107 0 -175.5 -77t-68.5 -206q0 -132 67 -213.5
t177 -81.5z" />
    <glyph glyph-name="Dcroat" unicode="&#x110;" horiz-adv-x="1517" 
d="M762 0h-670v238h170v378h-164v220h164v397h-170v237h588q157 0 293.5 -50t239.5 -142.5t162 -235t59 -317.5q0 -166 -53 -304t-144 -229.5t-213.5 -141.5t-261.5 -50zM541 238h116q236 2 359 116t123 367t-128.5 382.5t-371.5 129.5h-98v-397h268v-220h-268v-378z" />
    <glyph glyph-name="dcroat" unicode="&#x111;" 
d="M1212 0h-360l-4 152h-4q-7 -19 -29 -44t-58.5 -54t-95.5 -48.5t-126 -19.5q-205 0 -333 138.5t-128 383.5q0 228 127.5 371t339.5 143q64 0 118 -16.5t86.5 -42t50.5 -46.5t27 -40h4q-4 41 -4 84v122h-194v91h194v79h-131v217h393v-296h123v-91h-123v-866h127v-217z
M586 215q103 0 169 77.5t66 215.5t-67.5 211.5t-167.5 73.5q-107 0 -175.5 -77t-68.5 -206q0 -132 67 -213.5t177 -81.5z" />
    <glyph glyph-name="Emacron" unicode="&#x112;" horiz-adv-x="1404" 
d="M1288 0h-1196v238h170v995h-170v237h1196l2 -462h-262v225h-487v-377h432v-238h-432v-380h485v225h262v-463zM1065 1589h-709v219h709v-219z" />
    <glyph glyph-name="emacron" unicode="&#x113;" horiz-adv-x="1134" 
d="M1057 461h-705q13 -121 90 -183.5t183 -62.5q64 0 123 21t96.5 51t58.5 51.5t27 32.5l143 -150q-5 -11 -21.5 -32.5t-57.5 -58.5t-91.5 -67.5t-131 -53.5t-169.5 -23q-109 0 -205.5 35.5t-168.5 101t-114 164.5t-42 219q0 121 44.5 221t117.5 163t162 97.5t182 34.5
q237 0 358 -136.5t121 -391.5v-33zM356 618h441q-3 79 -55.5 134t-153.5 55q-92 0 -153.5 -47.5t-78.5 -141.5zM934 1126h-709v220h709v-220z" />
    <glyph glyph-name="Ebreve" unicode="&#x114;" horiz-adv-x="1404" 
d="M1288 0h-1196v238h170v995h-170v237h1196l2 -462h-262v225h-487v-377h432v-238h-432v-380h485v225h262v-463zM827 1909h187v-33q0 -136 -88.5 -212.5t-227.5 -76.5q-137 0 -223 76.5t-86 212.5v33h189v-33q0 -59 34 -95t86 -36q56 0 92.5 36t36.5 95v33z" />
    <glyph glyph-name="ebreve" unicode="&#x115;" horiz-adv-x="1134" 
d="M1057 461h-705q13 -121 90 -183.5t183 -62.5q64 0 123 21t96.5 51t58.5 51.5t27 32.5l143 -150q-5 -11 -21.5 -32.5t-57.5 -58.5t-91.5 -67.5t-131 -53.5t-169.5 -23q-109 0 -205.5 35.5t-168.5 101t-114 164.5t-42 219q0 121 44.5 221t117.5 163t162 97.5t182 34.5
q237 0 358 -136.5t121 -391.5v-33zM356 618h441q-3 79 -55.5 134t-153.5 55q-92 0 -153.5 -47.5t-78.5 -141.5zM737 1446h187v-33q0 -136 -88.5 -212.5t-227.5 -76.5q-137 0 -223 76.5t-86 212.5v33h188v-33q0 -59 34.5 -95t86.5 -36q56 0 92.5 36t36.5 95v33z" />
    <glyph glyph-name="Edotaccent" unicode="&#x116;" horiz-adv-x="1404" 
d="M1288 0h-1196v238h170v995h-170v237h1196l2 -462h-262v225h-487v-377h432v-238h-432v-380h485v225h262v-463zM821 1739q0 -51 -36.5 -87t-88.5 -36q-51 0 -87 36t-36 87q0 52 36 88.5t87 36.5q52 0 88.5 -36t36.5 -89z" />
    <glyph glyph-name="edotaccent" unicode="&#x117;" horiz-adv-x="1134" 
d="M1057 461h-705q13 -121 90 -183.5t183 -62.5q64 0 123 21t96.5 51t58.5 51.5t27 32.5l143 -150q-5 -11 -21.5 -32.5t-57.5 -58.5t-91.5 -67.5t-131 -53.5t-169.5 -23q-109 0 -205.5 35.5t-168.5 101t-114 164.5t-42 219q0 121 44.5 221t117.5 163t162 97.5t182 34.5
q237 0 358 -136.5t121 -391.5v-33zM356 618h441q-3 79 -55.5 134t-153.5 55q-92 0 -153.5 -47.5t-78.5 -141.5zM727 1276q0 -51 -36.5 -87t-88.5 -36q-51 0 -87 36t-36 87q0 52 36 88.5t87 36.5q52 0 88.5 -36.5t36.5 -88.5z" />
    <glyph glyph-name="Eogonek" unicode="&#x118;" horiz-adv-x="1404" 
d="M1288 0h-106q-29 -15 -54.5 -34t-51 -54t-25.5 -72q0 -27 17 -42t44 -15q11 0 23 2t20 4.5t20 8.5l17 8.5t17.5 10t15.5 9.5l57 -96q-37 -34 -94.5 -59t-124.5 -25q-84 0 -132 43.5t-48 117.5q0 71 44.5 121.5t104.5 71.5h-940v238h170v995h-170v237h1196l2 -462h-262
v225h-487v-377h432v-238h-432v-380h485v225h262v-463z" />
    <glyph glyph-name="eogonek" unicode="&#x119;" horiz-adv-x="1134" 
d="M1057 461h-705q13 -121 90 -183.5t183 -62.5q64 0 123 21t96.5 51t58.5 51.5t27 32.5l143 -150q-6 -10 -18.5 -27t-45 -49t-71.5 -60t-101.5 -54t-131.5 -37q-121 -70 -121 -154q0 -27 17 -42t44 -15q11 0 23 2t20 4.5t20 8.5l17 8.5t17.5 10t15.5 9.5l57 -96
q-37 -34 -94.5 -59t-124.5 -25q-84 0 -132 43.5t-48 117.5q0 62 35.5 109.5t87.5 73.5q-99 9 -183.5 49t-148 104.5t-99.5 158t-36 204.5q0 121 44.5 221t117.5 163t162 97.5t182 34.5q237 0 358 -136.5t121 -391.5v-33zM356 618h441q-3 79 -55.5 134t-153.5 55
q-92 0 -153.5 -47.5t-78.5 -141.5z" />
    <glyph glyph-name="Ecaron" unicode="&#x11a;" horiz-adv-x="1404" 
d="M1124 1954l-393 -350l-393 350l133 155l260 -235l262 235zM1288 0h-1196v238h170v995h-170v237h1196l2 -462h-262v225h-487v-377h432v-238h-432v-380h485v225h262v-463z" />
    <glyph glyph-name="ecaron" unicode="&#x11b;" horiz-adv-x="1134" 
d="M993 1491l-393 -350l-393 350l133 156l260 -236l262 236zM1057 461h-705q13 -121 90 -183.5t183 -62.5q64 0 123 21t96.5 51t58.5 51.5t27 32.5l143 -150q-5 -11 -21.5 -32.5t-57.5 -58.5t-91.5 -67.5t-131 -53.5t-169.5 -23q-109 0 -205.5 35.5t-168.5 101t-114 164.5
t-42 219q0 121 44.5 221t117.5 163t162 97.5t182 34.5q237 0 358 -136.5t121 -391.5v-33zM356 618h441q-3 79 -55.5 134t-153.5 55q-92 0 -153.5 -47.5t-78.5 -141.5z" />
    <glyph glyph-name="Gcircumflex" unicode="&#x11c;" horiz-adv-x="1593" 
d="M1210 1743l-131 -156l-262 232l-260 -232l-133 156l393 350zM1470 0h-239l2 139q-160 -153 -420 -153q-151 0 -283 52t-231 147.5t-156 239.5t-57 318q0 142 39 263.5t106.5 208t157.5 148t192.5 91t211.5 29.5q156 0 255 -49t150 -121l-6 157h252v-534h-281v51
q0 35 -24.5 74.5t-67.5 75t-111.5 59t-146.5 23.5q-183 0 -305.5 -130.5t-122.5 -351.5q0 -111 38 -205t101 -154.5t142.5 -94t164.5 -33.5q234 0 371 149v107h-391v223h659v-729z" />
    <glyph glyph-name="gcircumflex" unicode="&#x11d;" horiz-adv-x="1261" 
d="M1008 1280l-131 -156l-263 232l-260 -232l-133 156l393 350zM553 -483q-62 0 -119.5 9.5t-100.5 24.5t-80 33t-63.5 37t-44.5 34t-28 25.5t-11 10.5l130 184l8 -9q7 -8 18.5 -18t28.5 -23t41.5 -25t54 -22.5t70 -17t84.5 -6.5q134 0 208 57t74 173v153q-9 -19 -29 -41.5
t-54.5 -49.5t-90 -44.5t-119.5 -17.5q-209 0 -332.5 143.5t-123.5 374.5q0 244 128.5 383t332.5 139q66 0 123.5 -17.5t93.5 -43.5t57 -48.5t29 -40.5h4l4 134h356v-217h-121v-807q0 -116 -41 -207t-113.5 -147t-167 -84.5t-206.5 -28.5zM584 213q101 0 169 75.5t68 211.5
q0 139 -67 215t-170 76q-109 0 -175.5 -80t-66.5 -213q0 -129 68 -207t174 -78z" />
    <glyph glyph-name="Gbreve" unicode="&#x11e;" horiz-adv-x="1593" 
d="M1470 0h-239l2 139q-160 -153 -420 -153q-151 0 -283 52t-231 147.5t-156 239.5t-57 318q0 142 39 263.5t106.5 208t157.5 148t192.5 91t211.5 29.5q156 0 255 -49t150 -121l-6 157h252v-534h-281v51q0 35 -24.5 74.5t-67.5 75t-111.5 59t-146.5 23.5
q-183 0 -305.5 -130.5t-122.5 -351.5q0 -111 38 -205t101 -154.5t142.5 -94t164.5 -33.5q234 0 371 149v107h-391v223h659v-729zM973 1909h186v-33q0 -136 -88 -212.5t-227 -76.5q-137 0 -223 76.5t-86 212.5v33h188v-33q0 -59 34.5 -95t86.5 -36q56 0 92.5 36t36.5 95v33z
" />
    <glyph glyph-name="gbreve" unicode="&#x11f;" horiz-adv-x="1261" 
d="M553 -483q-62 0 -119.5 9.5t-100.5 24.5t-80 33t-63.5 37t-44.5 34t-28 25.5t-11 10.5l130 184l8 -9q7 -8 18.5 -18t28.5 -23t41.5 -25t54 -22.5t70 -17t84.5 -6.5q134 0 208 57t74 173v153q-9 -19 -29 -41.5t-54.5 -49.5t-90 -44.5t-119.5 -17.5q-209 0 -332.5 143.5
t-123.5 374.5q0 244 128.5 383t332.5 139q66 0 123.5 -17.5t93.5 -43.5t57 -48.5t29 -40.5h4l4 134h356v-217h-121v-807q0 -116 -41 -207t-113.5 -147t-167 -84.5t-206.5 -28.5zM584 213q101 0 169 75.5t68 211.5q0 139 -67 215t-170 76q-109 0 -175.5 -80t-66.5 -213
q0 -129 68 -207t174 -78zM743 1446h187v-33q0 -136 -88.5 -212.5t-227.5 -76.5q-137 0 -223 76.5t-86 212.5v33h189v-33q0 -59 34 -95t86 -36q56 0 92.5 36t36.5 95v33z" />
    <glyph glyph-name="Gdotaccent" unicode="&#x120;" horiz-adv-x="1593" 
d="M1470 0h-239l2 139q-160 -153 -420 -153q-151 0 -283 52t-231 147.5t-156 239.5t-57 318q0 142 39 263.5t106.5 208t157.5 148t192.5 91t211.5 29.5q156 0 255 -49t150 -121l-6 157h252v-534h-281v51q0 35 -24.5 74.5t-67.5 75t-111.5 59t-146.5 23.5
q-183 0 -305.5 -130.5t-122.5 -351.5q0 -111 38 -205t101 -154.5t142.5 -94t164.5 -33.5q234 0 371 149v107h-391v223h659v-729zM936 1739q0 -51 -36.5 -87t-88.5 -36q-51 0 -87 36t-36 87q0 52 36 88.5t87 36.5q53 0 89 -36t36 -89z" />
    <glyph glyph-name="gdotaccent" unicode="&#x121;" horiz-adv-x="1261" 
d="M553 -483q-62 0 -119.5 9.5t-100.5 24.5t-80 33t-63.5 37t-44.5 34t-28 25.5t-11 10.5l130 184l8 -9q7 -8 18.5 -18t28.5 -23t41.5 -25t54 -22.5t70 -17t84.5 -6.5q134 0 208 57t74 173v153q-9 -19 -29 -41.5t-54.5 -49.5t-90 -44.5t-119.5 -17.5q-209 0 -332.5 143.5
t-123.5 374.5q0 244 128.5 383t332.5 139q66 0 123.5 -17.5t93.5 -43.5t57 -48.5t29 -40.5h4l4 134h356v-217h-121v-807q0 -116 -41 -207t-113.5 -147t-167 -84.5t-206.5 -28.5zM584 213q101 0 169 75.5t68 211.5q0 139 -67 215t-170 76q-109 0 -175.5 -80t-66.5 -213
q0 -129 68 -207t174 -78zM743 1276q0 -51 -36.5 -87t-88.5 -36q-51 0 -86.5 36t-35.5 87q0 52 35.5 88.5t86.5 36.5q52 0 88.5 -36.5t36.5 -88.5z" />
    <glyph glyph-name="Gcommaaccent" unicode="&#x122;" horiz-adv-x="1593" 
d="M760 -537v64q0 14 16 14q34 0 59 23.5t25 66.5l-4 27q-12 -6 -37 -6q-53 0 -89 36t-36 91q0 54 37 91.5t90 37.5q68 0 108 -50t40 -139q0 -135 -50 -201.5t-143 -66.5q-16 0 -16 12zM1470 0h-239l2 139q-160 -153 -420 -153q-151 0 -283 52t-231 147.5t-156 239.5
t-57 318q0 142 39 263.5t106.5 208t157.5 148t192.5 91t211.5 29.5q156 0 255 -49t150 -121l-6 157h252v-534h-281v51q0 35 -24.5 74.5t-67.5 75t-111.5 59t-146.5 23.5q-183 0 -305.5 -130.5t-122.5 -351.5q0 -111 38 -205t101 -154.5t142.5 -94t164.5 -33.5q234 0 371 149
v107h-391v223h659v-729z" />
    <glyph glyph-name="gcommaaccent" unicode="&#x123;" horiz-adv-x="1261" 
d="M553 -483q-62 0 -119.5 9.5t-100.5 24.5t-80 33t-63.5 37t-44.5 34t-28 25.5t-11 10.5l130 184l8 -9q7 -8 18.5 -18t28.5 -23t41.5 -25t54 -22.5t70 -17t84.5 -6.5q134 0 208 57t74 173v153q-9 -19 -29 -41.5t-54.5 -49.5t-90 -44.5t-119.5 -17.5q-209 0 -332.5 143.5
t-123.5 374.5q0 244 128.5 383t332.5 139q66 0 123.5 -17.5t93.5 -43.5t57 -48.5t29 -40.5h4l4 134h356v-217h-121v-807q0 -116 -41 -207t-113.5 -147t-167 -84.5t-206.5 -28.5zM584 213q101 0 169 75.5t68 211.5q0 139 -67 215t-170 76q-109 0 -175.5 -80t-66.5 -213
q0 -129 68 -207t174 -78zM651 1546v-90h-14q-34 0 -59 -23.5t-25 -66.5l4 -29q10 9 37 9q52 0 87.5 -36t35.5 -91q0 -54 -36.5 -91.5t-90.5 -37.5q-68 0 -108 50t-40 138q0 268 195 268h14z" />
    <glyph glyph-name="Hcircumflex" unicode="&#x124;" horiz-adv-x="1687" 
d="M1243 1743l-131 -156l-262 232l-260 -232l-133 156l393 350zM1595 0h-618v238h170v380h-606v-380h170v-238h-619v238h170v995h-170v237h619v-237h-170v-383h606v383h-170v237h618v-237h-170v-995h170v-238z" />
    <glyph glyph-name="hcircumflex" unicode="&#x125;" horiz-adv-x="1241" 
d="M987 1671l-131 -155l-262 231l-260 -231l-133 155l393 350zM1202 0h-401v573q0 102 -37.5 155.5t-130.5 53.5q-24 0 -45.5 -4.5t-37.5 -12t-30 -17.5t-23.5 -21t-17.5 -22t-12.5 -20.5t-8 -17.5t-4.5 -12l-1 -4v-434h116v-217h-516v217h129v1036h-129v217h400v-438
q0 -32 -15 -141h6q91 131 279 131q163 0 255.5 -99.5t92.5 -260.5v-445h131v-217z" />
    <glyph glyph-name="Hbar" unicode="&#x126;" horiz-adv-x="1687" 
d="M1520 975h-95v-737h170v-238h-618v238h170v380h-606v-380h170v-238h-619v238h170v737h-125v119h125v139h-170v237h619v-237h-170v-139h606v139h-170v237h618v-237h-170v-139h95v-119zM541 850h606v125h-606v-125z" />
    <glyph glyph-name="hbar" unicode="&#x127;" horiz-adv-x="1241" 
d="M627 1100h-174v-68q0 -32 -15 -141h6q91 131 279 131q162 0 254 -99t94 -261v-445h131v-217h-401v573q0 102 -37.5 155.5t-130.5 53.5q-24 0 -45.5 -4.5t-37.5 -12t-30 -17.5t-23.5 -21t-17.5 -22t-12.5 -20.5t-8 -17.5t-4.5 -12l-1 -4v-434h116v-217h-516v217h129v883
h-137v90h137v63h-129v217h400v-280h174v-90z" />
    <glyph glyph-name="Itilde" unicode="&#x128;" horiz-adv-x="802" 
d="M711 0h-619v238h170v995h-170v237h619v-237h-170v-995h170v-238zM627 1911h155v-29q0 -134 -54 -208.5t-163 -74.5q-47 0 -86.5 12.5t-66 30.5t-50 36.5t-49 31t-51.5 12.5q-37 0 -54.5 -22.5t-17.5 -87.5v-29h-155v29q0 128 54 201t163 73q46 0 85 -13t65.5 -32
t49.5 -37.5t48.5 -32t52.5 -14.5q38 0 56 27t18 98v29z" />
    <glyph glyph-name="itilde" unicode="&#x129;" horiz-adv-x="659" 
d="M596 0h-516v217h127v574h-127v217h399v-791h117v-217zM518 1448h156v-29q0 -133 -54 -207.5t-163 -74.5q-47 0 -86.5 12.5t-66 30.5t-50 36.5t-49 31t-51.5 12.5q-37 0 -54.5 -23t-17.5 -88v-29h-156v29q0 128 54 201t163 73q46 0 85 -13t65.5 -32t49.5 -37.5t48.5 -32
t52.5 -14.5q38 0 56 27t18 98v29z" />
    <glyph glyph-name="Imacron" unicode="&#x12a;" horiz-adv-x="802" 
d="M711 0h-619v238h170v995h-170v237h619v-237h-170v-995h170v-238zM760 1589h-709v219h709v-219z" />
    <glyph glyph-name="imacron" unicode="&#x12b;" horiz-adv-x="659" 
d="M596 0h-516v217h127v574h-127v217h399v-791h117v-217zM666 1126h-709v220h709v-220z" />
    <glyph glyph-name="Ibreve" unicode="&#x12c;" horiz-adv-x="802" 
d="M711 0h-619v238h170v995h-170v237h619v-237h-170v-995h170v-238zM537 1909h186v-33q0 -136 -88 -212.5t-227 -76.5q-137 0 -223.5 76.5t-86.5 212.5v33h189v-33q0 -59 34.5 -95t86.5 -36q56 0 92.5 36t36.5 95v33z" />
    <glyph glyph-name="ibreve" unicode="&#x12d;" horiz-adv-x="659" 
d="M596 0h-516v217h127v574h-127v217h399v-791h117v-217zM438 1446h187v-33q0 -136 -88.5 -212.5t-227.5 -76.5q-137 0 -223 76.5t-86 212.5v33h188v-33q0 -59 34.5 -95t86.5 -36q56 0 92.5 36t36.5 95v33z" />
    <glyph glyph-name="Iogonek" unicode="&#x12e;" horiz-adv-x="802" 
d="M666 -174l57 -96q-37 -34 -94.5 -59t-124.5 -25q-84 0 -132 43.5t-48 117.5q0 71 44.5 121.5t104.5 71.5h-381v238h170v995h-170v237h619v-237h-170v-995h170v-238h-88q-29 -15 -54.5 -34t-51 -54t-25.5 -72q0 -27 17 -42t44 -15q11 0 23 2t20 4.5t20 8.5l17 8.5t17.5 10
t15.5 9.5z" />
    <glyph glyph-name="iogonek" unicode="&#x12f;" horiz-adv-x="659" 
d="M510 -174l57 -96q-37 -34 -94.5 -59t-124.5 -25q-84 0 -132 43.5t-48 117.5q0 71 44.5 121.5t104.5 71.5h-237v217h127v574h-127v217h399v-791h117v-217h-129q-29 -15 -54.5 -34t-51 -54t-25.5 -72q0 -27 17 -42t44 -15q11 0 23 2t20 4.5t20 8.5l17 8.5t17.5 10t15.5 9.5
zM508 1315q0 -72 -50.5 -122t-121.5 -50q-72 0 -123 50t-51 122t51 123t123 51q71 0 121.5 -51t50.5 -123z" />
    <glyph glyph-name="Idotaccent" unicode="&#x130;" horiz-adv-x="802" 
d="M711 0h-619v238h170v995h-170v237h619v-237h-170v-995h170v-238zM528 1739q0 -51 -36.5 -87t-88.5 -36q-51 0 -86.5 36t-35.5 87q0 52 35.5 88.5t86.5 36.5q53 0 89 -36t36 -89z" />
    <glyph glyph-name="dotlessi" unicode="&#x131;" horiz-adv-x="659" 
d="M596 0h-516v217h127v574h-127v217h399v-791h117v-217z" />
    <glyph glyph-name="Jcircumflex" unicode="&#x134;" horiz-adv-x="942" 
d="M981 1743l-131 -156l-262 232l-260 -232l-133 156l393 350zM455 584v649h-170v237h620v-237h-172v-625q0 -326 -156.5 -467t-482.5 -141h-26v238h26q200 0 280.5 86.5t80.5 259.5z" />
    <glyph glyph-name="jcircumflex" unicode="&#x135;" horiz-adv-x="600" 
d="M184 -92v883h-102q-29 0 -29 28v160q0 29 29 29h344q29 0 29 -29v-1073q0 -191 -97.5 -290t-281.5 -99q-56 0 -102.5 11t-84.5 35t-50 33.5t-40 34.5q-12 11 -14.5 24.5t6.5 22.5l88 117q22 22 47 6q16 -14 25 -21t35.5 -16.5t58.5 -9.5q69 0 104 41.5t35 112.5z
M684 1280l-131 -156l-262 232l-260 -232l-133 156l393 350z" />
    <glyph glyph-name="Kcommaaccent" unicode="&#x136;" horiz-adv-x="1550" 
d="M750 -537v64q0 14 16 14q34 0 59 23.5t25 66.5l-4 27q-12 -6 -37 -6q-53 0 -89 36t-36 91q0 54 37 91.5t90 37.5q68 0 107.5 -50t39.5 -139q0 -268 -192 -268q-16 0 -16 12zM1489 0h-361l-219 465q-19 39 -49.5 61.5t-95.5 22.5h-223v-311h213v-238h-662v238h170v995
h-170v237h576v-237h-127v-459h141q194 0 276 105t82 354h-163v237h604v-237h-162q-3 -412 -236 -574q39 -21 64 -55.5t57 -99.5l127 -266h158v-238z" />
    <glyph glyph-name="kcommaaccent" unicode="&#x137;" horiz-adv-x="1253" 
d="M535 -537v64q0 14 16 14q34 0 59 23.5t25 66.5l-4 27q-12 -6 -37 -6q-53 0 -89 36t-36 91q0 54 37 91.5t90 37.5q68 0 107.5 -50t39.5 -139q0 -268 -192 -268q-16 0 -16 12zM1208 0h-274l-338 451l-143 -123v-111h116v-217h-516v217h129v1036h-129v217h400v-913l266 234
h-96v217h518v-217h-135l-230 -193l285 -381h147v-217z" />
    <glyph glyph-name="kgreenlandic" unicode="&#x138;" horiz-adv-x="1284" 
d="M1239 0h-281l-331 451l-144 -123v-111h117v-217h-516v217h127v574h-127v217h399v-451l267 234h-97v217h518v-217h-135l-229 -193l285 -381h147v-217z" />
    <glyph glyph-name="Lacute" unicode="&#x139;" horiz-adv-x="1308" 
d="M961 1929l-445 -344l-135 158l420 375zM1276 0h-1184v238h170v995h-170v237h617v-237h-168v-995h471v225h264v-463z" />
    <glyph glyph-name="lacute" unicode="&#x13a;" horiz-adv-x="649" 
d="M662 1886l-445 -344l-135 158l420 375zM578 0h-519v217h129v1036h-129v220h402v-1256h117v-217z" />
    <glyph glyph-name="Lcommaaccent" unicode="&#x13b;" horiz-adv-x="1308" 
d="M594 -537v64q0 14 16 14q34 0 59 23.5t25 66.5l-4 27q-12 -6 -37 -6q-53 0 -89 36t-36 91q0 54 37 91.5t90 37.5q68 0 108 -50t40 -139q0 -135 -50 -201.5t-143 -66.5q-16 0 -16 12zM1276 0h-1184v238h170v995h-170v237h617v-237h-168v-995h471v225h264v-463z" />
    <glyph glyph-name="lcommaaccent" unicode="&#x13c;" horiz-adv-x="649" 
d="M254 -537v64q0 14 16 14q34 0 59 23.5t25 66.5l-4 27q-12 -6 -37 -6q-53 0 -89 36t-36 91q0 54 37 91.5t90 37.5q68 0 108 -50t40 -139q0 -135 -50 -201.5t-143 -66.5q-16 0 -16 12zM578 0h-519v217h129v1036h-129v220h402v-1256h117v-217z" />
    <glyph glyph-name="Lcaron" unicode="&#x13d;" horiz-adv-x="1310" 
d="M829 1012v88h15q33 0 58.5 24.5t25.5 67.5l-4 27q-12 -9 -37 -9q-51 0 -87 36.5t-36 90.5t36.5 91.5t90.5 37.5q68 0 107.5 -49.5t39.5 -138.5q0 -135 -50.5 -200.5t-143.5 -65.5h-15zM1276 0h-1184v238h170v995h-170v237h617v-237h-168v-995h471v225h264v-463z" />
    <glyph glyph-name="lcaron" unicode="&#x13e;" horiz-adv-x="649" 
d="M608 1067v88h15q33 0 58.5 24.5t25.5 67.5q0 9 -1.5 15.5t-2.5 9.5l-1 2q-11 -8 -36 -8q-51 0 -87 36.5t-36 90.5t36.5 91.5t90.5 37.5q68 0 107.5 -50t39.5 -139q0 -135 -50.5 -200.5t-143.5 -65.5h-15zM578 0h-519v217h129v1036h-129v220h402v-1256h117v-217z" />
    <glyph glyph-name="Ldot" unicode="&#x13f;" horiz-adv-x="1308" 
d="M1276 0h-1184v238h170v995h-170v237h617v-237h-168v-995h471v225h264v-463zM893 659q0 -51 -36.5 -86.5t-88.5 -35.5q-51 0 -87 35.5t-36 86.5q0 52 36 88.5t87 36.5q52 0 88.5 -36t36.5 -89z" />
    <glyph glyph-name="ldot" unicode="&#x140;" horiz-adv-x="747" 
d="M578 0h-519v217h129v1036h-129v220h402v-1256h117v-217zM813 758q0 -51 -36.5 -87t-88.5 -36q-51 0 -87 36t-36 87q0 52 36 88.5t87 36.5q52 0 88.5 -36.5t36.5 -88.5z" />
    <glyph glyph-name="Lslash" unicode="&#x141;" horiz-adv-x="1310" 
d="M1278 0h-1184v238h170v245l-121 -118l-108 106l229 227v535h-170v237h617v-237h-168v-256l153 153l109 -108l-262 -262v-522h471v225h264v-463z" />
    <glyph glyph-name="lslash" unicode="&#x142;" horiz-adv-x="704" 
d="M623 0h-519v217h129v293l-147 -148l-106 107l253 252v532h-129v220h402v-480l135 135l104 -106l-239 -240v-565h117v-217z" />
    <glyph glyph-name="Nacute" unicode="&#x143;" horiz-adv-x="1650" 
d="M1120 1929l-444 -344l-135 158l420 375zM1417 0l-287 2l-503 786q-20 31 -40.5 70t-30.5 62l-11 24h-4v-706h170v-238h-619v238h170v989h-170v243h440l490 -770q26 -43 54 -97t42 -87l15 -33h6v750h-170v237h620v-237h-172v-1233z" />
    <glyph glyph-name="nacute" unicode="&#x144;" horiz-adv-x="1267" 
d="M965 1466l-445 -344l-135 158l420 375zM1229 0h-402v573q0 102 -37.5 156.5t-130.5 54.5q-40 0 -72.5 -13t-51 -30t-32.5 -38.5t-18 -32.5t-6 -17v-436h115v-217h-514v217h129v574h-129v217h356l6 -160h7l5 10q6 10 11.5 19t16 23.5t23.5 27t30.5 27t40 26t48.5 21
t59.5 15t70.5 5.5q162 0 253 -99t93 -261v-445h129v-217z" />
    <glyph glyph-name="Ncommaaccent" unicode="&#x145;" horiz-adv-x="1650" 
d="M756 -537v64q0 14 16 14q34 0 59 23.5t25 66.5l-4 27q-12 -6 -37 -6q-53 0 -89 36t-36 91q0 54 37 91.5t90 37.5q68 0 108 -50t40 -139q0 -135 -50 -201.5t-143 -66.5q-16 0 -16 12zM1417 0l-287 2l-503 786q-20 31 -40.5 70t-30.5 62l-11 24h-4v-706h170v-238h-619v238
h170v989h-170v243h440l490 -770q26 -43 54 -97t42 -87l15 -33h6v750h-170v237h620v-237h-172v-1233z" />
    <glyph glyph-name="ncommaaccent" unicode="&#x146;" horiz-adv-x="1267" 
d="M553 -537v64q0 14 16 14q34 0 59 23.5t25 66.5l-4 27q-12 -6 -37 -6q-53 0 -89 36t-36 91q0 54 37 91.5t90 37.5q68 0 108 -50t40 -139q0 -135 -50 -201.5t-143 -66.5q-16 0 -16 12zM1229 0h-402v573q0 102 -37.5 156.5t-130.5 54.5q-40 0 -72.5 -13t-51 -30t-32.5 -38.5
t-18 -32.5t-6 -17v-436h115v-217h-514v217h129v574h-129v217h356l6 -160h7l5 10q6 10 11.5 19t16 23.5t23.5 27t30.5 27t40 26t48.5 21t59.5 15t70.5 5.5q162 0 253 -99t93 -261v-445h129v-217z" />
    <glyph glyph-name="Ncaron" unicode="&#x147;" horiz-adv-x="1650" 
d="M1217 1954l-394 -350l-393 350l133 155l260 -235l262 235zM1417 0l-287 2l-503 786q-20 31 -40.5 70t-30.5 62l-11 24h-4v-706h170v-238h-619v238h170v989h-170v243h440l490 -770q26 -43 54 -97t42 -87l15 -33h6v750h-170v237h620v-237h-172v-1233z" />
    <glyph glyph-name="ncaron" unicode="&#x148;" horiz-adv-x="1267" 
d="M1014 1491l-393 -350l-394 350l133 156l261 -236l262 236zM1229 0h-402v573q0 102 -37.5 156.5t-130.5 54.5q-40 0 -72.5 -13t-51 -30t-32.5 -38.5t-18 -32.5t-6 -17v-436h115v-217h-514v217h129v574h-129v217h356l6 -160h7l5 10q6 10 11.5 19t16 23.5t23.5 27t30.5 27
t40 26t48.5 21t59.5 15t70.5 5.5q162 0 253 -99t93 -261v-445h129v-217z" />
    <glyph glyph-name="napostrophe" unicode="&#x149;" horiz-adv-x="1267" 
d="M-12 1106v63q0 15 16 15q34 0 59 23.5t25 66.5l-4 26q-12 -6 -37 -6q-53 0 -89 36t-36 91q0 54 37 91.5t90 37.5q68 0 108 -50t40 -138q0 -135 -50 -201.5t-143 -66.5q-16 0 -16 12zM1229 0h-402v573q0 102 -37.5 156.5t-130.5 54.5q-40 0 -72.5 -13t-51 -30t-32.5 -38.5
t-18 -32.5t-6 -17v-436h115v-217h-514v217h129v574h-129v217h356l6 -160h7l5 10q6 10 11.5 19t16 23.5t23.5 27t30.5 27t40 26t48.5 21t59.5 15t70.5 5.5q162 0 253 -99t93 -261v-445h129v-217z" />
    <glyph glyph-name="Eng" unicode="&#x14a;" horiz-adv-x="1650" 
d="M1417 1233v-1196q0 -126 -35 -218t-112.5 -158.5t-207.5 -100t-314 -33.5v237q150 0 236.5 27.5t118.5 76.5t32 130v4h-5l-503 786q-20 31 -40.5 70t-30.5 62l-11 24h-4v-706h170v-238h-619v238h170v989h-170v243h440l490 -770q26 -43 54 -97t42 -87l15 -33h6v750h-170
v237h620v-237h-172z" />
    <glyph glyph-name="eng" unicode="&#x14b;" horiz-adv-x="1230" 
d="M1100 662v-754q0 -192 -98 -290.5t-283 -98.5q-31 0 -61.5 4.5t-53.5 11t-47.5 18.5t-39.5 20t-34.5 23t-27 22l-22.5 21t-17 15l129 170q1 -1 11.5 -11t17 -15.5t20.5 -15t26.5 -14.5t31 -9.5t38.5 -4.5q69 0 103 42t34 112v665q0 102 -37.5 156.5t-130.5 54.5
q-40 0 -72.5 -13t-51 -30t-32.5 -38.5t-18 -32.5t-6 -17v-436h115v-217h-514v217h129v574h-129v217h356l6 -160h7l5 10q6 10 11.5 19t16 23.5t23.5 27t30.5 27t40 26t48.5 21t59.5 15t70.5 5.5q162 0 253 -99t93 -261z" />
    <glyph glyph-name="Omacron" unicode="&#x14c;" horiz-adv-x="1632" 
d="M1186 1589h-709v219h709v-219zM817 -14q-205 0 -372.5 95.5t-264 269t-96.5 392.5q0 141 41 262.5t112 208t164.5 148t199 91.5t216.5 30t216.5 -30t198.5 -91.5t163.5 -148t111.5 -208t41 -262.5q0 -171 -56.5 -314.5t-154.5 -240t-232 -149.5t-288 -53zM817 248
q86 0 164.5 35.5t138 98t94.5 155t35 200.5q0 113 -36 206t-96.5 153t-138.5 92.5t-163 32.5q-84 0 -161.5 -32.5t-138 -92.5t-96.5 -153t-36 -206q0 -108 35 -200.5t94.5 -155t138.5 -98t166 -35.5z" />
    <glyph glyph-name="omacron" unicode="&#x14d;" horiz-adv-x="1208" 
d="M958 1126h-708v220h708v-220zM602 -14q-240 0 -384 141.5t-144 378.5q0 236 147.5 376t382.5 140t383 -140.5t148 -375.5q0 -236 -145.5 -378t-387.5 -142zM602 215q113 0 184.5 80.5t71.5 212.5q0 129 -72 206t-182 77t-182 -77t-72 -206q0 -132 70.5 -212.5
t181.5 -80.5z" />
    <glyph glyph-name="Obreve" unicode="&#x14e;" horiz-adv-x="1632" 
d="M817 -14q-205 0 -372.5 95.5t-264 269t-96.5 392.5q0 141 41 262.5t112 208t164.5 148t199 91.5t216.5 30t216.5 -30t198.5 -91.5t163.5 -148t111.5 -208t41 -262.5q0 -171 -56.5 -314.5t-154.5 -240t-232 -149.5t-288 -53zM817 248q86 0 164.5 35.5t138 98t94.5 155
t35 200.5q0 113 -36 206t-96.5 153t-138.5 92.5t-163 32.5q-84 0 -161.5 -32.5t-138 -92.5t-96.5 -153t-36 -206q0 -108 35 -200.5t94.5 -155t138.5 -98t166 -35.5zM956 1909h187v-33q0 -136 -88.5 -212.5t-227.5 -76.5q-137 0 -223 76.5t-86 212.5v33h189v-33q0 -59 34 -95
t86 -36q56 0 92.5 36t36.5 95v33z" />
    <glyph glyph-name="obreve" unicode="&#x14f;" horiz-adv-x="1208" 
d="M602 -14q-240 0 -384 141.5t-144 378.5q0 236 147.5 376t382.5 140t383 -140.5t148 -375.5q0 -236 -145.5 -378t-387.5 -142zM602 215q113 0 184.5 80.5t71.5 212.5q0 129 -72 206t-182 77t-182 -77t-72 -206q0 -132 70.5 -212.5t181.5 -80.5zM743 1446h187v-33
q0 -136 -88.5 -212.5t-227.5 -76.5q-137 0 -223 76.5t-86 212.5v33h189v-33q0 -59 34 -95t86 -36q56 0 92.5 36t36.5 95v33z" />
    <glyph glyph-name="Ohungarumlaut" unicode="&#x150;" horiz-adv-x="1632" 
d="M1040 1966l-444 -344l-133 158l418 374zM1479 1966l-445 -344l-133 158l418 374zM817 -14q-205 0 -372.5 95.5t-264 269t-96.5 392.5q0 141 41 262.5t112 208t164.5 148t199 91.5t216.5 30t216.5 -30t198.5 -91.5t163.5 -148t111.5 -208t41 -262.5q0 -171 -56.5 -314.5
t-154.5 -240t-232 -149.5t-288 -53zM817 248q86 0 164.5 35.5t138 98t94.5 155t35 200.5q0 113 -36 206t-96.5 153t-138.5 92.5t-163 32.5q-84 0 -161.5 -32.5t-138 -92.5t-96.5 -153t-36 -206q0 -108 35 -200.5t94.5 -155t138.5 -98t166 -35.5z" />
    <glyph glyph-name="ohungarumlaut" unicode="&#x151;" horiz-adv-x="1208" 
d="M741 1503l-444 -344l-133 158l418 375zM1180 1503l-445 -344l-133 158l418 375zM602 -14q-240 0 -384 141.5t-144 378.5q0 236 147.5 376t382.5 140t383 -140.5t148 -375.5q0 -236 -145.5 -378t-387.5 -142zM602 215q113 0 184.5 80.5t71.5 212.5q0 129 -72 206t-182 77
t-182 -77t-72 -206q0 -132 70.5 -212.5t181.5 -80.5z" />
    <glyph glyph-name="OE" unicode="&#x152;" horiz-adv-x="1953" 
d="M1839 0h-1026q-153 0 -287 54t-231.5 150.5t-154 236t-56.5 302.5q0 140 40.5 259.5t110.5 203.5t162.5 144t197 89.5t214.5 30.5h1030v-462h-258v225h-487v-377h430v-238h-430v-380h485v223h260v-461zM809 256v961q-84 -2 -159.5 -35t-135 -91.5t-94.5 -150t-35 -203.5
q0 -213 123 -345.5t301 -135.5z" />
    <glyph glyph-name="oe" unicode="&#x153;" horiz-adv-x="1923" 
d="M1843 461h-704q14 -121 91 -183.5t183 -62.5q63 0 121.5 21t96 50.5t59 51t28.5 33.5l144 -150q-9 -15 -27.5 -38t-60.5 -59.5t-93 -65.5t-129 -50.5t-163 -21.5q-118 0 -219 41t-171 120q-139 -161 -397 -161q-240 0 -384 141.5t-144 378.5q0 236 147.5 376t382.5 140
q121 0 223 -42t172 -118q71 77 167.5 118.5t197.5 41.5q238 0 358.5 -136t120.5 -392v-33zM602 215q113 0 184.5 80.5t71.5 212.5q0 129 -72 206t-182 77t-182 -77t-72 -206q0 -132 70.5 -212.5t181.5 -80.5zM1145 618h440q-5 79 -57 134t-152 55q-93 0 -153.5 -47.5
t-77.5 -141.5z" />
    <glyph glyph-name="Racute" unicode="&#x154;" horiz-adv-x="1466" 
d="M1016 1929l-445 -344l-135 158l420 375zM1423 0h-360l-225 453q-22 44 -49 69.5t-76 26.5h-172v-311h209v-238h-658v238h170v995h-170v237h703q224 0 364.5 -129t140.5 -344q0 -143 -65 -243t-188 -150q36 -31 81 -110l136 -256h159v-238zM541 768h184q145 0 218 52
t73 169q0 127 -78 185.5t-213 58.5h-184v-465z" />
    <glyph glyph-name="racute" unicode="&#x155;" horiz-adv-x="925" 
d="M842 1466l-445 -344l-135 158l420 375zM596 0h-516v217h129v574h-129v217h350l12 -256h9q2 6 5.5 15.5t18 37t33.5 52.5t53.5 56t74.5 53t100 37t128 15h33v-270h-102q-132 0 -224 -85.5t-92 -195.5v-250h117v-217z" />
    <glyph glyph-name="Rcommaaccent" unicode="&#x156;" horiz-adv-x="1466" 
d="M662 -537v64q0 14 16 14q34 0 59 23.5t25 66.5l-4 27q-12 -6 -37 -6q-53 0 -89 36t-36 91q0 54 37 91.5t90 37.5q68 0 107.5 -50t39.5 -139q0 -268 -192 -268q-16 0 -16 12zM1423 0h-360l-225 453q-22 44 -49 69.5t-76 26.5h-172v-311h209v-238h-658v238h170v995h-170
v237h703q224 0 364.5 -129t140.5 -344q0 -143 -65 -243t-188 -150q36 -31 81 -110l136 -256h159v-238zM541 768h184q145 0 218 52t73 169q0 127 -78 185.5t-213 58.5h-184v-465z" />
    <glyph glyph-name="rcommaaccent" unicode="&#x157;" horiz-adv-x="925" 
d="M295 -537v64q0 14 16 14q34 0 59 23.5t25 66.5l-4 27q-12 -6 -37 -6q-53 0 -89 36t-36 91q0 54 37 91.5t90 37.5q68 0 108 -50t40 -139q0 -135 -50 -201.5t-143 -66.5q-16 0 -16 12zM596 0h-516v217h129v574h-129v217h350l12 -256h9q2 6 5.5 15.5t18 37t33.5 52.5
t53.5 56t74.5 53t100 37t128 15h33v-270h-102q-132 0 -224 -85.5t-92 -195.5v-250h117v-217z" />
    <glyph glyph-name="Rcaron" unicode="&#x158;" horiz-adv-x="1466" 
d="M1096 1954l-394 -350l-393 350l133 155l260 -235l263 235zM1423 0h-360l-225 453q-22 44 -49 69.5t-76 26.5h-172v-311h209v-238h-658v238h170v995h-170v237h703q224 0 364.5 -129t140.5 -344q0 -143 -65 -243t-188 -150q36 -31 81 -110l136 -256h159v-238zM541 768h184
q145 0 218 52t73 169q0 127 -78 185.5t-213 58.5h-184v-465z" />
    <glyph glyph-name="rcaron" unicode="&#x159;" horiz-adv-x="925" 
d="M795 1491l-394 -350l-393 350l133 156l260 -236l263 236zM594 0h-516v217h129v574h-129v217h350l12 -256h9q2 6 5.5 15.5t18 37t33.5 52.5t53.5 56t74.5 53t100 37t128 15h33v-270h-102q-132 0 -224 -85.5t-92 -195.5v-250h117v-217z" />
    <glyph glyph-name="Sacute" unicode="&#x15a;" horiz-adv-x="1392" 
d="M1098 1929l-445 -344l-135 158l420 375zM356 0h-252v545h281v-56q0 -7 9.5 -30.5t36 -59.5t65 -69t106.5 -56.5t150 -23.5q111 0 171 44.5t60 117.5q0 46 -36.5 81t-95.5 56.5t-135 45t-155 44.5t-155 56.5t-135 80t-95.5 116.5t-36.5 163q0 188 131.5 308t354.5 120
q248 0 374 -140l-8 127h254v-536h-282v72q0 32 -17 67.5t-51 69t-94.5 55t-136.5 21.5q-107 0 -166.5 -46t-59.5 -118q0 -57 48 -97.5t124.5 -66.5t168.5 -50t184.5 -56.5t169 -76.5t124.5 -119.5t48 -176.5q0 -84 -29.5 -158.5t-88 -135.5t-157.5 -96.5t-227 -35.5
q-82 0 -156 19t-121 43.5t-88 57.5t-57.5 51.5t-28.5 35.5z" />
    <glyph glyph-name="sacute" unicode="&#x15b;" horiz-adv-x="1050" 
d="M926 1466l-445 -344l-135 158l420 375zM578 -16q-53 0 -103 11.5t-84 28t-60.5 35.5t-39.5 31.5t-15 18.5h-4q4 -97 4 -109h-196l2 379h215v-53q0 -11 12.5 -30t37.5 -41.5t73 -39t108 -16.5q73 0 112.5 24.5t39.5 71.5q0 30 -31 51t-80.5 34t-109.5 27t-120.5 36
t-110 53.5t-80.5 87t-31 129.5q0 138 96.5 223.5t265.5 85.5q188 0 281 -111h4q-6 89 -6 93h184v-373h-217v51q0 47 -54.5 86t-148.5 39q-61 0 -99 -26t-38 -74q0 -36 32.5 -60t84.5 -38t114.5 -27t125 -34t114.5 -51t84.5 -85.5t32.5 -130.5q0 -57 -21.5 -107.5t-65.5 -94
t-123.5 -69.5t-184.5 -26z" />
    <glyph glyph-name="Scircumflex" unicode="&#x15c;" horiz-adv-x="1392" 
d="M1104 1743l-131 -156l-262 232l-260 -232l-134 156l394 350zM356 0h-252v545h281v-56q0 -7 9.5 -30.5t36 -59.5t65 -69t106.5 -56.5t150 -23.5q111 0 171 44.5t60 117.5q0 46 -36.5 81t-95.5 56.5t-135 45t-155 44.5t-155 56.5t-135 80t-95.5 116.5t-36.5 163
q0 188 131.5 308t354.5 120q248 0 374 -140l-8 127h254v-536h-282v72q0 32 -17 67.5t-51 69t-94.5 55t-136.5 21.5q-107 0 -166.5 -46t-59.5 -118q0 -57 48 -97.5t124.5 -66.5t168.5 -50t184.5 -56.5t169 -76.5t124.5 -119.5t48 -176.5q0 -84 -29.5 -158.5t-88 -135.5
t-157.5 -96.5t-227 -35.5q-82 0 -156 19t-121 43.5t-88 57.5t-57.5 51.5t-28.5 35.5z" />
    <glyph glyph-name="scircumflex" unicode="&#x15d;" horiz-adv-x="1050" 
d="M909 1280l-131 -156l-262 232l-260 -232l-133 156l393 350zM578 -16q-53 0 -103 11.5t-84 28t-60.5 35.5t-39.5 31.5t-15 18.5h-4q4 -97 4 -109h-196l2 379h215v-53q0 -11 12.5 -30t37.5 -41.5t73 -39t108 -16.5q73 0 112.5 24.5t39.5 71.5q0 30 -31 51t-80.5 34
t-109.5 27t-120.5 36t-110 53.5t-80.5 87t-31 129.5q0 138 96.5 223.5t265.5 85.5q188 0 281 -111h4q-6 89 -6 93h184v-373h-217v51q0 47 -54.5 86t-148.5 39q-61 0 -99 -26t-38 -74q0 -36 32.5 -60t84.5 -38t114.5 -27t125 -34t114.5 -51t84.5 -85.5t32.5 -130.5
q0 -57 -21.5 -107.5t-65.5 -94t-123.5 -69.5t-184.5 -26z" />
    <glyph glyph-name="Scedilla" unicode="&#x15e;" horiz-adv-x="1392" 
d="M709 -330q-22 0 -44 3t-39.5 8t-34.5 12t-29.5 13.5t-24 13.5t-18 12t-11.5 10l-6 4l59 92q1 0 9.5 -6t19.5 -12t25.5 -12.5t33 -10.5t37.5 -4q62 0 62 41q0 23 -16 33t-56 10h-64l43 125q-54 12 -102.5 34t-80.5 43.5t-59.5 46.5t-39.5 39.5t-21 27.5l4 -193h-252v545
h281v-56q0 -7 9.5 -30.5t36 -59.5t65 -69t106.5 -56.5t150 -23.5q111 0 171 44.5t60 117.5q0 46 -36.5 81t-95.5 56.5t-135 45t-155 44.5t-155 56.5t-135 80t-95.5 116.5t-36.5 163q0 188 131.5 308t354.5 120q248 0 374 -140l-8 127h254v-536h-282v72q0 32 -17 67.5t-51 69
t-94.5 55t-136.5 21.5q-107 0 -166.5 -46t-59.5 -118q0 -57 48 -97.5t124.5 -66.5t168.5 -50t184.5 -56.5t169 -76.5t124.5 -119.5t48 -176.5q0 -84 -29.5 -158.5t-88 -135.5t-157.5 -96.5t-227 -35.5h-33l-8 -29q9 0 20.5 -1t33.5 -8t38.5 -19t29.5 -37t13 -58
q0 -75 -51 -119.5t-137 -44.5z" />
    <glyph glyph-name="scedilla" unicode="&#x15f;" horiz-adv-x="1052" 
d="M535 -330q-22 0 -44 3t-39.5 8t-34.5 12t-29.5 13.5t-24 13.5t-18 12t-11.5 10l-6 4l59 92q1 0 9.5 -6t19.5 -12t25.5 -12.5t33 -10.5t37.5 -4q61 0 61 41q0 23 -15.5 33t-55.5 10h-64l39 117q-57 12 -106 39t-70.5 47t-24.5 29h-4q4 -97 4 -109h-196l2 379h215v-53
q0 -11 12.5 -30t37.5 -41.5t73 -39t108 -16.5q73 0 112.5 24.5t39.5 71.5q0 30 -31 51t-80.5 34t-109.5 27t-120.5 36t-110 53.5t-80.5 87t-31 129.5q0 138 96.5 223.5t265.5 85.5q188 0 281 -111h4q-6 89 -6 93h184v-373h-217v51q0 47 -54.5 86t-148.5 39q-61 0 -99 -26
t-38 -74q0 -36 32.5 -60t84.5 -38t114.5 -27t125 -34t114.5 -51t84.5 -85.5t32.5 -130.5q0 -56 -20.5 -105.5t-63 -92.5t-118 -69.5t-175.5 -29.5l-8 -27q9 0 20.5 -1t33.5 -8t38.5 -19t29.5 -37t13 -58q0 -75 -51 -119.5t-137 -44.5z" />
    <glyph glyph-name="Scaron" unicode="&#x160;" horiz-adv-x="1392" 
d="M1116 1954l-393 -350l-393 350l133 155l260 -235l262 235zM356 0h-252v545h281v-56q0 -7 9.5 -30.5t36 -59.5t65 -69t106.5 -56.5t150 -23.5q111 0 171 44.5t60 117.5q0 46 -36.5 81t-95.5 56.5t-135 45t-155 44.5t-155 56.5t-135 80t-95.5 116.5t-36.5 163
q0 188 131.5 308t354.5 120q248 0 374 -140l-8 127h254v-536h-282v72q0 32 -17 67.5t-51 69t-94.5 55t-136.5 21.5q-107 0 -166.5 -46t-59.5 -118q0 -57 48 -97.5t124.5 -66.5t168.5 -50t184.5 -56.5t169 -76.5t124.5 -119.5t48 -176.5q0 -84 -29.5 -158.5t-88 -135.5
t-157.5 -96.5t-227 -35.5q-82 0 -156 19t-121 43.5t-88 57.5t-57.5 51.5t-28.5 35.5z" />
    <glyph glyph-name="scaron" unicode="&#x161;" horiz-adv-x="1050" 
d="M934 1491l-393 -350l-394 350l134 156l260 -236l262 236zM578 -16q-53 0 -103 11.5t-84 28t-60.5 35.5t-39.5 31.5t-15 18.5h-4q4 -97 4 -109h-196l2 379h215v-53q0 -11 12.5 -30t37.5 -41.5t73 -39t108 -16.5q73 0 112.5 24.5t39.5 71.5q0 30 -31 51t-80.5 34t-109.5 27
t-120.5 36t-110 53.5t-80.5 87t-31 129.5q0 138 96.5 223.5t265.5 85.5q188 0 281 -111h4q-6 89 -6 93h184v-373h-217v51q0 47 -54.5 86t-148.5 39q-61 0 -99 -26t-38 -74q0 -36 32.5 -60t84.5 -38t114.5 -27t125 -34t114.5 -51t84.5 -85.5t32.5 -130.5q0 -57 -21.5 -107.5
t-65.5 -94t-123.5 -69.5t-184.5 -26z" />
    <glyph glyph-name="Tcommaaccent" unicode="&#x162;" horiz-adv-x="1402" 
d="M641 -537v64q0 14 16 14q34 0 59 23.5t25 66.5l-4 27q-12 -6 -37 -6q-53 0 -89 36t-36 91q0 54 37 91.5t90 37.5q68 0 108 -50t40 -139q0 -135 -50 -201.5t-143 -66.5q-16 0 -16 12zM1010 0h-615v238h170v995h-264v-229h-264v466h1327v-466h-262v229h-258v-995h166v-238z
" />
    <glyph glyph-name="tcommaaccent" unicode="&#x163;" horiz-adv-x="839" 
d="M354 -537v64q0 14 17 14q34 0 59 23.5t25 66.5l-4 27q-12 -6 -37 -6q-53 0 -89 36t-36 91q0 54 37 91.5t90 37.5q68 0 107.5 -50t39.5 -139q0 -268 -192 -268q-17 0 -17 12zM721 297l129 -172l-4 -5q-5 -5 -10.5 -11.5t-16 -16t-21.5 -19t-27 -20t-33 -20t-38.5 -18.5
t-44 -15t-50 -10t-56.5 -4q-184 0 -281.5 99t-97.5 290v416h-131v217h131v262h272v-262h289v-217h-289v-414q0 -71 34.5 -112.5t103.5 -41.5q20 0 38 4t31.5 10t25 13.5t20 15.5t13.5 14.5t9 11.5z" />
    <glyph glyph-name="Tcaron" unicode="&#x164;" horiz-adv-x="1402" 
d="M1083 1954l-393 -350l-393 350l133 155l260 -235l262 235zM1010 0h-615v238h170v995h-264v-229h-264v466h1327v-466h-262v229h-258v-995h166v-238z" />
    <glyph glyph-name="tcaron" unicode="&#x165;" horiz-adv-x="839" 
d="M545 1092v88h14q33 0 58.5 24.5t25.5 67.5l-4 26q-12 -8 -37 -8q-51 0 -87 36.5t-36 90.5t36.5 91.5t90.5 37.5q68 0 108 -50t40 -138q0 -135 -51 -200.5t-144 -65.5h-14zM850 125l-129 172l-4 -5q-4 -5 -9 -11.5t-13.5 -14.5t-20 -15.5t-25 -13.5t-31.5 -10t-38 -4
q-69 0 -103.5 41.5t-34.5 112.5v414h289v217h-289v262h-272v-262h-131v-217h131v-416q0 -191 97.5 -290t281.5 -99q29 0 56.5 4t50 10t44 15t38.5 18.5t33 20t27 20t21.5 19t16 16t10.5 11.5z" />
    <glyph glyph-name="Tbar" unicode="&#x166;" horiz-adv-x="1402" 
d="M1055 551h-211v-313h166v-238h-615v238h170v313h-209v217h209v465h-264v-229h-264v466h1327v-466h-264v229h-256v-465h211v-217z" />
    <glyph glyph-name="tbar" unicode="&#x167;" horiz-adv-x="841" 
d="M616 514h-174v-137q0 -71 34.5 -112.5t103.5 -41.5q20 0 38 4t31.5 10t25 13.5t20 15.5t13.5 14.5t9 11.5l4 5l131 -172l-12 -12q-11 -12 -26.5 -26.5t-43 -33t-58 -33t-74 -24.5t-89.5 -10q-184 0 -281.5 99t-97.5 290v139h-113v90h113v187h-131v217h131v262h272v-262
h289v-217h-289v-187h174v-90z" />
    <glyph glyph-name="Utilde" unicode="&#x168;" horiz-adv-x="1554" 
d="M1067 530v703h-170v237h621v-237h-172v-684q0 -275 -151.5 -419t-414.5 -144q-265 0 -419 144t-154 419v684h-170v237h620v-237h-172v-690q0 -60 14 -109.5t46 -92.5t92 -67t143 -24q141 0 214 78t73 202zM1049 1911h155v-29q0 -134 -54 -208.5t-163 -74.5
q-47 0 -86.5 12.5t-66 30.5t-50 36.5t-49 31t-51.5 12.5q-37 0 -54.5 -22.5t-17.5 -87.5v-29h-155v29q0 128 54 201t163 73q46 0 85 -13t65.5 -32t49.5 -37.5t48.5 -32t52.5 -14.5q38 0 56 27t18 98v29z" />
    <glyph glyph-name="utilde" unicode="&#x169;" horiz-adv-x="1243" 
d="M1190 0h-359l-6 160h-6l-5 -10q-4 -9 -7.5 -16t-11.5 -20t-16.5 -24t-22.5 -24.5t-29 -24t-36.5 -21.5t-44.5 -18t-53 -11.5t-63 -4.5q-164 0 -262 100t-98 260v445h-129v217h401v-574q0 -102 37.5 -156.5t130.5 -54.5q40 0 73 12.5t52 30.5t32.5 37.5t18.5 32.5t5 18
v437h-119v217h389v-791h129v-217zM815 1448h156v-29q0 -133 -54 -207.5t-163 -74.5q-47 0 -86.5 12.5t-66 30.5t-50 36.5t-49 31t-51.5 12.5q-37 0 -54.5 -23t-17.5 -88v-29h-156v29q0 128 54 201t163 73q46 0 85 -13t65.5 -32t49.5 -37.5t48.5 -32t52.5 -14.5q38 0 56 27
t18 98v29z" />
    <glyph glyph-name="Umacron" unicode="&#x16a;" horiz-adv-x="1554" 
d="M1067 530v703h-170v237h621v-237h-172v-684q0 -275 -151.5 -419t-414.5 -144q-265 0 -419 144t-154 419v684h-170v237h620v-237h-172v-690q0 -60 14 -109.5t46 -92.5t92 -67t143 -24q141 0 214 78t73 202zM1112 1589h-709v219h709v-219z" />
    <glyph glyph-name="umacron" unicode="&#x16b;" horiz-adv-x="1243" 
d="M1190 0h-359l-6 160h-6l-5 -10q-4 -9 -7.5 -16t-11.5 -20t-16.5 -24t-22.5 -24.5t-29 -24t-36.5 -21.5t-44.5 -18t-53 -11.5t-63 -4.5q-164 0 -262 100t-98 260v445h-129v217h401v-574q0 -102 37.5 -156.5t130.5 -54.5q40 0 73 12.5t52 30.5t32.5 37.5t18.5 32.5t5 18
v437h-119v217h389v-791h129v-217zM942 1126h-709v220h709v-220z" />
    <glyph glyph-name="Ubreve" unicode="&#x16c;" horiz-adv-x="1554" 
d="M1067 530v703h-170v237h621v-237h-172v-684q0 -275 -151.5 -419t-414.5 -144q-265 0 -419 144t-154 419v684h-170v237h620v-237h-172v-690q0 -60 14 -109.5t46 -92.5t92 -67t143 -24q141 0 214 78t73 202zM911 1909h187v-33q0 -136 -88.5 -212.5t-227.5 -76.5
q-137 0 -223 76.5t-86 212.5v33h189v-33q0 -59 34 -95t86 -36q56 0 92.5 36t36.5 95v33z" />
    <glyph glyph-name="ubreve" unicode="&#x16d;" horiz-adv-x="1243" 
d="M1190 0h-359l-6 160h-6l-5 -10q-4 -9 -7.5 -16t-11.5 -20t-16.5 -24t-22.5 -24.5t-29 -24t-36.5 -21.5t-44.5 -18t-53 -11.5t-63 -4.5q-164 0 -262 100t-98 260v445h-129v217h401v-574q0 -102 37.5 -156.5t130.5 -54.5q40 0 73 12.5t52 30.5t32.5 37.5t18.5 32.5t5 18
v437h-119v217h389v-791h129v-217zM707 1446h186v-33q0 -136 -88 -212.5t-227 -76.5q-137 0 -223.5 76.5t-86.5 212.5v33h189v-33q0 -59 34.5 -95t86.5 -36q56 0 92.5 36t36.5 95v33z" />
    <glyph glyph-name="Uring" unicode="&#x16e;" horiz-adv-x="1554" 
d="M852 1655q-41 -29 -91 -19.5t-79 50.5q-29 43 -20.5 94t51.5 80q41 29 91 19.5t79 -52.5q29 -41 20.5 -92t-51.5 -80zM811 1724q13 10 13.5 29.5t-11.5 32.5q-11 12 -28 14t-31 -10q-12 -11 -13 -29t11 -32q11 -13 28 -14.5t31 9.5zM1067 530v703h-170v237h621v-237h-172
v-684q0 -275 -151.5 -419t-414.5 -144q-265 0 -419 144t-154 419v684h-170v237h620v-237h-172v-690q0 -60 14 -109.5t46 -92.5t92 -67t143 -24q141 0 214 78t73 202z" />
    <glyph glyph-name="uring" unicode="&#x16f;" horiz-adv-x="1243" 
d="M666 1192q-41 -29 -91 -19.5t-79 50.5q-30 43 -21 94t51 80q41 29 91 19.5t79 -52.5q30 -41 21 -92t-51 -80zM625 1262q13 10 13.5 29t-11.5 32q-11 12 -28.5 14t-31.5 -10q-12 -11 -13 -29t11 -32q11 -12 28.5 -14t31.5 10zM1190 0h-359l-6 160h-6l-5 -10
q-4 -9 -7.5 -16t-11.5 -20t-16.5 -24t-22.5 -24.5t-29 -24t-36.5 -21.5t-44.5 -18t-53 -11.5t-63 -4.5q-164 0 -262 100t-98 260v445h-129v217h401v-574q0 -102 37.5 -156.5t130.5 -54.5q40 0 73 12.5t52 30.5t32.5 37.5t18.5 32.5t5 18v437h-119v217h389v-791h129v-217z
" />
    <glyph glyph-name="Uhungarumlaut" unicode="&#x170;" horiz-adv-x="1554" 
d="M1067 530v703h-170v237h621v-237h-172v-684q0 -275 -151.5 -419t-414.5 -144q-265 0 -419 144t-154 419v684h-170v237h620v-237h-172v-690q0 -60 14 -109.5t46 -92.5t92 -67t143 -24q141 0 214 78t73 202zM952 1966l-444 -344l-133 158l418 374zM1391 1966l-445 -344
l-133 158l418 374z" />
    <glyph glyph-name="uhungarumlaut" unicode="&#x171;" horiz-adv-x="1243" 
d="M1190 0h-359l-6 160h-6l-5 -10q-4 -9 -7.5 -16t-11.5 -20t-16.5 -24t-22.5 -24.5t-29 -24t-36.5 -21.5t-44.5 -18t-53 -11.5t-63 -4.5q-164 0 -262 100t-98 260v445h-129v217h401v-574q0 -102 37.5 -156.5t130.5 -54.5q40 0 73 12.5t52 30.5t32.5 37.5t18.5 32.5t5 18
v437h-119v217h389v-791h129v-217zM698 1503l-444 -344l-133 158l418 375zM1137 1503l-445 -344l-133 158l418 375z" />
    <glyph glyph-name="Uogonek" unicode="&#x172;" horiz-adv-x="1554" 
d="M1067 530v703h-170v237h621v-237h-172v-684q0 -250 -126 -391.5t-350 -165.5q-114 -70 -114 -152q0 -27 17 -42t44 -15q11 0 23 2t20 4.5t20 8.5l17 8.5t17.5 10t15.5 9.5l57 -96q-37 -34 -94.5 -59t-124.5 -25q-84 0 -132 43.5t-48 117.5q0 63 35 110t86 73
q-233 18 -367.5 161t-134.5 398v684h-170v237h620v-237h-172v-690q0 -60 14 -109.5t46 -92.5t92 -67t143 -24q141 0 214 78t73 202z" />
    <glyph glyph-name="uogonek" unicode="&#x173;" horiz-adv-x="1243" 
d="M1190 0h-72q-29 -15 -54.5 -34t-51 -54t-25.5 -72q0 -27 17.5 -42t44.5 -15q13 0 25.5 2t26.5 8.5t19.5 9t22.5 12.5t18 11l58 -96q-37 -33 -95 -58.5t-125 -25.5q-84 0 -132 43.5t-48 117.5q0 70 45 120.5t105 72.5h-138l-6 160h-6l-5 -10q-4 -9 -7.5 -16t-11.5 -20
t-16.5 -24t-22.5 -24.5t-29 -24t-36.5 -21.5t-44.5 -18t-53 -11.5t-63 -4.5q-164 0 -262 100t-98 260v445h-129v217h401v-574q0 -102 37.5 -156.5t130.5 -54.5q40 0 73 12.5t52 30.5t32.5 37.5t18.5 32.5t5 18v437h-119v217h389v-791h129v-217z" />
    <glyph glyph-name="Wcircumflex" unicode="&#x174;" horiz-adv-x="2093" 
d="M1358 1743l-131 -156l-262 232l-260 -232l-134 156l394 350zM1602 0h-332l-221 956h-11l-215 -956h-331l-357 1233h-147v237h614v-237h-164l207 -864h19l251 1101h259l256 -1101h18l207 864h-164v237h614v-237h-151z" />
    <glyph glyph-name="wcircumflex" unicode="&#x175;" horiz-adv-x="1757" 
d="M1274 1280l-131 -156l-262 232l-260 -232l-134 156l394 350zM1352 0h-344l-127 588h-4l-127 -588h-342l-254 791h-134v217h521v-217h-107l146 -549h4l143 549h-70v217h445v-217h-68l142 -549h4l143 549h-104v217h520v-217h-135z" />
    <glyph glyph-name="Ycircumflex" unicode="&#x176;" horiz-adv-x="1417" 
d="M1022 0h-629v238h174v331q-3 4 -60 97t-160 258t-197 309h-168v237h632v-237h-143l242 -426h10l238 426h-152v237h629v-237h-168q-91 -140 -197.5 -308t-164 -259.5t-62.5 -96.5v-331h176v-238zM1008 1743l-131 -156l-263 232l-260 -232l-133 156l393 350z" />
    <glyph glyph-name="ycircumflex" unicode="&#x177;" horiz-adv-x="1230" 
d="M508 -92l37 102h-109l-284 781h-134v217h496v-217h-86l180 -551h4l185 551h-103v217h520v-217h-137l-317 -885q-30 -84 -51.5 -135t-53.5 -105t-67 -83t-86 -47.5t-115 -18.5q-47 0 -90.5 10t-73.5 25t-57 33.5t-42 33t-26 27.5l-12 12l131 166l3 -4l6.5 -6.5l9 -9
t13 -11t16 -11.5t19 -11t22 -9t25 -6t27.5 -2q58 0 90 37.5t60 116.5zM1004 1280l-132 -156l-262 232l-260 -232l-133 156l393 350z" />
    <glyph glyph-name="Ydieresis" unicode="&#x178;" horiz-adv-x="1417" 
d="M1022 0h-629v238h174v331q-3 4 -60 97t-160 258t-197 309h-168v237h632v-237h-143l242 -426h10l238 426h-152v237h629v-237h-168q-91 -140 -197.5 -308t-164 -259.5t-62.5 -96.5v-331h176v-238zM614 1722q0 -52 -37 -88.5t-90 -36.5q-52 0 -87 36t-35 89t35 90t87 37
q53 0 90 -37.5t37 -89.5zM1004 1722q0 -52 -37 -88.5t-90 -36.5t-89 36.5t-36 88.5q0 53 36.5 90t88.5 37q53 0 90 -37.5t37 -89.5z" />
    <glyph glyph-name="Zacute" unicode="&#x179;" horiz-adv-x="1380" 
d="M1004 1929l-445 -344l-135 158l420 375zM1278 0h-1176v223l801 1010h-538v-211h-263v448h1176v-221l-803 -1011h539v211h264v-449z" />
    <glyph glyph-name="zacute" unicode="&#x17a;" horiz-adv-x="1138" 
d="M948 1466l-444 -344l-135 158l419 375zM1044 0h-950v217l611 574h-400v-162h-211v379h950v-205l-610 -586h400v158h210v-375z" />
    <glyph glyph-name="Zdotaccent" unicode="&#x17b;" horiz-adv-x="1380" 
d="M1278 0h-1176v223l801 1010h-538v-211h-263v448h1176v-221l-803 -1011h539v211h264v-449zM834 1739q0 -51 -36.5 -87t-88.5 -36q-51 0 -87 36t-36 87q0 52 36 88.5t87 36.5q53 0 89 -36t36 -89z" />
    <glyph glyph-name="zdotaccent" unicode="&#x17c;" horiz-adv-x="1138" 
d="M1044 0h-950v217l611 574h-400v-162h-211v379h950v-205l-610 -586h400v158h210v-375zM690 1276q0 -51 -36.5 -87t-88.5 -36q-51 0 -87 36t-36 87q0 52 36 88.5t87 36.5q53 0 89 -36.5t36 -88.5z" />
    <glyph glyph-name="Zcaron" unicode="&#x17d;" horiz-adv-x="1380" 
d="M1100 1954l-393 -350l-394 350l133 155l261 -235l262 235zM1278 0h-1176v223l801 1010h-538v-211h-263v448h1176v-221l-803 -1011h539v211h264v-449z" />
    <glyph glyph-name="zcaron" unicode="&#x17e;" horiz-adv-x="1138" 
d="M956 1491l-393 -350l-393 350l133 156l260 -236l262 236zM1044 0h-950v217l611 574h-400v-162h-211v379h950v-205l-610 -586h400v158h210v-375z" />
    <glyph glyph-name="longs" unicode="&#x17f;" horiz-adv-x="737" 
d="M678 0h-598v217h129v574h-131v217h131v90q0 191 97.5 290t281.5 99q36 0 69.5 -5.5t61.5 -16.5t49.5 -21.5t43 -27t32.5 -25.5t27.5 -25t19.5 -18l-125 -162q-1 1 -12 10t-17 13.5t-20.5 13.5t-27.5 13.5t-32 8.5t-39 4q-69 0 -103 -41t-34 -112v-879h197v-217z" />
    <glyph glyph-name="florin" unicode="&#x192;" horiz-adv-x="1191" 
d="M455 -92v883h-131v217h131v90q0 191 97.5 290t281.5 99q55 0 106 -14.5t82.5 -32.5t60 -41.5t37.5 -34t15 -18.5l-123 -162q-65 65 -148 65q-69 0 -103 -41t-34 -112v-88h289v-217h-289v-883q0 -192 -97.5 -291.5t-281.5 -99.5q-28 0 -55 4t-50 10t-44.5 15t-38.5 18.5
t-33.5 20.5t-28 20.5t-22 19.5t-16.5 16t-10 11l-5 6l125 162q64 -64 147 -64q69 0 103.5 40.5t34.5 111.5z" />
    <glyph glyph-name="AEacute" unicode="&#x1fc;" horiz-adv-x="2115" 
d="M1550 1929l-444 -344l-135 158l420 375zM821 0v238h170v380h-413l-150 -380h166v-238h-606v238h162l401 995h-166v237h1630v-462h-258v225h-487v-377h430v-238h-430v-380h485v225h260v-463h-1194zM991 856v377h-164l-155 -377h319z" />
    <glyph glyph-name="aeacute" unicode="&#x1fd;" horiz-adv-x="1789" 
d="M1292 1466l-444 -344l-135 158l420 375zM1257 -14q-139 0 -255 56t-187 161q-26 -38 -61.5 -73t-86.5 -69.5t-121 -55.5t-147 -21q-154 0 -247 79.5t-93 212.5q0 156 137 235t388 79h143v14q0 93 -49.5 136.5t-149.5 43.5q-68 0 -126.5 -14t-88 -31t-51.5 -31t-26 -14
l-134 170q128 128 352 153q45 5 93 5q240 0 348 -133q68 64 157 98.5t181 34.5q238 0 358.5 -136t120.5 -392v-33h-704q14 -121 91 -183.5t181 -62.5q64 0 122.5 21t96.5 51t59.5 52t28.5 34l142 -152q-9 -16 -27 -38.5t-60 -59t-92.5 -65.5t-128.5 -50.5t-164 -21.5z
M733 344q-6 15 -6 92h-125q-258 0 -258 -112q0 -53 43 -83t113 -30q21 0 40.5 3t36 8t32.5 13t28 15.5t25 18t21 18t17.5 18t14 16t11 14t7.5 9.5zM1014 618h440q-5 79 -57 134t-152 55q-94 0 -155 -47.5t-76 -141.5z" />
    <glyph glyph-name="Oslashacute" unicode="&#x1fe;" horiz-adv-x="1632" 
d="M664 -111h-177l43 150q-203 83 -324.5 269.5t-121.5 434.5q0 141 41 262.5t112 208t164.5 148t199 91.5t216.5 30q59 0 129 -13l37 127h176l-51 -172q196 -78 318 -254t122 -428q0 -171 -56.5 -314.5t-154.5 -240t-232 -149.5t-288 -53q-58 0 -123 10zM385 737
q0 -147 60 -259.5t163 -172.5l264 912q-40 4 -57 4q-84 0 -161 -32.5t-137.5 -92.5t-96 -153t-35.5 -206zM817 250q86 0 164.5 35t137.5 97.5t93.5 154.5t34.5 200q0 148 -58 256t-157 168l-264 -909q16 -2 49 -2zM1217 1946l-445 -344l-135 157l420 375z" />
    <glyph glyph-name="oslashacute" unicode="&#x1ff;" horiz-adv-x="1208" 
d="M389 -61h-119l56 108q-120 64 -186 182.5t-66 276.5q0 236 147.5 376t382.5 140q100 0 201 -33l26 53h119l-49 -96q110 -66 172 -179.5t62 -260.5q0 -236 -145.5 -378t-387.5 -142q-92 0 -178 22zM350 508q0 -151 90 -234l254 500q-46 17 -90 17q-110 0 -182 -77
t-72 -206zM602 215q113 0 184.5 80.5t71.5 212.5q0 128 -74 209l-252 -494q31 -8 70 -8zM1026 1466l-444 -344l-136 158l420 375z" />
    <glyph glyph-name="Scommaaccent" unicode="&#x218;" horiz-adv-x="1392" 
d="M666 -537v64q0 14 16 14q34 0 59 23.5t25 66.5l-4 27q-12 -6 -37 -6q-53 0 -89 36t-36 91q0 54 37 91.5t90 37.5q68 0 107.5 -50t39.5 -139q0 -268 -192 -268q-16 0 -16 12zM356 0h-252v545h281v-56q0 -7 9.5 -30.5t36 -59.5t65 -69t106.5 -56.5t150 -23.5
q111 0 171 44.5t60 117.5q0 46 -36.5 81t-95.5 56.5t-135 45t-155 44.5t-155 56.5t-135 80t-95.5 116.5t-36.5 163q0 188 131.5 308t354.5 120q248 0 374 -140l-8 127h254v-536h-282v72q0 32 -17 67.5t-51 69t-94.5 55t-136.5 21.5q-107 0 -166.5 -46t-59.5 -118
q0 -57 48 -97.5t124.5 -66.5t168.5 -50t184.5 -56.5t169 -76.5t124.5 -119.5t48 -176.5q0 -84 -29.5 -158.5t-88 -135.5t-157.5 -96.5t-227 -35.5q-82 0 -156 19t-121 43.5t-88 57.5t-57.5 51.5t-28.5 35.5z" />
    <glyph glyph-name="scommaaccent" unicode="&#x219;" horiz-adv-x="1050" 
d="M522 -537v64q0 14 17 14q34 0 59 23.5t25 66.5q0 9 -1.5 15.5t-2.5 9.5l-1 2q-11 -6 -36 -6q-53 0 -89 36t-36 91q0 54 37 91.5t90 37.5q68 0 107.5 -50t39.5 -139q0 -268 -192 -268q-17 0 -17 12zM578 -16q-53 0 -103 11.5t-84 28t-60.5 35.5t-39.5 31.5t-15 18.5h-4
q4 -97 4 -109h-196l2 379h215v-53q0 -11 12.5 -30t37.5 -41.5t73 -39t108 -16.5q73 0 112.5 24.5t39.5 71.5q0 30 -31 51t-80.5 34t-109.5 27t-120.5 36t-110 53.5t-80.5 87t-31 129.5q0 138 96.5 223.5t265.5 85.5q188 0 281 -111h4q-6 89 -6 93h184v-373h-217v51
q0 47 -54.5 86t-148.5 39q-61 0 -99 -26t-38 -74q0 -36 32.5 -60t84.5 -38t114.5 -27t125 -34t114.5 -51t84.5 -85.5t32.5 -130.5q0 -57 -21.5 -107.5t-65.5 -94t-123.5 -69.5t-184.5 -26z" />
    <glyph glyph-name="circumflex" unicode="&#x2c6;" horiz-adv-x="878" 
d="M831 1280l-131 -156l-262 232l-260 -232l-133 156l393 350z" />
    <glyph glyph-name="caron" unicode="&#x2c7;" horiz-adv-x="878" 
d="M831 1491l-393 -350l-393 350l133 156l260 -236l262 236z" />
    <glyph glyph-name="breve" unicode="&#x2d8;" horiz-adv-x="743" 
d="M498 1446h186v-33q0 -136 -88 -212.5t-227 -76.5q-137 0 -223.5 76.5t-86.5 212.5v33h189v-33q0 -59 34.5 -95t86.5 -36q56 0 92.5 36t36.5 95v33z" />
    <glyph glyph-name="dotaccent" unicode="&#x2d9;" horiz-adv-x="366" 
d="M307 1276q0 -51 -36.5 -87t-88.5 -36q-51 0 -87 36t-36 87q0 52 36 88.5t87 36.5q52 0 88.5 -36.5t36.5 -88.5z" />
    <glyph glyph-name="ring" unicode="&#x2da;" horiz-adv-x="452" 
d="M297 1192q-41 -29 -91 -19.5t-79 50.5q-29 43 -20.5 94t51.5 80q41 29 91 19.5t79 -52.5q29 -41 20.5 -92t-51.5 -80zM256 1262q13 10 13.5 29t-11.5 32q-11 12 -28 14t-31 -10q-12 -11 -13 -29t11 -32q11 -12 28 -14t31 10z" />
    <glyph glyph-name="ogonek" unicode="&#x2db;" horiz-adv-x="509" 
d="M401 -174l58 -96q-37 -34 -94.5 -59t-124.5 -25q-84 0 -132.5 43.5t-48.5 117.5q0 48 23 88.5t56.5 65t68 38t61.5 13.5h117q-2 0 -17.5 -8t-39 -23.5t-46.5 -35.5t-39 -48t-16 -57q0 -27 17.5 -42t44.5 -15q13 0 25.5 2t26.5 8.5t19.5 9t22.5 12.5t18 11z" />
    <glyph glyph-name="tilde" unicode="&#x2dc;" horiz-adv-x="862" 
d="M649 1448h156v-29q0 -133 -54 -207.5t-163 -74.5q-47 0 -86.5 12.5t-66 30.5t-50 36.5t-49 31t-51.5 12.5q-37 0 -54.5 -23t-17.5 -88v-29h-156v29q0 128 54 201t163 73q46 0 85 -13t65.5 -32t49.5 -37.5t48.5 -32t52.5 -14.5q38 0 56 27t18 98v29z" />
    <glyph glyph-name="hungarumlaut" unicode="&#x2dd;" horiz-adv-x="1110" 
d="M625 1503l-445 -344l-133 158l418 375zM1063 1503l-445 -344l-133 158l418 375z" />
    <glyph glyph-name="Wgrave" unicode="&#x1e80;" horiz-adv-x="2093" 
d="M1602 0h-332l-221 956h-11l-215 -956h-331l-357 1233h-147v237h614v-237h-164l207 -864h19l251 1101h259l256 -1101h18l207 864h-164v237h614v-237h-151zM1305 1743l-134 -158l-444 344l160 189z" />
    <glyph glyph-name="wgrave" unicode="&#x1e81;" horiz-adv-x="1757" 
d="M1352 0h-344l-127 588h-4l-127 -588h-342l-254 791h-134v217h521v-217h-107l146 -549h4l143 549h-70v217h445v-217h-68l142 -549h4l143 549h-104v217h520v-217h-135zM1028 1280l-133 -158l-444 344l159 189z" />
    <glyph glyph-name="Wacute" unicode="&#x1e82;" horiz-adv-x="2093" 
d="M1386 1929l-444 -344l-135 158l420 375zM1602 0h-332l-221 956h-11l-215 -956h-331l-357 1233h-147v237h614v-237h-164l207 -864h19l251 1101h259l256 -1101h18l207 864h-164v237h614v-237h-151z" />
    <glyph glyph-name="wacute" unicode="&#x1e83;" horiz-adv-x="1757" 
d="M1264 1466l-445 -344l-135 158l420 375zM1352 0h-344l-127 588h-4l-127 -588h-342l-254 791h-134v217h521v-217h-107l146 -549h4l143 549h-70v217h445v-217h-68l142 -549h4l143 549h-104v217h520v-217h-135z" />
    <glyph glyph-name="Wdieresis" unicode="&#x1e84;" horiz-adv-x="2093" 
d="M967 1722q0 -52 -37 -88.5t-90 -36.5q-52 0 -87.5 36t-35.5 89t35.5 90t87.5 37t89.5 -37.5t37.5 -89.5zM1356 1722q0 -52 -37 -88.5t-90 -36.5t-89 36.5t-36 88.5q0 53 36.5 90t88.5 37q53 0 90 -37.5t37 -89.5zM1602 0h-332l-221 956h-11l-215 -956h-331l-357 1233
h-147v237h614v-237h-164l207 -864h19l251 1101h259l256 -1101h18l207 864h-164v237h614v-237h-151z" />
    <glyph glyph-name="wdieresis" unicode="&#x1e85;" horiz-adv-x="1757" 
d="M821 1260q0 -52 -37 -88.5t-90 -36.5q-52 0 -87.5 36t-35.5 89t35.5 89.5t87.5 36.5q53 0 90 -37t37 -89zM1210 1260q0 -52 -37 -88.5t-90 -36.5t-89 36.5t-36 88.5q0 53 36.5 89.5t88.5 36.5q53 0 90 -37t37 -89zM1352 0h-344l-127 588h-4l-127 -588h-342l-254 791h-134
v217h521v-217h-107l146 -549h4l143 549h-70v217h445v-217h-68l142 -549h4l143 549h-104v217h520v-217h-135z" />
    <glyph glyph-name="Ygrave" unicode="&#x1ef2;" horiz-adv-x="1417" 
d="M1022 0h-629v238h174v331q-3 4 -60 97t-160 258t-197 309h-168v237h632v-237h-143l242 -426h10l238 426h-152v237h629v-237h-168q-91 -140 -197.5 -308t-164 -259.5t-62.5 -96.5v-331h176v-238zM985 1743l-133 -158l-444 344l159 189z" />
    <glyph glyph-name="ygrave" unicode="&#x1ef3;" horiz-adv-x="1230" 
d="M508 -92l37 102h-109l-284 781h-134v217h496v-217h-86l180 -551h4l185 551h-103v217h520v-217h-137l-317 -885q-30 -84 -51.5 -135t-53.5 -105t-67 -83t-86 -47.5t-115 -18.5q-47 0 -90.5 10t-73.5 25t-57 33.5t-42 33t-26 27.5l-12 12l131 166l3 -4l6.5 -6.5l9 -9
t13 -11t16 -11.5t19 -11t22 -9t25 -6t27.5 -2q58 0 90 37.5t60 116.5zM821 1280l-133 -158l-444 344l159 189z" />
    <glyph glyph-name="endash" unicode="&#x2013;" horiz-adv-x="1292" 
d="M1161 414h-1030v254h1030v-254z" />
    <glyph glyph-name="emdash" unicode="&#x2014;" horiz-adv-x="1953" 
d="M1823 414h-1692v254h1692v-254z" />
    <glyph glyph-name="quoteleft" unicode="&#x2018;" horiz-adv-x="444" 
d="M293 1671v-90h-14q-34 0 -59 -23.5t-25 -66.5l4 -29q10 8 37 8q52 0 87 -36t35 -91q0 -54 -36.5 -91.5t-90.5 -37.5q-68 0 -107.5 50t-39.5 139q0 268 195 268h14z" />
    <glyph glyph-name="quoteright" unicode="&#x2019;" horiz-adv-x="458" 
d="M158 1067v88h14q33 0 58.5 24.5t25.5 67.5l-4 27q-12 -8 -37 -8q-51 0 -87 36.5t-36 90.5t36.5 91.5t90.5 37.5q68 0 108 -50t40 -139q0 -135 -51 -200.5t-144 -65.5h-14z" />
    <glyph glyph-name="quotesinglbase" unicode="&#x201a;" horiz-adv-x="501" 
d="M180 -215v88h17q33 0 58.5 24t25.5 66q0 10 -1.5 17.5t-2.5 9.5l-1 2q-11 -8 -36 -8q-53 0 -89 36.5t-36 90.5t37 91.5t90 37.5q68 0 107.5 -50t39.5 -139q0 -266 -192 -266h-17z" />
    <glyph glyph-name="quotedblleft" unicode="&#x201c;" horiz-adv-x="813" 
d="M662 1671v-88h-15q-33 0 -58.5 -24.5t-25.5 -67.5l4 -27q12 9 37 9q51 0 87 -36.5t36 -90.5t-36.5 -91.5t-90.5 -37.5q-68 0 -107.5 49.5t-39.5 138.5q0 135 50.5 200.5t143.5 65.5h15zM293 1671v-88h-14q-33 0 -58.5 -24.5t-25.5 -67.5l4 -27q10 9 37 9q51 0 86.5 -36.5
t35.5 -90.5t-36.5 -91.5t-90.5 -37.5q-68 0 -107.5 49.5t-39.5 138.5q0 266 195 266h14z" />
    <glyph glyph-name="quotedblright" unicode="&#x201d;" horiz-adv-x="827" 
d="M158 1067v88h14q33 0 58.5 24.5t25.5 67.5l-4 27q-12 -8 -37 -8q-51 0 -87 36.5t-36 90.5t36.5 91.5t90.5 37.5q68 0 108 -50t40 -139q0 -135 -51 -200.5t-144 -65.5h-14zM526 1067v88h15q33 0 58.5 24.5t25.5 67.5l-4 27q-10 -8 -37 -8q-51 0 -87 36.5t-36 90.5
t36.5 91.5t90.5 37.5q68 0 107.5 -50t39.5 -139q0 -135 -50.5 -200.5t-143.5 -65.5h-15z" />
    <glyph glyph-name="quotedblbase" unicode="&#x201e;" horiz-adv-x="860" 
d="M180 -215v88h17q33 0 58.5 24t25.5 66q0 10 -1.5 17.5t-2.5 9.5l-1 2q-11 -8 -36 -8q-53 0 -89 36.5t-36 90.5t37 91.5t90 37.5q68 0 107.5 -50t39.5 -139q0 -266 -192 -266h-17zM543 -215v88h14q33 0 58.5 24t25.5 66l-4 29q-12 -8 -37 -8q-53 0 -89 36.5t-36 90.5
t37.5 91.5t91.5 37.5q67 0 106.5 -50.5t39.5 -138.5q0 -266 -193 -266h-14z" />
    <glyph glyph-name="dagger" unicode="&#x2020;" horiz-adv-x="1067" 
d="M653 -268h-223l-24 1188h-334v254h334v382h272v-382h315v-254h-315z" />
    <glyph glyph-name="daggerdbl" unicode="&#x2021;" horiz-adv-x="1110" 
d="M1014 147h-332l-8 -413h-223l-9 413h-348v254h342l-10 519h-332v254h332v382h272v-382h316v-254h-316l-8 -519h324v-254z" />
    <glyph glyph-name="bullet" unicode="&#x2022;" horiz-adv-x="718" 
d="M358 489q-91 0 -140.5 52.5t-49.5 144.5q0 90 50 144.5t140 54.5q87 0 140 -55.5t53 -143.5q0 -90 -52.5 -143.5t-140.5 -53.5z" />
    <glyph glyph-name="ellipsis" unicode="&#x2026;" horiz-adv-x="1101" 
d="M371 113q0 -55 -37.5 -92t-91.5 -37t-90.5 37t-36.5 92q0 53 36.5 90t90.5 37t91.5 -37t37.5 -90zM682 113q0 -55 -37.5 -92t-91.5 -37t-90.5 37t-36.5 92q0 53 36.5 90t90.5 37t91.5 -37t37.5 -90zM987 113q0 -55 -37.5 -92t-91.5 -37t-90.5 37t-36.5 92q0 53 36.5 90
t90.5 37t91.5 -37t37.5 -90z" />
    <glyph glyph-name="perthousand" unicode="&#x2030;" horiz-adv-x="2363" 
d="M381 735q-142 0 -227.5 99.5t-85.5 279.5q0 174 87.5 271.5t225.5 97.5q139 0 225 -97.5t86 -271.5q0 -180 -84 -279.5t-227 -99.5zM381 903q63 0 97 53t34 154q0 207 -131 207q-64 0 -98.5 -53.5t-34.5 -153.5q0 -99 35 -153t98 -54zM1284 -14q-142 0 -227.5 99.5
t-85.5 279.5q0 173 87.5 270.5t225.5 97.5q139 0 225 -97t86 -271q0 -180 -84 -279.5t-227 -99.5zM1284 154q63 0 97 52.5t34 153.5q0 207 -131 207q-65 0 -100 -53.5t-35 -153.5q0 -99 35.5 -152.5t99.5 -53.5zM666 -152h-201l498 1708h200zM1985 -14q-142 0 -228 99.5
t-86 279.5q0 173 88 270.5t226 97.5q139 0 225 -97t86 -271q0 -180 -84 -279.5t-227 -99.5zM1985 154q63 0 97 52.5t34 153.5q0 207 -131 207q-65 0 -99.5 -53.5t-34.5 -153.5q0 -99 35.5 -152.5t98.5 -53.5z" />
    <glyph glyph-name="fraction" unicode="&#x2044;" horiz-adv-x="755" 
d="M262 -152h-272l497 1708h273z" />
    <glyph glyph-name="zerosuperior" unicode="&#x2070;" horiz-adv-x="815" 
d="M410 735q-143 0 -229.5 100t-86.5 279q0 174 88.5 271.5t227.5 97.5t225 -97.5t86 -271.5q0 -180 -84 -279.5t-227 -99.5zM410 903q63 0 96 53t33 154q0 207 -129 207q-66 0 -101 -53.5t-35 -153.5q0 -99 35.5 -153t100.5 -54z" />
    <glyph glyph-name="Euro" unicode="&#x20ac;" horiz-adv-x="1466" 
d="M78 666h141q-2 20 -2 61t2 61h-141v183h172q67 237 254.5 374.5t437.5 137.5q63 0 124.5 -11.5t106 -27.5t87 -37t66 -37.5t45 -32t22.5 -16.5l-166 -199q-1 1 -15.5 12t-27 20t-38 22.5t-52 22.5t-65 15.5t-79.5 6.5q-123 -1 -224 -68.5t-157 -181.5h529v-183h-578
q-2 -18 -2 -53q0 -46 4 -69h449v-185h-391q58 -107 155.5 -168t214.5 -61q37 0 70.5 4t60 12t47.5 16t38.5 18.5t28 17t21 15t11.5 9.5l166 -197q-1 -1 -22.5 -16.5t-45.5 -32t-66.5 -38t-86.5 -37.5t-105.5 -27.5t-124.5 -11.5q-248 0 -434.5 133.5t-255.5 363.5h-174v185z
" />
    <glyph glyph-name="trademark" unicode="&#x2122;" horiz-adv-x="2242" 
d="M731 592h-397v164h102v549h-151v-140h-166v305h823v-305h-166v140h-145v-549h100v-164zM2105 592h-366v164h76v409h-5l-188 -499h-109l-188 499h-4v-409h76v-164h-367v164h100v549h-100v165h326l155 -389l56 -149h4q26 77 55 149l156 389h323v-165h-100v-549h100v-164z
" />
    <glyph glyph-name="Omega" unicode="&#x2126;" horiz-adv-x="1662" 
d="M1567 0h-649v489q152 0 249 99t97 252q0 118 -62 206.5t-159 131.5t-212 43q-114 0 -211 -43t-159 -131.5t-62 -206.5q0 -153 97 -252t249 -99v-489h-647v217h445v102q-197 48 -320 190.5t-123 336.5q0 123 41 227.5t111 178.5t163.5 127t198.5 78t217 26
q111 0 216.5 -25t199 -77.5t164 -126.5t111.5 -179.5t41 -228.5q0 -194 -123 -336.5t-320 -190.5v-102h447v-217z" />
    <glyph glyph-name="onethird" unicode="&#x2153;" horiz-adv-x="1536" 
d="M602 -152h-205l500 1706h205zM1180 -6q-38 0 -72 5t-60.5 16.5t-46 21t-38 26.5t-27 25t-22.5 25t-15 18l107 94q19 -19 29 -27.5t33.5 -25.5t51.5 -25t60 -8q58 0 90.5 22t32.5 64q0 84 -121 84h-68v119h51q48 0 81.5 20t33.5 66q0 36 -24.5 58t-73.5 22q-45 0 -72 -21
t-27 -57v-16h-151v16q0 105 64.5 165t185.5 60q69 0 122 -19.5t83 -50.5t44.5 -64.5t14.5 -67.5q0 -39 -13.5 -71.5t-33 -51t-34.5 -28.5t-26 -13q125 -43 125 -174q0 -91 -78.5 -149t-205.5 -58zM580 741h-474v138h168v424l-135 -97l-78 111l222 160h155l2 -598h140v-138z
" />
    <glyph glyph-name="partialdiff" unicode="&#x2202;" horiz-adv-x="1304" 
d="M639 928q176 0 291 -68q-3 391 -264 391q-108 0 -157.5 -38t-55.5 -109h-246q0 169 125.5 274t355.5 105q238 0 379 -164t141 -469q0 -407 -175 -635.5t-484 -228.5q-234 0 -361 126t-127 322q0 107 35 196t104 156t181 104.5t258 37.5zM563 217q304 0 357 442
q-115 68 -256 68q-83 0 -147 -24t-102 -65.5t-57.5 -91.5t-19.5 -106q0 -102 58.5 -162.5t166.5 -60.5z" />
    <glyph glyph-name="minus" unicode="&#x2212;" horiz-adv-x="1011" 
d="M874 414h-735v254h735v-254z" />
    <glyph glyph-name="integral" unicode="&#x222b;" horiz-adv-x="1001" 
d="M401 1098q0 191 97.5 290t281.5 99q31 0 61.5 -5t53.5 -11.5t48 -18t40 -20.5t34.5 -24t27.5 -21.5t23 -20.5t17 -16l-124 -164q-70 63 -150 63q-69 0 -103 -41t-34 -112v-1188q0 -192 -97.5 -291.5t-281.5 -99.5q-27 0 -52 3t-47.5 9.5t-40.5 12t-36.5 16.5t-30 17
t-27.5 19t-21.5 17.5t-19 17t-14.5 13.5l125 163q54 -49 135 -49q69 0 102 40.5t33 111.5v1190z" />
    <glyph glyph-name="approxequal" unicode="&#x2248;" horiz-adv-x="1026" 
d="M733 954h154v-28q0 -134 -53.5 -208.5t-163.5 -74.5q-57 0 -104.5 21t-73.5 45.5t-59 45.5t-64 21q-37 0 -55.5 -27.5t-18.5 -95.5v-26h-156v26q0 129 55 203t162 74q46 0 85 -13.5t66 -33t50.5 -39t49 -33t52.5 -14.5q37 0 55.5 28.5t18.5 100.5v28zM733 610h154v-28
q0 -134 -53.5 -208.5t-163.5 -74.5q-57 0 -104.5 21t-73.5 45.5t-59 45.5t-64 21q-37 0 -55.5 -27.5t-18.5 -95.5v-26h-156v26q0 129 55 203t162 74q46 0 85 -13.5t66 -33t50.5 -39t49 -33t52.5 -14.5q37 0 55.5 28.5t18.5 100.5v28z" />
    <glyph glyph-name="notequal" unicode="&#x2260;" horiz-adv-x="1026" 
d="M899 162h-434l-27 -90h-188l24 90h-151v254h227l68 225h-295v256h371l36 119h191l-37 -119h215v-256h-291l-67 -225h358v-254z" />
    <glyph glyph-name="commaaccent" unicode="&#xf6c3;" horiz-adv-x="393" 
d="M125 -537v64q0 14 16 14q34 0 59 23.5t25 66.5l-4 27q-12 -6 -37 -6q-53 0 -89 36t-36 91q0 54 37 91.5t90 37.5q68 0 108 -50t40 -139q0 -135 -50 -201.5t-143 -66.5q-16 0 -16 12z" />
    <glyph glyph-name="a.alt" 
d="M1214 0h-358l-6 180h-6q-13 -32 -34 -61t-56.5 -61.5t-93 -52t-128.5 -19.5q-211 0 -334.5 142.5t-123.5 373.5q0 244 128.5 383t332.5 139q68 0 126 -16.5t93.5 -41.5t56 -46.5t27.5 -38.5h4v125h241v-789h131v-217zM586 213q99 0 167 75.5t68 211.5q0 139 -66 215
t-169 76q-109 0 -176.5 -80t-67.5 -213q0 -128 69 -206.5t175 -78.5z" />
    <glyph glyph-name="aacute.alt" 
d="M963 1466l-445 -344l-135 158l420 375zM1214 0h-358l-6 180h-6q-13 -32 -34 -61t-56.5 -61.5t-93 -52t-128.5 -19.5q-211 0 -334.5 142.5t-123.5 373.5q0 244 128.5 383t332.5 139q68 0 126 -16.5t93.5 -41.5t56 -46.5t27.5 -38.5h4v125h241v-789h131v-217zM586 213
q99 0 167 75.5t68 211.5q0 139 -66 215t-169 76q-109 0 -176.5 -80t-67.5 -213q0 -128 69 -206.5t175 -78.5z" />
    <glyph glyph-name="abreve.alt" 
d="M1214 0h-358l-6 180h-6q-13 -32 -34 -61t-56.5 -61.5t-93 -52t-128.5 -19.5q-211 0 -334.5 142.5t-123.5 373.5q0 244 128.5 383t332.5 139q68 0 126 -16.5t93.5 -41.5t56 -46.5t27.5 -38.5h4v125h241v-789h131v-217zM586 213q99 0 167 75.5t68 211.5q0 139 -66 215
t-169 76q-109 0 -176.5 -80t-67.5 -213q0 -128 69 -206.5t175 -78.5zM760 1446h186v-33q0 -136 -88 -212.5t-227 -76.5q-137 0 -223 76.5t-86 212.5v33h188v-33q0 -59 34.5 -95t86.5 -36q56 0 92.5 36t36.5 95v33z" />
    <glyph glyph-name="acircumflex.alt" 
d="M1049 1280l-131 -156l-263 232l-260 -232l-133 156l393 350zM1214 0h-358l-6 180h-6q-13 -32 -34 -61t-56.5 -61.5t-93 -52t-128.5 -19.5q-211 0 -334.5 142.5t-123.5 373.5q0 244 128.5 383t332.5 139q68 0 126 -16.5t93.5 -41.5t56 -46.5t27.5 -38.5h4v125h241v-789
h131v-217zM586 213q99 0 167 75.5t68 211.5q0 139 -66 215t-169 76q-109 0 -176.5 -80t-67.5 -213q0 -128 69 -206.5t175 -78.5z" />
    <glyph glyph-name="adieresis.alt" 
d="M586 1260q0 -52 -37 -88.5t-90 -36.5q-52 0 -87.5 36t-35.5 89t35.5 89.5t87.5 36.5q53 0 90 -37t37 -89zM975 1260q0 -52 -37 -88.5t-90 -36.5q-52 0 -88.5 36.5t-36.5 88.5q0 53 36.5 89.5t88.5 36.5q53 0 90 -37t37 -89zM1214 0h-358l-6 180h-6q-13 -32 -34 -61
t-56.5 -61.5t-93 -52t-128.5 -19.5q-211 0 -334.5 142.5t-123.5 373.5q0 244 128.5 383t332.5 139q68 0 126 -16.5t93.5 -41.5t56 -46.5t27.5 -38.5h4v125h241v-789h131v-217zM586 213q99 0 167 75.5t68 211.5q0 139 -66 215t-169 76q-109 0 -176.5 -80t-67.5 -213
q0 -128 69 -206.5t175 -78.5z" />
    <glyph glyph-name="agrave.alt" 
d="M1214 0h-358l-6 180h-6q-13 -32 -34 -61t-56.5 -61.5t-93 -52t-128.5 -19.5q-211 0 -334.5 142.5t-123.5 373.5q0 244 128.5 383t332.5 139q68 0 126 -16.5t93.5 -41.5t56 -46.5t27.5 -38.5h4v125h241v-789h131v-217zM586 213q99 0 167 75.5t68 211.5q0 139 -66 215
t-169 76q-109 0 -176.5 -80t-67.5 -213q0 -128 69 -206.5t175 -78.5zM850 1280l-133 -158l-445 344l160 189z" />
    <glyph glyph-name="amacron.alt" 
d="M1214 0h-358l-6 180h-6q-13 -32 -34 -61t-56.5 -61.5t-93 -52t-128.5 -19.5q-211 0 -334.5 142.5t-123.5 373.5q0 244 128.5 383t332.5 139q68 0 126 -16.5t93.5 -41.5t56 -46.5t27.5 -38.5h4v125h241v-789h131v-217zM586 213q99 0 167 75.5t68 211.5q0 139 -66 215
t-169 76q-109 0 -176.5 -80t-67.5 -213q0 -128 69 -206.5t175 -78.5zM961 1126h-709v220h709v-220z" />
    <glyph glyph-name="aogonek.alt" 
d="M1184 -174l57 -96q-37 -34 -94.5 -59t-124.5 -25q-84 0 -132 43.5t-48 117.5q0 71 44.5 121.5t104.5 71.5h-135l-6 180h-6q-13 -32 -34 -61t-56.5 -61.5t-93 -52t-128.5 -19.5q-211 0 -334.5 142.5t-123.5 373.5q0 244 128.5 383t332.5 139q68 0 126 -16.5t93.5 -41.5
t56 -46.5t27.5 -38.5h4v125h241v-789h131v-217h-73q-29 -15 -54.5 -34t-51 -54t-25.5 -72q0 -27 17 -42t44 -15q11 0 23 2t20 4.5t20 8.5l17 8.5t17.5 10t15.5 9.5zM586 213q99 0 167 75.5t68 211.5q0 139 -66 215t-169 76q-109 0 -176.5 -80t-67.5 -213q0 -128 69 -206.5
t175 -78.5z" />
    <glyph glyph-name="aring.alt" 
d="M684 1192q-41 -29 -91 -19.5t-79 50.5q-29 43 -20.5 94t51.5 80q41 29 91 19.5t79 -52.5q29 -41 20.5 -92t-51.5 -80zM643 1262q13 10 13.5 29t-11.5 32q-11 12 -28 14t-31 -10q-12 -11 -13 -29t11 -32q11 -12 28 -14t31 10zM1214 0h-358l-6 180h-6q-13 -32 -34 -61
t-56.5 -61.5t-93 -52t-128.5 -19.5q-211 0 -334.5 142.5t-123.5 373.5q0 244 128.5 383t332.5 139q68 0 126 -16.5t93.5 -41.5t56 -46.5t27.5 -38.5h4v125h241v-789h131v-217zM586 213q99 0 167 75.5t68 211.5q0 139 -66 215t-169 76q-109 0 -176.5 -80t-67.5 -213
q0 -128 69 -206.5t175 -78.5z" />
    <glyph glyph-name="atilde.alt" 
d="M1214 0h-358l-6 180h-6q-13 -32 -34 -61t-56.5 -61.5t-93 -52t-128.5 -19.5q-211 0 -334.5 142.5t-123.5 373.5q0 244 128.5 383t332.5 139q68 0 126 -16.5t93.5 -41.5t56 -46.5t27.5 -38.5h4v125h241v-789h131v-217zM586 213q99 0 167 75.5t68 211.5q0 139 -66 215
t-169 76q-109 0 -176.5 -80t-67.5 -213q0 -128 69 -206.5t175 -78.5zM856 1448h156v-29q0 -133 -54 -207.5t-163 -74.5q-47 0 -86.5 12.5t-66 30.5t-50 36.5t-49 31t-51.5 12.5q-37 0 -54.5 -23t-17.5 -88v-29h-156v29q0 128 54 201t163 73q46 0 85 -13t65.5 -32t49.5 -37.5
t48.5 -32t52.5 -14.5q38 0 56 27t18 98v29z" />
    <glyph glyph-name="y.alt" horiz-adv-x="1206" 
d="M1061 1008v-1024q0 -116 -41.5 -207t-114.5 -147t-168 -84.5t-207 -28.5q-50 0 -96.5 6t-81 14t-70.5 23.5t-57.5 26t-49 30t-37.5 28t-31 26.5t-23 20l125 180q8 -5 33.5 -24t38.5 -27.5t41.5 -23t53.5 -21.5t63 -13t81 -6q136 0 219.5 57t83.5 171v176h-6l-5 -10
q-4 -9 -7.5 -16t-11.5 -20t-16.5 -24t-22.5 -24.5t-29 -24t-36.5 -21.5t-44.5 -18t-53 -11.5t-63 -4.5q-164 0 -260 99.5t-96 260.5v445h-133v217h401v-574q0 -101 38 -155t130 -54q40 0 73 12.5t52 30t32 37t18 32t5 17.5v437h-116v217h389z" />
    <glyph glyph-name="yacute.alt" horiz-adv-x="1206" 
d="M1061 1008v-1024q0 -116 -41.5 -207t-114.5 -147t-168 -84.5t-207 -28.5q-50 0 -96.5 6t-81 14t-70.5 23.5t-57.5 26t-49 30t-37.5 28t-31 26.5t-23 20l125 180q8 -5 33.5 -24t38.5 -27.5t41.5 -23t53.5 -21.5t63 -13t81 -6q136 0 219.5 57t83.5 171v176h-6l-5 -10
q-4 -9 -7.5 -16t-11.5 -20t-16.5 -24t-22.5 -24.5t-29 -24t-36.5 -21.5t-44.5 -18t-53 -11.5t-63 -4.5q-164 0 -260 99.5t-96 260.5v445h-133v217h401v-574q0 -101 38 -155t130 -54q40 0 73 12.5t52 30t32 37t18 32t5 17.5v437h-116v217h389zM887 1466l-445 -344l-135 158
l420 375z" />
    <glyph glyph-name="ycircumflex.alt" horiz-adv-x="1206" 
d="M1061 1008v-1024q0 -116 -41.5 -207t-114.5 -147t-168 -84.5t-207 -28.5q-50 0 -96.5 6t-81 14t-70.5 23.5t-57.5 26t-49 30t-37.5 28t-31 26.5t-23 20l125 180q8 -5 33.5 -24t38.5 -27.5t41.5 -23t53.5 -21.5t63 -13t81 -6q136 0 219.5 57t83.5 171v176h-6l-5 -10
q-4 -9 -7.5 -16t-11.5 -20t-16.5 -24t-22.5 -24.5t-29 -24t-36.5 -21.5t-44.5 -18t-53 -11.5t-63 -4.5q-164 0 -260 99.5t-96 260.5v445h-133v217h401v-574q0 -101 38 -155t130 -54q40 0 73 12.5t52 30t32 37t18 32t5 17.5v437h-116v217h389zM967 1280l-131 -156l-263 232
l-260 -232l-133 156l393 350z" />
    <glyph glyph-name="ydieresis.alt" horiz-adv-x="1206" 
d="M1061 1008v-1024q0 -116 -41.5 -207t-114.5 -147t-168 -84.5t-207 -28.5q-50 0 -96.5 6t-81 14t-70.5 23.5t-57.5 26t-49 30t-37.5 28t-31 26.5t-23 20l125 180q8 -5 33.5 -24t38.5 -27.5t41.5 -23t53.5 -21.5t63 -13t81 -6q136 0 219.5 57t83.5 171v176h-6l-5 -10
q-4 -9 -7.5 -16t-11.5 -20t-16.5 -24t-22.5 -24.5t-29 -24t-36.5 -21.5t-44.5 -18t-53 -11.5t-63 -4.5q-164 0 -260 99.5t-96 260.5v445h-133v217h401v-574q0 -101 38 -155t130 -54q40 0 73 12.5t52 30t32 37t18 32t5 17.5v437h-116v217h389zM514 1260q0 -52 -37 -88.5
t-90 -36.5q-52 0 -87.5 36t-35.5 89t35.5 89.5t87.5 36.5q53 0 90 -37t37 -89zM903 1260q0 -52 -37 -88.5t-90 -36.5q-52 0 -88.5 36.5t-36.5 88.5q0 53 36.5 89.5t88.5 36.5q53 0 90 -37t37 -89z" />
    <glyph glyph-name="ygrave.alt" horiz-adv-x="1206" 
d="M1061 1008v-1024q0 -116 -41.5 -207t-114.5 -147t-168 -84.5t-207 -28.5q-50 0 -96.5 6t-81 14t-70.5 23.5t-57.5 26t-49 30t-37.5 28t-31 26.5t-23 20l125 180q8 -5 33.5 -24t38.5 -27.5t41.5 -23t53.5 -21.5t63 -13t81 -6q136 0 219.5 57t83.5 171v176h-6l-5 -10
q-4 -9 -7.5 -16t-11.5 -20t-16.5 -24t-22.5 -24.5t-29 -24t-36.5 -21.5t-44.5 -18t-53 -11.5t-63 -4.5q-164 0 -260 99.5t-96 260.5v445h-133v217h401v-574q0 -101 38 -155t130 -54q40 0 73 12.5t52 30t32 37t18 32t5 17.5v437h-116v217h389zM737 1280l-133 -158l-444 344
l159 189z" />
    <glyph glyph-name="k.alt" horiz-adv-x="1257" 
d="M571 512h62q63 0 117 14t94.5 52t40.5 96q0 59 -42.5 95t-113.5 36q-123 0 -198.5 -90.5t-75.5 -206.5l-2 -291h116v-217h-516v217h129v1036h-131v217h402v-616q39 65 122.5 115.5t200.5 50.5q177 0 277 -92t100 -226q0 -66 -25 -122t-67.5 -94t-92.5 -63t-106 -38
l189 -168h147v-217h-256l-371 367v145z" />
    <glyph glyph-name="kcommaaccent.alt" horiz-adv-x="1259" 
d="M571 512h62q63 0 117 14t94.5 52t40.5 96q0 59 -42.5 95t-113.5 36q-123 0 -198.5 -90.5t-75.5 -206.5l-2 -291h116v-217h-516v217h129v1036h-131v217h402v-616q39 65 122.5 115.5t200.5 50.5q177 0 277 -92t100 -226q0 -66 -25 -122t-67.5 -94t-92.5 -63t-106 -38
l189 -168h147v-217h-256l-371 367v145zM588 -537v64q0 14 16 14q34 0 59 23.5t25 66.5l-4 27q-12 -6 -37 -6q-53 0 -89 36t-36 91q0 54 37 91.5t90 37.5q68 0 108 -50t40 -139q0 -135 -50 -201.5t-143 -66.5q-16 0 -16 12z" />
    <glyph glyph-name="R.alt" horiz-adv-x="1456" 
d="M1423 0h-94q-87 0 -166 30.5t-134.5 78.5t-102.5 106.5t-77 117.5t-51 107t-30 78l-8 31h-219v-311h209v-238h-658v238h170v995h-170v237h703q224 0 364.5 -129t140.5 -344q0 -148 -74.5 -255.5t-191.5 -147.5q2 -7 7 -20t21.5 -50t36 -70.5t51 -74.5t66 -70.5t82 -50
t97.5 -20.5h28v-238zM541 768h184q145 0 218 52t73 169q0 127 -78 185.5t-213 58.5h-184v-465z" />
    <glyph glyph-name="Racute.alt" horiz-adv-x="1456" 
d="M1016 1929l-445 -344l-135 158l420 375zM1423 0h-94q-87 0 -166 30.5t-134.5 78.5t-102.5 106.5t-77 117.5t-51 107t-30 78l-8 31h-219v-311h209v-238h-658v238h170v995h-170v237h703q224 0 364.5 -129t140.5 -344q0 -148 -74.5 -255.5t-191.5 -147.5q2 -7 7 -20
t21.5 -50t36 -70.5t51 -74.5t66 -70.5t82 -50t97.5 -20.5h28v-238zM541 768h184q145 0 218 52t73 169q0 127 -78 185.5t-213 58.5h-184v-465z" />
    <glyph glyph-name="Rcaron.alt" horiz-adv-x="1456" 
d="M1096 1954l-394 -350l-393 350l133 155l260 -235l263 235zM1423 0h-94q-87 0 -166 30.5t-134.5 78.5t-102.5 106.5t-77 117.5t-51 107t-30 78l-8 31h-219v-311h209v-238h-658v238h170v995h-170v237h703q224 0 364.5 -129t140.5 -344q0 -148 -74.5 -255.5t-191.5 -147.5
q2 -7 7 -20t21.5 -50t36 -70.5t51 -74.5t66 -70.5t82 -50t97.5 -20.5h28v-238zM541 768h184q145 0 218 52t73 169q0 127 -78 185.5t-213 58.5h-184v-465z" />
    <glyph glyph-name="Rcommaaccent.alt" horiz-adv-x="1456" 
d="M662 -537v64q0 14 16 14q34 0 59 23.5t25 66.5l-4 27q-12 -6 -37 -6q-53 0 -89 36t-36 91q0 54 37 91.5t90 37.5q68 0 107.5 -50t39.5 -139q0 -268 -192 -268q-16 0 -16 12zM1423 0h-94q-87 0 -166 30.5t-134.5 78.5t-102.5 106.5t-77 117.5t-51 107t-30 78l-8 31h-219
v-311h209v-238h-658v238h170v995h-170v237h703q224 0 364.5 -129t140.5 -344q0 -148 -74.5 -255.5t-191.5 -147.5q2 -7 7 -20t21.5 -50t36 -70.5t51 -74.5t66 -70.5t82 -50t97.5 -20.5h28v-238zM541 768h184q145 0 218 52t73 169q0 127 -78 185.5t-213 58.5h-184v-465z" />
    <glyph glyph-name="K.alt" horiz-adv-x="1556" 
d="M1485 0h-96q-86 0 -164.5 28.5t-133 67.5t-105.5 101.5t-79 106.5t-57 108t-35 81.5t-16 50.5q-2 4 -2 5h-256v-311h213v-238h-662v238h170v995h-170v237h576v-237h-127v-459h133q194 0 280 106t86 353h-163v237h604v-237h-162q0 -233 -70.5 -374.5t-199.5 -227.5
q0 -1 2 -5q7 -20 14 -37.5t28 -59.5t42.5 -76t56.5 -76.5t72.5 -71t87.5 -48t104 -19.5h29v-238z" />
    <glyph glyph-name="Kcommaaccent.alt" horiz-adv-x="1556" 
d="M750 -537v64q0 14 16 14q34 0 59 23.5t25 66.5l-4 27q-12 -6 -37 -6q-53 0 -89 36t-36 91q0 54 37 91.5t90 37.5q68 0 107.5 -50t39.5 -139q0 -268 -192 -268q-16 0 -16 12zM1485 0h-96q-86 0 -164.5 28.5t-133 67.5t-105.5 101.5t-79 106.5t-57 108t-35 81.5t-16 50.5
q-2 4 -2 5h-256v-311h213v-238h-662v238h170v995h-170v237h576v-237h-127v-459h133q194 0 280 106t86 353h-163v237h604v-237h-162q0 -233 -70.5 -374.5t-199.5 -227.5q0 -1 2 -5q7 -20 14 -37.5t28 -59.5t42.5 -76t56.5 -76.5t72.5 -71t87.5 -48t104 -19.5h29v-238z" />
    <glyph glyph-name="a.alt1" horiz-adv-x="1150" 
d="M1128 0h-358l-6 170h-4q-1 -1 -8.5 -11.5t-15.5 -20.5t-22 -25.5t-30.5 -29t-38 -29.5t-48 -28t-56.5 -22.5t-67 -16t-77 -5.5q-154 0 -246 80t-92 214q0 155 142.5 234.5t394.5 79.5h131v10q0 98 -51.5 141t-149.5 43q-32 0 -84 -7t-59 -13v-123h-229v295q3 3 17 10.5
t47.5 21t76.5 25.5t110 20.5t140 8.5q102 0 182.5 -23t142 -72t94.5 -132t33 -195v-383h131v-217zM727 338v98h-127q-119 0 -188.5 -30t-69.5 -91q0 -50 41 -76t115 -26q125 0 229 125z" />
    <glyph glyph-name="aacute.alt1" horiz-adv-x="1150" 
d="M934 1466l-445 -344l-135 158l420 375zM1128 0h-358l-6 170h-4q-1 -1 -8.5 -11.5t-15.5 -20.5t-22 -25.5t-30.5 -29t-38 -29.5t-48 -28t-56.5 -22.5t-67 -16t-77 -5.5q-154 0 -246 80t-92 214q0 155 142.5 234.5t394.5 79.5h131v10q0 98 -51.5 141t-149.5 43
q-32 0 -84 -7t-59 -13v-123h-229v295q3 3 17 10.5t47.5 21t76.5 25.5t110 20.5t140 8.5q102 0 182.5 -23t142 -72t94.5 -132t33 -195v-383h131v-217zM727 338v98h-127q-119 0 -188.5 -30t-69.5 -91q0 -50 41 -76t115 -26q125 0 229 125z" />
    <glyph glyph-name="abreve.alt1" horiz-adv-x="1150" 
d="M1128 0h-358l-6 170h-4q-1 -1 -8.5 -11.5t-15.5 -20.5t-22 -25.5t-30.5 -29t-38 -29.5t-48 -28t-56.5 -22.5t-67 -16t-77 -5.5q-154 0 -246 80t-92 214q0 155 142.5 234.5t394.5 79.5h131v10q0 98 -51.5 141t-149.5 43q-32 0 -84 -7t-59 -13v-123h-229v295q3 3 17 10.5
t47.5 21t76.5 25.5t110 20.5t140 8.5q102 0 182.5 -23t142 -72t94.5 -132t33 -195v-383h131v-217zM727 338v98h-127q-119 0 -188.5 -30t-69.5 -91q0 -50 41 -76t115 -26q125 0 229 125zM698 1446h187v-33q0 -136 -88.5 -212.5t-227.5 -76.5q-137 0 -223 76.5t-86 212.5v33
h189v-33q0 -59 34 -95t86 -36q56 0 92.5 36t36.5 95v33z" />
    <glyph glyph-name="acircumflex.alt1" horiz-adv-x="1150" 
d="M997 1280l-131 -156l-262 232l-260 -232l-133 156l393 350zM1128 0h-358l-6 170h-4q-1 -1 -8.5 -11.5t-15.5 -20.5t-22 -25.5t-30.5 -29t-38 -29.5t-48 -28t-56.5 -22.5t-67 -16t-77 -5.5q-154 0 -246 80t-92 214q0 155 142.5 234.5t394.5 79.5h131v10q0 98 -51.5 141
t-149.5 43q-32 0 -84 -7t-59 -13v-123h-229v295q3 3 17 10.5t47.5 21t76.5 25.5t110 20.5t140 8.5q102 0 182.5 -23t142 -72t94.5 -132t33 -195v-383h131v-217zM727 338v98h-127q-119 0 -188.5 -30t-69.5 -91q0 -50 41 -76t115 -26q125 0 229 125z" />
    <glyph glyph-name="adieresis.alt1" horiz-adv-x="1150" 
d="M539 1260q0 -52 -37 -88.5t-90 -36.5q-52 0 -87.5 36t-35.5 89t35.5 89.5t87.5 36.5q53 0 90 -37t37 -89zM928 1260q0 -52 -37 -88.5t-90 -36.5t-89 36.5t-36 88.5q0 53 36.5 89.5t88.5 36.5q53 0 90 -37t37 -89zM1128 0h-358l-6 170h-4q-1 -1 -8.5 -11.5t-15.5 -20.5
t-22 -25.5t-30.5 -29t-38 -29.5t-48 -28t-56.5 -22.5t-67 -16t-77 -5.5q-154 0 -246 80t-92 214q0 155 142.5 234.5t394.5 79.5h131v10q0 98 -51.5 141t-149.5 43q-32 0 -84 -7t-59 -13v-123h-229v295q3 3 17 10.5t47.5 21t76.5 25.5t110 20.5t140 8.5q102 0 182.5 -23
t142 -72t94.5 -132t33 -195v-383h131v-217zM727 338v98h-127q-119 0 -188.5 -30t-69.5 -91q0 -50 41 -76t115 -26q125 0 229 125z" />
    <glyph glyph-name="agrave.alt1" horiz-adv-x="1150" 
d="M1128 0h-358l-6 170h-4q-1 -1 -8.5 -11.5t-15.5 -20.5t-22 -25.5t-30.5 -29t-38 -29.5t-48 -28t-56.5 -22.5t-67 -16t-77 -5.5q-154 0 -246 80t-92 214q0 155 142.5 234.5t394.5 79.5h131v10q0 98 -51.5 141t-149.5 43q-32 0 -84 -7t-59 -13v-123h-229v295q3 3 17 10.5
t47.5 21t76.5 25.5t110 20.5t140 8.5q102 0 182.5 -23t142 -72t94.5 -132t33 -195v-383h131v-217zM727 338v98h-127q-119 0 -188.5 -30t-69.5 -91q0 -50 41 -76t115 -26q125 0 229 125zM817 1280l-133 -158l-444 344l159 189z" />
    <glyph glyph-name="amacron.alt1" horiz-adv-x="1150" 
d="M938 1126h-709v220h709v-220zM1128 0h-358l-6 170h-4q-1 -1 -8.5 -11.5t-15.5 -20.5t-22 -25.5t-30.5 -29t-38 -29.5t-48 -28t-56.5 -22.5t-67 -16t-77 -5.5q-154 0 -246 80t-92 214q0 155 142.5 234.5t394.5 79.5h131v10q0 98 -51.5 141t-149.5 43q-32 0 -84 -7t-59 -13
v-123h-229v295q3 3 17 10.5t47.5 21t76.5 25.5t110 20.5t140 8.5q102 0 182.5 -23t142 -72t94.5 -132t33 -195v-383h131v-217zM727 338v98h-127q-119 0 -188.5 -30t-69.5 -91q0 -50 41 -76t115 -26q125 0 229 125z" />
    <glyph glyph-name="aogonek.alt1" horiz-adv-x="1150" 
d="M1128 0h-96q-29 -15 -54.5 -34t-51 -54t-25.5 -72q0 -27 17.5 -42t44.5 -15q13 0 25.5 2t26.5 8.5t19.5 9t22.5 12.5t18 11l58 -96q-37 -33 -95 -58.5t-125 -25.5q-84 0 -132 43.5t-48 117.5q0 70 45 120.5t105 72.5h-113l-6 170h-4q-1 -1 -8.5 -11.5t-15.5 -20.5
t-22 -25.5t-30.5 -29t-38 -29.5t-48 -28t-56.5 -22.5t-67 -16t-77 -5.5q-154 0 -246 80t-92 214q0 155 142.5 234.5t394.5 79.5h131v10q0 98 -51.5 141t-149.5 43q-32 0 -84 -7t-59 -13v-123h-229v295q3 3 17 10.5t47.5 21t76.5 25.5t110 20.5t140 8.5q102 0 182.5 -23
t142 -72t94.5 -132t33 -195v-383h131v-217zM727 338v98h-127q-119 0 -188.5 -30t-69.5 -91q0 -50 41 -76t115 -26q125 0 229 125z" />
    <glyph glyph-name="aring.alt1" horiz-adv-x="1150" 
d="M668 1192q-41 -29 -91 -19.5t-79 50.5q-30 43 -21 94t51 80q41 29 91 19.5t79 -52.5q30 -41 21 -92t-51 -80zM627 1262q13 10 13.5 29t-11.5 32q-11 12 -28.5 14t-31.5 -10q-12 -11 -13 -29t11 -32q11 -12 28.5 -14t31.5 10zM1128 0h-358l-6 170h-4q-1 -1 -8.5 -11.5
t-15.5 -20.5t-22 -25.5t-30.5 -29t-38 -29.5t-48 -28t-56.5 -22.5t-67 -16t-77 -5.5q-154 0 -246 80t-92 214q0 155 142.5 234.5t394.5 79.5h131v10q0 98 -51.5 141t-149.5 43q-32 0 -84 -7t-59 -13v-123h-229v295q3 3 17 10.5t47.5 21t76.5 25.5t110 20.5t140 8.5
q102 0 182.5 -23t142 -72t94.5 -132t33 -195v-383h131v-217zM727 338v98h-127q-119 0 -188.5 -30t-69.5 -91q0 -50 41 -76t115 -26q125 0 229 125z" />
    <glyph glyph-name="atilde.alt1" horiz-adv-x="1150" 
d="M1128 0h-358l-6 170h-4q-1 -1 -8.5 -11.5t-15.5 -20.5t-22 -25.5t-30.5 -29t-38 -29.5t-48 -28t-56.5 -22.5t-67 -16t-77 -5.5q-154 0 -246 80t-92 214q0 155 142.5 234.5t394.5 79.5h131v10q0 98 -51.5 141t-149.5 43q-32 0 -84 -7t-59 -13v-123h-229v295q3 3 17 10.5
t47.5 21t76.5 25.5t110 20.5t140 8.5q102 0 182.5 -23t142 -72t94.5 -132t33 -195v-383h131v-217zM727 338v98h-127q-119 0 -188.5 -30t-69.5 -91q0 -50 41 -76t115 -26q125 0 229 125zM829 1448h156v-29q0 -133 -54 -207.5t-163 -74.5q-47 0 -86.5 12.5t-66 30.5t-50 36.5
t-49 31t-51.5 12.5q-37 0 -54.5 -23t-17.5 -88v-29h-155v29q0 128 54 201t163 73q46 0 85 -13t65.5 -32t49.5 -37.5t48.5 -32t52.5 -14.5q38 0 55.5 27t17.5 98v29z" />
    <glyph glyph-name="A.alt" horiz-adv-x="1486" 
d="M1509 0h-608v238h164l-82 225h-481l-82 -225h166v-238h-606v238h163l467 1232h264l472 -1232h163v-238zM907 666l-159 442h-13l-155 -442h327z" />
    <glyph glyph-name="Aacute.alt" horiz-adv-x="1486" 
d="M1178 1929l-445 -344l-135 158l420 375zM1509 0h-608v238h164l-82 225h-481l-82 -225h166v-238h-606v238h163l467 1232h264l472 -1232h163v-238zM907 666l-159 442h-13l-155 -442h327z" />
    <glyph glyph-name="Abreve.alt" horiz-adv-x="1486" 
d="M1509 0h-608v238h164l-82 225h-481l-82 -225h166v-238h-606v238h163l467 1232h264l472 -1232h163v-238zM907 666l-159 442h-13l-155 -442h327zM870 1909h187v-33q0 -136 -88.5 -212.5t-227.5 -76.5q-137 0 -223 76.5t-86 212.5v33h189v-33q0 -59 34 -95t86 -36
q56 0 92.5 36t36.5 95v33z" />
    <glyph glyph-name="Acircumflex.alt" horiz-adv-x="1486" 
d="M1139 1743l-131 -156l-263 232l-260 -232l-133 156l393 350zM1509 0h-608v238h164l-82 225h-481l-82 -225h166v-238h-606v238h163l467 1232h264l472 -1232h163v-238zM907 666l-159 442h-13l-155 -442h327z" />
    <glyph glyph-name="Adieresis.alt" horiz-adv-x="1486" 
d="M678 1722q0 -52 -37 -88.5t-90 -36.5q-52 0 -87.5 36t-35.5 89t35.5 90t87.5 37q53 0 90 -37.5t37 -89.5zM1067 1722q0 -52 -37 -88.5t-90 -36.5q-52 0 -88.5 36.5t-36.5 88.5q0 53 36.5 90t88.5 37t89.5 -37.5t37.5 -89.5zM1509 0h-608v238h164l-82 225h-481l-82 -225
h166v-238h-606v238h163l467 1232h264l472 -1232h163v-238zM907 666l-159 442h-13l-155 -442h327z" />
    <glyph glyph-name="Agrave.alt" horiz-adv-x="1486" 
d="M1509 0h-608v238h164l-82 225h-481l-82 -225h166v-238h-606v238h163l467 1232h264l472 -1232h163v-238zM907 666l-159 442h-13l-155 -442h327zM918 1743l-134 -158l-444 344l160 189z" />
    <glyph glyph-name="Amacron.alt" horiz-adv-x="1486" 
d="M1509 0h-608v238h164l-82 225h-481l-82 -225h166v-238h-606v238h163l467 1232h264l472 -1232h163v-238zM907 666l-159 442h-13l-155 -442h327zM1100 1589h-709v219h709v-219z" />
    <glyph glyph-name="Aogonek.alt" horiz-adv-x="1486" 
d="M1462 -174l58 -96q-37 -33 -95 -58.5t-125 -25.5q-84 0 -132 43.5t-48 117.5q0 70 45 120.5t105 72.5h-369v238h164l-82 225h-481l-82 -225h166v-238h-606v238h163l467 1232h264l472 -1232h163v-238h-90q-29 -15 -54.5 -34t-51 -54t-25.5 -72q0 -27 17.5 -42t44.5 -15
q13 0 25.5 2t26.5 8.5t19.5 9t22.5 12.5t18 11zM907 666l-159 442h-13l-155 -442h327z" />
    <glyph glyph-name="Aring.alt" horiz-adv-x="1486" 
d="M813 1655q-41 -29 -91 -19.5t-79 50.5q-29 43 -20.5 94t51.5 80q41 29 91 19.5t79 -52.5q29 -41 20.5 -92t-51.5 -80zM772 1724q13 10 13.5 29.5t-11.5 32.5q-11 12 -28 14t-31 -10q-12 -11 -13 -29t11 -32q11 -13 28 -14.5t31 9.5zM1509 0h-608v238h164l-82 225h-481
l-82 -225h166v-238h-606v238h163l467 1232h264l472 -1232h163v-238zM907 666l-159 442h-13l-155 -442h327z" />
    <glyph glyph-name="Atilde.alt" horiz-adv-x="1486" 
d="M1509 0h-608v238h164l-82 225h-481l-82 -225h166v-238h-606v238h163l467 1232h264l472 -1232h163v-238zM907 666l-159 442h-13l-155 -442h327zM967 1911h155v-29q0 -134 -54 -208.5t-163 -74.5q-47 0 -86.5 12.5t-66 30.5t-50 36.5t-49 31t-51.5 12.5q-37 0 -54.5 -22.5
t-17.5 -87.5v-29h-155v29q0 128 54 201t163 73q46 0 85 -13t65.5 -32t49.5 -37.5t48.5 -32t52.5 -14.5q38 0 56 27t18 98v29z" />
    <glyph glyph-name="zero.slash" horiz-adv-x="1447" 
d="M729 -14q-288 0 -458.5 199t-170.5 558q0 176 48 317t132.5 233t199 141t249.5 49t248.5 -49t196.5 -141t129.5 -233t46.5 -317q0 -360 -167.5 -558.5t-453.5 -198.5zM399 737q0 -300 142 -420l256 895q-34 9 -70 9q-158 0 -243 -126t-85 -358zM729 252q155 0 237.5 123
t82.5 362q0 301 -136 418l-256 -895q31 -8 72 -8z" />
    </font>
</defs>
</svg>
